<svg width="119" height="29" viewBox="0 0 119 29" fill="none" xmlns="http://www.w3.org/2000/svg">
<g clip-path="url(#clip0_56_16727)">
<path fill-rule="evenodd" clip-rule="evenodd" d="M17.978 27.7405C17.5737 28.249 16.8275 28.3342 16.3195 27.9303L11.3779 24.0025L12.8471 22.1542L17.7886 26.082C18.2971 26.4858 18.3823 27.2325 17.9785 27.7405H17.978Z" fill="#272727"/>
<path fill-rule="evenodd" clip-rule="evenodd" d="M0.255411 13.5146C1.81576 11.5514 13.9635 2.51172 16.874 0.175392C17.422 -0.26424 18.3864 0.240058 18.525 0.421493C18.9195 0.936956 18.7851 1.66642 18.2789 2.07255C13.3476 6.03064 8.41628 9.98918 3.48496 13.9473C3.01742 14.3227 3.01555 14.2008 3.48403 14.573L6.85547 17.2526L5.38631 19.101L0.444755 15.1731C-0.0637288 14.7693 -0.148864 14.0226 0.254946 13.5146H0.255411Z" fill="#5600E2"/>
<path fill-rule="evenodd" clip-rule="evenodd" d="M18.5002 14.847C16.9398 16.8102 4.79204 25.8499 1.88163 28.1862C1.3336 28.6258 0.369204 28.1216 0.230569 27.9401C-0.163937 27.4247 -0.0294886 26.6952 0.476669 26.2891C5.40799 22.331 10.3393 18.3724 15.2706 14.4143C15.7382 14.0389 15.74 14.1608 15.2716 13.7886L11.9001 11.109L13.3693 9.26065L18.3108 13.1885C18.8193 13.5923 18.9045 14.339 18.5006 14.847H18.5002Z" fill="#272727"/>
<path fill-rule="evenodd" clip-rule="evenodd" d="M0.52006 0.506157C0.924335 -0.0023274 1.67055 -0.0874625 2.17856 0.316348L7.12012 4.24419L5.65096 6.0925L0.709404 2.16466C0.20092 1.76085 0.115785 1.01418 0.519595 0.506157H0.52006Z" fill="#5600E2"/>
</g>
<path d="M29.9629 19.1808L33.8189 7.5008H38.0589L42.0589 19.1808H39.3389L36.1069 9.3088L36.9389 9.6448H34.8749L35.7389 9.3088L32.5869 19.1808H29.9629ZM32.8909 16.2848L33.6909 14.1088H38.2669L39.0829 16.2848H32.8909ZM46.2579 19.4528C45.2445 19.4528 44.4659 19.1275 43.9219 18.4768C43.3779 17.8155 43.1059 16.8235 43.1059 15.5008V10.4128H45.6659V15.6288C45.6659 16.0981 45.7992 16.4715 46.0659 16.7488C46.3325 17.0261 46.6899 17.1648 47.1379 17.1648C47.5965 17.1648 47.9699 17.0208 48.2579 16.7328C48.5459 16.4448 48.6899 16.0555 48.6899 15.5648V10.4128H51.2499V19.1808H49.2179V15.4848H49.3939C49.3939 16.3701 49.2765 17.1115 49.0419 17.7088C48.8179 18.2955 48.4819 18.7328 48.0339 19.0208C47.5859 19.3088 47.0312 19.4528 46.3699 19.4528H46.2579ZM57.5944 19.2928C56.709 19.2928 55.9944 19.1861 55.4504 18.9728C54.9064 18.7488 54.5064 18.3808 54.2504 17.8688C54.005 17.3461 53.8824 16.6421 53.8824 15.7568V8.0448H56.2664V15.8528C56.2664 16.2688 56.373 16.5888 56.5864 16.8128C56.8104 17.0261 57.125 17.1328 57.5304 17.1328H58.8264V19.2928H57.5944ZM52.5544 12.2848V10.4128H58.8264V12.2848H52.5544ZM60.5479 19.1808V7.5008H63.1079V14.2368H62.7239C62.7239 13.3515 62.8359 12.6048 63.0599 11.9968C63.2839 11.3888 63.6145 10.9301 64.0519 10.6208C64.4892 10.3008 65.0385 10.1408 65.6999 10.1408H65.8119C66.7825 10.1408 67.5239 10.4875 68.0359 11.1808C68.5479 11.8635 68.8039 12.8661 68.8039 14.1888V19.1808H66.2439V14.0288C66.2439 13.5488 66.0999 13.1648 65.8119 12.8768C65.5345 12.5781 65.1665 12.4288 64.7079 12.4288C64.2279 12.4288 63.8385 12.5835 63.5399 12.8928C63.2519 13.2021 63.1079 13.6128 63.1079 14.1248V19.1808H60.5479Z" fill="#5600E2"/>
<path d="M73.0334 19.1808L70.1534 7.5008H72.8574L75.1134 17.4208L74.5534 17.0528H76.0094L75.3854 17.4208L77.1294 7.9328H79.3054L77.0174 19.1808H73.0334ZM79.9934 19.1808L77.5294 7.9328H79.8174L81.8334 17.4208L81.2254 17.0528H82.6174L82.0894 17.4208L84.0574 7.5008H86.6174L84.0574 19.1808H79.9934ZM88.3545 19.1808V10.4128H90.9145V19.1808H88.3545ZM87.1865 12.3008V10.4128H90.9145V12.3008H87.1865ZM89.3465 9.5488C88.8665 9.5488 88.5092 9.42613 88.2745 9.1808C88.0505 8.9248 87.9385 8.6048 87.9385 8.2208C87.9385 7.82613 88.0505 7.50613 88.2745 7.2608C88.5092 7.0048 88.8665 6.8768 89.3465 6.8768C89.8265 6.8768 90.1785 7.0048 90.4025 7.2608C90.6372 7.50613 90.7545 7.82613 90.7545 8.2208C90.7545 8.6048 90.6372 8.9248 90.4025 9.1808C90.1785 9.42613 89.8265 9.5488 89.3465 9.5488ZM99.4583 19.1808L96.6903 15.0848H95.4583L99.0263 10.4128H101.714L98.3543 14.7648L98.3863 13.5168L102.338 19.1808H99.4583ZM93.2823 19.1808V7.5008H95.8423V19.1808H93.2823ZM109.677 19.1808L106.909 15.0848H105.677L109.245 10.4128H111.933L108.573 14.7648L108.605 13.5168L112.557 19.1808H109.677ZM103.501 19.1808V7.5008H106.061V19.1808H103.501ZM114.136 19.1808V10.4128H116.696V19.1808H114.136ZM112.968 12.3008V10.4128H116.696V12.3008H112.968ZM115.128 9.5488C114.648 9.5488 114.29 9.42613 114.056 9.1808C113.832 8.9248 113.72 8.6048 113.72 8.2208C113.72 7.82613 113.832 7.50613 114.056 7.2608C114.29 7.0048 114.648 6.8768 115.128 6.8768C115.608 6.8768 115.96 7.0048 116.184 7.2608C116.418 7.50613 116.536 7.82613 116.536 8.2208C116.536 8.6048 116.418 8.9248 116.184 9.1808C115.96 9.42613 115.608 9.5488 115.128 9.5488Z" fill="#272727"/>
<defs>
<clipPath id="clip0_56_16727">
<rect width="18.755" height="28.3616" fill="white"/>
</clipPath>
</defs>
</svg>
