<svg width="108" height="29" viewBox="0 0 108 29" fill="none" xmlns="http://www.w3.org/2000/svg">
<g clip-path="url(#clip0_295_13029)">
<path fill-rule="evenodd" clip-rule="evenodd" d="M17.9775 27.7405C17.5732 28.249 16.827 28.3341 16.319 27.9303L11.3774 24.0025L12.8466 22.1542L17.7882 26.082C18.2966 26.4858 18.3818 27.2325 17.978 27.7405H17.9775Z" fill="#272727"/>
<path fill-rule="evenodd" clip-rule="evenodd" d="M0.255411 13.5146C1.81576 11.5513 13.9635 2.51168 16.874 0.175346C17.422 -0.264285 18.3864 0.240012 18.525 0.421447C18.9195 0.93691 18.7851 1.66637 18.2789 2.07251C13.3476 6.03059 8.41628 9.98914 3.48496 13.9472C3.01742 14.3227 3.01555 14.2008 3.48403 14.5729L6.85547 17.2526L5.38631 19.1009L0.444755 15.1731C-0.0637288 14.7693 -0.148864 14.0226 0.254946 13.5146H0.255411Z" fill="#5600E2"/>
<path fill-rule="evenodd" clip-rule="evenodd" d="M18.5002 14.847C16.9398 16.8102 4.79204 25.8499 1.88163 28.1862C1.3336 28.6258 0.369204 28.1215 0.230569 27.9401C-0.163937 27.4246 -0.0294886 26.6952 0.476669 26.289C5.40799 22.3309 10.3393 18.3724 15.2706 14.4143C15.7382 14.0389 15.74 14.1608 15.2716 13.7886L11.9001 11.1089L13.3693 9.26062L18.3108 13.1885C18.8193 13.5923 18.9045 14.3389 18.5006 14.847H18.5002Z" fill="#272727"/>
<path fill-rule="evenodd" clip-rule="evenodd" d="M0.519572 0.506157C0.923847 -0.0023274 1.67006 -0.0874625 2.17808 0.316348L7.11963 4.24419L5.65047 6.0925L0.708916 2.16466C0.200431 1.76085 0.115296 1.01418 0.519106 0.506157H0.519572Z" fill="#5600E2"/>
</g>
<path d="M29.9629 19.1808L33.8189 7.50079H38.0589L42.0589 19.1808H39.3389L36.1069 9.30879L36.9389 9.64479H34.8749L35.7389 9.30879L32.5869 19.1808H29.9629ZM32.8909 16.2848L33.6909 14.1088H38.2669L39.0829 16.2848H32.8909ZM46.2579 19.4528C45.2445 19.4528 44.4659 19.1275 43.9219 18.4768C43.3779 17.8155 43.1059 16.8235 43.1059 15.5008V10.4128H45.6659V15.6288C45.6659 16.0981 45.7992 16.4715 46.0659 16.7488C46.3325 17.0261 46.6899 17.1648 47.1379 17.1648C47.5965 17.1648 47.9699 17.0208 48.2579 16.7328C48.5459 16.4448 48.6899 16.0555 48.6899 15.5648V10.4128H51.2499V19.1808H49.2179V15.4848H49.3939C49.3939 16.3701 49.2765 17.1115 49.0419 17.7088C48.8179 18.2955 48.4819 18.7328 48.0339 19.0208C47.5859 19.3088 47.0312 19.4528 46.3699 19.4528H46.2579ZM57.5944 19.2928C56.709 19.2928 55.9944 19.1861 55.4504 18.9728C54.9064 18.7488 54.5064 18.3808 54.2504 17.8688C54.005 17.3461 53.8824 16.6421 53.8824 15.7568V8.04479H56.2664V15.8528C56.2664 16.2688 56.373 16.5888 56.5864 16.8128C56.8104 17.0261 57.125 17.1328 57.5304 17.1328H58.8264V19.2928H57.5944ZM52.5544 12.2848V10.4128H58.8264V12.2848H52.5544ZM60.5479 19.1808V7.50079H63.1079V14.2368H62.7239C62.7239 13.3515 62.8359 12.6048 63.0599 11.9968C63.2839 11.3888 63.6145 10.9301 64.0519 10.6208C64.4892 10.3008 65.0385 10.1408 65.6999 10.1408H65.8119C66.7825 10.1408 67.5239 10.4875 68.0359 11.1808C68.5479 11.8635 68.8039 12.8661 68.8039 14.1888V19.1808H66.2439V14.0288C66.2439 13.5488 66.0999 13.1648 65.8119 12.8768C65.5345 12.5781 65.1665 12.4288 64.7079 12.4288C64.2279 12.4288 63.8385 12.5835 63.5399 12.8928C63.2519 13.2021 63.1079 13.6128 63.1079 14.1248V19.1808H60.5479Z" fill="#5600E2"/>
<path d="M73.0334 19.1808L70.1534 7.50079H72.8574L75.1134 17.4208L74.5534 17.0528H76.0094L75.3854 17.4208L77.1294 7.93279H79.3054L77.0174 19.1808H73.0334ZM79.9934 19.1808L77.5294 7.93279H79.8174L81.8334 17.4208L81.2254 17.0528H82.6174L82.0894 17.4208L84.0574 7.50079H86.6174L84.0574 19.1808H79.9934ZM88.3545 19.1808V10.4128H90.9145V19.1808H88.3545ZM87.1865 12.3008V10.4128H90.9145V12.3008H87.1865ZM89.3465 9.54879C88.8665 9.54879 88.5092 9.42612 88.2745 9.18079C88.0505 8.92479 87.9385 8.60479 87.9385 8.22079C87.9385 7.82612 88.0505 7.50612 88.2745 7.26079C88.5092 7.00479 88.8665 6.87679 89.3465 6.87679C89.8265 6.87679 90.1785 7.00479 90.4025 7.26079C90.6372 7.50612 90.7545 7.82612 90.7545 8.22079C90.7545 8.60479 90.6372 8.92479 90.4025 9.18079C90.1785 9.42612 89.8265 9.54879 89.3465 9.54879ZM99.4583 19.1808L96.6903 15.0848H95.4583L99.0263 10.4128H101.714L98.3543 14.7648L98.3863 13.5168L102.338 19.1808H99.4583ZM93.2823 19.1808V7.50079H95.8423V19.1808H93.2823ZM103.917 19.1808V10.4128H106.477V19.1808H103.917ZM102.749 12.3008V10.4128H106.477V12.3008H102.749ZM104.909 9.54879C104.429 9.54879 104.072 9.42612 103.837 9.18079C103.613 8.92479 103.501 8.60479 103.501 8.22079C103.501 7.82612 103.613 7.50612 103.837 7.26079C104.072 7.00479 104.429 6.87679 104.909 6.87679C105.389 6.87679 105.741 7.00479 105.965 7.26079C106.2 7.50612 106.317 7.82612 106.317 8.22079C106.317 8.60479 106.2 8.92479 105.965 9.18079C105.741 9.42612 105.389 9.54879 104.909 9.54879Z" fill="#272727"/>
<defs>
<clipPath id="clip0_295_13029">
<rect width="18.755" height="28.3616" fill="white"/>
</clipPath>
</defs>
</svg>
