<svg width="195" height="55" viewBox="0 0 195 55" fill="none" xmlns="http://www.w3.org/2000/svg">
<path fill-rule="evenodd" clip-rule="evenodd" d="M34.9853 53.5275C34.1986 54.5035 32.7464 54.6669 31.7577 53.8918L22.1411 46.3524L25.0002 42.8046L34.6168 50.344C35.6064 51.1191 35.7721 52.5524 34.9862 53.5275H34.9853Z" fill="white"/>
<path fill-rule="evenodd" clip-rule="evenodd" d="M0.497049 26.2212C3.53359 22.4528 27.1741 5.10129 32.838 0.616737C33.9045 -0.227131 35.7813 0.740861 36.0511 1.08912C36.8188 2.07855 36.5571 3.47874 35.5721 4.25832C25.9754 11.8558 16.3787 19.4542 6.78199 27.0517C5.87211 27.7723 5.86849 27.5384 6.78018 28.2527L13.3413 33.3963L10.4822 36.9441L0.865527 29.4047C-0.124021 28.6296 -0.2897 27.1963 0.496144 26.2212H0.497049Z" fill="#CBB0F6"/>
<path fill-rule="evenodd" clip-rule="evenodd" d="M36.0023 28.7785C32.9657 32.5469 9.32523 49.8984 3.66136 54.3829C2.59485 55.2268 0.718062 54.2588 0.448268 53.9106C-0.319469 52.9211 -0.0578226 51.5209 0.927198 50.7414C10.5239 43.1439 20.1206 35.5455 29.7173 27.948C30.6272 27.2274 30.6308 27.4613 29.7191 26.7469L23.1581 21.6034L26.0172 18.0555L35.6338 25.595C36.6233 26.3701 36.789 27.8033 36.0032 28.7785H36.0023Z" fill="white"/>
<path fill-rule="evenodd" clip-rule="evenodd" d="M1.01121 1.25141C1.79796 0.275378 3.25014 0.111963 4.23878 0.887071L13.8554 8.42652L10.9963 11.9743L1.37969 4.43489C0.390139 3.65978 0.22446 2.22654 1.0103 1.25141H1.01121Z" fill="#CBB0F6"/>
<path d="M57.863 37L64.611 16.56H72.031L79.031 37H74.271L68.615 19.724L70.071 20.312H66.459L67.971 19.724L62.455 37H57.863ZM62.987 31.932L64.387 28.124H72.395L73.823 31.932H62.987ZM86.3793 37.476C84.6059 37.476 83.2433 36.9067 82.2913 35.768C81.3393 34.6107 80.8633 32.8747 80.8633 30.56V21.656H85.3433V30.784C85.3433 31.6053 85.5766 32.2587 86.0433 32.744C86.5099 33.2293 87.1353 33.472 87.9193 33.472C88.7219 33.472 89.3753 33.22 89.8793 32.716C90.3833 32.212 90.6353 31.5307 90.6353 30.672V21.656H95.1153V37H91.5593V30.532H91.8673C91.8673 32.0813 91.6619 33.3787 91.2513 34.424C90.8593 35.4507 90.2713 36.216 89.4873 36.72C88.7033 37.224 87.7326 37.476 86.5753 37.476H86.3793ZM106.218 37.196C104.669 37.196 103.418 37.0093 102.466 36.636C101.514 36.244 100.814 35.6 100.366 34.704C99.9368 33.7893 99.7221 32.5573 99.7221 31.008V17.512H103.894V31.176C103.894 31.904 104.081 32.464 104.454 32.856C104.846 33.2293 105.397 33.416 106.106 33.416H108.374V37.196H106.218ZM97.3981 24.932V21.656H108.374V24.932H97.3981ZM111.387 37V16.56H115.867V28.348H115.195C115.195 26.7987 115.391 25.492 115.783 24.428C116.175 23.364 116.753 22.5613 117.519 22.02C118.284 21.46 119.245 21.18 120.403 21.18H120.599C122.297 21.18 123.595 21.7867 124.491 23C125.387 24.1947 125.835 25.9493 125.835 28.264V37H121.355V27.984C121.355 27.144 121.103 26.472 120.599 25.968C120.113 25.4453 119.469 25.184 118.667 25.184C117.827 25.184 117.145 25.4547 116.623 25.996C116.119 26.5373 115.867 27.256 115.867 28.152V37H111.387Z" fill="#CBB0F6"/>
<path d="M133.236 37L128.196 16.56H132.928L136.876 33.92L135.896 33.276H138.444L137.352 33.92L140.404 17.316H144.212L140.208 37H133.236ZM145.416 37L141.104 17.316H145.108L148.636 33.92L147.572 33.276H150.008L149.084 33.92L152.528 16.56H157.008L152.528 37H145.416ZM160.048 37V21.656H164.528V37H160.048ZM158.004 24.96V21.656H164.528V24.96H158.004ZM161.784 20.144C160.944 20.144 160.319 19.9293 159.908 19.5C159.516 19.052 159.32 18.492 159.32 17.82C159.32 17.1293 159.516 16.5693 159.908 16.14C160.319 15.692 160.944 15.468 161.784 15.468C162.624 15.468 163.24 15.692 163.632 16.14C164.043 16.5693 164.248 17.1293 164.248 17.82C164.248 18.492 164.043 19.052 163.632 19.5C163.24 19.9293 162.624 20.144 161.784 20.144ZM179.48 37L174.636 29.832H172.48L178.724 21.656H183.428L177.548 29.272L177.604 27.088L184.52 37H179.48ZM168.672 37V16.56H173.152V37H168.672ZM187.283 37V21.656H191.763V37H187.283ZM185.239 24.96V21.656H191.763V24.96H185.239ZM189.019 20.144C188.179 20.144 187.553 19.9293 187.143 19.5C186.751 19.052 186.555 18.492 186.555 17.82C186.555 17.1293 186.751 16.5693 187.143 16.14C187.553 15.692 188.179 15.468 189.019 15.468C189.859 15.468 190.475 15.692 190.867 16.14C191.277 16.5693 191.483 17.1293 191.483 17.82C191.483 18.492 191.277 19.052 190.867 19.5C190.475 19.9293 189.859 20.144 189.019 20.144Z" fill="#EEE6FC"/>
</svg>
