<svg width="649" height="662" viewBox="0 0 649 662" fill="none" xmlns="http://www.w3.org/2000/svg">
<path d="M324.5 662C503.716 662 649 578.211 649 474.851C649 371.491 503.716 287.702 324.5 287.702C145.284 287.702 0 371.491 0 474.851C0 578.211 145.284 662 324.5 662Z" fill="#F5F5F5"/>
<path d="M99.2897 511.986C119.128 511.986 135.211 502.711 135.211 491.27C135.211 479.828 119.128 470.553 99.2897 470.553C79.4511 470.553 63.3687 479.828 63.3687 491.27C63.3687 502.711 79.4511 511.986 99.2897 511.986Z" fill="#E6E6E6"/>
<path d="M375.924 380.213L139.834 516.386C138.922 516.89 138.162 517.629 137.633 518.526C137.103 519.422 136.824 520.444 136.824 521.485C136.824 522.526 137.103 523.548 137.633 524.445C138.162 525.342 138.922 526.08 139.834 526.584L278.588 606.61C282.076 608.621 286.032 609.68 290.059 609.68C294.086 609.68 298.042 608.621 301.529 606.61L537.62 470.451C538.531 469.947 539.291 469.208 539.821 468.312C540.35 467.415 540.629 466.393 540.629 465.352C540.629 464.311 540.35 463.289 539.821 462.393C539.291 461.496 538.531 460.757 537.62 460.253L398.879 380.213C395.39 378.199 391.432 377.138 387.402 377.138C383.372 377.138 379.413 378.199 375.924 380.213V380.213Z" fill="#E6E6E6"/>
<path d="M305.03 381.538L210.524 436.054C208.624 437.146 207.047 438.719 205.95 440.615C204.853 442.51 204.275 444.66 204.275 446.85C204.275 449.039 204.853 451.189 205.95 453.085C207.047 454.98 208.624 456.553 210.524 457.645L258.112 485.092C261.262 486.904 264.833 487.857 268.467 487.857C272.102 487.857 275.672 486.904 278.822 485.092L373.343 430.576C375.238 429.481 376.812 427.907 377.906 426.012C379.001 424.118 379.577 421.969 379.577 419.781C379.577 417.594 379.001 415.445 377.906 413.55C376.812 411.655 375.238 410.081 373.343 408.986L325.74 381.538C322.592 379.72 319.021 378.762 315.385 378.762C311.749 378.762 308.177 379.72 305.03 381.538V381.538Z" fill="#E6E6E6"/>
<path d="M275.132 369.723L295.419 493.397C295.568 494.301 296.034 495.123 296.734 495.716C297.434 496.308 298.323 496.633 299.24 496.631V496.631C299.783 496.63 300.319 496.515 300.815 496.293C301.31 496.072 301.753 495.748 302.115 495.344C302.477 494.94 302.749 494.465 302.915 493.948C303.08 493.432 303.135 492.887 303.076 492.348L288.842 364.755L275.132 369.723Z" fill="#263238"/>
<path d="M101.186 437.715C101.186 437.715 78.9884 416.051 91.6184 379.775C98.6918 359.452 122.158 344.519 135.517 343.121C131.094 348.37 127.566 354.311 125.075 360.705L108.244 371.879L123.718 367.042L120.422 380.271C120.422 380.271 106.042 389.012 103.913 390.848L119.416 386.725C119.416 386.725 118.22 424.195 101.186 437.715Z" fill="#BA68C8"/>
<path d="M101.186 437.715C101.186 437.715 78.9884 416.051 91.6184 379.775C98.6918 359.452 122.158 344.519 135.517 343.121C131.094 348.37 127.566 354.311 125.075 360.705L108.244 371.879L123.718 367.042L120.422 380.271C120.422 380.271 106.042 389.012 103.913 390.848L119.416 386.725C119.416 386.725 118.22 424.195 101.186 437.715Z" fill="#7833E8"/>
<path d="M101.186 437.715C101.186 437.715 89.6929 392.392 106.7 365.964C106.7 365.906 86.7758 389.231 101.186 437.715Z" fill="white"/>
<path d="M126.591 443.79L99.4208 443.441H99.1437L71.9878 443.79C71.9878 443.79 71.6815 477.211 81.9926 490.803C84.9094 494.431 91.5161 496.966 99.2895 496.966C107.063 496.966 113.757 494.416 116.601 490.789C126.883 477.182 126.591 443.79 126.591 443.79Z" fill="#37474F"/>
<path d="M99.29 458.432C114.368 458.432 126.592 451.876 126.592 443.79C126.592 435.704 114.368 429.149 99.29 429.149C84.2117 429.149 71.9883 435.704 71.9883 443.79C71.9883 451.876 84.2117 458.432 99.29 458.432Z" fill="#455A64"/>
<path d="M99.2897 439.9C108.682 439.9 116.63 442.916 119.431 447.083C120.121 446.122 120.503 444.973 120.524 443.79C120.524 437.963 111.015 433.315 99.2897 433.315C87.564 433.315 78.0259 438.007 78.0259 443.79C78.0504 444.971 78.4261 446.117 79.1051 447.083C81.9345 442.916 89.8975 439.9 99.2897 439.9Z" fill="#263238"/>
<path d="M99.2898 454.265C110.413 454.265 119.431 451.049 119.431 447.083C119.431 443.116 110.413 439.9 99.2898 439.9C88.1663 439.9 79.1489 443.116 79.1489 447.083C79.1489 451.049 88.1663 454.265 99.2898 454.265Z" fill="#E0E0E0"/>
<path d="M99.6251 448.889C99.6251 448.889 89.0953 448.481 80.0822 434.524C76.3486 428.77 74.5547 425.783 74.5547 425.783L89.139 424.691L72.7171 420.597L64.9583 408.738L78.5946 407.718C78.5946 407.718 68.3856 404.163 61.1955 404.12C61.1955 404.12 48.6093 381.932 44.9341 378.77C54.4451 379.354 63.7424 381.836 72.2768 386.07C80.8112 390.304 88.4095 396.203 94.6227 403.42C115.362 427.794 102.688 449.516 99.6251 448.889Z" fill="#7833E8"/>
<path d="M99.6254 448.889C99.6254 448.889 106.203 409.292 64.2148 385.486C64.2148 385.486 107.793 406.392 99.6254 448.889Z" fill="white"/>
<path d="M99.6251 448.889C99.6251 448.889 109.149 449.501 118.585 437.759C122.479 432.922 124.418 430.358 124.418 430.358L111.293 427.998L126.489 425.842L134.613 415.862L122.406 413.662C122.406 413.662 131.9 411.419 138.448 412.06C138.448 412.06 151.895 393.208 155.512 390.702C146.875 390.338 138.253 391.706 130.155 394.726C122.056 397.747 114.646 402.357 108.361 408.286C87.4035 428.377 96.7957 449.166 99.6251 448.889Z" fill="#BA68C8"/>
<path d="M99.6251 448.889C99.6251 448.889 109.149 449.501 118.585 437.759C122.479 432.922 124.418 430.358 124.418 430.358L111.293 427.998L126.489 425.842L134.613 415.862L122.406 413.662C122.406 413.662 131.9 411.419 138.448 412.06C138.448 412.06 151.895 393.208 155.512 390.702C146.875 390.338 138.253 391.706 130.155 394.726C122.056 397.747 114.646 402.357 108.361 408.286C87.4035 428.377 96.7957 449.166 99.6251 448.889Z" fill="#8E54EC"/>
<path d="M99.6252 448.889C99.6252 448.889 97.4084 412.555 137.544 394.985C137.544 395.014 96.2562 409.787 99.6252 448.889Z" fill="white"/>
<path d="M243.995 340.804L223.971 447.374C223.837 448.121 223.443 448.797 222.858 449.282C222.274 449.767 221.537 450.031 220.777 450.026C220.309 450.024 219.847 449.922 219.422 449.727C218.998 449.532 218.62 449.248 218.314 448.895C218.008 448.541 217.782 448.126 217.651 447.678C217.52 447.23 217.487 446.758 217.554 446.296L232.342 347.52L243.995 340.804Z" fill="#263238"/>
<path d="M345.166 328.13L365.467 451.803C365.613 452.706 366.076 453.528 366.774 454.121C367.472 454.714 368.358 455.039 369.274 455.037C369.818 455.037 370.356 454.921 370.852 454.699C371.348 454.476 371.792 454.152 372.154 453.746C372.516 453.34 372.789 452.863 372.953 452.345C373.118 451.827 373.171 451.28 373.109 450.74L358.875 323.162L345.166 328.13Z" fill="#263238"/>
<path d="M314.816 301.047L294.908 406.961C294.774 407.708 294.38 408.384 293.796 408.869C293.212 409.354 292.474 409.617 291.715 409.612C291.248 409.61 290.788 409.509 290.364 409.315C289.941 409.121 289.563 408.838 289.258 408.486C288.953 408.134 288.726 407.721 288.594 407.275C288.462 406.828 288.427 406.358 288.491 405.897L303.163 307.748L314.816 301.047Z" fill="#263238"/>
<path d="M309.041 292.976C304.45 290.947 300.481 287.737 297.537 283.676C294.593 279.614 292.78 274.845 292.284 269.855C289.06 237.396 277.612 170.526 238.847 192.787C190.981 220.263 208.118 300.056 215.074 325.639C216.621 331.402 219.636 336.667 223.825 340.921C232.473 349.662 250.368 364.61 280.82 377.343C284.556 378.902 288.71 379.148 292.604 378.042C307.728 373.744 347.237 360.56 366.984 335.356C368.102 333.927 368.61 332.115 368.397 330.314C368.184 328.513 367.267 326.87 365.847 325.741C357.869 319.418 339.828 306.699 309.041 292.976Z" fill="#BA68C8"/>
<path opacity="0.5" d="M309.041 292.976C304.45 290.947 300.481 287.737 297.537 283.676C294.593 279.614 292.78 274.845 292.284 269.855C289.06 237.396 277.612 170.526 238.847 192.787C190.981 220.263 208.118 300.056 215.074 325.639C216.621 331.402 219.636 336.667 223.825 340.921C232.473 349.662 250.368 364.61 280.82 377.343C284.556 378.902 288.71 379.148 292.604 378.042C307.728 373.744 347.237 360.56 366.984 335.356C368.102 333.927 368.61 332.115 368.397 330.314C368.184 328.513 367.267 326.87 365.847 325.741C357.869 319.418 339.828 306.699 309.041 292.976Z" fill="#B18AF2"/>
<path d="M368.413 330.796C368.499 332.447 367.98 334.072 366.955 335.37C365.905 336.725 364.782 338.022 363.63 339.304C362.988 340.003 362.346 340.688 361.676 341.358C361.019 342.028 360.348 342.684 359.663 343.339L357.592 345.262C356.877 345.889 356.134 346.515 355.419 347.127C344.233 356.495 330.626 363.633 318.564 368.776L316.318 369.723L316.085 369.811L314.014 370.656L313.65 370.787L311.724 371.544L311.287 371.719L309.493 372.389L308.968 372.579L307.305 373.191L306.707 373.409L305.176 373.948L304.549 374.167L303.091 374.647L302.405 374.881L301.122 375.303L300.392 375.551L299.24 375.915L298.453 376.163L297.461 376.483L296.615 376.731L295.784 376.993L294.748 377.299L294.223 377.445C293.727 377.605 293.232 377.736 292.765 377.867C288.871 378.973 284.716 378.727 280.981 377.168C250.529 364.42 232.634 349.487 223.985 340.746C219.796 336.492 216.781 331.227 215.235 325.464C208.278 299.881 191.142 220.088 239.007 192.612C239.853 192.136 240.684 191.699 241.501 191.301L242.041 191.039C242.857 190.66 243.645 190.31 244.433 190.004L244.666 189.917C245.41 189.64 246.124 189.392 246.883 189.188L247.218 189.086C248.006 188.868 248.779 188.693 249.537 188.547H249.741C251.252 188.278 252.787 188.17 254.321 188.227H254.408C255.888 188.282 257.356 188.507 258.784 188.897V188.897C251.141 185.532 241.807 185.677 232.532 190.995C184.666 218.471 201.803 298.264 208.759 323.846L209.941 328.217C212.314 337.096 217.566 344.94 224.875 350.522L237.301 360.006C250.647 370.17 265.25 378.572 280.747 385.006C284.493 386.582 288.664 386.839 292.575 385.734C307.685 381.436 347.222 368.252 366.955 343.048C367.807 341.975 368.316 340.67 368.413 339.304V339.304V330.781V330.796Z" fill="#BA68C8"/>
<path opacity="0.6" d="M368.386 330.944C368.471 332.595 367.953 334.221 366.928 335.519C365.878 336.874 364.755 338.17 363.603 339.453C362.961 340.152 362.319 340.837 361.648 341.507C360.992 342.177 360.321 342.832 359.636 343.488L357.565 345.411C356.85 346.038 356.106 346.664 355.392 347.276C344.206 356.644 330.599 363.782 318.537 368.925L316.291 369.872L316.058 369.959L313.987 370.804L313.622 370.935L311.697 371.693L311.26 371.868L309.466 372.538L308.941 372.727L307.278 373.339L306.68 373.558L305.149 374.097L304.522 374.315L303.063 374.796L302.378 375.029L301.095 375.452L300.365 375.699L299.213 376.064L298.426 376.311L297.434 376.632L296.588 376.879L295.757 377.142L294.721 377.448L294.196 377.593C293.7 377.754 293.204 377.885 292.738 378.016C288.844 379.122 284.689 378.875 280.954 377.316C250.502 364.569 232.607 349.636 223.958 340.895C219.769 336.641 216.754 331.376 215.208 325.612C208.251 300.03 191.115 220.237 238.98 192.761C239.826 192.285 240.657 191.848 241.474 191.449L242.014 191.187C242.83 190.808 243.618 190.459 244.405 190.153L244.639 190.065C245.383 189.789 246.097 189.541 246.856 189.337L247.191 189.235C247.979 189.017 248.752 188.842 249.51 188.696H249.714C251.225 188.426 252.76 188.319 254.294 188.375H254.381C255.86 188.431 257.329 188.655 258.756 189.046V189.046C251.114 185.68 241.78 185.826 232.505 191.144C184.639 218.62 201.776 298.413 208.732 323.995L209.914 328.366C212.287 337.245 217.539 345.089 224.848 350.67L237.274 360.155C250.62 370.319 265.223 378.721 280.72 385.154C284.466 386.731 288.637 386.988 292.548 385.883C307.657 381.585 347.195 368.4 366.928 343.197C367.78 342.124 368.289 340.819 368.386 339.453V339.453V330.93V330.944Z" fill="#4E00CE"/>
<path d="M394.811 422.097C391.544 401.279 387.358 368.004 384.966 348.336C384.811 347.045 384.592 345.763 384.31 344.49C383.051 339.062 380.692 333.949 377.378 329.466C374.065 324.983 369.867 321.226 365.044 318.427L315.953 289.29L282.628 271.807C282.628 271.807 273.761 297.477 284.087 313.182C292.662 326.294 330.523 342.436 341.782 347.899C353.041 353.363 353.275 354.834 353.041 362.133C352.808 369.432 352.793 378.727 366.619 407.835C370.601 416.197 373.372 422.403 375.297 427.255C382.198 427.788 389.076 425.97 394.811 422.097Z" fill="#BA68C8"/>
<path opacity="0.7" d="M394.811 422.098C391.544 401.279 387.358 368.004 384.966 348.336C384.732 346.404 384.362 344.491 383.858 342.611C380.987 332.438 374.265 323.781 365.117 318.471L315.953 289.231L282.628 271.749C282.628 271.749 273.761 297.419 284.087 313.124C292.662 326.236 330.523 342.378 341.782 347.841C353.041 353.304 353.275 354.776 353.041 362.075C352.808 369.374 352.793 378.668 366.619 407.777C370.601 416.139 373.372 422.345 375.297 427.197C382.191 427.747 389.069 425.949 394.811 422.098V422.098Z" fill="#5600E2"/>
<path d="M379.629 444.14C379.608 445.004 379.814 445.858 380.227 446.617C382.184 449.92 384.678 452.874 387.606 455.358C394.228 461.316 416.148 484.641 423.848 470.16C423.848 470.16 401.199 448.496 398.209 439.565C396.727 433.811 395.592 427.973 394.811 422.083C389.058 425.931 382.169 427.718 375.268 427.153C379.512 437.715 379.702 441.139 379.629 444.14Z" fill="#FFA8A7"/>
<path d="M403.255 442.712L402.628 440.833C402.376 440.143 401.872 439.573 401.218 439.238C400.564 438.903 399.807 438.828 399.099 439.027L389.925 441.853C389.349 442.031 388.846 442.389 388.489 442.874C388.132 443.359 387.94 443.946 387.942 444.548V445.466C387.938 445.9 387.763 446.315 387.454 446.621C387.145 446.926 386.728 447.098 386.294 447.098V447.098C384.351 447.099 382.469 446.424 380.97 445.189L379.687 444.14V440.935C378.86 441.474 378.189 442.221 377.741 443.1C377.293 443.98 377.084 444.961 377.135 445.947C377.251 448.117 377.354 450.769 377.266 451.774C377.12 453.697 375.326 461.71 377.47 464.085C379.614 466.459 384.427 466.736 390.377 466.095C396.328 465.454 402.832 471.296 408.345 473.467C413.858 475.638 436.697 480.3 436.639 465.716C436.639 462.001 432.949 460.486 429.347 459.175C425.744 457.864 412.706 453.275 409.366 450.521C408.024 449.406 406.78 448.177 405.647 446.85C404.584 445.642 403.771 444.236 403.255 442.712V442.712Z" fill="#343434"/>
<path d="M408.287 473.51C402.774 471.34 396.269 465.498 390.319 466.139C384.369 466.78 379.556 466.503 377.412 464.128C376.725 463.142 376.367 461.964 376.391 460.763C376.289 463.006 376.464 465.133 377.412 466.211C379.556 468.586 384.369 468.863 390.319 468.222C396.269 467.581 402.774 473.437 408.287 475.594C413.8 477.75 436.639 482.426 436.58 467.843C436.565 467.632 436.536 467.423 436.493 467.217C435.063 479.964 413.61 475.594 408.287 473.51Z" fill="#263238"/>
<path d="M350.227 447.36C346.945 426.556 342.774 393.281 340.368 373.599C339.111 363.256 333.997 353.768 326.046 347.025L267.14 296.996L235.653 296.399C235.653 296.399 229.163 322.623 239.459 338.313C248.049 351.425 285.896 367.582 297.155 373.03C308.414 378.479 308.647 379.98 308.414 387.264C308.18 394.548 308.166 403.858 322.006 432.966C325.973 441.343 328.744 447.535 330.669 452.386C337.569 452.96 344.461 451.189 350.227 447.36V447.36Z" fill="#BA68C8"/>
<path opacity="0.7" d="M350.227 447.36C346.945 426.556 342.774 393.281 340.368 373.599C339.111 363.256 333.997 353.768 326.046 347.025L267.14 296.996L235.653 296.399C235.653 296.399 229.163 322.623 239.459 338.313C248.049 351.425 285.896 367.582 297.155 373.03C308.414 378.479 308.647 379.98 308.414 387.264C308.18 394.548 308.166 403.858 322.006 432.966C325.973 441.343 328.744 447.535 330.669 452.386C337.569 452.96 344.461 451.189 350.227 447.36V447.36Z" fill="#5600E2"/>
<path d="M335.015 467.523C335.015 468.397 334.417 470.975 335.628 471.893C337.174 473.044 338.647 476.73 343.022 480.634C349.629 486.593 356.615 473.758 353.61 464.857C352.136 459.101 351.007 453.263 350.227 447.374C344.467 451.219 337.574 453.006 330.669 452.444C334.928 462.963 335.103 464.536 335.015 467.523Z" fill="#FFA8A7"/>
<path d="M296.09 187.892C300.596 187.177 305.21 188.081 309.112 190.445C313.013 192.808 315.949 196.477 317.397 200.799C319.478 207.041 320.814 213.505 321.379 220.059C323.085 240.237 323.552 250.318 323.552 250.318L343.839 259.511C343.839 259.511 332.886 260.036 333.63 275.537L308.355 269.17L296.09 187.892Z" fill="#FFA8A7"/>
<path d="M323.553 250.319C321.273 251.018 319.21 252.287 317.558 254.004C317.558 254.004 320.008 249.357 323.392 247.915L323.553 250.319Z" fill="#F28F8F"/>
<path d="M324.296 238.124C321.306 216.271 320.125 204.835 317.558 199.416C315.796 195.364 312.72 192.024 308.825 189.933C304.93 187.843 300.444 187.123 296.09 187.892L303.732 247.915L304.709 247.827C311.477 247.16 317.852 244.342 322.896 239.785L324.296 238.124Z" fill="#BA68C8"/>
<path d="M324.296 238.124C321.306 216.271 320.125 204.835 317.558 199.416C315.796 195.364 312.72 192.024 308.825 189.933C304.93 187.843 300.444 187.123 296.09 187.892L303.732 247.915L304.709 247.827C311.477 247.16 317.852 244.342 322.896 239.785L324.296 238.124Z" fill="#4E00CE"/>
<path d="M247.349 205.593L270.042 194.608L288.739 188.154C288.739 188.154 303.732 183.39 307.553 203.335C310.718 219.724 311.126 282.005 311.126 282.005L310.791 288.809C310.791 288.809 302.142 313.022 271.238 315.033C240.334 317.043 234.311 304.019 234.311 304.019C234.311 304.019 231.161 221.604 247.349 205.593Z" fill="#4E00CE"/>
<path d="M379.643 241.752L164.073 366.081V393.019V523.918C164.083 524.437 164.243 524.943 164.532 525.374C164.822 525.805 165.229 526.144 165.706 526.351C166.939 526.98 168.304 527.308 169.688 527.308C171.072 527.308 172.437 526.98 173.669 526.351C174.144 526.142 174.548 525.802 174.835 525.371C175.122 524.94 175.279 524.436 175.288 523.918V523.918V399.502L292.167 466.852V599.034C292.18 599.551 292.34 600.053 292.63 600.481C292.919 600.91 293.325 601.247 293.8 601.452C295.033 602.082 296.397 602.41 297.782 602.41C299.166 602.41 300.53 602.082 301.763 601.452C302.238 601.247 302.644 600.91 302.933 600.481C303.223 600.053 303.384 599.551 303.397 599.034V599.034V466.852L502.078 352.27V477.56C502.095 478.078 502.26 478.581 502.555 479.007C502.85 479.433 503.261 479.766 503.741 479.964C504.973 480.593 506.338 480.921 507.722 480.921C509.106 480.921 510.471 480.593 511.704 479.964C512.18 479.76 512.587 479.424 512.876 478.995C513.166 478.566 513.326 478.063 513.337 477.546V477.546V318.879L379.643 241.752Z" fill="#455A64"/>
<path d="M301.764 601.481C300.531 602.111 299.167 602.439 297.782 602.439C296.398 602.439 295.033 602.111 293.8 601.481C291.598 600.214 291.598 598.16 293.8 596.892C295.033 596.263 296.398 595.935 297.782 595.935C299.167 595.935 300.531 596.263 301.764 596.892C303.967 598.16 303.967 600.214 301.764 601.481Z" fill="#455A64"/>
<path d="M169.717 527.313C172.827 527.313 175.347 525.858 175.347 524.064C175.347 522.269 172.827 520.815 169.717 520.815C166.608 520.815 164.087 522.269 164.087 524.064C164.087 525.858 166.608 527.313 169.717 527.313Z" fill="#455A64"/>
<path d="M511.705 479.964C510.472 480.593 509.107 480.921 507.723 480.921C506.338 480.921 504.974 480.593 503.741 479.964C501.539 478.697 501.539 476.643 503.741 475.375C504.974 474.746 506.338 474.418 507.723 474.418C509.107 474.418 510.472 474.746 511.705 475.375C513.907 476.657 513.907 478.711 511.705 479.964Z" fill="#455A64"/>
<path d="M303.427 463.633H292.167V599.063H303.427V463.633Z" fill="#37474F"/>
<path d="M175.347 388.517H164.087V523.947H175.347V388.517Z" fill="#263238"/>
<path d="M374.087 377.488C372.98 378.049 371.756 378.341 370.514 378.341C369.272 378.341 368.048 378.049 366.94 377.488C364.971 376.352 364.971 374.574 366.94 373.38C368.046 372.812 369.271 372.516 370.514 372.516C371.757 372.516 372.982 372.812 374.087 373.38C375.998 374.516 375.998 376.352 374.087 377.488Z" fill="#455A64"/>
<path d="M164.073 366.081V393.019L297.796 470.145V443.193L164.073 366.081Z" fill="#263238"/>
<path d="M513.367 342.13H502.107V477.56H513.367V342.13Z" fill="#37474F"/>
<path d="M375.517 262.308H365.409V375.332H375.517V262.308Z" fill="#455A64"/>
<path d="M513.367 318.879L297.796 443.193V470.145L513.367 345.816V318.879Z" fill="#37474F"/>
<path d="M335.628 468.309C336.646 469.851 338.208 470.953 340.003 471.398C341.651 471.66 338.326 467.391 342.293 465.672C346.26 463.953 355.346 461.608 356.162 465.017L357.169 469.271C358.117 473.292 360.04 477.019 362.769 480.124C365.417 483.326 368.433 486.206 371.753 488.705C376.945 492.042 385.477 500.127 374.524 507.018C363.571 513.909 350.125 508.082 347.485 500.258C344.845 492.435 342.059 490.162 340.659 488.866C337.709 486.798 335.607 483.735 334.738 480.241C334.027 476.779 333.54 473.276 333.28 469.752C333.225 469.04 333.364 468.327 333.682 467.688C334.001 467.049 334.487 466.509 335.088 466.124V466.124L335.628 468.309Z" fill="#343434"/>
<path d="M374.583 506.989C363.63 513.866 350.183 508.053 347.543 500.229C344.904 492.406 342.118 490.133 340.718 488.837C338.245 487.051 336.345 484.586 335.249 481.742C335.249 481.946 335.249 482.179 335.249 482.383C335.672 489.157 339.828 490.745 341.228 492.056C342.628 493.368 344.933 495.495 347.573 503.333C350.212 511.171 364.096 516.036 375.035 509.16C380.358 505.824 381.073 502.196 379.818 498.962C380.081 501.599 378.739 504.382 374.583 506.989Z" fill="#263238"/>
<path d="M379.643 241.752L164.073 366.081L297.796 443.193L513.366 318.879L379.643 241.752Z" fill="#455A64"/>
<path d="M321.963 402.984L287.077 423.147L243.032 397.739L278.035 377.576C278.493 377.318 279.011 377.182 279.537 377.182C280.063 377.182 280.58 377.318 281.039 377.576L322.006 401.206C322.158 401.302 322.283 401.435 322.368 401.593C322.452 401.751 322.495 401.928 322.49 402.107C322.486 402.287 322.435 402.461 322.342 402.615C322.25 402.769 322.119 402.896 321.963 402.984V402.984Z" fill="#BA68C8"/>
<path opacity="0.7" d="M321.963 402.984L287.077 423.147L243.032 397.739L278.035 377.576C278.493 377.318 279.011 377.182 279.537 377.182C280.063 377.182 280.58 377.318 281.039 377.576L322.006 401.206C322.158 401.302 322.283 401.435 322.368 401.593C322.452 401.751 322.495 401.928 322.49 402.107C322.486 402.287 322.435 402.461 322.342 402.615C322.25 402.769 322.119 402.896 321.963 402.984V402.984Z" fill="#FBB130"/>
<path d="M319.542 402.255L287.077 420.976L246.081 397.345L278.618 378.581C279.04 378.331 279.521 378.199 280.011 378.199C280.501 378.199 280.982 378.331 281.404 378.581L319.542 400.565C319.69 400.651 319.813 400.774 319.899 400.922C319.984 401.07 320.03 401.239 320.03 401.41C320.03 401.581 319.984 401.749 319.899 401.898C319.813 402.046 319.69 402.169 319.542 402.255V402.255Z" fill="white"/>
<path d="M287.077 420.976V417.319L320.037 398.322V401.425L287.077 420.976Z" fill="white"/>
<path d="M287.077 420.976V417.319L246.081 393.688V397.345L287.077 420.976Z" fill="#E0E0E0"/>
<path d="M321.963 397.2L287.077 417.319L243.032 391.926L278.035 371.763C278.493 371.505 279.011 371.369 279.537 371.369C280.063 371.369 280.58 371.505 281.039 371.763L321.963 395.466C322.107 395.56 322.226 395.688 322.308 395.84C322.39 395.991 322.433 396.161 322.433 396.333C322.433 396.505 322.39 396.674 322.308 396.826C322.226 396.977 322.107 397.106 321.963 397.2V397.2Z" fill="#BA68C8"/>
<path d="M321.963 397.2L287.077 417.319L243.032 391.926L278.035 371.763C278.493 371.505 279.011 371.369 279.537 371.369C280.063 371.369 280.58 371.505 281.039 371.763L321.963 395.466C322.107 395.56 322.226 395.688 322.308 395.84C322.39 395.991 322.433 396.161 322.433 396.333C322.433 396.505 322.39 396.674 322.308 396.826C322.226 396.977 322.107 397.106 321.963 397.2Z" fill="#FBB130"/>
<path d="M282.512 420.48C282.413 420.53 282.303 420.556 282.191 420.556C282.08 420.556 281.97 420.53 281.87 420.48C281.744 420.412 281.637 420.312 281.563 420.189C281.489 420.066 281.449 419.925 281.447 419.781V416.445C281.455 415.699 281.653 414.967 282.023 414.32C282.393 413.672 282.923 413.13 283.562 412.744L283.694 412.657C283.754 412.624 283.822 412.607 283.891 412.608C283.96 412.61 284.027 412.629 284.086 412.664C284.145 412.7 284.194 412.75 284.227 412.81C284.261 412.87 284.278 412.938 284.277 413.007C284.277 413.188 284.349 413.362 284.478 413.491C284.606 413.619 284.781 413.691 284.963 413.691C285.144 413.691 285.319 413.619 285.447 413.491C285.576 413.362 285.648 413.188 285.648 413.007C285.651 412.695 285.57 412.389 285.413 412.12C285.257 411.851 285.031 411.629 284.758 411.477C284.492 411.316 284.187 411.231 283.876 411.231C283.565 411.231 283.26 411.316 282.994 411.477L282.862 411.55C282.014 412.052 281.312 412.766 280.823 413.622C280.335 414.478 280.077 415.445 280.076 416.43V419.737C280.076 420.128 280.182 420.512 280.382 420.848C280.583 421.184 280.87 421.46 281.214 421.646C281.528 421.813 281.879 421.898 282.235 421.894C282.666 421.896 283.088 421.769 283.446 421.529C283.577 421.44 283.671 421.305 283.708 421.15L282.512 420.48Z" fill="white"/>
<path d="M275.993 416.722C275.894 416.772 275.784 416.798 275.672 416.798C275.561 416.798 275.451 416.772 275.351 416.722C275.225 416.654 275.118 416.553 275.044 416.43C274.97 416.307 274.93 416.166 274.928 416.022V412.715C274.933 411.967 275.13 411.233 275.5 410.582C275.871 409.932 276.402 409.387 277.043 409H277.175C277.235 408.967 277.303 408.95 277.371 408.95C277.44 408.95 277.508 408.967 277.568 409C277.626 409.035 277.674 409.085 277.707 409.143C277.74 409.202 277.758 409.268 277.758 409.335C277.758 409.517 277.83 409.691 277.959 409.82C278.087 409.948 278.262 410.02 278.444 410.02C278.625 410.02 278.8 409.948 278.928 409.82C279.057 409.691 279.129 409.517 279.129 409.335C279.119 409.037 279.032 408.745 278.876 408.49C278.72 408.235 278.501 408.024 278.239 407.879C277.973 407.718 277.668 407.633 277.357 407.633C277.046 407.633 276.741 407.718 276.474 407.879L276.343 407.951C275.495 408.454 274.793 409.168 274.304 410.024C273.816 410.879 273.558 411.847 273.557 412.832V416.139C273.557 416.53 273.663 416.914 273.863 417.25C274.064 417.586 274.351 417.861 274.695 418.048C275.009 418.215 275.36 418.3 275.716 418.295C276.147 418.298 276.569 418.171 276.927 417.931C277.058 417.842 277.152 417.707 277.189 417.552L275.993 416.722Z" fill="white"/>
<path d="M269.474 412.948C269.373 412.995 269.264 413.019 269.153 413.019C269.042 413.019 268.933 412.995 268.832 412.948C268.705 412.88 268.599 412.78 268.525 412.656C268.45 412.533 268.41 412.393 268.409 412.249V408.942C268.414 408.194 268.611 407.459 268.981 406.809C269.351 406.158 269.883 405.613 270.524 405.227L270.655 405.154C270.716 405.121 270.783 405.103 270.852 405.103C270.921 405.103 270.989 405.121 271.049 405.154C271.107 405.189 271.155 405.238 271.188 405.297C271.221 405.355 271.238 405.422 271.239 405.489C271.239 405.671 271.311 405.845 271.439 405.973C271.568 406.102 271.742 406.174 271.924 406.174C272.106 406.174 272.28 406.102 272.409 405.973C272.538 405.845 272.61 405.671 272.61 405.489C272.6 405.19 272.513 404.899 272.357 404.644C272.201 404.388 271.982 404.178 271.72 404.032C271.454 403.872 271.149 403.787 270.838 403.787C270.527 403.787 270.221 403.872 269.955 404.032L269.824 404.105C268.976 404.608 268.273 405.322 267.785 406.177C267.296 407.033 267.039 408.001 267.038 408.986V412.293C267.038 412.684 267.144 413.067 267.344 413.403C267.544 413.739 267.832 414.015 268.176 414.201C268.49 414.368 268.841 414.453 269.197 414.449C269.628 414.452 270.05 414.325 270.407 414.085C270.539 413.995 270.632 413.86 270.67 413.706L269.474 412.948Z" fill="white"/>
<path d="M262.955 409.204C262.854 409.251 262.745 409.275 262.634 409.275C262.523 409.275 262.413 409.251 262.313 409.204C262.186 409.136 262.08 409.036 262.005 408.913C261.931 408.79 261.891 408.649 261.89 408.505V405.198C261.894 404.45 262.091 403.715 262.462 403.065C262.832 402.414 263.363 401.87 264.005 401.483L264.136 401.41C264.196 401.377 264.264 401.36 264.333 401.36C264.402 401.36 264.47 401.377 264.53 401.41C264.588 401.445 264.635 401.494 264.668 401.553C264.702 401.612 264.719 401.678 264.719 401.745C264.719 401.927 264.792 402.101 264.92 402.229C265.049 402.358 265.223 402.43 265.405 402.43C265.587 402.43 265.761 402.358 265.89 402.229C266.018 402.101 266.09 401.927 266.09 401.745C266.081 401.446 265.993 401.155 265.838 400.9C265.682 400.645 265.462 400.434 265.201 400.288C264.935 400.128 264.629 400.043 264.318 400.043C264.007 400.043 263.702 400.128 263.436 400.288L263.305 400.361C262.457 400.864 261.754 401.578 261.266 402.433C260.777 403.289 260.52 404.257 260.519 405.242V408.549C260.519 408.94 260.624 409.323 260.825 409.659C261.025 409.995 261.312 410.271 261.656 410.457C261.971 410.624 262.322 410.709 262.677 410.705C263.108 410.708 263.53 410.581 263.888 410.341C264.02 410.251 264.113 410.116 264.151 409.962L262.955 409.204Z" fill="white"/>
<path d="M256.436 405.446C256.335 405.493 256.226 405.517 256.115 405.517C256.004 405.517 255.894 405.493 255.794 405.446C255.667 405.378 255.561 405.277 255.486 405.154C255.412 405.031 255.372 404.89 255.371 404.746V401.439C255.375 400.691 255.572 399.957 255.943 399.306C256.313 398.656 256.844 398.111 257.486 397.724H257.617C257.677 397.691 257.745 397.674 257.814 397.674C257.883 397.674 257.95 397.691 258.011 397.724C258.068 397.759 258.116 397.809 258.149 397.867C258.183 397.926 258.2 397.992 258.2 398.059C258.2 398.241 258.273 398.415 258.401 398.544C258.53 398.672 258.704 398.744 258.886 398.744C259.068 398.744 259.242 398.672 259.371 398.544C259.499 398.415 259.571 398.241 259.571 398.059C259.561 397.761 259.474 397.469 259.318 397.214C259.163 396.959 258.943 396.748 258.682 396.603C258.415 396.442 258.11 396.357 257.799 396.357C257.488 396.357 257.183 396.442 256.917 396.603L256.786 396.675C255.938 397.178 255.235 397.892 254.747 398.748C254.258 399.603 254.001 400.571 254 401.556V404.863C254 405.254 254.105 405.638 254.306 405.974C254.506 406.31 254.793 406.585 255.137 406.772C255.454 406.932 255.803 407.017 256.158 407.019C256.589 407.022 257.011 406.895 257.369 406.655C257.5 406.566 257.594 406.431 257.632 406.276L256.436 405.446Z" fill="white"/>
<path d="M249.916 401.687C249.816 401.734 249.706 401.758 249.595 401.758C249.484 401.758 249.375 401.734 249.274 401.687C249.148 401.619 249.041 401.518 248.967 401.395C248.893 401.272 248.853 401.131 248.852 400.988V397.651C248.856 396.903 249.053 396.169 249.423 395.518C249.794 394.868 250.325 394.323 250.966 393.936L251.098 393.863C251.158 393.83 251.226 393.813 251.295 393.813C251.363 393.813 251.431 393.83 251.491 393.863C251.551 393.896 251.601 393.945 251.634 394.004C251.668 394.063 251.684 394.131 251.681 394.199C251.681 394.38 251.753 394.554 251.882 394.683C252.01 394.811 252.185 394.883 252.367 394.883C252.548 394.883 252.723 394.811 252.851 394.683C252.98 394.554 253.052 394.38 253.052 394.199C253.037 393.896 252.944 393.602 252.783 393.345C252.622 393.088 252.398 392.876 252.132 392.73C251.866 392.584 251.567 392.509 251.263 392.511C250.96 392.513 250.662 392.592 250.398 392.742L250.266 392.829C249.418 393.332 248.716 394.046 248.227 394.901C247.739 395.757 247.482 396.725 247.48 397.71V401.017C247.48 401.408 247.586 401.791 247.786 402.127C247.987 402.463 248.274 402.739 248.618 402.925C248.935 403.086 249.284 403.17 249.639 403.173C250.07 403.176 250.492 403.049 250.85 402.809C250.981 402.719 251.075 402.584 251.112 402.43L249.916 401.687Z" fill="white"/>
<path d="M326.454 388.109L288.74 409.86L239.649 381.553L277.378 359.802L326.454 388.109Z" fill="#E6E6E6"/>
<path d="M271.501 325.653L320.533 353.931L402.045 306.83L353.027 277.984L271.501 325.653Z" fill="#EBEBEB"/>
<path d="M315.254 317.597L333.645 306.991L322.123 300.347L303.732 310.953L315.254 317.597Z" fill="#E0E0E0"/>
<path d="M322.619 346.865L297.84 332.296L346.26 303.013L322.619 346.865Z" fill="#E0E0E0"/>
<path d="M272.96 293.354L289.644 306.597C292.497 306.866 295.325 307.353 298.103 308.054C301.297 309.001 309.668 312.075 311.885 312.556C314.102 313.036 311.243 316.926 305.439 315.469C305.439 315.469 317.602 323.788 317.442 327.489C317.281 331.189 304.797 337.512 296.367 331.306C294.195 329.492 291.786 327.983 289.206 326.818C286.756 326.017 279.566 323.235 275.293 316.941L260.709 309.351C260.709 309.351 256.596 292.145 272.96 293.354Z" fill="#FFA8A7"/>
<path d="M336.488 256.015L356.104 265.208C361.965 266.685 367.743 268.469 373.416 270.554C373.416 270.554 387.067 276.12 387.694 279.776C388.321 283.433 377.485 292.247 367.903 287.964C365.399 286.623 362.718 285.643 359.94 285.05C357.388 284.773 349.731 283.593 344.262 278.334L321.379 272.39C321.379 272.39 320.241 258.288 336.488 256.015Z" fill="#FFA8A7"/>
<path d="M349.191 283.287C351.452 285.72 357.942 291.854 359.4 293.631C360.859 295.408 364.155 290.848 358.306 284.045C353.244 282.193 348.482 279.606 344.174 276.367C345.667 278.799 347.344 281.112 349.191 283.287V283.287Z" fill="#FFA8A7"/>
<path d="M254.758 202.009C254.758 202.009 264.486 209.541 258.506 232.953C252.527 256.364 249.333 276.542 249.333 276.542L272.959 293.354C269.725 294.769 266.903 296.982 264.76 299.785C262.617 302.589 261.223 305.89 260.709 309.38C260.709 309.38 223.46 294.811 222.702 285.356C221.944 275.901 230.475 235.313 231.773 227.839C233.071 220.365 239.693 205.549 254.758 202.009Z" fill="#FFA8A7"/>
<path d="M249.334 276.542C246.388 275.965 243.356 275.995 240.422 276.629C243.218 275.113 246.356 274.336 249.538 274.371L249.334 276.542Z" fill="#F28F8F"/>
<path d="M413.464 252.883L404.932 308.608C404.945 308.641 404.945 308.677 404.932 308.71L320.125 357.762C320.104 357.773 320.08 357.778 320.057 357.776C320.033 357.774 320.011 357.766 319.991 357.753C319.972 357.74 319.956 357.721 319.946 357.7C319.937 357.678 319.933 357.655 319.935 357.631L328.205 303.581C328.38 302.429 328.805 301.329 329.45 300.358C330.095 299.387 330.944 298.568 331.938 297.958L409.614 250.377C410.022 250.11 410.498 249.967 410.986 249.966C411.473 249.966 411.951 250.107 412.359 250.373C412.767 250.638 413.089 251.017 413.286 251.463C413.482 251.909 413.544 252.402 413.464 252.883Z" fill="#FAFAFA"/>
<path d="M320.125 357.762L274.914 331.539C273.872 330.934 273.007 330.067 272.405 329.024C271.804 327.981 271.487 326.799 271.486 325.595V325.595L320.519 353.873L320.125 357.762Z" fill="#E0E0E0"/>
<path d="M328.627 387.395L289.221 405.926L242.668 373.598L282.089 355.082L328.627 387.395Z" fill="#FAFAFA"/>
<path d="M240.64 329.543H208.628L211.545 363.386C211.734 364.458 212.181 365.469 212.846 366.331C213.511 367.194 214.376 367.883 215.366 368.339C218.248 369.804 221.437 370.568 224.671 370.568C227.905 370.568 231.093 369.804 233.975 368.339C234.963 367.88 235.826 367.19 236.491 366.328C237.156 365.466 237.604 364.457 237.796 363.386L240.64 329.543Z" fill="#B18AF2"/>
<path d="M242.682 327.693V325.012H242.055C241.02 323.018 239.396 321.39 237.403 320.35C230.359 316.285 218.925 316.285 211.881 320.35C209.884 321.385 208.258 323.014 207.228 325.012H206.586V327.722C206.586 330.373 208.351 333.039 211.881 335.079C218.925 339.144 230.359 339.144 237.403 335.079C240.932 333.039 242.697 330.359 242.682 327.693Z" fill="#E0E0E0"/>
<path d="M237.403 332.529C230.359 336.594 218.925 336.594 211.88 332.529C204.836 328.465 204.822 321.88 211.88 317.815C218.939 313.75 230.359 313.736 237.403 317.815C244.447 321.894 244.447 328.45 237.403 332.529Z" fill="#EBEBEB"/>
<path d="M239.109 324.079V321.938H238.599C237.768 320.34 236.464 319.038 234.865 318.208C231.701 316.605 228.204 315.769 224.656 315.769C221.108 315.769 217.611 316.605 214.447 318.208C212.843 319.032 211.538 320.336 210.714 321.938H210.203V324.079C210.203 326.221 211.662 328.363 214.447 329.98C217.611 331.583 221.108 332.419 224.656 332.419C228.204 332.419 231.701 331.583 234.865 329.98C237.694 328.334 239.109 326.192 239.109 324.079Z" fill="#E0E0E0"/>
<path d="M234.865 327.926C231.701 329.529 228.204 330.365 224.656 330.365C221.108 330.365 217.611 329.529 214.447 327.926C208.788 324.677 208.788 319.389 214.447 316.14C217.611 314.536 221.108 313.7 224.656 313.7C228.204 313.7 231.701 314.536 234.865 316.14C240.509 319.389 240.509 324.677 234.865 327.926Z" fill="#F5F5F5"/>
<path d="M232.503 326.207C230.064 327.442 227.368 328.085 224.634 328.085C221.9 328.085 219.205 327.442 216.766 326.207C212.551 323.788 212.391 319.913 216.329 317.465C216.468 317.363 216.614 317.27 216.766 317.189C217.721 316.646 218.74 316.225 219.8 315.936C224.041 314.741 228.577 315.188 232.503 317.189C236.863 319.709 236.863 323.701 232.503 326.207Z" fill="#F0F0F0"/>
<path d="M216.766 318.427C219.205 317.185 221.904 316.537 224.642 316.537C227.379 316.537 230.078 317.185 232.517 318.427C233.307 318.796 234.003 319.337 234.556 320.01C235.109 320.683 235.503 321.471 235.711 322.317C236.047 320.467 234.967 318.544 232.517 317.13C230.074 315.901 227.377 315.26 224.642 315.26C221.906 315.26 219.209 315.901 216.766 317.13C214.301 318.587 213.237 320.467 213.558 322.317C213.767 321.47 214.164 320.681 214.719 320.007C215.274 319.334 215.974 318.794 216.766 318.427Z" fill="#E0E0E0"/>
<path d="M222.717 318.849L219.494 320.904L216.343 318.646V317.407C216.482 317.305 216.629 317.212 216.781 317.13C217.736 316.588 218.755 316.167 219.815 315.877V316.795L222.717 318.849Z" fill="#E6E6E6"/>
<path d="M364.417 306.597C364.417 310.589 367.217 312.192 370.659 310.21C372.48 309.027 373.995 307.431 375.082 305.553C376.169 303.675 376.797 301.567 376.916 299.4C376.916 295.408 374.116 293.806 370.659 295.787C368.843 296.974 367.332 298.571 366.248 300.449C365.164 302.327 364.536 304.433 364.417 306.597V306.597Z" fill="#B18AF2"/>
<path d="M254.758 202.009C254.758 202.009 262.342 205.636 261.175 220.875C260.009 236.114 253.985 266.825 253.985 266.825C253.985 266.825 226.844 277.81 224.248 262.323C223.592 258.317 230.432 221.269 236.28 213.431C238.427 210.378 241.171 207.792 244.348 205.828C247.524 203.865 251.065 202.566 254.758 202.009V202.009Z" fill="#BA68C8"/>
<path d="M254.758 202.009C254.758 202.009 262.342 205.636 261.175 220.875C260.009 236.114 253.985 266.825 253.985 266.825C253.985 266.825 226.844 277.81 224.248 262.323C223.592 258.317 230.432 221.269 236.28 213.431C238.427 210.378 241.171 207.792 244.348 205.828C247.524 203.865 251.065 202.566 254.758 202.009V202.009Z" fill="#4E00CE"/>
<path d="M270.042 194.608C270.042 194.608 275.045 207.72 286.566 206.088C298.088 204.456 293.334 194.608 293.334 194.608H270.042Z" fill="#FFA8A7"/>
<path d="M293.319 166.461H270.042V194.608H293.319V166.461Z" fill="#FFA8A7"/>
<path d="M293.334 194.608C288.586 192.838 284.247 190.124 280.58 186.631C276.913 183.137 273.993 178.937 271.997 174.285V166.461H293.392L293.334 194.608Z" fill="#F28F8F"/>
<path d="M318.856 139.057C318.856 139.057 325.871 157.021 316.187 164.931C306.503 172.842 309.916 140.995 309.916 140.995L318.856 139.057Z" fill="#263238"/>
<path d="M301.165 129.297C301.165 129.297 322.342 131.846 317.485 167.991C315.239 184.701 310.762 193.151 297.869 191.723C283.285 190.092 263.057 178.757 266.192 150.115C269.328 121.473 301.165 129.297 301.165 129.297Z" fill="#FFA8A7"/>
<path d="M301.954 179.078C299.039 179.106 296.199 178.157 293.888 176.382C293.888 176.382 293.071 180.666 296.63 181.7C300.189 182.734 301.954 179.078 301.954 179.078Z" fill="#F28F8F"/>
<path d="M302.347 161.522L301.588 174.008L309.041 172.216L302.347 161.522Z" fill="#F28F8F"/>
<path d="M291.262 160.401C291.231 160.904 291.351 161.405 291.605 161.841C291.86 162.277 292.238 162.627 292.692 162.848C293.146 163.069 293.656 163.151 294.156 163.082C294.656 163.014 295.125 162.799 295.503 162.464C295.881 162.13 296.151 161.69 296.279 161.202C296.407 160.714 296.387 160.199 296.222 159.723C296.057 159.246 295.754 158.829 295.351 158.524C294.949 158.22 294.465 158.041 293.961 158.011C293.286 157.971 292.623 158.201 292.117 158.649C291.611 159.096 291.304 159.727 291.262 160.401V160.401Z" fill="#263238"/>
<path d="M308.107 159.658C308.077 160.16 308.196 160.661 308.45 161.096C308.704 161.532 309.081 161.882 309.534 162.103C309.988 162.324 310.496 162.406 310.996 162.339C311.496 162.272 311.965 162.058 312.343 161.725C312.721 161.392 312.992 160.954 313.122 160.467C313.251 159.98 313.234 159.466 313.071 158.989C312.908 158.512 312.607 158.094 312.206 157.788C311.806 157.482 311.324 157.301 310.82 157.268C310.485 157.247 310.149 157.291 309.83 157.4C309.512 157.508 309.219 157.678 308.967 157.9C308.715 158.122 308.509 158.392 308.362 158.693C308.214 158.995 308.128 159.323 308.107 159.658V159.658Z" fill="#263238"/>
<path d="M293.028 154.136L287.85 156.729C287.85 156.729 287.208 154.049 289.236 153.102C289.898 152.871 290.615 152.846 291.292 153.031C291.969 153.216 292.574 153.601 293.028 154.136V154.136Z" fill="#263238"/>
<path d="M314.087 154.704L309.289 151.441C309.289 151.441 311.316 149.576 313.154 150.887C313.676 151.356 314.045 151.971 314.211 152.652C314.378 153.333 314.335 154.048 314.087 154.704V154.704Z" fill="#263238"/>
<path d="M269.795 161.231C269.795 161.231 273.047 168.006 275.06 167.772C277.072 167.539 275.06 141.826 279.231 141.665C283.402 141.505 303.09 151.266 320.49 138.664C327.184 133.827 328.511 121.473 324.5 122.639C320.49 123.804 315.079 127.315 307.772 126.82C300.465 126.325 274.885 114.466 268.54 131.19C268.54 131.19 254.394 130.04 259.702 158.099C261.029 165.077 265.201 182.356 270.043 184.06L269.795 161.231Z" fill="#263238"/>
<path d="M270.947 167.408C271.027 165.289 270.633 163.179 269.794 161.231C269.374 160.032 268.615 158.98 267.607 158.204C266.6 157.428 265.389 156.961 264.121 156.86C257.587 156.685 256.698 162.979 256.829 165.208C257.062 171.036 261.831 177.446 270.699 177.693L270.947 167.408Z" fill="#FFA8A7"/>
<path d="M270.787 139.364C270.787 139.364 266.936 133.682 269.328 131.846C271.72 130.01 273.456 135.852 270.787 139.364Z" fill="#263238"/>
<path d="M271.428 140.514C271.428 140.514 264.631 139.67 264.792 136.697C264.952 133.725 270.539 136.231 271.428 140.514Z" fill="#263238"/>
<path d="M147.899 126.529V198.906L85.1428 235.094V162.717L147.899 126.529Z" fill="#FAFAFA"/>
<path d="M141.103 130.448V194.987L85.1429 227.257V162.717L141.103 130.448ZM144.501 124.62L81.7886 160.809V233.186L85.1867 235.153L147.899 198.964V126.529L144.501 124.562V124.62Z" fill="#B18AF2"/>
<path d="M144.501 132.4V196.939L88.5411 229.209V164.669L144.501 132.4V132.4ZM147.899 126.572L85.1868 162.761V235.138L147.899 198.95V126.529V126.572Z" fill="#EEE6FC"/>
<path d="M138.682 182.341L91.21 209.716L105.24 173.28L114.953 184.789L124.885 170.672L138.682 182.341Z" fill="#B18AF2"/>
<path d="M122.217 159.6C122.131 161.106 121.69 162.571 120.93 163.875C120.169 165.179 119.111 166.285 117.841 167.103C115.449 168.472 113.466 167.365 113.466 164.597C113.553 163.093 113.995 161.631 114.756 160.329C115.516 159.028 116.573 157.925 117.841 157.108C120.321 155.724 122.217 156.846 122.217 159.6Z" fill="#B18AF2"/>
<path d="M168.827 36.4214V94.0696L118.847 122.901V65.2382L168.827 36.4214Z" fill="#FAFAFA"/>
<path d="M163.417 39.5395V90.9814L118.862 116.666V65.2386L163.431 39.5395H163.417ZM166.144 34.8484L116.135 63.6798V121.343L118.847 122.901L168.827 94.07V36.4072L166.129 34.8484H166.144Z" fill="#B18AF2"/>
<path d="M166.129 41.0982V92.511L121.545 118.225V66.7973L166.129 41.0982V41.0982ZM168.828 36.4071L118.862 65.2385V122.901L168.842 94.0699V36.4071H168.828Z" fill="#EEE6FC"/>
<path d="M161.492 80.8851L123.675 102.694L134.846 73.659L142.59 82.8373L150.495 71.5757L161.492 80.8851Z" fill="#B18AF2"/>
<path d="M148.381 62.7617C148.317 63.959 147.97 65.1242 147.37 66.1623C146.769 67.2004 145.931 68.0819 144.924 68.7348C143.013 69.842 141.482 68.9388 141.482 66.7535C141.543 65.5572 141.887 64.3923 142.485 63.3542C143.083 62.316 143.919 61.434 144.924 60.7803C146.835 59.6731 148.381 60.5764 148.381 62.7617Z" fill="#B18AF2"/>
<path d="M602.855 120.119L421.31 15.3408C420.546 14.7776 419.621 14.4738 418.671 14.4738C417.721 14.4738 416.796 14.7776 416.031 15.3408L409.745 19.7114L414.033 25.0144V171.211C414.033 176.572 417.3 182.866 421.325 185.109L601.076 288.78L601.412 294.476L608.033 289.946C608.793 289.232 609.379 288.354 609.748 287.38C610.117 286.405 610.259 285.359 610.162 284.322V133.944C610.148 128.583 606.881 122.362 602.855 120.119Z" fill="#BA68C8"/>
<path d="M602.855 120.119L421.31 15.3408C420.546 14.7776 419.621 14.4738 418.671 14.4738C417.721 14.4738 416.796 14.7776 416.031 15.3408L409.745 19.7114L414.033 25.0144V171.211C414.033 176.572 417.3 182.866 421.325 185.109L601.076 288.78L601.412 294.476L608.033 289.946C608.793 289.232 609.379 288.354 609.748 287.38C610.117 286.405 610.259 285.359 610.162 284.322V133.944C610.148 128.583 606.881 122.362 602.855 120.119Z" fill="#CBB0F6"/>
<path d="M596.672 294.068L415.127 189.363C411.116 187.047 407.834 180.826 407.834 175.465V25.0871C407.834 19.7404 411.101 17.2783 415.127 19.5947L596.672 124.3C600.697 126.616 603.964 132.837 603.964 138.198V288.561C603.964 293.923 600.697 296.399 596.672 294.068Z" fill="#BA68C8"/>
<path d="M596.672 294.068L415.127 189.363C411.116 187.047 407.834 180.826 407.834 175.465V25.0871C407.834 19.7404 411.101 17.2783 415.127 19.5947L596.672 124.3C600.697 126.616 603.964 132.837 603.964 138.198V288.561C603.964 293.923 600.697 296.399 596.672 294.068Z" fill="#8E54EC"/>
<path d="M596.672 124.3L415.127 19.5947C411.116 17.2783 407.834 19.7404 407.834 25.0871V32.3714L603.949 145.468V138.184C603.964 132.837 600.697 126.616 596.672 124.3Z" fill="#EEE6FC"/>
<path d="M412.239 20.1776C413.004 20.2135 413.747 20.4442 414.397 20.8477L595.942 125.553C599.501 127.607 602.505 133.391 602.505 138.198V288.562C602.505 291.475 601.353 293.486 599.589 293.486C598.817 293.449 598.068 293.213 597.415 292.801L415.856 188.096C412.312 186.056 409.308 180.258 409.308 175.465V25.0872C409.308 22.1006 410.46 20.1776 412.224 20.1776H412.239ZM412.224 18.7207C409.643 18.7207 407.849 21.0954 407.849 25.0872V175.48C407.849 180.841 411.116 187.062 415.141 189.378L596.672 294.068C597.549 294.613 598.556 294.914 599.589 294.943C602.17 294.943 603.964 292.553 603.964 288.562V138.198C603.964 132.837 600.697 126.543 596.672 124.3L415.127 19.5948C414.251 19.0467 413.243 18.7447 412.21 18.7207H412.224Z" fill="#8E54EC"/>
<path d="M492.015 98.2657C491.743 98.271 491.476 98.2004 491.242 98.0618L422.127 58.2602C421.803 58.0411 421.574 57.7074 421.487 57.3264C421.399 56.9454 421.46 56.5454 421.656 56.2071C421.852 55.8689 422.169 55.6175 422.544 55.5037C422.918 55.39 423.322 55.4223 423.673 55.5941L492.788 95.454C493.1 95.6157 493.347 95.8788 493.489 96.1999C493.632 96.521 493.66 96.8808 493.57 97.2202C493.48 97.5596 493.277 97.8582 492.994 98.0668C492.712 98.2754 492.366 98.3815 492.015 98.3677V98.2657Z" fill="white"/>
<path d="M589.248 154.413C588.975 154.414 588.707 154.338 588.475 154.195L537.284 124.678C536.928 124.474 536.669 124.136 536.562 123.74C536.455 123.344 536.511 122.921 536.716 122.566C536.921 122.21 537.258 121.951 537.655 121.844C538.052 121.738 538.474 121.793 538.83 121.998L590.021 151.528C590.333 151.69 590.58 151.953 590.723 152.274C590.865 152.595 590.893 152.955 590.803 153.295C590.713 153.634 590.51 153.933 590.227 154.141C589.945 154.35 589.599 154.456 589.248 154.442V154.413Z" fill="white"/>
<path d="M526.959 118.487C526.688 118.483 526.423 118.413 526.186 118.283L505.345 106.278C505.154 106.185 504.985 106.054 504.848 105.893C504.71 105.731 504.607 105.543 504.545 105.341C504.484 105.138 504.464 104.925 504.489 104.714C504.513 104.504 504.58 104.301 504.687 104.117C504.793 103.934 504.936 103.774 505.107 103.649C505.277 103.523 505.472 103.433 505.679 103.386C505.886 103.339 506.1 103.334 506.308 103.373C506.517 103.412 506.715 103.493 506.891 103.612L527.688 115.602C528 115.764 528.247 116.027 528.39 116.348C528.532 116.669 528.56 117.029 528.47 117.368C528.38 117.708 528.177 118.006 527.894 118.215C527.612 118.424 527.266 118.53 526.915 118.516L526.959 118.487Z" fill="white"/>
<path d="M492.015 195.016C491.744 195.014 491.478 194.944 491.242 194.812L422.127 154.952C421.803 154.733 421.574 154.399 421.487 154.018C421.399 153.637 421.46 153.237 421.656 152.899C421.852 152.561 422.169 152.31 422.544 152.196C422.918 152.082 423.322 152.114 423.673 152.286L492.788 192.131C493.142 192.338 493.399 192.677 493.503 193.073C493.607 193.469 493.549 193.89 493.342 194.244C493.215 194.483 493.023 194.682 492.788 194.819C492.554 194.955 492.286 195.023 492.015 195.016Z" fill="white"/>
<path d="M589.248 251.091C588.976 251.096 588.709 251.025 588.475 250.887L537.284 221.371C536.928 221.166 536.669 220.828 536.562 220.432C536.455 220.036 536.511 219.614 536.716 219.258C536.921 218.903 537.258 218.643 537.655 218.537C538.052 218.43 538.474 218.485 538.83 218.69L590.021 248.221C590.373 248.425 590.631 248.76 590.737 249.153C590.844 249.546 590.791 249.965 590.59 250.319C590.453 250.553 590.257 250.747 590.022 250.883C589.786 251.018 589.52 251.09 589.248 251.091V251.091Z" fill="white"/>
<path d="M526.959 215.165C526.687 215.17 526.419 215.099 526.186 214.961L505.345 202.971C505.154 202.878 504.985 202.746 504.848 202.585C504.71 202.424 504.607 202.236 504.545 202.033C504.484 201.83 504.464 201.617 504.489 201.407C504.513 201.196 504.58 200.993 504.687 200.81C504.793 200.626 504.936 200.467 505.107 200.341C505.277 200.215 505.472 200.126 505.679 200.078C505.886 200.031 506.1 200.027 506.308 200.066C506.517 200.104 506.715 200.186 506.891 200.305L527.688 212.295C528.04 212.499 528.298 212.834 528.404 213.227C528.511 213.62 528.458 214.038 528.257 214.392C528.124 214.62 527.935 214.811 527.707 214.946C527.48 215.081 527.223 215.156 526.959 215.165V215.165Z" fill="white"/>
<path d="M492.015 217.729C491.743 217.734 491.476 217.663 491.242 217.525L422.127 177.679C421.771 177.475 421.511 177.137 421.405 176.741C421.298 176.345 421.353 175.922 421.558 175.567C421.763 175.211 422.101 174.952 422.498 174.845C422.894 174.739 423.317 174.794 423.673 174.999L492.788 214.815C493.1 214.977 493.347 215.24 493.489 215.561C493.632 215.882 493.66 216.242 493.57 216.581C493.48 216.92 493.277 217.219 492.994 217.428C492.712 217.636 492.366 217.742 492.015 217.729V217.729Z" fill="white"/>
<path d="M567.459 261.26C567.188 261.265 566.92 261.195 566.686 261.056L537.285 244.098C537.094 244.005 536.925 243.874 536.787 243.712C536.65 243.551 536.547 243.363 536.485 243.16C536.423 242.958 536.404 242.745 536.428 242.534C536.453 242.324 536.52 242.12 536.626 241.937C536.733 241.754 536.876 241.594 537.046 241.468C537.217 241.343 537.412 241.253 537.619 241.206C537.825 241.158 538.04 241.154 538.248 241.193C538.457 241.232 538.655 241.313 538.83 241.432L568.232 258.39C568.408 258.49 568.563 258.623 568.687 258.783C568.811 258.943 568.902 259.125 568.955 259.32C569.007 259.515 569.021 259.719 568.995 259.919C568.968 260.12 568.903 260.313 568.801 260.488C568.664 260.722 568.468 260.916 568.233 261.052C567.998 261.187 567.731 261.259 567.459 261.26Z" fill="white"/>
<path d="M526.959 237.906C526.688 237.903 526.423 237.833 526.186 237.702L505.345 225.712C504.989 225.508 504.729 225.17 504.623 224.774C504.516 224.378 504.571 223.955 504.776 223.6C504.981 223.244 505.319 222.985 505.716 222.878C506.112 222.772 506.535 222.827 506.891 223.032L527.688 235.022C528 235.183 528.248 235.447 528.39 235.768C528.532 236.089 528.56 236.449 528.47 236.788C528.38 237.127 528.177 237.426 527.895 237.635C527.612 237.843 527.266 237.949 526.915 237.935L526.959 237.906Z" fill="white"/>
<path d="M457.552 90.4712C457.279 90.4721 457.011 90.3964 456.779 90.2527L422.127 70.279C421.86 70.0407 421.684 69.7171 421.629 69.3633C421.574 69.0096 421.644 68.6478 421.826 68.3398C422.009 68.0318 422.293 67.7967 422.63 67.6748C422.966 67.5528 423.335 67.5516 423.673 67.6712L458.325 87.6449C458.679 87.8516 458.936 88.1903 459.04 88.5865C459.144 88.9826 459.086 89.4038 458.88 89.7573C458.744 89.9858 458.549 90.173 458.315 90.2988C458.081 90.4246 457.818 90.4842 457.552 90.4712V90.4712Z" fill="white"/>
<path d="M557.352 148.032C557.082 148.029 556.816 147.959 556.579 147.828L505.345 118.298C505.154 118.204 504.985 118.073 504.848 117.912C504.71 117.751 504.607 117.563 504.545 117.36C504.484 117.157 504.464 116.944 504.489 116.734C504.513 116.523 504.58 116.32 504.687 116.136C504.793 115.953 504.936 115.794 505.107 115.668C505.277 115.542 505.472 115.453 505.679 115.405C505.886 115.358 506.1 115.354 506.308 115.392C506.517 115.431 506.715 115.513 506.891 115.631L558.082 145.148C558.394 145.309 558.641 145.572 558.783 145.893C558.925 146.215 558.954 146.574 558.864 146.914C558.774 147.253 558.571 147.552 558.288 147.76C558.005 147.969 557.66 148.075 557.309 148.061L557.352 148.032Z" fill="white"/>
<path d="M492.496 110.62C492.225 110.625 491.957 110.554 491.723 110.416L470.926 98.4258C470.57 98.2211 470.31 97.8834 470.204 97.4873C470.097 97.0911 470.152 96.6689 470.357 96.3134C470.562 95.9579 470.9 95.6983 471.297 95.5918C471.694 95.4852 472.116 95.5404 472.472 95.7452L493.269 107.735C493.623 107.942 493.88 108.281 493.984 108.677C494.088 109.073 494.03 109.494 493.823 109.848C493.696 110.087 493.504 110.286 493.27 110.422C493.035 110.559 492.768 110.627 492.496 110.62Z" fill="white"/>
<path d="M492.015 122.362C491.742 122.363 491.474 122.287 491.242 122.144L422.127 82.24C421.849 82.0045 421.664 81.6787 421.603 81.3199C421.542 80.9611 421.611 80.5924 421.795 80.2788C421.98 79.9653 422.27 79.727 422.613 79.606C422.957 79.4851 423.332 79.4891 423.673 79.6176L492.788 119.477C493.142 119.684 493.399 120.023 493.503 120.419C493.607 120.815 493.549 121.236 493.342 121.59C493.215 121.829 493.023 122.028 492.789 122.165C492.554 122.301 492.286 122.369 492.015 122.362Z" fill="white"/>
<path d="M551.694 156.773C551.422 156.779 551.154 156.708 550.921 156.569L537.285 148.702C537.094 148.609 536.925 148.478 536.787 148.317C536.65 148.155 536.547 147.967 536.485 147.765C536.423 147.562 536.404 147.349 536.428 147.138C536.453 146.928 536.52 146.725 536.626 146.541C536.733 146.358 536.876 146.198 537.046 146.073C537.217 145.947 537.412 145.857 537.619 145.81C537.825 145.763 538.04 145.758 538.248 145.797C538.457 145.836 538.655 145.918 538.83 146.036L552.467 153.903C552.819 154.108 553.077 154.443 553.183 154.835C553.29 155.228 553.237 155.647 553.036 156.001C552.899 156.235 552.703 156.43 552.467 156.565C552.232 156.701 551.965 156.772 551.694 156.773V156.773Z" fill="white"/>
<path d="M464.363 118.429C464.093 118.425 463.827 118.355 463.59 118.225L449.925 110.357C449.748 110.256 449.594 110.121 449.47 109.96C449.346 109.799 449.255 109.615 449.202 109.419C449.15 109.223 449.136 109.018 449.162 108.817C449.189 108.615 449.254 108.421 449.356 108.245C449.457 108.069 449.593 107.915 449.754 107.791C449.915 107.667 450.099 107.576 450.295 107.523C450.492 107.471 450.697 107.457 450.898 107.483C451.1 107.51 451.294 107.575 451.471 107.677L465.107 115.544C465.419 115.706 465.666 115.969 465.808 116.29C465.951 116.611 465.979 116.971 465.889 117.31C465.799 117.65 465.596 117.948 465.313 118.157C465.031 118.365 464.685 118.471 464.334 118.458L464.363 118.429Z" fill="white"/>
<path d="M526.959 142.511C526.688 142.507 526.423 142.437 526.186 142.307L505.345 130.317C505.169 130.215 505.014 130.08 504.89 129.919C504.767 129.758 504.676 129.574 504.623 129.378C504.57 129.182 504.556 128.977 504.583 128.776C504.609 128.575 504.675 128.38 504.776 128.204C504.878 128.028 505.013 127.874 505.174 127.75C505.335 127.626 505.52 127.535 505.716 127.483C505.912 127.43 506.117 127.416 506.319 127.443C506.52 127.469 506.715 127.535 506.891 127.636L527.688 139.626C528 139.788 528.248 140.051 528.39 140.372C528.532 140.693 528.56 141.053 528.47 141.392C528.38 141.732 528.177 142.03 527.895 142.239C527.612 142.447 527.266 142.554 526.915 142.54L526.959 142.511Z" fill="white"/>
<path d="M445.054 107.284C444.782 107.289 444.514 107.218 444.281 107.08L422.127 94.3029C421.803 94.0838 421.574 93.7501 421.487 93.3691C421.399 92.9881 421.46 92.5881 421.656 92.2499C421.852 91.9116 422.169 91.6602 422.544 91.5465C422.918 91.4327 423.322 91.465 423.673 91.6368L445.827 104.414C446.154 104.564 446.418 104.825 446.572 105.151C446.726 105.477 446.759 105.847 446.667 106.195C446.575 106.544 446.362 106.848 446.067 107.055C445.772 107.262 445.413 107.359 445.054 107.327V107.284Z" fill="white"/>
<path d="M492.496 134.687C492.225 134.692 491.957 134.622 491.723 134.483L470.926 122.45C470.736 122.356 470.566 122.225 470.429 122.064C470.291 121.902 470.188 121.715 470.127 121.512C470.065 121.309 470.046 121.096 470.07 120.886C470.094 120.675 470.162 120.472 470.268 120.288C470.374 120.105 470.517 119.946 470.688 119.82C470.859 119.694 471.053 119.605 471.26 119.557C471.467 119.51 471.681 119.506 471.89 119.544C472.098 119.583 472.296 119.665 472.472 119.783L493.269 131.773C493.581 131.935 493.829 132.198 493.971 132.519C494.113 132.84 494.141 133.2 494.051 133.54C493.961 133.879 493.758 134.178 493.476 134.386C493.193 134.595 492.847 134.701 492.496 134.687V134.687Z" fill="white"/>
<path d="M492.015 147.26C491.743 147.265 491.476 147.195 491.242 147.056L422.127 107.196C421.803 106.977 421.574 106.644 421.487 106.263C421.399 105.882 421.46 105.482 421.656 105.143C421.852 104.805 422.169 104.554 422.544 104.44C422.918 104.326 423.322 104.358 423.673 104.53L492.788 144.376C493.142 144.582 493.399 144.921 493.503 145.317C493.607 145.713 493.549 146.134 493.342 146.488C493.215 146.727 493.023 146.926 492.788 147.063C492.554 147.199 492.286 147.268 492.015 147.26V147.26Z" fill="white"/>
<path d="M589.248 203.335C588.979 203.349 588.712 203.288 588.475 203.16L537.284 173.644C536.928 173.439 536.669 173.101 536.562 172.705C536.455 172.309 536.511 171.887 536.716 171.531C536.921 171.176 537.258 170.916 537.655 170.81C538.052 170.703 538.474 170.758 538.83 170.963L590.021 200.494C590.373 200.698 590.631 201.033 590.737 201.426C590.844 201.819 590.791 202.238 590.59 202.592C590.449 202.821 590.252 203.009 590.017 203.139C589.782 203.27 589.517 203.337 589.248 203.335V203.335Z" fill="white"/>
<path d="M526.959 167.408C526.687 167.414 526.419 167.343 526.186 167.204L505.345 155.214C505.154 155.121 504.985 154.99 504.848 154.829C504.71 154.667 504.607 154.48 504.545 154.277C504.484 154.074 504.464 153.861 504.489 153.65C504.513 153.44 504.58 153.237 504.687 153.053C504.793 152.87 504.936 152.71 505.107 152.585C505.277 152.459 505.472 152.37 505.679 152.322C505.886 152.275 506.1 152.27 506.308 152.309C506.517 152.348 506.715 152.43 506.891 152.548L527.688 164.538C528.041 164.745 528.299 165.083 528.406 165.478C528.512 165.873 528.459 166.295 528.257 166.651C528.12 166.874 527.93 167.06 527.703 167.193C527.477 167.325 527.221 167.399 526.959 167.408V167.408Z" fill="white"/>
<path d="M457.552 139.393C457.281 139.398 457.013 139.328 456.779 139.189L422.127 119.215C421.771 119.011 421.511 118.673 421.405 118.277C421.298 117.881 421.353 117.458 421.558 117.103C421.763 116.747 422.101 116.488 422.498 116.381C422.894 116.275 423.317 116.33 423.673 116.535L458.325 136.523C458.637 136.685 458.885 136.948 459.027 137.269C459.169 137.59 459.197 137.95 459.107 138.289C459.017 138.629 458.814 138.927 458.532 139.136C458.249 139.344 457.903 139.45 457.552 139.437V139.393Z" fill="white"/>
<path d="M557.353 196.968C557.08 196.969 556.812 196.893 556.58 196.75L505.345 167.234C504.989 167.029 504.729 166.691 504.623 166.295C504.516 165.899 504.571 165.477 504.776 165.121C504.981 164.766 505.319 164.506 505.716 164.4C506.112 164.293 506.535 164.348 506.891 164.553L558.082 194.084C558.394 194.245 558.641 194.508 558.783 194.83C558.926 195.151 558.954 195.51 558.864 195.85C558.774 196.189 558.571 196.488 558.288 196.696C558.005 196.905 557.66 197.011 557.309 196.997L557.353 196.968Z" fill="white"/>
<path d="M492.496 159.556C492.226 159.552 491.96 159.482 491.723 159.352L470.926 147.347C470.736 147.254 470.566 147.123 470.429 146.962C470.291 146.8 470.188 146.612 470.127 146.41C470.065 146.207 470.046 145.994 470.07 145.783C470.094 145.573 470.162 145.37 470.268 145.186C470.374 145.003 470.517 144.843 470.688 144.718C470.859 144.592 471.053 144.502 471.26 144.455C471.467 144.408 471.681 144.403 471.89 144.442C472.098 144.481 472.296 144.563 472.472 144.681L493.269 156.671C493.623 156.878 493.88 157.217 493.984 157.613C494.088 158.009 494.03 158.43 493.823 158.784C493.696 159.023 493.504 159.222 493.27 159.358C493.035 159.495 492.768 159.563 492.496 159.556V159.556Z" fill="white"/>
<path d="M492.015 171.284C491.743 171.289 491.476 171.218 491.242 171.08L422.127 131.22C421.803 131.001 421.574 130.667 421.487 130.286C421.399 129.905 421.46 129.505 421.656 129.167C421.852 128.828 422.169 128.577 422.544 128.463C422.918 128.35 423.322 128.382 423.673 128.554L492.788 168.414C493.1 168.575 493.347 168.838 493.489 169.159C493.632 169.481 493.66 169.84 493.57 170.18C493.48 170.519 493.277 170.818 492.994 171.026C492.712 171.235 492.366 171.341 492.015 171.327V171.284Z" fill="white"/>
<path d="M551.694 205.709C551.423 205.706 551.158 205.636 550.921 205.505L537.285 197.638C537.094 197.545 536.925 197.414 536.787 197.252C536.65 197.091 536.547 196.903 536.485 196.701C536.423 196.498 536.404 196.285 536.428 196.074C536.453 195.864 536.52 195.661 536.626 195.477C536.733 195.294 536.876 195.134 537.046 195.008C537.217 194.883 537.412 194.793 537.619 194.746C537.825 194.699 538.04 194.694 538.248 194.733C538.457 194.772 538.655 194.853 538.83 194.972L552.467 202.825C552.779 202.986 553.026 203.25 553.168 203.571C553.311 203.892 553.339 204.252 553.249 204.591C553.159 204.93 552.956 205.229 552.673 205.437C552.39 205.646 552.045 205.752 551.694 205.738V205.709Z" fill="white"/>
<path d="M464.363 167.365C464.09 167.366 463.822 167.29 463.59 167.146L449.925 159.294C449.569 159.089 449.309 158.751 449.202 158.355C449.096 157.959 449.151 157.537 449.356 157.181C449.561 156.826 449.899 156.566 450.295 156.46C450.692 156.353 451.115 156.408 451.471 156.613L465.107 164.48C465.419 164.642 465.666 164.905 465.808 165.226C465.951 165.547 465.979 165.907 465.889 166.246C465.799 166.586 465.596 166.884 465.313 167.093C465.031 167.302 464.685 167.408 464.334 167.394L464.363 167.365Z" fill="white"/>
<path d="M526.959 191.505C526.688 191.501 526.423 191.431 526.186 191.301L505.345 179.253C504.989 179.048 504.729 178.71 504.623 178.314C504.516 177.918 504.571 177.496 504.776 177.14C504.981 176.785 505.319 176.525 505.716 176.419C506.112 176.312 506.535 176.367 506.891 176.572L527.732 188.591C528.044 188.753 528.291 189.016 528.434 189.337C528.576 189.658 528.604 190.018 528.514 190.357C528.424 190.697 528.221 190.995 527.938 191.204C527.656 191.413 527.31 191.519 526.959 191.505V191.505Z" fill="white"/>
<path d="M445.054 156.22C444.782 156.225 444.514 156.154 444.281 156.016L422.127 143.239C421.765 143.034 421.5 142.694 421.389 142.294C421.278 141.894 421.331 141.466 421.536 141.105C421.741 140.743 422.082 140.478 422.482 140.368C422.883 140.257 423.311 140.31 423.673 140.515L445.826 153.277C446.138 153.439 446.386 153.702 446.528 154.023C446.67 154.344 446.699 154.704 446.609 155.043C446.519 155.382 446.316 155.681 446.033 155.89C445.75 156.098 445.405 156.204 445.054 156.191V156.22Z" fill="white"/>
<path d="M492.496 183.58C492.225 183.585 491.957 183.514 491.723 183.376L470.926 171.386C470.57 171.181 470.31 170.843 470.204 170.447C470.097 170.051 470.152 169.629 470.357 169.273C470.562 168.918 470.9 168.658 471.297 168.551C471.694 168.445 472.116 168.5 472.472 168.705L493.269 180.709C493.581 180.871 493.829 181.134 493.971 181.455C494.113 181.776 494.141 182.136 494.051 182.476C493.961 182.815 493.758 183.114 493.476 183.322C493.193 183.531 492.847 183.637 492.496 183.623V183.58Z" fill="white"/>
<path d="M464.363 190.383C464.091 190.389 463.824 190.318 463.59 190.179L449.954 182.312C449.763 182.219 449.594 182.088 449.456 181.926C449.319 181.765 449.216 181.577 449.154 181.375C449.093 181.172 449.073 180.959 449.098 180.748C449.122 180.538 449.189 180.334 449.296 180.151C449.402 179.968 449.545 179.808 449.716 179.682C449.886 179.557 450.081 179.467 450.288 179.42C450.495 179.373 450.709 179.368 450.917 179.407C451.126 179.446 451.324 179.527 451.5 179.646L465.136 187.513C465.464 187.664 465.728 187.925 465.881 188.251C466.035 188.577 466.069 188.947 465.976 189.295C465.884 189.643 465.672 189.948 465.376 190.155C465.081 190.362 464.722 190.458 464.363 190.427V190.383Z" fill="white"/>
<path d="M445.054 179.253C444.783 179.249 444.518 179.179 444.281 179.049L422.127 166.272C421.771 166.067 421.511 165.73 421.405 165.333C421.298 164.937 421.353 164.515 421.558 164.16C421.763 163.804 422.101 163.545 422.498 163.438C422.894 163.331 423.317 163.387 423.673 163.591L445.827 176.368C446.138 176.53 446.386 176.793 446.528 177.114C446.67 177.435 446.699 177.795 446.609 178.134C446.519 178.474 446.316 178.772 446.033 178.981C445.75 179.189 445.405 179.296 445.054 179.282V179.253Z" fill="white"/>
<path d="M492.496 206.613C492.226 206.609 491.96 206.539 491.723 206.409L470.926 194.419C470.57 194.214 470.31 193.876 470.204 193.48C470.097 193.084 470.152 192.662 470.357 192.306C470.562 191.951 470.9 191.691 471.297 191.585C471.694 191.478 472.116 191.533 472.472 191.738L493.269 203.728C493.623 203.935 493.88 204.273 493.984 204.67C494.088 205.066 494.03 205.487 493.823 205.84C493.696 206.08 493.504 206.279 493.27 206.415C493.035 206.552 492.768 206.62 492.496 206.613Z" fill="white"/>
<path d="M436.58 73.2511V129.107C436.58 130.011 436.259 130.564 435.749 130.812L433.605 131.992V130.083L433.299 72.6538L436.099 71.1969C436.412 71.8368 436.577 72.5389 436.58 73.2511Z" fill="#2F007C"/>
<path d="M436.099 71.2405L433.299 72.6974L365.496 32.9395L363.877 32.0071L366.109 30.7542H366.182C366.39 30.6434 366.625 30.5941 366.86 30.6122C367.095 30.6302 367.32 30.7149 367.509 30.8562L434.597 69.4486C435.263 69.8855 435.785 70.5087 436.099 71.2405V71.2405Z" fill="#2F007C"/>
<path d="M434.159 74.4606V129.953C434.19 130.249 434.147 130.549 434.035 130.826C433.923 131.103 433.746 131.348 433.518 131.541H433.386C433.184 131.622 432.964 131.652 432.748 131.626C432.531 131.601 432.324 131.521 432.147 131.395L365.497 93.0356C364.884 92.5993 364.382 92.0252 364.033 91.3596C363.683 90.694 363.495 89.9556 363.484 89.2041V33.7994C363.454 33.5096 363.494 33.2168 363.6 32.9455C363.707 32.6743 363.877 32.4325 364.096 32.2406C364.156 32.188 364.225 32.1483 364.301 32.124C364.498 32.0533 364.71 32.0309 364.918 32.0588C365.126 32.0866 365.325 32.164 365.497 32.2843L432.147 70.5853C432.793 71.0072 433.3 71.6103 433.605 72.319C433.951 72.9813 434.141 73.7138 434.159 74.4606Z" fill="#EEE6FC"/>
<path d="M412.041 75.8743V78.4483L420.626 86.4794V84.0154L412.041 75.8743ZM420.626 85.4674L412.041 83.6403V86.2363L420.626 87.9534V85.4674ZM418.718 84.02V85.824L419.291 86.1526V84.3486L418.718 84.02ZM410.271 88.5864L406.341 67.85L403.689 66.3274L407.619 87.0639L410.271 88.5864ZM401.938 80.4366V77.8626L393.352 69.8315V72.2955L401.938 80.4366ZM393.352 70.8435L401.938 72.6706V70.0746L393.352 68.3575V70.8435ZM395.26 72.2909V70.4869L394.688 70.1583V71.9623L395.26 72.2909Z" fill="#8E54EC"/>
<path d="M364.432 32.1822C364.649 32.1885 364.861 32.254 365.044 32.3716L432.132 70.964C432.722 71.3545 433.187 71.9055 433.474 72.552C433.782 73.1521 433.946 73.8153 433.955 74.4896V130.317C433.989 130.548 433.967 130.783 433.891 131.004C433.815 131.224 433.687 131.423 433.517 131.584H433.401C433.305 131.608 433.205 131.608 433.109 131.584C432.893 131.567 432.684 131.503 432.496 131.395L365.409 92.7879C364.852 92.3807 364.397 91.8509 364.078 91.2394C363.759 90.628 363.586 89.9515 363.571 89.2623V33.5808C363.547 33.347 363.575 33.1108 363.653 32.8891C363.731 32.6674 363.858 32.4658 364.023 32.2988H364.155C364.241 32.2784 364.331 32.2784 364.417 32.2988L364.432 32.1822ZM364.417 31.92C364.276 31.9194 364.137 31.9492 364.009 32.0074L363.805 32.124C363.588 32.3211 363.422 32.5662 363.318 32.8395C363.214 33.1128 363.176 33.4067 363.207 33.6974V89.3934C363.22 90.1486 363.409 90.8904 363.758 91.5603C364.107 92.2302 364.608 92.81 365.219 93.2541L432.307 131.846C432.545 131.991 432.816 132.071 433.094 132.08C433.25 132.082 433.403 132.052 433.547 131.992L433.678 131.919C433.907 131.724 434.085 131.477 434.197 131.197C434.309 130.918 434.351 130.616 434.32 130.317V74.4896C434.301 73.7603 434.122 73.0439 433.794 72.3918C433.481 71.6843 432.976 71.0786 432.336 70.6435L365.248 32.0511C365.007 31.9008 364.731 31.8155 364.446 31.8035L364.417 31.92Z" fill="#37474F"/>
<path d="M425.803 33.6244C425.803 35.2123 424.68 35.8534 423.309 35.0812C422.573 34.6056 421.962 33.9604 421.528 33.1997C421.094 32.4391 420.849 31.5854 420.815 30.7106C420.815 29.1226 421.923 28.4816 423.309 29.2538C424.04 29.7346 424.647 30.3811 425.08 31.1406C425.513 31.9001 425.761 32.7511 425.803 33.6244V33.6244Z" fill="#1CC94C"/>
<path d="M435.079 39.3353C435.079 40.9233 433.955 41.5789 432.57 40.7922C431.836 40.3139 431.228 39.668 430.794 38.908C430.36 38.1479 430.114 37.2956 430.076 36.4216C430.076 34.8336 431.199 34.178 432.57 34.9647C433.306 35.4413 433.918 36.0865 434.354 36.8467C434.79 37.6068 435.039 38.46 435.079 39.3353V39.3353Z" fill="#FBB130"/>
<path d="M444.339 45.0606C444.339 46.6486 443.231 47.2896 441.845 46.5175C441.114 46.0367 440.507 45.3901 440.074 44.6306C439.641 43.8711 439.393 43.0201 439.351 42.1469C439.351 40.5589 440.474 39.9179 441.845 40.69C442.581 41.1656 443.192 41.8109 443.626 42.5715C444.06 43.3321 444.305 44.1858 444.339 45.0606V45.0606Z" fill="#D81717"/>
</svg>
