<svg width="65" height="64" viewBox="0 0 65 64" fill="none" xmlns="http://www.w3.org/2000/svg">
<path d="M32.5001 34C24.0467 34 17.1667 27.12 17.1667 18.6667C17.1667 10.2133 24.0467 3.33334 32.5001 3.33334C40.9534 3.33334 47.8334 10.2133 47.8334 18.6667C47.8334 27.12 40.9534 34 32.5001 34ZM32.5001 7.33334C26.2601 7.33334 21.1667 12.4267 21.1667 18.6667C21.1667 24.9067 26.2601 30 32.5001 30C38.7401 30 43.8334 24.9067 43.8334 18.6667C43.8334 12.4267 38.7401 7.33334 32.5001 7.33334Z" fill="#5600E2"/>
<path d="M42.6869 60.6667C41.6736 60.6667 40.7136 60.2933 40.0202 59.5999C39.1936 58.7733 38.8202 57.5733 39.0069 56.32L39.5136 52.72C39.6469 51.7867 40.2069 50.6933 40.8736 50L50.3135 40.56C54.1002 36.7734 57.4336 38.9334 59.0603 40.56C60.4469 41.9467 61.1669 43.4399 61.1669 44.9333C61.1669 46.4533 60.4736 47.8666 59.0603 49.2799L49.6202 58.72C48.9535 59.3867 47.8336 59.9467 46.9003 60.0801L43.3002 60.5866C43.0868 60.6399 42.9002 60.6667 42.6869 60.6667ZM54.6602 42.4533C54.1802 42.4533 53.7535 42.7734 53.1402 43.3867L43.7002 52.8266C43.6202 52.9066 43.4869 53.1733 43.4869 53.2799L43.0069 56.6133L46.3402 56.1333C46.4469 56.1066 46.7135 55.9734 46.7935 55.8934L56.2336 46.4533C56.6603 46.0266 57.1669 45.4133 57.1669 44.9333C57.1669 44.5333 56.8469 43.9734 56.2336 43.3867C55.5936 42.7467 55.1135 42.4533 54.6602 42.4533Z" fill="#5600E2"/>
<path d="M56.287 51.2533C56.1003 51.2533 55.9136 51.2267 55.7536 51.1733C52.2336 50.1867 49.4337 47.3867 48.447 43.8667C48.1537 42.8 48.767 41.7067 49.8337 41.4134C50.9004 41.1201 51.9937 41.7333 52.287 42.8C52.9003 44.9866 54.6337 46.72 56.8204 47.3333C57.887 47.6267 58.5004 48.7466 58.2071 49.7866C57.9671 50.6666 57.167 51.2533 56.287 51.2533Z" fill="#5600E2"/>
<path d="M9.59375 60.6667C8.50042 60.6667 7.59375 59.76 7.59375 58.6667C7.59375 47.28 18.7672 38 32.5005 38C35.4072 38 38.2871 38.4267 40.9805 39.2267C42.0471 39.5467 42.6338 40.6667 42.3138 41.7067C41.9938 42.7734 40.8738 43.36 39.8338 43.04C37.4872 42.3467 35.0338 41.9733 32.5005 41.9733C20.9805 41.9733 11.5938 49.44 11.5938 58.64C11.5938 59.76 10.6871 60.6667 9.59375 60.6667Z" fill="#5600E2"/>
</svg>
