<svg width="18" height="28" viewBox="0 0 18 28" fill="none" xmlns="http://www.w3.org/2000/svg">
<g clip-path="url(#clip0_56_16574)">
<path fill-rule="evenodd" clip-rule="evenodd" d="M17.2543 27.3868C16.8663 27.8888 16.1501 27.9729 15.6625 27.5742L10.9199 23.6965L12.3299 21.8717L17.0726 25.7495C17.5606 26.1481 17.6423 26.8853 17.2547 27.3868H17.2543Z" fill="#272727"/>
<path fill-rule="evenodd" clip-rule="evenodd" d="M0.24513 13.3423C1.74266 11.4041 13.4014 2.4797 16.1947 0.173158C16.7206 -0.260868 17.6462 0.236999 17.7793 0.416121C18.1579 0.925012 18.0289 1.64517 17.5431 2.04613C12.8103 5.95375 8.07747 9.86183 3.34467 13.7694C2.89595 14.1401 2.89416 14.0198 3.34378 14.3872L6.5795 17.0327L5.16948 18.8574L0.426851 14.9797C-0.0611633 14.581 -0.142871 13.8438 0.244683 13.3423H0.24513Z" fill="#5600E2"/>
<path fill-rule="evenodd" clip-rule="evenodd" d="M17.7555 14.6577C16.2579 16.5959 4.59917 25.5203 1.80592 27.8269C1.27996 28.2609 0.354381 27.763 0.221326 27.5839C-0.157298 27.075 -0.0282622 26.3548 0.45752 25.9539C5.19032 22.0463 9.92313 18.1382 14.6559 14.2306C15.1047 13.8599 15.1064 13.9803 14.6568 13.6128L11.4211 10.9673L12.8311 9.14258L17.5738 13.0203C18.0618 13.419 18.1435 14.1562 17.7559 14.6577H17.7555Z" fill="#272727"/>
<path fill-rule="evenodd" clip-rule="evenodd" d="M0.499036 0.499708C0.887037 -0.00229307 1.60321 -0.0863427 2.09078 0.312319L6.8334 4.19008L5.42339 6.01483L0.680758 2.13707C0.192743 1.73841 0.111035 1.00125 0.498589 0.499708H0.499036Z" fill="#5600E2"/>
</g>
<defs>
<clipPath id="clip0_56_16574">
<rect width="18" height="28" fill="white"/>
</clipPath>
</defs>
</svg>
