<svg width="398" height="462" viewBox="0 0 398 462" fill="none" xmlns="http://www.w3.org/2000/svg">
<path d="M198.978 462C308.87 462 397.955 411.549 397.955 349.314C397.955 287.079 308.87 236.628 198.978 236.628C89.0853 236.628 0 287.079 0 349.314C0 411.549 89.0853 462 198.978 462Z" fill="#EEE6FC" fill-opacity="0.2"/>
<path d="M281.779 420.364L133.25 334.868C131.944 334.118 130.859 333.037 130.104 331.736C129.349 330.434 128.952 328.958 128.952 327.454C128.952 325.951 129.349 324.474 130.104 323.173C130.859 321.871 131.944 320.791 133.25 320.04L147.902 310.829C150.432 309.377 153.299 308.613 156.218 308.613C159.137 308.613 162.004 309.377 164.533 310.829L313.082 396.335C314.389 397.086 315.474 398.166 316.229 399.468C316.983 400.769 317.381 402.246 317.381 403.749C317.381 405.253 316.983 406.729 316.229 408.031C315.474 409.332 314.389 410.413 313.082 411.163L298.431 420.364C295.9 421.824 293.028 422.593 290.105 422.593C287.181 422.593 284.31 421.824 281.779 420.364Z" fill="#EEE6FC" fill-opacity="0.5"/>
<path d="M277.256 410.147L146.631 334.959C137.411 329.654 129.939 315.42 129.939 303.169V24.3231C129.939 12.072 137.411 6.44474 146.631 11.7499L277.256 86.9375C286.475 92.2426 293.948 106.477 293.948 118.728V397.573C293.948 409.814 286.475 415.452 277.256 410.147Z" fill="#455A64"/>
<path d="M292.301 78.1694L161.666 2.98182C157.728 0.716826 154.113 0.455093 151.255 1.84429C150.905 2.01895 150.568 2.21739 150.245 2.43822L135.604 10.9244C138.552 9.16273 142.409 9.29359 146.64 11.7297L277.266 86.9173C286.485 92.2225 293.958 106.457 293.958 118.708V397.553C293.958 404.036 291.867 408.627 288.535 410.801L302.985 402.415C306.671 400.463 309.044 395.681 309.044 388.826V109.98C309.044 97.7088 301.521 83.4746 292.301 78.1694Z" fill="#37474F"/>
<path d="M293.947 118.708V397.553C293.947 404.036 291.857 408.627 288.525 410.801L302.985 402.415C306.671 400.463 309.044 395.681 309.044 388.826V109.98L293.998 118.688L293.947 118.708Z" fill="#263238"/>
<path d="M308.993 131.613L293.948 140.271V147.035L308.993 138.368V131.613Z" fill="#37474F"/>
<path d="M302.4 176.601C301.057 177.376 299.966 176.551 299.966 174.769V160.223C299.98 159.313 300.207 158.42 300.63 157.614C301.052 156.808 301.659 156.112 302.4 155.582C303.743 154.807 304.833 155.582 304.833 157.414V171.96C304.82 172.87 304.593 173.763 304.17 174.569C303.747 175.375 303.141 176.071 302.4 176.601Z" fill="#37474F"/>
<path d="M299.956 174.809V160.222C299.97 159.313 300.197 158.42 300.62 157.614C301.042 156.808 301.648 156.112 302.39 155.582C302.611 155.427 302.869 155.333 303.138 155.308C303.408 155.284 303.678 155.329 303.925 155.441L302.097 154.505C301.847 154.385 301.57 154.333 301.293 154.354C301.016 154.375 300.75 154.469 300.522 154.625C299.78 155.156 299.172 155.851 298.748 156.657C298.324 157.463 298.094 158.356 298.078 159.266V173.802C298.04 174.17 298.096 174.54 298.241 174.88C298.386 175.22 298.614 175.518 298.906 175.745L300.814 176.752C300.511 176.534 300.271 176.239 300.12 175.897C299.969 175.555 299.912 175.18 299.956 174.809Z" fill="#455A64"/>
<path d="M302.4 211.804C301.057 212.579 299.966 211.804 299.966 209.972V195.426C299.981 194.516 300.208 193.623 300.631 192.817C301.053 192.012 301.659 191.315 302.4 190.785C303.743 190.01 304.833 190.785 304.833 192.627V207.163C304.821 208.073 304.595 208.967 304.172 209.773C303.749 210.579 303.142 211.275 302.4 211.804Z" fill="#37474F"/>
<path d="M299.956 209.972V195.426C299.971 194.516 300.198 193.623 300.621 192.817C301.043 192.012 301.649 191.316 302.39 190.785C302.612 190.633 302.87 190.541 303.139 190.516C303.407 190.491 303.678 190.535 303.925 190.644L302.097 189.698C301.848 189.572 301.57 189.518 301.292 189.539C301.015 189.56 300.748 189.657 300.522 189.819C299.778 190.347 299.169 191.042 298.745 191.848C298.32 192.655 298.092 193.549 298.078 194.459V209.036C298.039 209.403 298.095 209.774 298.24 210.114C298.384 210.454 298.614 210.751 298.906 210.979L300.814 211.985C300.498 211.762 300.251 211.455 300.099 211.1C299.947 210.744 299.898 210.354 299.956 209.972Z" fill="#455A64"/>
<path d="M272.692 94.7593L144.329 20.8501C143.793 20.5428 143.186 20.3806 142.568 20.3795C141.95 20.3783 141.342 20.5383 140.805 20.8436C140.268 21.1488 139.821 21.5887 139.507 22.1196C139.194 22.6505 139.025 23.254 139.017 23.8701V303.169C139.017 312.49 145.651 323.936 153.75 328.597L278.963 400.704C279.557 401.045 280.23 401.224 280.915 401.223C281.6 401.223 282.273 401.043 282.866 400.701C283.459 400.359 283.952 399.868 284.295 399.277C284.638 398.686 284.819 398.015 284.82 397.332V115.728C284.87 108.037 279.397 98.6047 272.692 94.7593Z" fill="#FFFBF4"/>
<path d="M182.72 40.1478L184.709 48.4931L227.262 72.955L234.613 69.0491L182.72 40.1478Z" fill="#455A64"/>
<path d="M195.232 48.2111C195.232 49.6003 194.222 50.154 193.051 49.4694C192.422 49.0532 191.9 48.4958 191.526 47.842C191.153 47.1881 190.938 46.456 190.9 45.7045C190.9 44.3254 191.91 43.7617 193.081 44.4563C193.71 44.8703 194.232 45.4258 194.605 46.0781C194.979 46.7303 195.194 47.461 195.232 48.2111Z" fill="#263238"/>
<path d="M223.899 65.8781C223.667 65.8763 223.438 65.8175 223.233 65.707L201.502 53.627C201.196 53.4474 200.971 53.1553 200.878 52.8131C200.784 52.4709 200.828 52.1058 201.001 51.7956C201.174 51.4855 201.461 51.255 201.802 51.1533C202.143 51.0515 202.51 51.0867 202.825 51.2513L224.566 63.3313C224.83 63.4777 225.038 63.7075 225.157 63.9847C225.276 64.2618 225.299 64.5705 225.223 64.8622C225.146 65.1538 224.975 65.4119 224.735 65.5958C224.496 65.7797 224.202 65.8791 223.899 65.8781Z" fill="#263238"/>
<path d="M165.938 78.9748C164.615 78.2098 163.655 78.8742 163.655 80.5553C163.655 81.396 163.864 82.2237 164.262 82.9648C164.66 83.7059 165.236 84.3375 165.938 84.8034C166.314 85.0309 166.745 85.1512 167.185 85.1512C167.624 85.1512 168.056 85.0309 168.432 84.8034L170.542 88.6086C169.8 89.017 168.958 89.2116 168.111 89.1708C167.264 89.1299 166.445 88.8551 165.746 88.3771C164.031 87.3313 162.602 85.8804 161.584 84.1526C160.566 82.4249 159.991 80.4736 159.909 78.4715C159.909 74.7368 162.424 73.4382 165.887 75.4515C167.843 76.7072 169.445 78.4396 170.542 80.4848L168.432 82.1559C167.911 80.8861 167.048 79.7849 165.938 78.9748Z" fill="#272727"/>
<path d="M182.69 91.5883C182.69 95.3532 180.135 96.6216 176.631 94.6083C174.868 93.5577 173.392 92.089 172.335 90.3328C171.278 88.5766 170.673 86.5873 170.573 84.5417C170.573 80.7767 173.128 79.5084 176.631 81.5217C178.399 82.5675 179.878 84.0351 180.936 85.7923C181.994 87.5495 182.596 89.5412 182.69 91.5883ZM174.319 86.7865C174.337 87.6508 174.56 88.4986 174.971 89.2599C175.382 90.0213 175.968 90.6744 176.682 91.1655C177.934 91.8903 178.944 91.1655 178.944 89.4542C178.94 88.6093 178.733 87.7777 178.339 87.0296C177.946 86.2814 177.377 85.6387 176.682 85.1557C175.41 84.4209 174.319 85.045 174.319 86.7865Z" fill="#272727"/>
<path d="M186.76 87.5919L191.122 96.6518V90.1286L194.424 92.0312V104.725L191.395 102.974L187.053 93.9942V100.477L183.73 98.5645V85.8403L186.76 87.5919Z" fill="#272727"/>
<path d="M205.218 98.2121V101.534L202.067 99.7221V109.104L198.422 107V97.6182L195.292 95.8163V92.5043L205.218 98.2121Z" fill="#272727"/>
<path d="M212.327 113.211L208.187 110.826L207.621 112.295L203.885 110.141L208.54 100.125L212.287 102.279L216.77 117.56L212.882 115.325L212.327 113.211ZM211.428 109.688L210.297 105.349L209.136 108.369L211.428 109.688Z" fill="#272727"/>
<path d="M222.556 111.561C221.233 110.806 220.274 111.46 220.274 113.151C220.276 113.991 220.485 114.818 220.883 115.559C221.281 116.3 221.856 116.932 222.556 117.399C222.935 117.624 223.367 117.743 223.808 117.743C224.249 117.743 224.682 117.624 225.06 117.399L227.171 121.204C226.425 121.608 225.583 121.8 224.735 121.759C223.888 121.718 223.068 121.446 222.364 120.973C220.648 119.926 219.218 118.474 218.2 116.744C217.182 115.014 216.608 113.061 216.528 111.057C216.528 107.322 219.052 106.024 222.506 108.037C224.459 109.299 226.063 111.03 227.171 113.071L225.06 114.732C224.528 113.468 223.663 112.373 222.556 111.561Z" fill="#272727"/>
<path d="M237.128 116.584V119.896L233.977 118.084V127.496L230.332 125.392V116.01L227.202 114.208V110.896L237.128 116.584Z" fill="#272727"/>
<path d="M247.902 132.167C248.8 132.68 249.487 132.278 249.487 131.019V123.701L253.142 125.795V133.113C253.142 136.485 251.123 137.492 247.892 135.65C246.335 134.788 245.026 133.542 244.091 132.032C243.156 130.521 242.625 128.796 242.55 127.023V119.704L246.205 121.808V129.127C246.219 129.733 246.381 130.326 246.677 130.856C246.972 131.385 247.393 131.835 247.902 132.167Z" fill="#272727"/>
<path d="M259.03 132.207C258.616 131.976 258.353 131.966 258.353 132.348C258.353 133.939 264.058 136.234 264.058 140.834C264.058 143.653 261.907 143.663 259.423 142.234C257.24 140.9 255.359 139.127 253.9 137.029L255.253 134.653C256.363 136.367 257.789 137.856 259.454 139.042C259.989 139.354 260.332 139.354 260.332 138.901C260.332 137.251 254.617 135.056 254.617 130.596C254.617 128.06 256.475 127.576 259.343 129.187C261.19 130.301 262.816 131.745 264.139 133.445L262.816 135.881C261.724 134.494 260.45 133.258 259.03 132.207Z" fill="#272727"/>
<path d="M147.569 141.529C151.666 136.512 153.729 130.147 153.35 123.689C152.97 117.231 150.177 111.149 145.521 106.643C140.864 102.138 134.683 99.5354 128.197 99.3498C121.71 99.1643 115.39 101.409 110.482 105.641C105.574 109.873 102.435 115.785 101.685 122.211C100.935 128.637 102.628 135.109 106.43 140.352C110.232 145.594 115.866 149.226 122.222 150.53C128.578 151.835 135.194 150.717 140.763 147.398L153.406 152.874L147.569 141.529Z" fill="#5600E2"/>
<path d="M117.841 123.812C117.841 123.419 117.559 123.197 117.044 123.197C115.849 123.353 114.734 123.878 113.853 124.697L112.419 121.919C113.928 120.787 115.752 120.147 117.64 120.087C120.063 120.087 121.901 121.355 121.901 123.248C121.901 124.597 120.891 125.895 119.598 127.194L117.791 128.976H122.062V131.935H112.883V129.509L116.973 125.291C117.413 124.903 117.718 124.385 117.841 123.812Z" fill="white"/>
<path d="M129.535 120.258L126.748 126.922H127.889V124.677H131.403V126.922H132.736V129.67H131.403V131.935H127.889V129.67H122.891V127.174L125.92 120.258H129.535Z" fill="white"/>
<path d="M143.581 126.127V131.935H139.824V127.204C139.846 127.05 139.834 126.893 139.79 126.744C139.745 126.595 139.669 126.457 139.567 126.339C139.465 126.222 139.338 126.128 139.196 126.063C139.054 125.999 138.9 125.966 138.744 125.966C138.007 125.966 137.542 126.54 137.542 127.425V131.935H133.786V119.594H137.542V124.134C137.836 123.671 138.245 123.292 138.73 123.034C139.216 122.776 139.759 122.649 140.309 122.664C140.759 122.652 141.207 122.736 141.622 122.908C142.038 123.081 142.413 123.339 142.721 123.666C143.03 123.993 143.266 124.381 143.414 124.805C143.562 125.229 143.619 125.679 143.581 126.127Z" fill="white"/>
<path d="M266.067 219.666V344.744C266.069 346.158 265.698 347.549 264.99 348.774C264.281 350 263.262 351.019 262.033 351.727C260.805 352.435 259.411 352.808 257.992 352.809C256.573 352.809 255.179 352.437 253.95 351.73L186.375 312.832L174.399 305.947C170.275 303.57 166.85 300.155 164.464 296.044C162.079 291.934 160.818 287.271 160.808 282.522V157.434C160.806 156.019 161.177 154.629 161.885 153.403C162.594 152.177 163.613 151.159 164.842 150.451C166.07 149.742 167.464 149.369 168.883 149.369C170.302 149.368 171.696 149.74 172.925 150.448L252.496 196.241C256.621 198.614 260.048 202.028 262.43 206.14C264.812 210.252 266.067 214.917 266.067 219.666Z" fill="#FBB130"/>
<path opacity="0.5" d="M266.067 219.666V344.744C266.069 346.158 265.698 347.549 264.99 348.774C264.281 350 263.262 351.019 262.033 351.727C260.805 352.435 259.411 352.808 257.992 352.809C256.573 352.809 255.179 352.437 253.95 351.73L186.375 312.832L174.399 305.947C170.275 303.57 166.85 300.155 164.464 296.044C162.079 291.934 160.818 287.271 160.808 282.522V157.434C160.806 156.019 161.177 154.629 161.885 153.403C162.594 152.177 163.613 151.159 164.842 150.451C166.07 149.742 167.464 149.369 168.883 149.369C170.302 149.368 171.696 149.74 172.925 150.448L252.496 196.241C256.621 198.614 260.048 202.028 262.43 206.14C264.812 210.252 266.067 214.917 266.067 219.666Z" fill="white"/>
<path d="M227.14 293.676C227.14 293.676 239.793 314.594 230.654 338.18L186.345 312.832L227.14 293.676Z" fill="#263238"/>
<path d="M247.318 199.691C248.276 191.938 242.748 184.879 234.971 183.925C227.195 182.97 220.114 188.481 219.156 196.234C218.199 203.986 223.727 211.045 231.503 212C239.28 212.954 246.361 207.444 247.318 199.691Z" fill="#272727"/>
<path d="M233.31 158.29C233.31 158.29 237.662 151.243 238.995 151.756C240.328 152.27 238.127 158.984 238.127 158.984C238.127 158.984 244.71 160.353 243.489 162.004C242.267 163.655 234.219 163.263 234.219 163.263L233.31 158.29Z" fill="#263238"/>
<path d="M236.339 176.45C233.31 199.14 214.124 199.14 214.124 199.14L173.935 181.503C173.935 181.503 170.905 178.856 169.976 172.775C169.62 170.285 169.62 167.756 169.976 165.266C169.976 165.266 169.976 165.215 169.976 165.195C171.259 155.652 178.418 145.394 194.009 142.243C197.426 141.556 200.904 141.218 204.39 141.237C206.076 141.231 207.761 141.315 209.439 141.488C221.556 142.676 230.048 148.313 234.097 157.081C235.008 159.06 235.686 161.138 236.117 163.272C236.939 167.621 237.014 172.076 236.339 176.45Z" fill="#272727"/>
<path d="M139.855 220.34C139.855 220.34 125.587 219.847 120.094 233.709C120.094 233.709 126.152 237.786 134.099 233.709C142.046 229.632 139.855 220.34 139.855 220.34Z" fill="#5600E2"/>
<path opacity="0.5" d="M139.855 220.34C139.855 220.34 125.587 219.847 120.094 233.709C120.094 233.709 126.152 237.786 134.099 233.709C142.046 229.632 139.855 220.34 139.855 220.34Z" fill="black"/>
<path d="M139.451 227.014C139.451 227.014 135.412 209.519 133.281 209.307C131.15 209.096 130.736 214.642 130.908 217.773L125.859 206.942C125.699 206.605 125.471 206.305 125.19 206.059C124.909 205.814 124.581 205.628 124.225 205.514C123.869 205.4 123.494 205.359 123.122 205.395C122.75 205.432 122.389 205.543 122.062 205.723C117.014 208.492 108.158 216.907 126.829 237.715L139.451 227.014Z" fill="#945959"/>
<path d="M191.152 214.914L188.122 214.522C185.07 214.118 181.964 214.532 179.124 215.721C176.285 216.91 173.814 218.831 171.966 221.287L153.941 245.205L139.804 220.34C139.804 220.34 138.108 237.252 120.043 233.709L139.441 266.254C140.668 268.315 142.377 270.049 144.422 271.309C146.466 272.57 148.785 273.32 151.183 273.495C153.58 273.67 155.985 273.265 158.191 272.314C160.398 271.364 162.342 269.896 163.857 268.036L180.458 247.691L191.152 214.914Z" fill="#FBB130"/>
<path d="M229.625 270.734C225.586 280.941 225.142 282.935 227.605 288.038C229.321 291.808 230.674 295.731 231.645 299.756C231.645 299.756 212.923 320.674 186.275 312.842L174.299 305.957C171.808 304.525 169.565 302.703 167.655 300.561L171.3 273.462C171.483 272.035 171.338 270.586 170.876 269.224L167.049 258.04C165.181 252.577 164.903 246.699 166.247 241.086C167.591 235.472 170.502 230.353 174.642 226.32L187.507 213.787L221.294 218.095L226.343 219.535C229.648 220.488 232.498 222.598 234.368 225.477C236.238 228.357 237.002 231.812 236.522 235.209C234.866 247.087 232.159 264.321 229.625 270.734Z" fill="#FBB130"/>
<path d="M209.247 240.242L202.481 234.494C201.765 233.883 200.901 233.469 199.975 233.292C199.049 233.116 198.092 233.183 197.2 233.487L189.021 236.296L187.92 231.726C187.749 231.015 187.434 230.346 186.996 229.759C186.558 229.172 186.005 228.68 185.371 228.313C184.737 227.945 184.035 227.709 183.306 227.619C182.578 227.529 181.84 227.587 181.135 227.79L177.59 228.796L183.588 217.34C185.547 213.609 188.564 210.535 192.262 208.502L194.615 207.213L214.054 208.22C214.054 208.22 221.294 211.24 221.294 218.035L209.247 240.182" fill="#FBB130"/>
<path d="M214.135 216.807L194.646 231.947V183.738H214.135V216.807Z" fill="#945959"/>
<path d="M194.949 212.831L189.021 236.336L214.054 216.807L194.949 212.831Z" fill="#945959"/>
<path d="M194.645 209.337C198.979 207.733 202.94 205.268 206.289 202.091C209.637 198.913 212.303 195.091 214.124 190.855V183.738H194.635L194.645 209.337Z" fill="#703838"/>
<path d="M198.846 148.012C191.454 148.012 175.742 152.119 173.925 171.406C172.107 190.694 173.864 205.633 183.841 207.082C193.817 208.532 217.002 201.314 220.112 176.349C223.222 151.384 206.046 148.012 198.846 148.012Z" fill="#945959"/>
<path d="M187.214 179.57V190.936L180.529 188.892L187.214 179.57Z" fill="#703838"/>
<path d="M194.646 183.849C195.928 183.849 196.968 182.812 196.968 181.533C196.968 180.255 195.928 179.218 194.646 179.218C193.363 179.218 192.323 180.255 192.323 181.533C192.323 182.812 193.363 183.849 194.646 183.849Z" fill="#272727"/>
<path d="M181.68 179.923C181.678 180.38 181.54 180.827 181.284 181.206C181.027 181.586 180.664 181.881 180.239 182.055C179.815 182.228 179.348 182.273 178.898 182.182C178.449 182.092 178.036 181.87 177.712 181.546C177.388 181.222 177.168 180.81 177.079 180.361C176.99 179.912 177.037 179.447 177.213 179.024C177.389 178.602 177.687 178.241 178.068 177.987C178.45 177.733 178.899 177.597 179.358 177.597C179.663 177.597 179.966 177.658 180.249 177.775C180.531 177.892 180.788 178.063 181.003 178.279C181.219 178.495 181.39 178.752 181.506 179.034C181.622 179.316 181.681 179.618 181.68 179.923Z" fill="#272727"/>
<path d="M176.52 175.091L181.064 172.403C181.064 172.403 179.327 170.601 177.591 171.678C175.854 172.755 176.52 175.091 176.52 175.091Z" fill="#272727"/>
<path d="M184.073 195.546C186.286 195.707 188.489 195.118 190.324 193.875C190.324 193.875 190.758 197.167 187.991 197.791C185.224 198.415 184.073 195.546 184.073 195.546Z" fill="#703838"/>
<path d="M180.104 154.575C180.104 154.575 182.881 181.201 219.203 182.037C219.203 182.037 230.18 155.572 208.489 146.975C186.799 138.378 180.104 154.575 180.104 154.575Z" fill="#272727"/>
<path d="M229.897 178.05L225.434 175.473C223.737 174.467 221.395 174.607 218.8 176.097C213.65 179.057 209.469 186.275 209.469 192.204C209.469 195.174 210.479 197.237 212.216 198.244L216.598 200.761L216.851 200.902L217.002 200.992C218.658 201.797 220.87 201.606 223.303 200.207C228.453 197.187 232.634 190.03 232.634 184.1C232.603 181.1 231.563 179.027 229.897 178.05Z" fill="#FBB130"/>
<path d="M229.862 193.213C233.504 186.925 233.504 180.128 229.862 178.032C226.22 175.936 220.316 179.334 216.674 185.623C213.033 191.911 213.033 198.707 216.674 200.803C220.316 202.899 226.22 199.501 229.862 193.213Z" fill="#5600E2"/>
<path d="M231.685 183.637L228.656 181.876C227.504 181.191 225.899 181.282 224.122 182.299C222.265 183.508 220.72 185.136 219.611 187.051C218.503 188.966 217.862 191.114 217.74 193.321C217.74 195.335 218.457 196.774 219.618 197.439L222.647 199.16C222.701 199.199 222.759 199.233 222.819 199.261L222.92 199.321C223.63 199.59 224.395 199.681 225.149 199.586C225.902 199.491 226.621 199.214 227.242 198.778C229.097 197.569 230.641 195.943 231.75 194.03C232.858 192.117 233.5 189.971 233.624 187.765C233.543 185.721 232.836 184.302 231.685 183.637Z" fill="#FBB130"/>
<path d="M233.543 187.745C233.419 189.95 232.777 192.096 231.669 194.009C230.56 195.923 229.016 197.549 227.161 198.757C223.627 200.771 220.769 199.14 220.769 195.083C220.889 192.875 221.53 190.727 222.641 188.813C223.752 186.899 225.301 185.274 227.161 184.07C230.685 182.037 233.543 183.678 233.543 187.745Z" fill="#5600E2"/>
<path d="M216.033 142.817C213.138 140.588 209.593 139.362 205.935 139.324H205.036C201.333 139.284 197.635 139.621 194 140.331C194.666 140.331 195.332 140.331 196.019 140.331H194V142.203H195.878C202.351 142.422 208.484 145.143 212.982 149.788C217.48 154.434 219.99 160.641 219.981 167.098V175.02C219.981 175.333 220.047 175.643 220.174 175.929C220.302 176.216 220.488 176.472 220.721 176.682C220.955 176.891 221.23 177.05 221.528 177.147C221.827 177.244 222.143 177.277 222.455 177.245H222.687L224.707 176.621C224.572 176.663 224.434 176.69 224.293 176.701C224.895 176.62 225.446 176.32 225.841 175.86C226.236 175.4 226.447 174.81 226.434 174.205V166.856C226.414 153.558 220.648 146.411 216.033 142.817Z" fill="#FBB130"/>
<path d="M203.32 206.529C202.487 206.529 201.664 206.35 200.906 206.005L194.595 203.096C194.496 203.061 194.406 203.006 194.33 202.934C194.254 202.862 194.193 202.775 194.153 202.679C194.112 202.583 194.091 202.479 194.093 202.375C194.094 202.27 194.118 202.167 194.161 202.072C194.204 201.977 194.267 201.892 194.345 201.822C194.424 201.753 194.515 201.7 194.615 201.667C194.715 201.635 194.82 201.624 194.924 201.634C195.029 201.644 195.13 201.676 195.221 201.727L201.532 204.636C202.337 205.009 203.239 205.123 204.111 204.96C204.984 204.798 205.784 204.368 206.4 203.73L212.458 197.489C212.6 197.348 212.793 197.268 212.993 197.268C213.194 197.268 213.387 197.348 213.529 197.489C213.668 197.632 213.746 197.823 213.746 198.023C213.746 198.222 213.668 198.413 213.529 198.556L207.47 204.797C206.931 205.349 206.285 205.787 205.572 206.085C204.859 206.382 204.093 206.533 203.32 206.529Z" fill="#5600E2"/>
<path d="M196.251 200.982C196.251 201.563 196.078 202.132 195.754 202.615C195.43 203.099 194.97 203.475 194.431 203.698C193.892 203.92 193.299 203.978 192.727 203.865C192.155 203.752 191.63 203.472 191.218 203.061C190.805 202.649 190.524 202.126 190.411 201.556C190.297 200.985 190.355 200.394 190.578 199.857C190.802 199.32 191.18 198.861 191.664 198.538C192.149 198.215 192.719 198.043 193.303 198.043C194.085 198.043 194.835 198.352 195.388 198.904C195.94 199.455 196.251 200.202 196.251 200.982Z" fill="#5600E2"/>
<path d="M196.251 200.982C196.251 201.563 196.078 202.132 195.754 202.615C195.43 203.099 194.97 203.475 194.431 203.698C193.892 203.92 193.299 203.978 192.727 203.865C192.155 203.752 191.63 203.472 191.218 203.061C190.805 202.649 190.524 202.126 190.411 201.556C190.297 200.985 190.355 200.394 190.578 199.857C190.802 199.32 191.18 198.861 191.664 198.538C192.149 198.215 192.719 198.043 193.303 198.043C194.085 198.043 194.835 198.352 195.388 198.904C195.94 199.455 196.251 200.202 196.251 200.982Z" fill="#FBB130"/>
<path d="M226.414 166.856V174.205C226.427 174.811 226.216 175.4 225.821 175.86C225.426 176.321 224.875 176.62 224.273 176.702C223.94 176.737 223.604 176.702 223.286 176.599C222.967 176.496 222.674 176.328 222.426 176.105C222.177 175.882 221.979 175.609 221.843 175.304C221.707 174.999 221.637 174.669 221.637 174.336V166.856C221.643 163.287 220.924 159.753 219.524 156.467C218.124 153.182 216.072 150.212 213.491 147.738C210.91 145.264 207.854 143.336 204.506 142.07C201.158 140.804 197.588 140.226 194.01 140.371C197.645 139.662 201.343 139.325 205.047 139.364H205.925C209.583 139.402 213.128 140.628 216.023 142.858C220.648 146.411 226.414 153.558 226.414 166.856Z" fill="#5600E2"/>
<path d="M215.064 305.343C215.064 305.343 210.176 318.762 227.646 324.802C227.646 324.802 233.351 316.446 227.646 309.611C221.94 302.776 215.064 305.343 215.064 305.343Z" fill="#5600E2"/>
<path opacity="0.7" d="M215.064 305.343C215.064 305.343 210.176 318.762 227.646 324.802C227.646 324.802 233.351 316.446 227.646 309.611C221.94 302.776 215.064 305.343 215.064 305.343Z" fill="black"/>
<path d="M221.193 305.957C221.193 305.957 204.127 312.188 204.218 314.604C204.309 317.02 211.468 315.369 211.468 315.369L208.853 317.081C206.099 318.872 203.966 321.466 202.744 324.51C202.477 325.181 202.468 325.927 202.718 326.604C202.967 327.282 203.458 327.844 204.097 328.184L210.58 331.607C210.946 331.8 211.347 331.919 211.76 331.955C212.173 331.992 212.589 331.945 212.983 331.818C213.378 331.692 213.743 331.487 214.057 331.218C214.37 330.948 214.627 330.618 214.811 330.248C215.172 329.536 215.671 328.903 216.28 328.384C216.888 327.866 217.594 327.473 218.355 327.228C221.879 326.06 228.453 322.698 231.088 313.497L221.193 305.957Z" fill="#945959"/>
<path d="M226.312 219.515C226.312 219.515 217.224 224.548 222.051 239.829C226.877 255.11 235.935 278.817 235.935 278.817L215.063 305.343C217.293 305.611 219.441 306.345 221.367 307.497C223.293 308.649 224.954 310.192 226.241 312.027C227.474 313.893 228.245 316.025 228.489 318.246C228.733 320.467 228.443 322.714 227.645 324.802L253.556 291.582C255.952 288.512 257.543 284.895 258.185 281.058C258.827 277.221 258.499 273.285 257.232 269.606L246.124 237.272C244.766 233.323 242.51 229.74 239.532 226.804C236.554 223.868 232.935 221.66 228.958 220.35L226.312 219.515Z" fill="#FBB130"/>
<path d="M72.9062 129.247L32.7472 106.094C32.2851 105.775 31.7504 105.575 31.1915 105.514C30.6326 105.452 30.0671 105.531 29.5462 105.742C29.4364 105.792 29.3316 105.853 29.2332 105.923L20.4985 111.027H20.5591C19.4585 111.651 18.7617 113.101 18.7617 115.174V159.709C18.7617 163.474 21.0539 167.853 23.8914 169.484L64.0504 192.637C64.56 193.004 65.1665 193.215 65.7948 193.241C66.4231 193.268 67.0455 193.111 67.5847 192.788C67.5574 192.799 67.5331 192.816 67.514 192.838L76.188 187.805C77.319 187.201 78.0359 185.731 78.0359 183.627V139.022C78.0359 135.257 75.7841 130.878 72.9062 129.247Z" fill="#5600E2"/>
<path d="M76.6025 133.465C75.79 131.743 74.5097 130.282 72.9067 129.247L32.7477 106.094C32.2855 105.775 31.7508 105.575 31.1919 105.514C30.633 105.452 30.0676 105.531 29.5467 105.742C29.4369 105.792 29.3321 105.853 29.2336 105.923L20.499 111.027C21.0333 110.755 21.6324 110.634 22.2308 110.678C22.8293 110.723 23.4039 110.93 23.8919 111.279L64.0509 134.432C65.7085 135.512 67.0222 137.042 67.8376 138.841L76.6025 133.465Z" fill="#5600E2"/>
<path d="M69.1808 188.721C69.1808 190.735 68.5345 192.134 67.5146 192.748L76.1887 187.715C77.3196 187.111 78.0366 185.641 78.0366 183.537V139.022C77.9939 137.085 77.5032 135.183 76.6027 133.465L67.8378 138.841C68.6793 140.508 69.1381 142.341 69.1808 144.207V188.721Z" fill="#5600E2"/>
<path d="M76.6025 133.465C75.79 131.743 74.5097 130.282 72.9067 129.247L32.7477 106.094C32.2855 105.775 31.7508 105.575 31.1919 105.514C30.633 105.452 30.0676 105.531 29.5467 105.742C29.4369 105.792 29.3321 105.853 29.2336 105.923L20.499 111.027C21.0333 110.755 21.6324 110.634 22.2308 110.678C22.8293 110.723 23.4039 110.93 23.8919 111.279L64.0509 134.432C65.7085 135.512 67.0222 137.042 67.8376 138.841L76.6025 133.465Z" fill="#EEE6FC"/>
<path d="M69.1808 188.721C69.1808 190.735 68.5345 192.134 67.5146 192.748L76.1887 187.715C77.3196 187.111 78.0366 185.641 78.0366 183.537V139.022C77.9939 137.085 77.5032 135.183 76.6027 133.465L67.8378 138.841C68.6793 140.508 69.1381 142.341 69.1808 144.207V188.721Z" fill="#EEE6FC"/>
<path d="M57.4062 156.961C57.4062 162.729 55.114 164.692 51.6807 162.709C50.7336 162.171 49.9054 161.448 49.246 160.583C48.5866 159.718 48.1095 158.729 47.8436 157.676C46.8338 158.914 45.2686 158.994 43.0673 157.726C39.4523 155.642 36.6047 150.679 36.6047 145.857C36.6047 141.036 39.422 139.375 43.0673 141.468C44.9171 142.555 46.4112 144.153 47.369 146.069V144.166L51.1758 146.361V156.79C51.1192 157.339 51.2144 157.892 51.4511 158.391C51.6879 158.89 52.0572 159.314 52.5189 159.618C53.8013 160.363 54.5889 159.105 54.5889 155.37C54.5889 148.837 50.3882 141.911 44.178 138.338C37.9679 134.764 33.7773 137.25 33.7773 143.975C33.8587 147.543 34.8449 151.033 36.6442 154.118C38.4434 157.204 40.997 159.785 44.067 161.622C45.7339 162.645 47.6267 163.247 49.5804 163.373L50.4791 166.846C48.2043 166.663 46.0061 165.942 44.067 164.742C35.9887 160.082 30.647 150.699 30.647 142.203C30.647 133.707 36.0392 130.627 44.178 135.318C52.0443 139.838 57.4062 148.887 57.4062 156.961ZM47.4295 152.119C47.4492 150.842 47.1367 149.583 46.5227 148.462C45.9086 147.342 45.0138 146.399 43.9256 145.727C41.906 144.549 40.462 145.374 40.462 148.112C40.4361 149.391 40.7412 150.655 41.3479 151.781C41.9546 152.908 42.8424 153.86 43.9256 154.545C45.9452 155.682 47.4295 154.948 47.4295 152.119Z" fill="#5600E2"/>
<path d="M57.4062 156.961C57.4062 162.729 55.114 164.692 51.6807 162.709C50.7336 162.171 49.9054 161.448 49.246 160.583C48.5866 159.718 48.1095 158.729 47.8436 157.676C46.8338 158.914 45.2686 158.994 43.0673 157.726C39.4523 155.642 36.6047 150.679 36.6047 145.857C36.6047 141.036 39.422 139.375 43.0673 141.468C44.9171 142.555 46.4112 144.153 47.369 146.069V144.166L51.1758 146.361V156.79C51.1192 157.339 51.2144 157.892 51.4511 158.391C51.6879 158.89 52.0572 159.314 52.5189 159.618C53.8013 160.363 54.5889 159.105 54.5889 155.37C54.5889 148.837 50.3882 141.911 44.178 138.338C37.9679 134.764 33.7773 137.25 33.7773 143.975C33.8587 147.543 34.8449 151.033 36.6442 154.118C38.4434 157.204 40.997 159.785 44.067 161.622C45.7339 162.645 47.6267 163.247 49.5804 163.373L50.4791 166.846C48.2043 166.663 46.0061 165.942 44.067 164.742C35.9887 160.082 30.647 150.699 30.647 142.203C30.647 133.707 36.0392 130.627 44.178 135.318C52.0443 139.838 57.4062 148.887 57.4062 156.961ZM47.4295 152.119C47.4492 150.842 47.1367 149.583 46.5227 148.462C45.9086 147.342 45.0138 146.399 43.9256 145.727C41.906 144.549 40.462 145.374 40.462 148.112C40.4361 149.391 40.7412 150.655 41.3479 151.781C41.9546 152.908 42.8424 153.86 43.9256 154.545C45.9452 155.682 47.4295 154.948 47.4295 152.119Z" fill="white"/>
<path d="M72.9062 208.552L32.7472 185.399C32.2857 185.078 31.7503 184.878 31.1908 184.819C30.6312 184.759 30.0655 184.841 29.5462 185.057C29.4364 185.107 29.3316 185.168 29.2332 185.238L20.4985 190.342H20.5591C19.4585 190.966 18.7617 192.416 18.7617 194.479V238.994C18.7617 242.769 21.0539 247.138 23.8914 248.769L64.0504 271.922C64.5589 272.292 65.1658 272.503 65.7947 272.53C66.4235 272.557 67.0463 272.398 67.5847 272.073L67.514 272.133L76.188 267.05C77.319 266.456 78.0359 265.036 78.0359 262.872V218.317C78.0359 214.552 75.7841 210.183 72.9062 208.552Z" fill="#5600E2"/>
<path d="M76.6025 212.77C75.7928 211.046 74.5119 209.584 72.9067 208.552L32.7477 185.399C32.2862 185.078 31.7508 184.878 31.1912 184.819C30.6317 184.759 30.066 184.841 29.5467 185.057C29.4369 185.107 29.3321 185.168 29.2336 185.238L20.499 190.342C21.0321 190.067 21.6309 189.944 22.2295 189.987C22.8282 190.029 23.4034 190.236 23.8919 190.583L64.0509 213.737C65.7111 214.818 67.0252 216.352 67.8376 218.156L76.6025 212.77Z" fill="#EEE6FC"/>
<path d="M69.1808 268.016C69.1808 270.029 68.5345 271.429 67.5146 272.093L76.1887 267.009C77.3196 266.415 78.0366 264.996 78.0366 262.832V218.317C77.9938 216.383 77.503 214.484 76.6027 212.77L67.8378 218.146C68.6791 219.809 69.1379 221.639 69.1808 223.501V268.016Z" fill="#5600E2"/>
<path d="M69.1808 268.016C69.1808 270.029 68.5345 271.429 67.5146 272.093L76.1887 267.009C77.3196 266.415 78.0366 264.996 78.0366 262.832V218.317C77.9938 216.383 77.503 214.484 76.6027 212.77L67.8378 218.146C68.6791 219.809 69.1379 221.639 69.1808 223.501V268.016Z" fill="#EEE6FC"/>
<path d="M39.4822 228.454L29.7983 212.77V234.021L39.4822 228.454Z" fill="#5600E2"/>
<path d="M48.48 232.974L58.1436 249.654V228.434L48.48 232.974Z" fill="#5600E2"/>
<path d="M31.2632 212.056L41.2095 228.162C41.2516 228.197 41.289 228.238 41.3206 228.283C41.3294 228.323 41.3294 228.364 41.3206 228.404L44.2793 233.195L46.7835 232.018C46.8225 231.975 46.8666 231.938 46.9148 231.907C47.0135 231.849 47.124 231.815 47.2379 231.806L57.3358 227.085L31.2632 212.056Z" fill="#5600E2"/>
<path d="M47.0159 233.659L44.3097 234.927C44.2054 234.975 44.0914 234.999 43.9764 234.997C43.8371 234.999 43.6997 234.965 43.5776 234.898C43.4555 234.83 43.3529 234.733 43.2797 234.615L40.321 229.823L30.6069 235.42L56.7502 250.46L47.0159 233.659Z" fill="#5600E2"/>
<g opacity="0.9">
<path d="M39.4822 228.454L29.7983 212.77V234.021L39.4822 228.454Z" fill="white"/>
<path d="M48.48 232.974L58.1436 249.654V228.434L48.48 232.974Z" fill="white"/>
<path d="M31.2627 212.056L41.209 228.162C41.2512 228.197 41.2885 228.238 41.3201 228.283C41.3289 228.323 41.3289 228.364 41.3201 228.404L44.2788 233.195L46.783 232.018C46.822 231.975 46.8661 231.938 46.9143 231.907C47.013 231.849 47.1235 231.815 47.2374 231.806L57.3353 227.085L31.2627 212.056Z" fill="white"/>
<path d="M47.0159 233.659L44.3097 234.927C44.2054 234.975 44.0914 235 43.9764 234.998C43.8371 234.999 43.6997 234.965 43.5776 234.898C43.4555 234.831 43.3529 234.733 43.2797 234.615L40.321 229.823L30.6069 235.42L56.7502 250.46L47.0159 233.659Z" fill="white"/>
</g>
<path d="M72.9062 49.9829L32.7472 26.8296C32.2857 26.5085 31.7503 26.3088 31.1908 26.249C30.6312 26.1892 30.0655 26.2711 29.5462 26.4874C29.4364 26.5379 29.3316 26.5986 29.2332 26.6686L20.4985 31.7723H20.5591C19.4585 32.3864 18.7617 33.8461 18.7617 35.9097V80.4244C18.7617 84.1893 21.0539 88.5683 23.8914 90.199L64.0504 113.352C64.5589 113.722 65.1658 113.934 65.7947 113.961C66.4235 113.988 67.0463 113.828 67.5847 113.503L67.514 113.554L76.188 108.52C77.319 107.926 78.0359 106.507 78.0359 104.343V59.7173C78.0359 55.9524 75.7841 51.5734 72.9062 49.9829Z" fill="#5600E2"/>
<path d="M76.6025 54.1705C75.793 52.4434 74.5122 50.9782 72.9067 49.9425L32.7477 26.8296C32.2862 26.5085 31.7508 26.3088 31.1912 26.2489C30.6317 26.1891 30.066 26.2711 29.5467 26.4873C29.4369 26.5378 29.3321 26.5985 29.2336 26.6685L20.499 31.7723C21.0321 31.4975 21.6309 31.3746 22.2295 31.4172C22.8282 31.4599 23.4034 31.6663 23.8919 32.0139L64.0509 55.1671C65.7111 56.2489 67.0252 57.7826 67.8376 59.5864L76.6025 54.1705Z" fill="#5600E2"/>
<path d="M69.1808 109.376C69.1808 111.389 68.5345 112.789 67.5146 113.403L76.1887 108.369C77.3196 107.775 78.0366 106.356 78.0366 104.192V59.7173C77.9938 57.7829 77.503 55.8846 76.6027 54.1706L67.8378 59.5462C68.6791 61.2096 69.1379 63.0391 69.1808 64.9016V109.376Z" fill="#5600E2"/>
<path d="M76.6025 54.1705C75.793 52.4434 74.5122 50.9782 72.9067 49.9425L32.7477 26.8296C32.2862 26.5085 31.7508 26.3088 31.1912 26.2489C30.6317 26.1891 30.066 26.2711 29.5467 26.4873C29.4369 26.5378 29.3321 26.5985 29.2336 26.6685L20.499 31.7723C21.0321 31.4975 21.6309 31.3746 22.2295 31.4172C22.8282 31.4599 23.4034 31.6663 23.8919 32.0139L64.0509 55.1671C65.7111 56.2489 67.0252 57.7826 67.8376 59.5864L76.6025 54.1705Z" fill="#EEE6FC"/>
<path d="M69.1808 109.376C69.1808 111.389 68.5345 112.789 67.5146 113.403L76.1887 108.369C77.3196 107.775 78.0366 106.356 78.0366 104.192V59.7173C77.9938 57.7829 77.503 55.8846 76.6027 54.1706L67.8378 59.5462C68.6791 61.2096 69.1379 63.0391 69.1808 64.9016V109.376Z" fill="#EEE6FC"/>
<path d="M56.0424 90.2494C54.4975 87.7126 52.9424 85.2161 51.3974 82.6592C51.1524 82.1749 50.8098 81.7461 50.3911 81.3997C49.9724 81.0533 49.4865 80.7967 48.9639 80.6458C48.2166 80.4948 47.4694 80.3237 46.7019 80.1022C46.4286 79.9886 46.1987 79.7912 46.0456 79.5385C43.5175 75.2251 41.5076 70.6299 40.0576 65.8479C40.0267 65.7457 40.018 65.6381 40.0319 65.5322C40.0458 65.4264 40.0821 65.3247 40.1384 65.2338C40.6129 64.7607 41.1481 64.3278 41.6328 63.905C42.1175 63.4822 42.37 62.5058 42.0165 61.2374C41.2693 58.5496 40.5524 55.8618 39.8051 53.1841C39.6605 52.4233 39.3175 51.7138 38.8105 51.1271C38.3036 50.5404 37.6505 50.0972 36.9172 49.842C35.2888 49.3906 33.56 49.4539 31.9692 50.0232C31.3533 50.2547 31.0301 50.8084 31.02 51.7647C31.2826 53.6069 31.4542 55.4289 31.8076 57.3013C34.2984 70.804 40.2898 83.2195 49.7818 94.5479C50.0296 94.9235 50.3625 95.2358 50.7536 95.4597C51.1448 95.6835 51.5832 95.8125 52.0336 95.8364C53.605 95.7991 55.1148 95.2192 56.305 94.1955C57.2037 93.3902 57.1128 91.9607 56.0424 90.2494Z" fill="#5600E2"/>
<path d="M55.9215 76.5286C55.7103 73.6331 54.9098 70.8108 53.5687 68.2337C52.5675 66.2205 51.2933 64.3541 49.7821 62.687C49.3882 62.2441 49.055 62.1031 48.8531 62.4353C48.6511 62.7675 48.8531 63.2407 49.2368 63.6735L49.6306 64.1265C52.4216 67.3383 54.1806 71.3118 54.6795 75.532C54.6746 75.8398 54.7051 76.1472 54.7704 76.4481C54.8972 76.7943 55.1009 77.1074 55.3662 77.3641C55.5782 77.5151 55.8206 77.3641 55.9922 77.3641C55.9316 76.9514 55.9417 76.74 55.9215 76.5286Z" fill="#5600E2"/>
<path d="M46.7729 68.2638C48.041 69.6542 48.8115 71.4241 48.9642 73.2971C49.0307 73.5818 49.136 73.8562 49.2772 74.1125C49.8932 74.6158 50.1961 74.4447 50.1961 73.8105C49.9802 71.409 48.9839 69.1433 47.3586 67.3578C46.9749 66.9652 46.6619 66.8444 46.4801 67.1766C46.4147 67.3662 46.4077 67.5711 46.4598 67.7648C46.512 67.9585 46.621 68.1322 46.7729 68.2638Z" fill="#5600E2"/>
<g opacity="0.9">
<path d="M56.0424 90.2494C54.4975 87.7126 52.9424 85.2161 51.3974 82.6592C51.1524 82.1749 50.8098 81.7461 50.3911 81.3997C49.9724 81.0533 49.4865 80.7967 48.9639 80.6458C48.2166 80.4948 47.4694 80.3237 46.7019 80.1022C46.4286 79.9886 46.1987 79.7912 46.0456 79.5385C43.5175 75.2251 41.5076 70.6299 40.0576 65.8479C40.0267 65.7457 40.018 65.6381 40.0319 65.5322C40.0458 65.4264 40.0821 65.3247 40.1384 65.2338C40.6129 64.7607 41.1481 64.3278 41.6328 63.905C42.1175 63.4822 42.37 62.5058 42.0165 61.2374C41.2693 58.5496 40.5524 55.8618 39.8051 53.1841C39.6605 52.4233 39.3175 51.7138 38.8105 51.1271C38.3036 50.5404 37.6505 50.0972 36.9172 49.842C35.2888 49.3906 33.56 49.4539 31.9692 50.0232C31.3533 50.2547 31.0301 50.8084 31.02 51.7647C31.2826 53.6069 31.4542 55.4289 31.8076 57.3013C34.2984 70.804 40.2898 83.2195 49.7818 94.5479C50.0296 94.9235 50.3625 95.2358 50.7536 95.4597C51.1448 95.6835 51.5832 95.8125 52.0336 95.8364C53.605 95.7991 55.1148 95.2192 56.305 94.1955C57.2037 93.3902 57.1128 91.9607 56.0424 90.2494Z" fill="white"/>
<path d="M55.9215 76.5286C55.7103 73.633 54.9098 70.8107 53.5687 68.2337C52.5675 66.2205 51.2933 64.3541 49.7821 62.687C49.3882 62.244 49.055 62.1031 48.8531 62.4353C48.6511 62.7675 48.8531 63.2406 49.2368 63.6735L49.6306 64.1265C52.4216 67.3383 54.1806 71.3118 54.6795 75.532C54.6746 75.8398 54.7051 76.1471 54.7704 76.448C54.8972 76.7942 55.1009 77.1074 55.3662 77.3641C55.5782 77.5151 55.8206 77.3641 55.9922 77.3641C55.9316 76.9514 55.9417 76.74 55.9215 76.5286Z" fill="white"/>
<path d="M46.7729 68.2639C48.041 69.6543 48.8115 71.4242 48.9642 73.2972C49.0307 73.582 49.136 73.8563 49.2772 74.1126C49.8932 74.6159 50.1961 74.4448 50.1961 73.8106C49.9802 71.4091 48.9839 69.1435 47.3586 67.3579C46.9749 66.9653 46.6619 66.8445 46.4801 67.1767C46.4147 67.3664 46.4077 67.5712 46.4598 67.7649C46.512 67.9586 46.621 68.1324 46.7729 68.2639Z" fill="white"/>
</g>
<path d="M278.953 23.2863L288.414 28.6518V25.3097C288.414 25.0781 288.414 24.8365 288.414 24.605C288.414 24.3735 288.414 24.152 288.414 23.9305V23.8097C288.758 19.3905 292.12 17.6892 296.22 20.0549C298.076 21.1929 299.667 22.7134 300.885 24.5144C301.804 18.4744 306.722 16.3403 312.669 19.7529C319.273 23.5581 324.625 32.8395 324.625 40.4096V47.5569C324.616 48.1286 324.757 48.6928 325.036 49.1928C325.314 49.6928 325.719 50.1111 326.211 50.4058L331.785 53.6573C332.988 54.3683 333.985 55.3785 334.679 56.589C335.372 57.7995 335.739 59.1688 335.743 60.563C335.743 61.1414 335.59 61.7096 335.3 62.2105C335.01 62.7113 334.593 63.1271 334.09 63.4159C333.587 63.7048 333.017 63.8565 332.437 63.8558C331.857 63.855 331.287 63.7019 330.785 63.4118L279.094 33.6247C277.723 32.8308 276.584 31.693 275.79 30.3243C274.997 28.9557 274.576 27.4039 274.57 25.823C274.57 25.3113 274.704 24.8085 274.96 24.3649C275.216 23.9213 275.584 23.5526 276.028 23.2957C276.472 23.0387 276.976 22.9026 277.489 22.9009C278.003 22.8993 278.507 23.0322 278.953 23.2863Z" fill="#EEEEEE" fill-opacity="0.5"/>
<path d="M351.081 21.8871L357.958 25.8232V23.3669C357.958 23.1958 357.958 23.0247 357.958 22.8535C357.958 22.6824 357.958 22.5213 357.958 22.3603V22.2999C358.21 19.0886 360.654 17.8504 363.633 19.5718C364.982 20.3958 366.138 21.4975 367.026 22.8032C367.702 18.4343 371.277 16.8538 375.599 19.3403C380.405 22.1086 384.293 28.8331 384.293 34.3597V39.5641C384.297 39.9721 384.406 40.3722 384.612 40.7251C384.817 41.078 385.111 41.3717 385.464 41.5775L389.503 43.9431C390.382 44.4584 391.11 45.1942 391.615 46.0773C392.12 46.9604 392.384 47.96 392.381 48.9764C392.381 49.3928 392.271 49.8017 392.064 50.163C391.856 50.5243 391.558 50.8255 391.198 51.0369C390.838 51.2482 390.429 51.3624 390.012 51.3683C389.594 51.3742 389.182 51.2715 388.817 51.0703L351.182 29.4069C350.185 28.8318 349.357 28.0054 348.781 27.0108C348.205 26.0161 347.901 24.8879 347.9 23.7394C347.9 23.3677 347.997 23.0023 348.182 22.6797C348.367 22.3571 348.634 22.0887 348.956 21.9012C349.278 21.7137 349.644 21.6137 350.017 21.6113C350.39 21.6088 350.757 21.7039 351.081 21.8871Z" fill="#EEEEEE" fill-opacity="0.5"/>
</svg>
