<svg width="901" height="529" viewBox="0 0 901 529" fill="none" xmlns="http://www.w3.org/2000/svg">
<g clip-path="url(#clip0_4_11540)">
<path d="M959.322 25.3501C834.517 -8.05406 713.717 -12.0625 590.145 47.731C521.425 81.1351 469.038 100.176 400.01 64.099C260.412 -9.39021 139.921 156.295 1.55664 26.3523" stroke="#CBB0F6" stroke-opacity="0.3" stroke-width="0.414933" stroke-miterlimit="10"/>
<path d="M959.322 51.4053C888.753 32.3649 820.957 20.0054 751.929 24.348C698.925 27.3544 645.614 41.3842 591.685 67.4394C555.323 85.1436 523.274 98.8393 491.225 102.848C462.566 106.188 433.599 101.846 400.933 85.4777C340.226 55.0799 283.216 68.1075 226.823 82.4712C152.864 101.512 79.8294 123.558 1.24829 52.4076" stroke="#CBB0F6" stroke-opacity="0.3" stroke-width="0.477223" stroke-miterlimit="10"/>
<path d="M959.63 77.4603C889.37 58.4199 822.807 43.3881 754.087 45.7264C701.392 47.3967 647.463 61.4264 593.535 87.4816C557.171 104.852 525.123 119.216 493.074 123.224C464.107 126.899 435.139 122.89 402.475 107.19C341.767 78.1284 284.449 90.8221 227.748 105.52C153.48 124.56 80.446 147.61 1.55664 78.4626" stroke="#CBB0F6" stroke-opacity="0.3" stroke-width="0.539513" stroke-miterlimit="10"/>
<path d="M959.63 103.85C889.37 84.8093 824.347 66.771 755.936 67.105C703.24 67.4391 649.312 81.4689 595.076 107.524C558.712 124.894 526.356 139.592 494.306 143.601C465.339 147.61 436.064 143.934 403.707 128.903C342.999 101.177 285.681 113.871 228.671 128.568C154.096 147.61 80.7536 171.326 1.86426 104.518" stroke="#CBB0F6" stroke-opacity="0.3" stroke-width="0.601678" stroke-miterlimit="10"/>
<path d="M959.63 129.906C889.678 110.531 825.581 90.1543 757.785 88.4841C705.089 87.148 650.853 101.178 596.616 127.233C559.945 144.603 527.588 159.301 495.848 163.978C466.881 168.321 437.298 164.979 404.941 150.617C344.232 124.227 286.606 136.92 229.288 151.618C154.405 170.659 80.7542 195.044 1.55664 130.908" stroke="#CBB0F6" stroke-opacity="0.3" stroke-width="0.663968" stroke-miterlimit="10"/>
<path d="M959.63 156.295C889.678 136.92 827.121 113.537 759.633 110.197C707.246 107.525 652.702 121.554 598.158 147.61C561.487 164.979 529.13 179.678 497.08 184.688C467.805 189.03 438.53 186.359 405.864 172.662C344.849 147.61 287.223 160.303 229.905 175C154.712 194.042 80.7542 219.429 1.55664 157.296" stroke="#CBB0F6" stroke-opacity="0.3" stroke-width="0.726258" stroke-miterlimit="10"/>
<path d="M959.63 182.35C889.677 162.976 828.662 136.92 761.482 131.575C709.095 127.233 654.551 141.263 599.698 167.652C563.027 185.023 530.362 200.054 498.621 205.065C469.345 209.741 439.762 207.403 407.404 194.709C346.389 170.993 288.455 183.687 230.828 198.384C155.329 217.424 81.3699 243.48 1.86426 183.687" stroke="#CBB0F6" stroke-opacity="0.3" stroke-width="0.788423" stroke-miterlimit="10"/>
<path d="M959.63 208.405C889.985 188.697 830.202 159.969 763.331 152.62C711.252 146.941 656.091 160.971 601.238 187.026C564.567 204.396 531.594 219.762 499.853 224.773C470.27 229.784 440.995 227.779 408.329 215.755C347.313 193.039 289.071 206.067 231.445 220.765C155.637 240.139 81.3699 266.863 1.86426 209.408" stroke="#CBB0F6" stroke-opacity="0.3" stroke-width="0.850713" stroke-miterlimit="10"/>
<path d="M959.63 234.795C889.985 215.086 831.435 183.352 765.181 174.333C713.101 166.984 657.94 181.347 603.087 207.403C566.416 224.773 533.442 240.139 501.702 245.818C472.119 250.828 442.535 249.492 409.87 238.135C348.854 216.757 290.303 229.784 232.369 244.482C156.254 263.856 81.6781 291.247 1.86426 236.131" stroke="#CBB0F6" stroke-opacity="0.3" stroke-width="0.913003" stroke-miterlimit="10"/>
<path d="M959.63 260.849C889.987 241.142 832.976 206.734 766.721 195.711C714.951 187.026 659.482 201.056 604.321 227.445C567.649 244.816 534.367 260.515 502.627 266.194C473.044 271.539 443.152 270.537 410.487 259.848C349.471 239.805 290.92 252.832 232.678 267.531C156.562 286.905 81.6787 315.299 1.55664 262.186" stroke="#CBB0F6" stroke-opacity="0.3" stroke-width="0.975168" stroke-miterlimit="10"/>
<path d="M959.63 287.239C890.294 267.531 834.516 230.117 768.57 217.09C716.799 206.735 661.022 221.098 605.861 247.488C569.19 264.858 535.908 280.893 504.167 286.571C474.276 292.25 444.384 291.247 412.027 281.56C350.703 262.854 292.152 275.881 233.602 290.579C157.178 309.954 81.9862 339.015 1.86426 288.576" stroke="#CBB0F6" stroke-opacity="0.3" stroke-width="1.03746" stroke-miterlimit="10"/>
<path d="M959.63 313.294C890.294 293.252 836.058 253.166 770.419 238.469C718.956 226.778 662.871 241.142 607.401 267.196C570.422 284.567 537.141 300.6 505.401 306.614C475.509 312.292 445.617 311.958 412.952 302.939C351.628 285.569 292.769 298.597 234.219 313.294C157.486 332.669 81.9862 362.733 1.86426 314.297" stroke="#CBB0F6" stroke-opacity="0.3" stroke-width="1.09975" stroke-miterlimit="10"/>
<path d="M959.63 339.35C890.294 319.306 837.29 276.55 772.269 259.848C720.805 246.485 664.719 260.849 608.943 287.238C571.963 304.609 538.373 320.977 506.941 327.324C477.049 333.336 446.849 333.336 414.184 324.986C352.86 308.952 293.694 321.646 234.834 336.677C157.794 356.052 82.2944 386.784 1.86426 340.686" stroke="#CBB0F6" stroke-opacity="0.3" stroke-width="1.16191" stroke-miterlimit="10"/>
<path d="M959.63 365.739C890.602 345.697 838.831 299.933 774.117 281.227C722.962 266.529 666.261 280.893 610.483 307.282C573.504 324.653 539.915 341.02 508.173 347.702C477.974 354.048 447.774 354.381 415.417 346.698C354.092 332.001 294.617 344.695 235.759 359.726C158.411 379.101 82.6026 410.835 1.86426 367.075" stroke="#CBB0F6" stroke-opacity="0.3" stroke-width="1.2242" stroke-miterlimit="10"/>
<path d="M959.63 391.794C890.602 371.418 840.372 322.981 775.966 302.604C724.811 286.236 668.11 300.6 612.024 326.989C575.044 344.36 541.147 361.062 509.715 367.742C479.515 374.089 449.315 375.092 416.649 368.077C355.017 354.716 295.542 367.409 236.376 382.441C158.718 402.15 82.6026 434.217 1.86426 392.796" stroke="#CBB0F6" stroke-opacity="0.3" stroke-width="1.28637" stroke-miterlimit="10"/>
<path d="M959.63 418.183C890.602 397.807 841.912 346.698 777.815 324.317C726.968 306.613 669.65 320.977 613.565 347.366C576.586 364.737 542.38 381.772 510.947 388.788C480.439 395.469 450.24 396.805 417.574 390.458C355.942 378.432 296.467 391.126 236.991 406.157C159.026 425.866 82.6026 458.602 1.86426 419.519" stroke="#CBB0F6" stroke-opacity="0.3" stroke-width="1.34866" stroke-miterlimit="10"/>
<path d="M959.63 444.238C890.91 423.861 843.146 369.747 779.665 345.362C728.818 325.988 671.5 340.685 615.106 367.075C577.818 384.445 543.921 401.481 512.18 408.83C481.672 415.845 451.164 417.515 418.499 411.837C356.866 401.147 297.083 413.84 237.3 428.872C159.028 448.581 82.6032 482.32 1.55664 445.574" stroke="#CBB0F6" stroke-opacity="0.3" stroke-width="1.41095" stroke-miterlimit="10"/>
<path d="M959.63 470.294C890.91 449.917 844.686 392.796 781.205 366.74C730.358 346.03 673.04 360.394 616.339 387.117C579.051 404.488 544.846 421.858 513.412 429.206C482.905 436.556 452.089 438.56 419.732 433.549C357.791 424.196 298.008 436.889 238.225 451.922C159.643 471.63 82.9112 506.036 1.55664 471.63" stroke="#CBB0F6" stroke-opacity="0.3" stroke-width="1.47311" stroke-miterlimit="10"/>
<path d="M959.63 496.684C890.91 475.973 846.228 416.18 783.054 388.453C732.516 366.073 674.581 380.77 617.88 407.16C580.592 424.53 546.386 442.234 514.646 449.583C483.829 456.933 453.322 459.271 420.657 455.262C358.716 447.245 298.625 459.938 238.841 474.971C159.951 494.679 82.9112 530.087 1.55664 497.685" stroke="#CBB0F6" stroke-opacity="0.3" stroke-width="1.5354" stroke-miterlimit="10"/>
<path d="M959.63 522.738C891.219 502.028 847.46 439.228 784.903 409.498C734.364 385.448 676.431 400.479 619.42 426.868C582.133 444.239 547.619 461.943 516.186 469.96C485.371 477.643 454.554 480.316 421.889 476.975C359.948 470.293 299.548 482.987 239.458 498.02C160.26 517.728 83.2194 553.804 1.55664 524.074" stroke="#CBB0F6" stroke-opacity="0.3" stroke-width="1.59769" stroke-miterlimit="10"/>
<path d="M959.63 549.128C891.219 528.417 849 462.945 786.751 431.211C736.521 405.824 678.28 420.521 621.269 447.245C583.982 464.615 549.16 482.654 517.727 490.67C486.911 498.687 455.786 501.694 423.429 499.022C361.489 493.677 301.09 506.37 240.69 521.402C161.492 541.111 83.8357 578.19 2.17285 550.464" stroke="#CBB0F6" stroke-opacity="0.3" stroke-width="1.65986" stroke-miterlimit="10"/>
<path d="M959.939 575.183C891.527 554.139 850.85 485.994 788.909 452.59C738.678 425.532 680.128 440.564 623.119 466.954C585.831 484.323 551.009 502.696 519.577 510.713C488.452 518.729 457.636 522.404 424.971 520.4C362.722 516.391 302.322 529.085 241.615 544.116C162.109 563.825 84.1439 601.572 2.17285 576.185" stroke="#CBB0F6" stroke-opacity="0.3" stroke-width="1.72215" stroke-miterlimit="10"/>
<path d="M959.939 601.238C891.835 580.193 852.391 509.043 790.759 473.635C740.836 444.906 681.977 459.938 624.659 486.663C587.063 504.032 552.241 522.405 520.809 531.09C489.685 539.44 458.56 543.449 425.895 542.113C363.646 539.44 302.939 551.801 242.23 567.167C162.417 587.209 84.452 625.624 2.17285 602.575" stroke="#CBB0F6" stroke-opacity="0.3" stroke-width="1.78444" stroke-miterlimit="10"/>
<path d="M959.939 627.627C891.835 606.583 853.931 532.426 792.607 495.347C742.686 465.283 683.518 480.316 626.2 507.039C588.605 524.409 553.474 543.115 522.349 551.801C491.225 560.485 459.793 564.827 427.128 564.16C364.879 562.824 303.862 575.183 242.847 590.549C162.725 610.592 84.452 649.674 2.17285 628.964" stroke="#CBB0F6" stroke-opacity="0.3" stroke-width="1.8466" stroke-miterlimit="10"/>
<path d="M959.939 653.683C891.834 632.305 855.163 555.475 794.456 516.726C744.841 484.992 685.366 500.358 627.74 527.081C590.145 544.452 555.014 563.492 523.582 572.177C492.149 581.196 460.717 586.207 428.36 585.873C366.111 585.538 304.787 598.232 243.771 613.598C163.34 633.641 84.7596 673.725 2.48047 655.019" stroke="#CBB0F6" stroke-opacity="0.3" stroke-width="1.90889" stroke-miterlimit="10"/>
<path d="M959.939 680.072C892.144 658.694 856.705 578.857 795.996 538.104C746.383 504.7 686.908 520.066 628.973 546.79C591.377 564.16 555.939 583.2 524.814 592.219C493.382 601.238 461.95 606.583 429.285 607.251C366.728 608.587 305.404 620.946 244.079 636.312C163.342 656.355 84.452 697.108 2.17285 680.741" stroke="#CBB0F6" stroke-opacity="0.3" stroke-width="1.97118" stroke-miterlimit="10"/>
<path d="M959.938 706.128C892.142 684.748 858.245 602.24 797.845 559.482C748.54 524.743 688.448 540.109 630.513 566.832C592.919 584.202 557.171 603.576 526.047 612.93C494.307 622.282 462.874 627.962 430.208 629.298C367.653 631.97 306.328 644.33 244.696 659.695C163.649 679.738 84.7597 721.159 1.86426 707.464" stroke="#CBB0F6" stroke-opacity="0.3" stroke-width="2.03335" stroke-miterlimit="10"/>
</g>
<defs>
<clipPath id="clip0_4_11540">
<rect width="915" height="529" fill="white"/>
</clipPath>
</defs>
</svg>
