<svg width="37" height="55" viewBox="0 0 37 55" fill="none" xmlns="http://www.w3.org/2000/svg">
<g clip-path="url(#clip0_56_7592)">
<path fill-rule="evenodd" clip-rule="evenodd" d="M34.9858 53.2477C34.1991 54.2237 32.7469 54.3872 31.7582 53.612L22.1416 46.0726L25.0007 42.5248L34.6173 50.0642C35.6069 50.8393 35.7726 52.2726 34.9867 53.2477H34.9858Z" fill="white"/>
<path fill-rule="evenodd" clip-rule="evenodd" d="M0.497538 25.9414C3.53408 22.173 27.1746 4.82151 32.8385 0.336951C33.905 -0.506917 35.7817 0.461076 36.0515 0.809339C36.8193 1.79876 36.5576 3.19896 35.5726 3.97853C25.9759 11.576 16.3792 19.1744 6.78248 26.7719C5.8726 27.4925 5.86898 27.2586 6.78067 27.973L13.3417 33.1165L10.4826 36.6644L0.866015 29.1249C-0.123533 28.3498 -0.289212 26.9166 0.496632 25.9414H0.497538Z" fill="#CBB0F6"/>
<path fill-rule="evenodd" clip-rule="evenodd" d="M36.0028 28.4987C32.9662 32.2671 9.32571 49.6186 3.66184 54.1032C2.59534 54.947 0.718551 53.979 0.448756 53.6308C-0.318981 52.6413 -0.0573343 51.2412 0.927687 50.4616C10.5244 42.8641 20.1211 35.2657 29.7178 27.6682C30.6277 26.9476 30.6313 27.1815 29.7196 26.4672L23.1586 21.3236L26.0177 17.7758L35.6343 25.3152C36.6238 26.0903 36.7895 27.5236 36.0037 28.4987H36.0028Z" fill="white"/>
<path fill-rule="evenodd" clip-rule="evenodd" d="M1.0117 0.971623C1.79845 -0.00440668 3.25063 -0.167822 4.23927 0.607286L13.8559 8.14673L10.9968 11.6946L1.38018 4.1551C0.390628 3.37999 0.224948 1.94676 1.01079 0.971623H1.0117Z" fill="#CBB0F6"/>
</g>
<defs>
<clipPath id="clip0_56_7592">
<rect width="36.4986" height="54.4398" fill="white"/>
</clipPath>
</defs>
</svg>
