<svg width="153" height="424" viewBox="0 0 153 424" fill="none" xmlns="http://www.w3.org/2000/svg">
<g opacity="0.15" clip-path="url(#clip0_1322_18537)">
<circle cx="-173.786" cy="326.214" r="324.676" stroke="white" stroke-width="3.07459"/>
<path d="M99.8521 326.214C99.8521 477.338 -22.796 599.852 -174.094 599.852C-325.391 599.852 -448.039 477.338 -448.039 326.214C-448.039 175.089 -325.391 52.5754 -174.094 52.5754C-22.796 52.5754 99.8521 175.089 99.8521 326.214Z" stroke="white" stroke-width="3.07459"/>
<path d="M55.578 326.214C55.578 453.23 -47.2514 556.193 -174.094 556.193C-300.936 556.193 -403.765 453.23 -403.765 326.214C-403.765 199.198 -300.936 96.2346 -174.094 96.2346C-47.2514 96.2346 55.578 199.198 55.578 326.214Z" stroke="white" stroke-width="3.07459"/>
<circle cx="-173.786" cy="326.828" r="194.929" stroke="white" stroke-width="3.07459"/>
</g>
<defs>
<clipPath id="clip0_1322_18537">
<rect width="652.428" height="709" fill="white" transform="translate(-500)"/>
</clipPath>
</defs>
</svg>
