<svg width="218" height="223" viewBox="0 0 218 223" fill="none" xmlns="http://www.w3.org/2000/svg">
<path d="M109 222.999C169.199 222.999 218 194.787 218 159.986C218 125.184 169.199 96.9717 109 96.9717C48.801 96.9717 0 125.184 0 159.986C0 194.787 48.801 222.999 109 222.999Z" fill="#F5F5F5"/>
<path d="M33.5667 172.354C40.2269 172.354 45.6261 169.233 45.6261 165.383C45.6261 161.532 40.2269 158.411 33.5667 158.411C26.9065 158.411 21.5073 161.532 21.5073 165.383C21.5073 169.233 26.9065 172.354 33.5667 172.354Z" fill="#E6E6E6"/>
<path d="M126.552 127.918L47.2492 173.768C46.9429 173.938 46.6876 174.187 46.5098 174.488C46.332 174.79 46.2383 175.134 46.2383 175.485C46.2383 175.835 46.332 176.18 46.5098 176.481C46.6876 176.783 46.9429 177.032 47.2492 177.202L93.8571 204.147C95.0285 204.824 96.3574 205.181 97.71 205.181C99.0627 205.181 100.392 204.824 101.563 204.147L180.866 158.302C181.172 158.132 181.428 157.883 181.605 157.581C181.783 157.279 181.877 156.935 181.877 156.585C181.877 156.234 181.783 155.89 181.605 155.588C181.428 155.286 181.172 155.038 180.866 154.868L134.263 127.918C133.091 127.24 131.761 126.883 130.408 126.883C129.054 126.883 127.724 127.24 126.552 127.918Z" fill="#E6E6E6"/>
<path d="M102.648 128.357L70.9189 146.704C70.2812 147.071 69.7516 147.6 69.3833 148.238C69.015 148.876 68.821 149.6 68.821 150.337C68.821 151.073 69.015 151.797 69.3833 152.435C69.7516 153.073 70.2812 153.602 70.9189 153.97L86.8959 163.207C87.9533 163.816 89.1521 164.137 90.3723 164.137C91.5925 164.137 92.7913 163.816 93.8488 163.207L125.582 144.86C126.219 144.492 126.747 143.962 127.115 143.324C127.482 142.686 127.675 141.963 127.675 141.227C127.675 140.491 127.482 139.768 127.115 139.13C126.747 138.492 126.219 137.963 125.582 137.594L109.6 128.357C108.544 127.745 107.345 127.423 106.124 127.423C104.903 127.423 103.704 127.745 102.648 128.357Z" fill="#E6E6E6"/>
<path d="M92.4683 124.243L99.2789 165.862C99.3289 166.166 99.4854 166.443 99.7204 166.642C99.9554 166.842 100.254 166.951 100.562 166.95C100.744 166.95 100.924 166.911 101.09 166.837C101.257 166.762 101.405 166.653 101.527 166.517C101.648 166.381 101.74 166.221 101.795 166.047C101.851 165.874 101.869 165.69 101.849 165.509L97.0707 122.571L92.4683 124.243Z" fill="#263238"/>
<path d="M33.8191 146.86C33.8191 146.86 26.367 139.57 30.6072 127.362C32.9818 120.523 40.8598 115.498 45.3448 115.027C43.8599 116.794 42.6755 118.793 41.8391 120.945L36.1888 124.705L41.3837 123.078L40.2772 127.529C40.2772 127.529 35.4495 130.471 34.7347 131.088L39.9393 129.701C39.9393 129.701 39.5379 142.311 33.8191 146.86Z" fill="#BA68C8"/>
<path d="M33.8191 146.86C33.8191 146.86 26.367 139.57 30.6072 127.362C32.9818 120.523 40.8598 115.498 45.3448 115.027C43.8599 116.794 42.6755 118.793 41.8391 120.945L36.1888 124.705L41.3837 123.078L40.2772 127.529C40.2772 127.529 35.4495 130.471 34.7347 131.088L39.9393 129.701C39.9393 129.701 39.5379 142.311 33.8191 146.86Z" fill="#7833E8"/>
<path d="M34.015 146.988C34.015 146.988 30.1565 131.736 35.866 122.843C35.866 122.823 29.1771 130.672 34.015 146.988Z" fill="white"/>
<path d="M42.7951 148.83L33.6735 148.712H33.5805L24.4637 148.83C24.4637 148.83 24.3609 160.076 27.8225 164.65C28.8017 165.871 31.0197 166.724 33.6294 166.724C36.2391 166.724 38.4865 165.866 39.4412 164.646C42.893 160.066 42.7951 148.83 42.7951 148.83Z" fill="#37474F"/>
<path d="M33.6291 153.985C38.6912 153.985 42.7948 151.779 42.7948 149.058C42.7948 146.336 38.6912 144.13 33.6291 144.13C28.567 144.13 24.4634 146.336 24.4634 149.058C24.4634 151.779 28.567 153.985 33.6291 153.985Z" fill="#455A64"/>
<path d="M33.2151 147.695C36.3683 147.695 39.0367 148.71 39.9768 150.112C40.2087 149.789 40.3367 149.402 40.344 149.004C40.344 147.043 37.1516 145.479 33.2151 145.479C29.2785 145.479 26.0764 147.057 26.0764 149.004C26.0846 149.401 26.2108 149.787 26.4387 150.112C27.3886 148.71 30.0619 147.695 33.2151 147.695Z" fill="#263238"/>
<path d="M33.6433 152.469C37.3776 152.469 40.4049 151.387 40.4049 150.052C40.4049 148.717 37.3776 147.635 33.6433 147.635C29.9089 147.635 26.8816 148.717 26.8816 150.052C26.8816 151.387 29.9089 152.469 33.6433 152.469Z" fill="#E0E0E0"/>
<path d="M33.6836 150.481C33.6836 150.481 30.1485 150.344 27.1226 145.647C25.8692 143.711 25.267 142.706 25.267 142.706L30.1632 142.338L24.65 140.96L22.0453 136.97L26.6232 136.626C26.6232 136.626 23.1959 135.43 20.782 135.415C20.782 135.415 16.5566 127.949 15.3228 126.885C18.5158 127.081 21.6371 127.916 24.5022 129.341C27.3674 130.766 29.9183 132.751 32.0042 135.18C38.9666 143.382 34.7118 150.692 33.6836 150.481Z" fill="#7833E8"/>
<path d="M33.6629 150.645C33.6629 150.645 35.8711 137.32 21.7749 129.309C21.7749 129.309 36.4048 136.344 33.6629 150.645Z" fill="white"/>
<path d="M33.7871 150.525C33.7871 150.525 36.9843 150.731 40.1522 146.78C41.4595 145.152 42.1107 144.289 42.1107 144.289L37.7041 143.495L42.8059 142.769L45.5331 139.411L41.435 138.671C41.435 138.671 44.6224 137.916 46.8208 138.131C46.8208 138.131 51.3351 131.787 52.5494 130.944C49.6499 130.822 46.7552 131.282 44.0364 132.298C41.3176 133.315 38.8298 134.866 36.7199 136.862C29.6841 143.622 32.8372 150.619 33.7871 150.525Z" fill="#BA68C8"/>
<path d="M33.7871 150.525C33.7871 150.525 36.9843 150.731 40.1522 146.78C41.4595 145.152 42.1107 144.289 42.1107 144.289L37.7041 143.495L42.8059 142.769L45.5331 139.411L41.435 138.671C41.435 138.671 44.6224 137.916 46.8208 138.131C46.8208 138.131 51.3351 131.787 52.5494 130.944C49.6499 130.822 46.7552 131.282 44.0364 132.298C41.3176 133.315 38.8298 134.866 36.7199 136.862C29.6841 143.622 32.8372 150.619 33.7871 150.525Z" fill="#8E54EC"/>
<path d="M33.667 150.682C33.667 150.682 32.9227 138.455 46.3971 132.542C46.3971 132.552 32.5359 137.523 33.667 150.682Z" fill="white"/>
<path d="M82.0023 114.756L75.2798 150.619C75.2348 150.87 75.1025 151.098 74.9064 151.261C74.7102 151.424 74.4627 151.513 74.2076 151.511C74.0506 151.511 73.8955 151.476 73.7529 151.411C73.6103 151.345 73.4834 151.25 73.3808 151.131C73.2782 151.012 73.2024 150.872 73.1583 150.721C73.1143 150.57 73.1031 150.412 73.1255 150.256L78.0903 117.016L82.0023 114.756Z" fill="#263238"/>
<path d="M116.124 110.501L122.939 152.12C122.988 152.424 123.143 152.7 123.378 152.9C123.612 153.099 123.909 153.208 124.217 153.208C124.4 153.208 124.58 153.169 124.747 153.094C124.913 153.019 125.062 152.91 125.184 152.773C125.306 152.637 125.397 152.476 125.452 152.302C125.507 152.127 125.525 151.943 125.505 151.762L120.726 108.829L116.124 110.501Z" fill="#263238"/>
<path d="M105.618 101.284L98.9347 136.927C98.8897 137.178 98.7574 137.405 98.5612 137.569C98.365 137.732 98.1175 137.821 97.8624 137.819C97.7059 137.818 97.5513 137.784 97.4091 137.719C97.2668 137.653 97.1402 137.558 97.0377 137.44C96.9352 137.321 96.8592 137.182 96.8148 137.032C96.7704 136.882 96.7587 136.724 96.7803 136.569L101.706 103.539L105.618 101.284Z" fill="#263238"/>
<path d="M103.836 97.9396C102.294 97.2567 100.962 96.1767 99.9734 94.8098C98.9851 93.4429 98.3765 91.838 98.2097 90.1587C97.1276 79.2352 93.2839 56.7311 80.2693 64.2226C64.1993 73.4694 69.9526 100.322 72.2881 108.932C72.8073 110.871 73.8195 112.643 75.226 114.075C78.1295 117.017 84.1374 122.047 94.3611 126.332C95.6153 126.857 97.0101 126.94 98.3174 126.567C103.395 125.121 116.659 120.684 123.289 112.202C123.664 111.721 123.835 111.111 123.763 110.505C123.692 109.899 123.384 109.346 122.907 108.966C120.229 106.838 114.172 102.558 103.836 97.9396Z" fill="#BA68C8"/>
<path opacity="0.5" d="M103.836 97.9396C102.294 97.2567 100.962 96.1767 99.9734 94.8098C98.9851 93.4429 98.3765 91.838 98.2097 90.1587C97.1276 79.2352 93.2839 56.7311 80.2693 64.2226C64.1993 73.4694 69.9526 100.322 72.2881 108.932C72.8073 110.871 73.8195 112.643 75.226 114.075C78.1295 117.017 84.1374 122.047 94.3611 126.332C95.6153 126.857 97.0101 126.94 98.3174 126.567C103.395 125.121 116.659 120.684 123.289 112.202C123.664 111.721 123.835 111.111 123.763 110.505C123.692 109.899 123.384 109.346 122.907 108.966C120.229 106.838 114.172 102.558 103.836 97.9396Z" fill="#B18AF2"/>
<path d="M123.738 110.972C123.767 111.528 123.593 112.075 123.249 112.512C122.896 112.967 122.519 113.404 122.132 113.835C121.917 114.071 121.701 114.301 121.476 114.527C121.256 114.752 121.03 114.973 120.8 115.193L120.105 115.841C119.865 116.051 119.615 116.262 119.375 116.468C115.62 119.621 111.052 122.023 107.002 123.754L106.248 124.072L106.17 124.102L105.475 124.386L105.352 124.43L104.706 124.685L104.559 124.744L103.957 124.97L103.78 125.033L103.222 125.239L103.021 125.313L102.507 125.494L102.297 125.568L101.807 125.73L101.577 125.808L101.146 125.95L100.901 126.034L100.515 126.156L100.25 126.24L99.9172 126.347L99.6332 126.431L99.3541 126.519L99.0064 126.622L98.8302 126.671C98.6637 126.725 98.4972 126.769 98.3405 126.813C97.0332 127.185 95.6384 127.102 94.3842 126.578C84.1606 122.288 78.1527 117.262 75.2491 114.321C73.8426 112.889 72.8305 111.117 72.3113 109.178C69.9757 100.568 64.2224 73.7153 80.2924 64.4685C80.5764 64.3083 80.8555 64.1612 81.1297 64.0272L81.3109 63.939C81.5851 63.8115 81.8495 63.6938 82.1139 63.5909L82.1922 63.5615C82.4419 63.4683 82.6818 63.385 82.9365 63.3163L83.0491 63.282C83.3135 63.2084 83.573 63.1496 83.8276 63.1006H83.8962C84.4033 63.0098 84.9188 62.9736 85.4336 62.9927H85.463C85.9597 63.0113 86.4525 63.087 86.9319 63.2183C84.3662 62.0857 81.2325 62.1347 78.1184 63.9243C62.0484 73.171 67.8017 100.024 70.1373 108.633L70.5339 110.104C71.3308 113.092 73.0939 115.732 75.5478 117.61L79.7195 120.802C84.2003 124.223 89.1029 127.051 94.3059 129.216C95.5634 129.746 96.9638 129.833 98.2769 129.461C103.35 128.014 116.624 123.577 123.249 115.095C123.535 114.734 123.705 114.295 123.738 113.835V110.967V110.972Z" fill="#BA68C8"/>
<path opacity="0.6" d="M123.738 110.972C123.767 111.528 123.593 112.075 123.249 112.512C122.896 112.967 122.519 113.404 122.132 113.835C121.917 114.071 121.701 114.301 121.476 114.527C121.256 114.752 121.03 114.973 120.8 115.193L120.105 115.841C119.865 116.051 119.615 116.262 119.375 116.468C115.62 119.621 111.052 122.023 107.002 123.754L106.248 124.072L106.17 124.102L105.475 124.386L105.352 124.43L104.706 124.685L104.559 124.744L103.957 124.97L103.78 125.033L103.222 125.239L103.021 125.313L102.507 125.494L102.297 125.568L101.807 125.73L101.577 125.808L101.146 125.95L100.901 126.034L100.515 126.156L100.25 126.24L99.9172 126.347L99.6332 126.431L99.3541 126.519L99.0064 126.622L98.8302 126.671C98.6637 126.725 98.4972 126.769 98.3405 126.813C97.0332 127.185 95.6384 127.102 94.3842 126.578C84.1606 122.288 78.1527 117.262 75.2491 114.321C73.8426 112.889 72.8305 111.117 72.3113 109.178C69.9757 100.568 64.2224 73.7153 80.2924 64.4685C80.5764 64.3083 80.8555 64.1612 81.1297 64.0272L81.3109 63.939C81.5851 63.8115 81.8495 63.6938 82.1139 63.5909L82.1922 63.5615C82.4419 63.4683 82.6818 63.385 82.9365 63.3163L83.0491 63.282C83.3135 63.2084 83.573 63.1496 83.8276 63.1006H83.8962C84.4033 63.0098 84.9188 62.9736 85.4336 62.9927H85.463C85.9597 63.0113 86.4525 63.087 86.9319 63.2183C84.3662 62.0857 81.2325 62.1347 78.1184 63.9243C62.0484 73.171 67.8017 100.024 70.1373 108.633L70.5339 110.104C71.3308 113.092 73.0939 115.732 75.5478 117.61L79.7195 120.802C84.2003 124.223 89.1029 127.051 94.3059 129.216C95.5634 129.746 96.9638 129.833 98.2769 129.461C103.35 128.014 116.624 123.577 123.249 115.095C123.535 114.734 123.705 114.295 123.738 113.835V110.967V110.972Z" fill="#4E00CE"/>
<path d="M132.768 141.755C131.669 134.73 130.26 123.503 129.455 116.866C129.402 116.431 129.329 115.998 129.234 115.569C128.81 113.737 128.016 112.012 126.9 110.499C125.785 108.987 124.372 107.719 122.748 106.774L106.224 96.9429L95.006 91.0439C95.006 91.0439 92.0212 99.7055 95.4969 105.005C98.3836 109.429 111.128 114.876 114.918 116.719C118.708 118.562 118.787 119.059 118.708 121.522C118.63 123.984 118.625 127.121 123.279 136.942C124.619 139.764 125.552 141.858 126.2 143.495C128.523 143.675 130.838 143.062 132.768 141.755Z" fill="#BA68C8"/>
<path opacity="0.7" d="M132.768 141.775C131.669 134.75 130.26 123.522 129.455 116.886C129.376 116.234 129.251 115.589 129.081 114.954C128.115 111.522 125.852 108.6 122.773 106.809L106.224 96.9429L95.006 91.0439C95.006 91.0439 92.0212 99.7055 95.4969 105.005C98.3836 109.429 111.128 114.876 114.918 116.719C118.708 118.562 118.787 119.059 118.708 121.522C118.63 123.984 118.625 127.121 123.279 136.942C124.619 139.764 125.552 141.858 126.2 143.495C128.52 143.681 130.836 143.074 132.768 141.775Z" fill="#5600E2"/>
<path d="M127.536 149.394C127.529 149.685 127.598 149.972 127.737 150.228C128.394 151.339 129.231 152.333 130.214 153.169C132.437 155.175 139.796 163.024 142.382 158.15C142.382 158.15 134.778 150.86 133.774 147.855C133.276 145.918 132.895 143.954 132.633 141.972C130.702 143.267 128.389 143.868 126.072 143.678C127.497 147.232 127.561 148.384 127.536 149.394Z" fill="#FFA8A7"/>
<path d="M135.347 148.638L135.137 148.006C135.052 147.774 134.883 147.582 134.663 147.469C134.443 147.356 134.189 147.331 133.952 147.398L130.872 148.349C130.679 148.409 130.51 148.529 130.39 148.693C130.27 148.856 130.205 149.053 130.206 149.256V149.565C130.205 149.711 130.146 149.851 130.042 149.953C129.939 150.056 129.799 150.114 129.653 150.114C129.001 150.114 128.369 149.887 127.866 149.472L127.435 149.119V148.04C127.157 148.222 126.932 148.473 126.781 148.769C126.631 149.065 126.561 149.395 126.578 149.727C126.617 150.457 126.651 151.349 126.622 151.688C126.573 152.335 125.971 155.031 126.691 155.83C127.41 156.63 129.026 156.723 131.024 156.507C133.021 156.291 135.205 158.257 137.056 158.988C138.907 159.718 146.574 161.287 146.555 156.38C146.555 155.129 145.316 154.62 144.106 154.178C142.897 153.737 138.52 152.193 137.399 151.266C136.948 150.891 136.53 150.477 136.15 150.031C135.793 149.624 135.52 149.151 135.347 148.638Z" fill="#343434"/>
<path d="M137.056 159.195C135.205 158.464 133.022 156.498 131.024 156.714C129.026 156.929 127.411 156.836 126.691 156.037C126.46 155.705 126.34 155.309 126.348 154.904C126.314 155.659 126.373 156.375 126.691 156.738C127.411 157.537 129.026 157.63 131.024 157.415C133.022 157.199 135.205 159.17 137.056 159.896C138.907 160.621 146.574 162.195 146.555 157.287C146.55 157.216 146.54 157.146 146.526 157.076C146.046 161.367 138.843 159.896 137.056 159.195Z" fill="#263238"/>
<path d="M117.635 150.74C116.533 143.739 115.133 132.54 114.325 125.917C113.903 122.436 112.186 119.243 109.517 116.974L89.7401 100.138L79.1688 99.9365C79.1688 99.9365 76.9899 108.762 80.4467 114.042C83.3307 118.455 96.0369 123.892 99.8169 125.726C103.597 127.559 103.675 128.064 103.597 130.516C103.519 132.967 103.514 136.1 108.16 145.896C109.492 148.715 110.423 150.799 111.069 152.431C113.385 152.625 115.699 152.029 117.635 150.74Z" fill="#BA68C8"/>
<path opacity="0.7" d="M117.635 150.74C116.533 143.739 115.133 132.54 114.325 125.917C113.903 122.436 112.186 119.243 109.517 116.974L89.7401 100.138L79.1688 99.9365C79.1688 99.9365 76.9899 108.762 80.4467 114.042C83.3307 118.455 96.0369 123.892 99.8169 125.726C103.597 127.559 103.675 128.064 103.597 130.516C103.519 132.967 103.514 136.1 108.16 145.896C109.492 148.715 110.423 150.799 111.069 152.431C113.385 152.625 115.699 152.029 117.635 150.74Z" fill="#5600E2"/>
<path d="M112.476 157.107C112.476 157.402 112.275 158.269 112.682 158.578C113.201 158.966 113.695 160.206 115.164 161.52C117.382 163.526 119.727 159.206 118.719 156.21C118.224 154.273 117.845 152.308 117.583 150.326C115.649 151.62 113.335 152.222 111.017 152.032C112.447 155.573 112.506 156.102 112.476 157.107Z" fill="#FFA8A7"/>
<path d="M99.458 62.5373C100.971 62.2967 102.52 62.6011 103.83 63.3965C105.139 64.1918 106.125 65.4265 106.611 66.881C107.31 68.9814 107.758 71.1568 107.948 73.3624C108.521 80.1526 108.678 83.5452 108.678 83.5452L115.488 86.6388C115.488 86.6388 111.811 86.8153 112.061 92.0317L103.576 89.8892L99.458 62.5373Z" fill="#FFA8A7"/>
<path d="M108.998 84.0395C108.233 84.275 107.541 84.702 106.986 85.28C106.986 85.28 107.808 83.7159 108.944 83.2305L108.998 84.0395Z" fill="#F28F8F"/>
<path d="M108.927 79.4623C107.924 72.1083 107.527 68.2597 106.665 66.4359C106.074 65.0726 105.041 63.9485 103.734 63.2449C102.426 62.5413 100.92 62.2993 99.458 62.5579L102.024 82.7569L102.352 82.7274C104.624 82.503 106.764 81.5544 108.457 80.0212L108.927 79.4623Z" fill="#BA68C8"/>
<path d="M108.927 79.4623C107.924 72.1083 107.527 68.2597 106.665 66.4359C106.074 65.0726 105.041 63.9485 103.734 63.2449C102.426 62.5413 100.92 62.2993 99.458 62.5579L102.024 82.7569L102.352 82.7274C104.624 82.503 106.764 81.5544 108.457 80.0212L108.927 79.4623Z" fill="#4E00CE"/>
<path d="M82.9514 68.4931L90.5699 64.7965L96.8469 62.6246C96.8469 62.6246 101.88 61.0214 103.163 67.7332C104.225 73.2486 104.363 94.2075 104.363 94.2075L104.25 96.4971C104.25 96.4971 101.347 104.645 90.9714 105.322C80.5963 105.998 78.5742 101.615 78.5742 101.615C78.5742 101.615 77.5166 73.8811 82.9514 68.4931Z" fill="#4E00CE"/>
<path d="M127.781 81.0742L55.3706 122.936V132.006V176.081C55.374 176.255 55.4276 176.426 55.5249 176.571C55.6221 176.716 55.759 176.83 55.9193 176.9C56.3333 177.112 56.7917 177.222 57.2567 177.222C57.7217 177.222 58.18 177.112 58.5941 176.9C58.7534 176.83 58.8893 176.715 58.9856 176.57C59.082 176.425 59.1348 176.255 59.1378 176.081V134.189L98.3974 156.866V201.373C98.4018 201.547 98.4558 201.716 98.553 201.86C98.6502 202.004 98.7866 202.118 98.9461 202.187C99.3602 202.399 99.8185 202.509 100.284 202.509C100.748 202.509 101.207 202.399 101.621 202.187C101.78 202.118 101.917 202.004 102.014 201.86C102.111 201.716 102.165 201.547 102.17 201.373V156.866L168.907 118.286V160.472C168.913 160.646 168.968 160.815 169.067 160.959C169.166 161.102 169.305 161.214 169.465 161.281C169.88 161.493 170.338 161.604 170.803 161.604C171.268 161.604 171.726 161.493 172.14 161.281C172.3 161.213 172.437 161.099 172.534 160.955C172.631 160.81 172.685 160.641 172.689 160.467V107.043L127.781 81.0742Z" fill="#455A64"/>
<path d="M101.341 202.31C100.927 202.522 100.469 202.632 100.004 202.632C99.5391 202.632 99.081 202.522 98.6671 202.31C97.9277 201.883 97.9277 201.192 98.6671 200.766C99.081 200.554 99.5391 200.443 100.004 200.443C100.469 200.443 100.927 200.554 101.341 200.766C102.08 201.192 102.08 201.883 101.341 202.31Z" fill="#455A64"/>
<path d="M57.2607 177.033C58.3046 177.033 59.1508 176.543 59.1508 175.939C59.1508 175.335 58.3046 174.846 57.2607 174.846C56.2168 174.846 55.3706 175.335 55.3706 175.939C55.3706 176.543 56.2168 177.033 57.2607 177.033Z" fill="#455A64"/>
<path d="M172.023 161.082C171.609 161.293 171.151 161.404 170.686 161.404C170.221 161.404 169.763 161.293 169.349 161.082C168.61 160.655 168.61 159.964 169.349 159.537C169.763 159.325 170.221 159.215 170.686 159.215C171.151 159.215 171.609 159.325 172.023 159.537C172.762 159.968 172.762 160.66 172.023 161.082Z" fill="#455A64"/>
<path d="M101.893 155.713H98.1125V201.288H101.893V155.713Z" fill="#37474F"/>
<path d="M59.1508 130.925H55.3706V176.5H59.1508V130.925Z" fill="#263238"/>
<path d="M125.741 126.939C125.369 127.128 124.958 127.226 124.542 127.226C124.125 127.226 123.714 127.128 123.342 126.939C122.681 126.557 122.681 125.958 123.342 125.556C123.713 125.365 124.124 125.266 124.542 125.266C124.959 125.266 125.37 125.365 125.741 125.556C126.383 125.939 126.383 126.557 125.741 126.939Z" fill="#455A64"/>
<path d="M55.3706 123.109V132.174L100.264 158.129V149.059L55.3706 123.109Z" fill="#263238"/>
<path d="M172.575 115.294H168.795V160.869H172.575V115.294Z" fill="#37474F"/>
<path d="M126.24 87.8115H122.846V125.846H126.24V87.8115Z" fill="#455A64"/>
<path d="M172.37 106.943L99.9958 148.779V157.85L172.37 116.009V106.943Z" fill="#37474F"/>
<path d="M112.885 157.408C113.226 157.927 113.751 158.298 114.353 158.447C114.907 158.535 113.79 157.099 115.122 156.52C116.454 155.942 119.504 155.153 119.778 156.3L120.116 157.731C120.435 159.085 121.08 160.339 121.996 161.384C122.885 162.461 123.898 163.43 125.012 164.272C126.755 165.394 129.62 168.115 125.943 170.434C122.266 172.753 117.751 170.792 116.865 168.159C115.979 165.527 115.044 164.762 114.574 164.325C113.583 163.63 112.877 162.599 112.586 161.423C112.347 160.258 112.183 159.079 112.096 157.893C112.078 157.654 112.125 157.414 112.231 157.199C112.338 156.984 112.501 156.802 112.703 156.672L112.885 157.408Z" fill="#343434"/>
<path d="M125.835 170.406C122.158 172.721 117.644 170.764 116.758 168.131C115.871 165.498 114.936 164.733 114.466 164.297C113.636 163.696 112.998 162.866 112.63 161.909C112.63 161.978 112.63 162.056 112.63 162.125C112.772 164.405 114.168 164.939 114.638 165.381C115.108 165.822 115.881 166.538 116.767 169.176C117.654 171.814 122.315 173.451 125.987 171.137C127.774 170.014 128.014 168.793 127.593 167.705C127.681 168.592 127.231 169.529 125.835 170.406Z" fill="#263238"/>
<path d="M127.781 81.0742L55.3706 122.936L100.288 148.9L172.699 107.043L127.781 81.0742Z" fill="#455A64"/>
<path d="M108.216 135.565L96.5038 142.351L81.7173 133.8L93.4682 127.015C93.6222 126.928 93.7958 126.883 93.9725 126.883C94.1492 126.883 94.3229 126.928 94.4768 127.015L108.23 134.967C108.281 134.999 108.323 135.044 108.352 135.097C108.38 135.151 108.394 135.21 108.393 135.271C108.391 135.331 108.374 135.39 108.343 135.441C108.312 135.493 108.268 135.536 108.216 135.565Z" fill="#BA68C8"/>
<path opacity="0.7" d="M108.216 135.565L96.5038 142.351L81.7173 133.8L93.4682 127.015C93.6222 126.928 93.7958 126.883 93.9725 126.883C94.1492 126.883 94.3229 126.928 94.4768 127.015L108.23 134.967C108.281 134.999 108.323 135.044 108.352 135.097C108.38 135.151 108.394 135.21 108.393 135.271C108.391 135.331 108.374 135.39 108.343 135.441C108.312 135.493 108.268 135.536 108.216 135.565Z" fill="#FBB130"/>
<path d="M107.452 135.517L96.553 141.817L82.7898 133.865L93.7132 127.55C93.8547 127.466 94.0163 127.422 94.1808 127.422C94.3454 127.422 94.5069 127.466 94.6484 127.55L107.452 134.949C107.502 134.977 107.543 135.019 107.572 135.069C107.601 135.119 107.616 135.175 107.616 135.233C107.616 135.291 107.601 135.347 107.572 135.397C107.543 135.447 107.502 135.488 107.452 135.517Z" fill="white"/>
<path d="M96.5022 141.785V140.554L107.568 134.16V135.205L96.5022 141.785Z" fill="white"/>
<path d="M96.5531 141.725V140.494L82.7898 132.541V133.772L96.5531 141.725Z" fill="#E0E0E0"/>
<path d="M108.216 133.689L96.5038 140.46L81.7173 131.915L93.4682 125.129C93.6222 125.043 93.7958 124.997 93.9725 124.997C94.1492 124.997 94.3229 125.043 94.4768 125.129L108.216 133.106C108.264 133.138 108.304 133.181 108.332 133.232C108.359 133.283 108.374 133.34 108.374 133.398C108.374 133.456 108.359 133.513 108.332 133.564C108.304 133.615 108.264 133.658 108.216 133.689Z" fill="#BA68C8"/>
<path d="M108.216 133.689L96.5038 140.46L81.7173 131.915L93.4682 125.129C93.6222 125.043 93.7958 124.997 93.9725 124.997C94.1492 124.997 94.3229 125.043 94.4768 125.129L108.216 133.106C108.264 133.138 108.304 133.181 108.332 133.232C108.359 133.283 108.374 133.34 108.374 133.398C108.374 133.456 108.359 133.513 108.332 133.564C108.304 133.615 108.264 133.658 108.216 133.689Z" fill="#FBB130"/>
<path d="M94.899 141.582C94.8656 141.598 94.8287 141.607 94.7913 141.607C94.7539 141.607 94.717 141.598 94.6836 141.582C94.641 141.559 94.6054 141.525 94.5804 141.483C94.5554 141.442 94.542 141.395 94.5416 141.346V140.223C94.544 139.972 94.6105 139.726 94.7348 139.508C94.859 139.29 95.037 139.108 95.2516 138.978L95.2957 138.949C95.3159 138.937 95.3387 138.932 95.3618 138.932C95.385 138.933 95.4075 138.939 95.4274 138.951C95.4472 138.963 95.4635 138.98 95.4748 139C95.486 139.02 95.4918 139.043 95.4915 139.066C95.4915 139.127 95.5158 139.186 95.5589 139.229C95.6021 139.272 95.6606 139.297 95.7217 139.297C95.7827 139.297 95.8412 139.272 95.8844 139.229C95.9276 139.186 95.9518 139.127 95.9518 139.066C95.9528 138.961 95.9255 138.858 95.873 138.768C95.8204 138.677 95.7445 138.602 95.6531 138.551C95.5637 138.497 95.4613 138.469 95.3569 138.469C95.2525 138.469 95.15 138.497 95.0606 138.551L95.0166 138.576C94.7319 138.745 94.496 138.985 94.332 139.273C94.168 139.561 94.0816 139.887 94.0813 140.219V141.332C94.0813 141.463 94.1168 141.592 94.184 141.705C94.2512 141.818 94.3477 141.911 94.4632 141.974C94.5687 142.03 94.6866 142.059 94.806 142.057C94.9507 142.058 95.0923 142.015 95.2124 141.935C95.2566 141.905 95.288 141.859 95.3006 141.807L94.899 141.582Z" fill="white"/>
<path d="M92.7484 140.18C92.715 140.197 92.6781 140.206 92.6407 140.206C92.6033 140.206 92.5664 140.197 92.5329 140.18C92.4904 140.157 92.4547 140.123 92.4297 140.082C92.4048 140.04 92.3914 139.993 92.3909 139.945V138.832C92.3925 138.58 92.4586 138.333 92.5829 138.114C92.7072 137.895 92.8856 137.711 93.101 137.581H93.145C93.1653 137.57 93.188 137.564 93.2111 137.564C93.2342 137.564 93.257 137.57 93.2772 137.581C93.2966 137.593 93.3126 137.61 93.3238 137.629C93.3349 137.649 93.3408 137.671 93.3409 137.694C93.3409 137.755 93.3651 137.814 93.4083 137.857C93.4515 137.9 93.51 137.925 93.571 137.925C93.6321 137.925 93.6906 137.9 93.7338 137.857C93.7769 137.814 93.8012 137.755 93.8012 137.694C93.7978 137.593 93.7686 137.495 93.7163 137.41C93.6639 137.324 93.5903 137.253 93.5025 137.204C93.4131 137.15 93.3107 137.121 93.2062 137.121C93.1018 137.121 92.9994 137.15 92.91 137.204L92.8659 137.228C92.5812 137.397 92.3453 137.638 92.1814 137.926C92.0174 138.214 91.931 138.539 91.9307 138.871V139.984C91.9307 140.115 91.9661 140.245 92.0334 140.358C92.1006 140.471 92.1971 140.564 92.3126 140.626C92.418 140.682 92.5359 140.711 92.6554 140.71C92.8001 140.711 92.9417 140.668 93.0618 140.587C93.1059 140.557 93.1373 140.511 93.1499 140.459L92.7484 140.18Z" fill="white"/>
<path d="M90.5975 139.127C90.5638 139.143 90.527 139.151 90.4898 139.151C90.4526 139.151 90.4158 139.143 90.3821 139.127C90.3395 139.105 90.3038 139.071 90.2789 139.029C90.2539 138.988 90.2405 138.94 90.2401 138.892V137.779C90.2416 137.527 90.3077 137.28 90.432 137.061C90.5564 136.842 90.7347 136.659 90.9501 136.529L90.9941 136.504C91.0144 136.493 91.0371 136.487 91.0603 136.487C91.0834 136.487 91.1061 136.493 91.1264 136.504C91.1457 136.516 91.1618 136.532 91.1729 136.552C91.184 136.572 91.1899 136.594 91.19 136.617C91.19 136.678 91.2143 136.737 91.2574 136.78C91.3006 136.823 91.3591 136.847 91.4202 136.847C91.4812 136.847 91.5397 136.823 91.5829 136.78C91.626 136.737 91.6503 136.678 91.6503 136.617C91.647 136.516 91.6177 136.418 91.5654 136.332C91.513 136.246 91.4394 136.176 91.3516 136.127C91.2622 136.073 91.1598 136.044 91.0554 136.044C90.9509 136.044 90.8485 136.073 90.7591 136.127L90.715 136.151C90.4303 136.32 90.1944 136.561 90.0305 136.849C89.8665 137.137 89.7801 137.462 89.7798 137.794V138.907C89.7798 139.038 89.8153 139.167 89.8825 139.281C89.9497 139.394 90.0462 139.486 90.1617 139.549C90.2672 139.605 90.385 139.634 90.5045 139.632C90.6492 139.633 90.7908 139.591 90.9109 139.51C90.955 139.48 90.9865 139.434 90.999 139.382L90.5975 139.127Z" fill="white"/>
<path d="M88.1793 137.508C88.1456 137.524 88.1088 137.532 88.0716 137.532C88.0344 137.532 87.9976 137.524 87.9639 137.508C87.9213 137.485 87.8856 137.451 87.8607 137.41C87.8357 137.369 87.8223 137.321 87.8219 137.273V136.16C87.8234 135.908 87.8895 135.661 88.0138 135.442C88.1382 135.223 88.3165 135.04 88.5319 134.91L88.5759 134.885C88.5962 134.874 88.6189 134.868 88.642 134.868C88.6652 134.868 88.6879 134.874 88.7081 134.885C88.7275 134.897 88.7435 134.913 88.7547 134.933C88.7658 134.953 88.7717 134.975 88.7718 134.998C88.7718 135.059 88.796 135.118 88.8392 135.161C88.8824 135.204 88.9409 135.228 89.0019 135.228C89.063 135.228 89.1215 135.204 89.1647 135.161C89.2078 135.118 89.2321 135.059 89.2321 134.998C89.2288 134.897 89.1995 134.799 89.1472 134.713C89.0948 134.627 89.0212 134.556 88.9334 134.507C88.844 134.453 88.7416 134.425 88.6371 134.425C88.5327 134.425 88.4303 134.453 88.3409 134.507L88.2968 134.532C88.0121 134.701 87.7762 134.941 87.6123 135.229C87.4483 135.517 87.3619 135.843 87.3616 136.175V137.288C87.3616 137.419 87.3971 137.548 87.4643 137.661C87.5315 137.774 87.628 137.867 87.7435 137.93C87.8489 137.986 87.9668 138.015 88.0863 138.013C88.231 138.014 88.3726 137.972 88.4927 137.891C88.5368 137.861 88.5682 137.815 88.5808 137.763L88.1793 137.508Z" fill="white"/>
<path d="M86.0287 136.409C85.9949 136.424 85.9582 136.432 85.9209 136.432C85.8837 136.432 85.847 136.424 85.8132 136.409C85.7706 136.386 85.735 136.352 85.71 136.31C85.685 136.269 85.6716 136.222 85.6712 136.173V135.06C85.6728 134.808 85.7389 134.561 85.8632 134.342C85.9875 134.123 86.1659 133.94 86.3812 133.81H86.4253C86.4456 133.799 86.4683 133.793 86.4914 133.793C86.5145 133.793 86.5373 133.799 86.5575 133.81C86.5769 133.822 86.5929 133.838 86.6041 133.858C86.6152 133.878 86.6211 133.9 86.6212 133.923C86.6212 133.984 86.6454 134.042 86.6886 134.086C86.7317 134.129 86.7903 134.153 86.8513 134.153C86.9123 134.153 86.9709 134.129 87.014 134.086C87.0572 134.042 87.0814 133.984 87.0814 133.923C87.0781 133.822 87.0489 133.724 86.9965 133.638C86.9442 133.552 86.8705 133.481 86.7828 133.432C86.6934 133.378 86.5909 133.35 86.4865 133.35C86.3821 133.35 86.2796 133.378 86.1903 133.432L86.1462 133.457C85.8615 133.626 85.6256 133.866 85.4616 134.154C85.2977 134.442 85.2113 134.768 85.2109 135.099V136.212C85.2109 136.344 85.2464 136.473 85.3136 136.586C85.3809 136.699 85.4773 136.792 85.5929 136.855C85.6991 136.909 85.8165 136.937 85.9356 136.938C86.0803 136.939 86.222 136.896 86.3421 136.815C86.3862 136.785 86.4176 136.74 86.4302 136.688L86.0287 136.409Z" fill="white"/>
<path d="M83.8778 134.821C83.8441 134.837 83.8073 134.845 83.7701 134.845C83.7328 134.845 83.6961 134.837 83.6623 134.821C83.6198 134.798 83.5841 134.764 83.5591 134.723C83.5342 134.681 83.5208 134.634 83.5203 134.585V133.463C83.5219 133.211 83.588 132.964 83.7123 132.745C83.8366 132.526 84.015 132.342 84.2304 132.212L84.2744 132.188C84.2947 132.177 84.3174 132.171 84.3405 132.171C84.3636 132.171 84.3864 132.177 84.4066 132.188C84.4267 132.199 84.4433 132.215 84.4546 132.235C84.4658 132.255 84.4713 132.278 84.4703 132.301C84.4703 132.362 84.4945 132.42 84.5377 132.463C84.5809 132.507 84.6394 132.531 84.7004 132.531C84.7615 132.531 84.82 132.507 84.8632 132.463C84.9063 132.42 84.9306 132.362 84.9306 132.301C84.9254 132.199 84.8944 132.1 84.8403 132.013C84.7862 131.927 84.7109 131.855 84.6216 131.806C84.5323 131.757 84.4319 131.732 84.33 131.732C84.2281 131.733 84.128 131.76 84.0394 131.81L83.9953 131.84C83.7106 132.009 83.4747 132.249 83.3108 132.537C83.1468 132.825 83.0604 133.151 83.0601 133.482V134.595C83.0601 134.727 83.0955 134.856 83.1628 134.969C83.23 135.082 83.3265 135.175 83.442 135.238C83.5483 135.292 83.6656 135.32 83.7848 135.321C83.9295 135.322 84.0711 135.279 84.1912 135.198C84.2353 135.168 84.2667 135.123 84.2793 135.071L83.8778 134.821Z" fill="white"/>
<path d="M109.784 130.75L97.1225 138.069L80.6418 128.543L93.3083 121.224L109.784 130.75Z" fill="#E6E6E6"/>
<path d="M91.3928 109.51L107.854 119.026L135.219 103.176L118.763 93.4688L91.3928 109.51Z" fill="#EBEBEB"/>
<path d="M106.014 106.55L112.189 102.98L108.321 100.744L102.146 104.314L106.014 106.55Z" fill="#E0E0E0"/>
<path d="M108.315 116.85L99.9958 111.947L116.251 102.093L108.315 116.85Z" fill="#E0E0E0"/>
<path d="M91.6289 98.8799L97.2302 103.336C98.1879 103.427 99.1373 103.591 100.07 103.827C101.142 104.145 103.953 105.18 104.697 105.342C105.441 105.503 104.481 106.812 102.533 106.322C102.533 106.322 106.616 109.122 106.562 110.367C106.508 111.612 102.317 113.74 99.4873 111.651C98.7581 111.041 97.9493 110.533 97.0833 110.141C96.2607 109.872 93.8469 108.935 92.4123 106.817L87.5161 104.263C87.5161 104.263 86.1354 98.4729 91.6289 98.8799Z" fill="#FFA8A7"/>
<path d="M113.139 85.9248L119.725 89.0187C121.692 89.5158 123.632 90.1165 125.536 90.8182C125.536 90.8182 130.119 92.6913 130.33 93.922C130.54 95.1527 126.903 98.1192 123.686 96.6776C122.845 96.2265 121.945 95.8963 121.012 95.697C120.156 95.6038 117.585 95.2066 115.749 93.4366L108.067 91.436C108.067 91.436 107.685 86.6897 113.139 85.9248Z" fill="#FFA8A7"/>
<path d="M117.27 94.9892C118.029 95.808 120.208 97.8723 120.698 98.4705C121.187 99.0687 122.294 97.534 120.33 95.2442C118.631 94.6209 117.032 93.7502 115.586 92.6602C116.087 93.4785 116.65 94.2571 117.27 94.9892Z" fill="#FFA8A7"/>
<path d="M85.5052 67.8457C85.5052 67.8457 88.7709 70.3804 86.7635 78.259C84.756 86.1375 83.6838 92.9277 83.6838 92.9277L91.6156 98.5854C90.5297 99.0615 89.5826 99.8062 88.8631 100.75C88.1437 101.693 87.6756 102.804 87.5028 103.978C87.5028 103.978 74.9979 99.0757 74.7433 95.8938C74.4887 92.712 77.353 79.0532 77.7887 76.5381C78.2245 74.0231 80.4474 69.0371 85.5052 67.8457Z" fill="#FFA8A7"/>
<path d="M83.6337 92.8521C82.6448 92.6579 81.6267 92.6679 80.6418 92.8815C81.5806 92.3711 82.6341 92.1095 83.7022 92.1215L83.6337 92.8521Z" fill="#F28F8F"/>
<path d="M138.923 85.0204L136.059 103.773C136.063 103.784 136.063 103.796 136.059 103.807L107.587 120.315C107.58 120.318 107.572 120.32 107.564 120.319C107.557 120.319 107.549 120.316 107.542 120.312C107.536 120.307 107.531 120.301 107.527 120.294C107.524 120.286 107.523 120.278 107.524 120.271L110.3 102.082C110.359 101.694 110.501 101.324 110.718 100.997C110.934 100.67 111.219 100.394 111.553 100.189L137.631 84.1772C137.767 84.0873 137.927 84.0393 138.091 84.0391C138.255 84.0388 138.415 84.0863 138.552 84.1758C138.689 84.2652 138.797 84.3928 138.863 84.5428C138.929 84.6928 138.95 84.8588 138.923 85.0204Z" fill="#FAFAFA"/>
<path d="M107.722 120.195L92.5434 111.369C92.1936 111.165 91.9032 110.873 91.7013 110.522C91.4993 110.171 91.393 109.773 91.3928 109.368L107.854 118.885L107.722 120.195Z" fill="#E0E0E0"/>
<path d="M110.305 130.212L97.0757 136.448L81.447 125.569L94.6815 119.338L110.305 130.212Z" fill="#FAFAFA"/>
<path d="M80.9029 110.985H70.1558L71.135 122.374C71.1986 122.735 71.3485 123.075 71.5718 123.366C71.7952 123.656 72.0855 123.888 72.4178 124.041C73.3855 124.534 74.4559 124.791 75.5416 124.791C76.6273 124.791 77.6977 124.534 78.6654 124.041C78.997 123.887 79.2866 123.654 79.5099 123.364C79.7331 123.074 79.8835 122.735 79.9482 122.374L80.9029 110.985Z" fill="#B18AF2"/>
<path d="M81.4687 109.901V108.998H81.2582C80.9107 108.327 80.3654 107.779 79.6963 107.429C77.3314 106.061 73.4928 106.061 71.1279 107.429C70.4576 107.778 69.9119 108.326 69.566 108.998H69.3506V109.91C69.3506 110.803 69.943 111.7 71.1279 112.386C73.4928 113.754 77.3314 113.754 79.6963 112.386C80.8812 111.7 81.4736 110.798 81.4687 109.901Z" fill="#E0E0E0"/>
<path d="M79.6944 111.846C77.3296 113.214 73.4909 113.214 71.1261 111.846C68.7612 110.478 68.7563 108.262 71.1261 106.894C73.4958 105.526 77.3296 105.521 79.6944 106.894C82.0593 108.267 82.0593 110.473 79.6944 111.846Z" fill="#EBEBEB"/>
<path d="M80.3976 108.932V108.211H80.2263C79.9475 107.673 79.5098 107.235 78.9728 106.956C77.9107 106.416 76.7365 106.135 75.5455 106.135C74.3545 106.135 73.1803 106.416 72.1182 106.956C71.5797 107.233 71.1414 107.672 70.8647 108.211H70.6934V108.932C70.6934 109.653 71.183 110.373 72.1182 110.918C73.1803 111.457 74.3545 111.738 75.5455 111.738C76.7365 111.738 77.9107 111.457 78.9728 110.918C79.9227 110.363 80.3976 109.643 80.3976 108.932Z" fill="#E0E0E0"/>
<path d="M78.9729 110.382C77.9107 110.922 76.7365 111.203 75.5455 111.203C74.3545 111.203 73.1803 110.922 72.1182 110.382C70.2184 109.289 70.2184 107.509 72.1182 106.416C73.1803 105.876 74.3545 105.595 75.5455 105.595C76.7365 105.595 77.9107 105.876 78.9729 106.416C80.8677 107.509 80.8677 109.289 78.9729 110.382Z" fill="#F5F5F5"/>
<path d="M78.153 109.812C77.3343 110.228 76.4294 110.445 75.5115 110.445C74.5936 110.445 73.6887 110.228 72.87 109.812C71.455 108.998 71.4011 107.694 72.7231 106.87C72.7698 106.836 72.8189 106.805 72.87 106.777C73.1905 106.595 73.5327 106.453 73.8884 106.356C75.3123 105.954 76.8352 106.104 78.153 106.777C79.617 107.626 79.617 108.969 78.153 109.812Z" fill="#F0F0F0"/>
<path d="M72.8647 107.201C73.6835 106.783 74.5895 106.565 75.5086 106.565C76.4277 106.565 77.3337 106.783 78.1526 107.201C78.4176 107.325 78.6515 107.507 78.8371 107.733C79.0226 107.96 79.1551 108.225 79.2248 108.51C79.3375 107.887 78.9751 107.24 78.1526 106.764C77.3325 106.35 76.4269 106.135 75.5086 106.135C74.5903 106.135 73.6848 106.35 72.8647 106.764C72.0372 107.254 71.6798 107.887 71.7875 108.51C71.8578 108.225 71.991 107.959 72.1774 107.732C72.3639 107.506 72.5987 107.324 72.8647 107.201Z" fill="#E0E0E0"/>
<path d="M74.7165 107.135L73.6343 107.826L72.5767 107.066V106.65C72.6233 106.615 72.6724 106.584 72.7236 106.556C73.0441 106.374 73.3863 106.232 73.7421 106.135V106.444L74.7165 107.135Z" fill="#E6E6E6"/>
<path d="M122.308 103.32C122.308 104.664 123.248 105.203 124.404 104.536C125.015 104.138 125.524 103.601 125.889 102.969C126.254 102.337 126.465 101.627 126.504 100.898C126.504 99.5546 125.564 99.0153 124.404 99.6821C123.794 100.082 123.287 100.619 122.923 101.251C122.559 101.883 122.348 102.592 122.308 103.32Z" fill="#B18AF2"/>
<path d="M85.5227 67.8457C85.5227 67.8457 88.0688 69.0665 87.6771 74.1947C87.2854 79.3228 85.2632 89.6576 85.2632 89.6576C85.2632 89.6576 76.1514 93.3543 75.2799 88.1427C75.0595 86.7945 77.3558 74.327 79.3192 71.6894C80.04 70.662 80.9614 69.7917 82.0277 69.1311C83.0939 68.4704 84.2829 68.0332 85.5227 67.8457Z" fill="#BA68C8"/>
<path d="M85.5227 67.8457C85.5227 67.8457 88.0688 69.0665 87.6771 74.1947C87.2854 79.3228 85.2632 89.6576 85.2632 89.6576C85.2632 89.6576 76.1514 93.3543 75.2799 88.1427C75.0595 86.7945 77.3558 74.327 79.3192 71.6894C80.04 70.662 80.9614 69.7917 82.0277 69.1311C83.0939 68.4704 84.2829 68.0332 85.5227 67.8457Z" fill="#4E00CE"/>
<path d="M90.5876 65.1494C90.5876 65.1494 92.267 69.5623 96.1351 69.0132C100.003 68.464 98.4069 65.1494 98.4069 65.1494H90.5876Z" fill="#FFA8A7"/>
<path d="M98.402 55.7188H90.5876V65.1918H98.402V55.7188Z" fill="#FFA8A7"/>
<path d="M98.556 65.1918C96.9622 64.5961 95.5056 63.6827 94.2744 62.507C93.0431 61.3313 92.0629 59.9178 91.3928 58.3518V55.7188H98.5756L98.556 65.1918Z" fill="#F28F8F"/>
<path d="M107.224 46.8271C107.224 46.8271 109.579 52.8728 106.328 55.5353C103.077 58.1978 104.223 47.4793 104.223 47.4793L107.224 46.8271Z" fill="#263238"/>
<path d="M101.092 43.6528C101.092 43.6528 108.202 44.5108 106.571 56.6743C105.817 62.2976 104.314 65.1412 99.9859 64.6607C95.0897 64.1116 88.2986 60.2974 89.3513 50.6587C90.404 41.0201 101.092 43.6528 101.092 43.6528Z" fill="#FFA8A7"/>
<path d="M101.385 59.8622C100.407 59.8717 99.4531 59.5523 98.6773 58.9551C98.6773 58.9551 98.4031 60.3966 99.5979 60.7448C100.793 61.0929 101.385 59.8622 101.385 59.8622Z" fill="#F28F8F"/>
<path d="M101.593 53.834L101.339 58.0361L103.841 57.433L101.593 53.834Z" fill="#F28F8F"/>
<path d="M97.8466 53.5615C97.8362 53.731 97.8763 53.8997 97.9617 54.0463C98.0472 54.193 98.1742 54.311 98.3266 54.3853C98.479 54.4597 98.6501 54.4871 98.818 54.4641C98.986 54.4411 99.1434 54.3687 99.2703 54.256C99.3972 54.1434 99.4879 53.9956 99.5308 53.8314C99.5738 53.6671 99.5671 53.4938 99.5117 53.3333C99.4562 53.1729 99.3545 53.0325 99.2194 52.93C99.0842 52.8275 98.9217 52.7674 98.7524 52.7574C98.5259 52.7439 98.3033 52.8211 98.1334 52.9718C97.9636 53.1226 97.8604 53.3347 97.8466 53.5615Z" fill="#263238"/>
<path d="M103.761 53.2913C103.751 53.4605 103.791 53.629 103.876 53.7755C103.961 53.922 104.088 54.0399 104.24 54.1144C104.392 54.1888 104.563 54.2164 104.731 54.1938C104.899 54.1711 105.056 54.0992 105.183 53.987C105.31 53.8749 105.401 53.7276 105.445 53.5637C105.488 53.3998 105.482 53.2267 105.427 53.0662C105.373 52.9058 105.272 52.7651 105.137 52.662C105.003 52.559 104.841 52.4981 104.672 52.4871C104.559 52.4798 104.446 52.4949 104.34 52.5314C104.233 52.5679 104.134 52.6251 104.05 52.6998C103.965 52.7745 103.896 52.8652 103.847 52.9667C103.797 53.0682 103.768 53.1785 103.761 53.2913Z" fill="#263238"/>
<path d="M98.2729 51.5528L96.5346 52.4256C96.5346 52.4256 96.3191 51.5234 96.9998 51.2046C97.2222 51.127 97.463 51.1187 97.6903 51.1809C97.9176 51.243 98.1207 51.3727 98.2729 51.5528Z" fill="#263238"/>
<path d="M105.638 51.773L104.027 50.6746C104.027 50.6746 104.708 50.047 105.325 50.4883C105.5 50.646 105.624 50.8529 105.68 51.0821C105.736 51.3114 105.721 51.5521 105.638 51.773Z" fill="#263238"/>
<path d="M90.6123 54.2776C90.6123 54.2776 91.7041 56.5573 92.3798 56.4789C93.0555 56.4005 92.3798 47.7473 93.7801 47.6933C95.1804 47.6394 101.79 50.9242 107.631 46.6834C109.879 45.0557 110.324 40.8982 108.978 41.2905C107.631 41.6827 105.815 42.8642 103.362 42.6975C100.909 42.5308 92.321 38.5401 90.1912 44.1683C90.1912 44.1683 85.4419 43.781 87.2241 53.2235C87.6696 55.5719 89.07 61.3865 90.6955 61.9601L90.6123 54.2776Z" fill="#263238"/>
<path d="M91.0296 56.0365C91.0566 55.3233 90.9244 54.6131 90.6428 53.9575C90.5018 53.5539 90.2467 53.2 89.9086 52.9388C89.5704 52.6777 89.1638 52.5205 88.7381 52.4866C86.5446 52.4277 86.246 54.5459 86.29 55.2961C86.3684 57.2574 87.9694 59.4148 90.9463 59.4982L91.0296 56.0365Z" fill="#FFA8A7"/>
<path d="M90.8026 46.7802C90.8026 46.7802 89.5099 44.868 90.313 44.2502C91.116 43.6323 91.6987 45.5985 90.8026 46.7802Z" fill="#263238"/>
<path d="M91.2035 47.1993C91.2035 47.1993 88.9217 46.9149 88.9755 45.9146C89.0294 44.9144 90.9048 45.7577 91.2035 47.1993Z" fill="#263238"/>
<path d="M49.8304 42.2461V66.6025L28.762 78.7807V54.4243L49.8304 42.2461Z" fill="#FAFAFA"/>
<path d="M47.5994 43.4182V65.137L28.8126 75.9963V54.2776L47.5994 43.4182ZM48.7402 41.4571L27.6865 53.6353V77.9917L28.8273 78.6536L49.8811 66.4754V42.0994L48.7402 41.4375V41.4571Z" fill="#B18AF2"/>
<path d="M48.6749 44.2219V65.9407L29.8881 76.8001V55.0813L48.6749 44.2219ZM49.8157 42.2608L28.762 54.439V78.7954L49.8157 66.6172V42.2461V42.2608Z" fill="#EEE6FC"/>
<path d="M46.8498 60.9876L30.9126 70.1997L35.6228 57.9381L38.8836 61.8112L42.218 57.0605L46.8498 60.9876Z" fill="#B18AF2"/>
<path d="M41.6457 53.2539C41.617 53.761 41.469 54.2541 41.2137 54.6929C40.9584 55.1318 40.6031 55.5039 40.1768 55.7791C39.3737 56.24 38.7078 55.8673 38.7078 54.9357C38.7373 54.4295 38.8857 53.9374 39.1409 53.4995C39.3962 53.0616 39.7511 52.6901 40.1768 52.4155C41.0092 51.9497 41.6457 52.3272 41.6457 53.2539Z" fill="#B18AF2"/>
<path d="M56.8325 11.7979V31.1977L40.0532 40.9001V21.4953L56.8325 11.7979Z" fill="#FAFAFA"/>
<path d="M55.1189 12.8365V30.1478L40.161 38.7912V21.4848L55.1238 12.8365H55.1189ZM56.0345 11.2578L39.2454 20.9602V40.3649L40.1561 40.8895L56.9354 31.1871V11.7824L56.0296 11.2578H56.0345Z" fill="#B18AF2"/>
<path d="M55.9218 13.3765V30.678L40.9541 39.3312V22.0248L55.9218 13.3765ZM56.8276 11.7979L40.0532 21.5002V40.905L56.8325 31.2026V11.7979H56.8276Z" fill="#EEE6FC"/>
<path d="M54.6297 26.7855L41.9338 34.1257L45.6843 24.3535L48.2842 27.4425L50.938 23.6523L54.6297 26.7855Z" fill="#B18AF2"/>
<path d="M50.4318 20.7081C50.4104 21.1111 50.294 21.5033 50.0924 21.8527C49.8907 22.202 49.6093 22.4987 49.2713 22.7185C48.6299 23.0911 48.1157 22.7871 48.1157 22.0516C48.1363 21.649 48.2517 21.257 48.4525 20.9076C48.6534 20.5582 48.934 20.2613 49.2713 20.0413C49.9128 19.6687 50.4318 19.9727 50.4318 20.7081Z" fill="#B18AF2"/>
<path d="M202.494 40.0916L141.513 4.81244C141.256 4.62281 140.946 4.52051 140.626 4.52051C140.307 4.52051 139.997 4.62281 139.74 4.81244L137.628 6.28404L139.069 8.06958V57.2946C139.069 59.0997 140.166 61.2188 141.518 61.9742L201.897 96.8806L202.009 98.7985L204.233 97.273C204.489 97.0327 204.686 96.7372 204.81 96.4091C204.934 96.0809 204.981 95.7288 204.949 95.3795V44.7467C204.944 42.9416 203.846 40.847 202.494 40.0916Z" fill="#BA68C8"/>
<path d="M202.494 40.0916L141.513 4.81244C141.256 4.62281 140.946 4.52051 140.626 4.52051C140.307 4.52051 139.997 4.62281 139.74 4.81244L137.628 6.28404L139.069 8.06958V57.2946C139.069 59.0997 140.166 61.2188 141.518 61.9742L201.897 96.8806L202.009 98.7985L204.233 97.273C204.489 97.0327 204.686 96.7372 204.81 96.4091C204.934 96.0809 204.981 95.7288 204.949 95.3795V44.7467C204.944 42.9416 203.846 40.847 202.494 40.0916Z" fill="#CBB0F6"/>
<path d="M200.254 98.8494L139.273 63.5948C137.925 62.8149 136.823 60.7203 136.823 58.9151V8.28233C136.823 6.48207 137.921 5.65307 139.273 6.43302L200.254 41.6876C201.606 42.4676 202.703 44.5621 202.703 46.3673V96.9952C202.703 98.8004 201.606 99.6343 200.254 98.8494Z" fill="#BA68C8"/>
<path d="M200.254 98.8494L139.273 63.5948C137.925 62.8149 136.823 60.7203 136.823 58.9151V8.28233C136.823 6.48207 137.921 5.65307 139.273 6.43302L200.254 41.6876C201.606 42.4676 202.703 44.5621 202.703 46.3673V96.9952C202.703 98.8004 201.606 99.6343 200.254 98.8494Z" fill="#8E54EC"/>
<path d="M200.222 41.6697L139.271 6.43287C137.925 5.65332 136.823 6.4819 136.823 8.28124V10.7327L202.665 48.7935V46.3421C202.67 44.5427 201.573 42.4492 200.222 41.6697Z" fill="#EEE6FC"/>
<path d="M138.298 6.63018C138.555 6.64229 138.804 6.71996 139.023 6.85583L200.004 42.1104C201.199 42.8021 202.208 44.7495 202.208 46.3683V96.9962C202.208 97.9772 201.821 98.6542 201.229 98.6542C200.97 98.6419 200.718 98.5624 200.499 98.4236L139.513 63.169C138.322 62.4823 137.313 60.5299 137.313 58.9161V8.28328C137.313 7.27768 137.7 6.63018 138.293 6.63018H138.298ZM138.293 6.13965C137.426 6.13965 136.823 6.93922 136.823 8.28328V58.921C136.823 60.7262 137.921 62.8207 139.273 63.6007L200.249 98.8504C200.544 99.0336 200.882 99.1352 201.229 99.1447C202.096 99.1447 202.698 98.3402 202.698 96.9962V46.3683C202.698 44.5631 201.601 42.444 200.249 41.6886L139.268 6.43397C138.974 6.24941 138.635 6.14774 138.288 6.13965H138.293Z" fill="#8E54EC"/>
<path d="M164.815 32.945C164.724 32.9468 164.634 32.923 164.556 32.8764L141.353 19.4823C141.244 19.4086 141.167 19.2963 141.138 19.1681C141.108 19.0399 141.129 18.9053 141.195 18.7914C141.26 18.6776 141.367 18.593 141.493 18.5547C141.618 18.5164 141.754 18.5273 141.872 18.5851L165.075 31.9988C165.18 32.0532 165.263 32.1418 165.311 32.2498C165.358 32.3579 165.368 32.479 165.338 32.5932C165.307 32.7074 165.239 32.8079 165.144 32.8781C165.049 32.9483 164.933 32.984 164.815 32.9794V32.945Z" fill="white"/>
<path d="M198.054 51.8806C197.962 51.8809 197.872 51.8554 197.794 51.807L180.609 41.8731C180.489 41.8041 180.402 41.6905 180.366 41.5572C180.33 41.4239 180.349 41.2817 180.418 41.1621C180.487 41.0425 180.6 40.9551 180.733 40.9192C180.866 40.8834 181.008 40.9019 181.128 40.9709L198.313 50.9097C198.418 50.9642 198.501 51.0527 198.549 51.1608C198.597 51.2688 198.606 51.39 198.576 51.5042C198.546 51.6184 198.478 51.7189 198.383 51.7891C198.288 51.8593 198.172 51.895 198.054 51.8904V51.8806Z" fill="white"/>
<path d="M176.604 39.7976C176.513 39.7964 176.424 39.7729 176.345 39.729L169.348 35.6887C169.284 35.6574 169.227 35.6132 169.181 35.5589C169.135 35.5046 169.1 35.4414 169.08 35.3732C169.059 35.3049 169.052 35.2332 169.06 35.1623C169.069 35.0915 169.091 35.0231 169.127 34.9614C169.163 34.8997 169.211 34.846 169.268 34.8037C169.325 34.7613 169.391 34.7312 169.46 34.7153C169.529 34.6994 169.601 34.6979 169.671 34.711C169.741 34.7241 169.808 34.7515 169.867 34.7914L176.849 38.8268C176.954 38.8812 177.037 38.9698 177.084 39.0778C177.132 39.1859 177.142 39.307 177.112 39.4212C177.081 39.5355 177.013 39.636 176.918 39.7062C176.823 39.7764 176.707 39.8121 176.589 39.8074L176.604 39.7976Z" fill="white"/>
<path d="M164.815 65.3015C164.725 65.301 164.635 65.2774 164.556 65.2329L141.353 51.8192C141.244 51.7455 141.167 51.6332 141.138 51.505C141.108 51.3768 141.129 51.2422 141.195 51.1283C141.26 51.0145 141.367 50.9299 141.493 50.8916C141.618 50.8534 141.754 50.8642 141.872 50.922L165.075 64.3308C165.194 64.4004 165.28 64.5144 165.315 64.6477C165.35 64.781 165.331 64.9227 165.261 65.0417C165.218 65.1222 165.154 65.1892 165.075 65.2351C164.996 65.281 164.907 65.304 164.815 65.3015Z" fill="white"/>
<path d="M198.054 84.2096C197.963 84.2114 197.873 84.1876 197.794 84.141L180.609 74.207C180.489 74.1381 180.402 74.0245 180.366 73.8912C180.33 73.7578 180.349 73.6157 180.418 73.4961C180.487 73.3764 180.6 73.2891 180.733 73.2532C180.866 73.2174 181.008 73.2359 181.128 73.3049L198.313 83.2437C198.432 83.3124 198.518 83.4252 198.554 83.5574C198.59 83.6896 198.572 83.8306 198.504 83.9498C198.458 84.0286 198.393 84.094 198.314 84.1396C198.235 84.1852 198.145 84.2093 198.054 84.2096Z" fill="white"/>
<path d="M176.604 72.1277C176.513 72.1295 176.423 72.1057 176.345 72.0591L169.348 68.0237C169.284 67.9923 169.227 67.9481 169.181 67.8939C169.135 67.8396 169.1 67.7763 169.08 67.7081C169.059 67.6399 169.052 67.5681 169.06 67.4973C169.069 67.4265 169.091 67.358 169.127 67.2963C169.163 67.2346 169.211 67.1809 169.268 67.1386C169.325 67.0963 169.391 67.0662 169.46 67.0503C169.529 67.0343 169.601 67.0329 169.671 67.046C169.741 67.059 169.808 67.0864 169.867 67.1264L176.849 71.1618C176.967 71.2305 177.054 71.3432 177.089 71.4755C177.125 71.6077 177.107 71.7487 177.04 71.8678C176.995 71.9445 176.932 72.0086 176.855 72.0541C176.779 72.0995 176.693 72.1249 176.604 72.1277Z" fill="white"/>
<path d="M164.848 73.1326C164.756 73.1344 164.667 73.1106 164.588 73.064L141.385 59.6552C141.266 59.5863 141.178 59.4726 141.143 59.3393C141.107 59.206 141.125 59.0639 141.194 58.9443C141.263 58.8247 141.376 58.7373 141.51 58.7015C141.643 58.6656 141.785 58.6842 141.904 58.7531L165.107 72.1521C165.212 72.2065 165.295 72.295 165.343 72.4031C165.39 72.5111 165.4 72.6322 165.37 72.7464C165.34 72.8606 165.271 72.9611 165.176 73.0313C165.082 73.1015 164.966 73.1372 164.848 73.1326Z" fill="white"/>
<path d="M190.769 87.8368C190.678 87.8386 190.588 87.8148 190.51 87.7682L180.639 82.0608C180.575 82.0294 180.518 81.9853 180.472 81.931C180.426 81.8767 180.392 81.8135 180.371 81.7452C180.35 81.677 180.344 81.6052 180.352 81.5344C180.36 81.4636 180.383 81.3952 180.418 81.3335C180.454 81.2718 180.502 81.2181 180.559 81.1757C180.617 81.1334 180.682 81.1033 180.751 81.0874C180.821 81.0714 180.893 81.07 180.963 81.0831C181.033 81.0962 181.099 81.1235 181.158 81.1635L191.029 86.8709C191.088 86.9044 191.14 86.9494 191.181 87.0032C191.223 87.0569 191.254 87.1184 191.271 87.184C191.289 87.2497 191.294 87.3182 191.285 87.3856C191.276 87.4531 191.254 87.5181 191.22 87.5769C191.174 87.6558 191.108 87.7212 191.029 87.7668C190.95 87.8123 190.861 87.8365 190.769 87.8368Z" fill="white"/>
<path d="M176.574 79.9282C176.483 79.927 176.394 79.9035 176.314 79.8596L169.317 75.8242C169.198 75.7553 169.111 75.6417 169.075 75.5084C169.039 75.375 169.058 75.2329 169.126 75.1133C169.195 74.9936 169.309 74.9063 169.442 74.8704C169.575 74.8345 169.717 74.8531 169.836 74.922L176.818 78.9574C176.923 79.0118 177.006 79.1004 177.054 79.2084C177.102 79.3165 177.111 79.4376 177.081 79.5518C177.051 79.6661 176.983 79.7666 176.888 79.8368C176.793 79.907 176.677 79.9427 176.559 79.938L176.574 79.9282Z" fill="white"/>
<path d="M153.458 30.2777C153.367 30.278 153.277 30.2525 153.199 30.2041L141.566 23.4818C141.476 23.4016 141.417 23.2927 141.398 23.1736C141.38 23.0546 141.403 22.9328 141.464 22.8291C141.526 22.7255 141.621 22.6464 141.734 22.6053C141.847 22.5643 141.971 22.5638 142.085 22.6041L153.718 29.3265C153.837 29.396 153.923 29.51 153.958 29.6434C153.993 29.7767 153.973 29.9184 153.904 30.0374C153.859 30.1143 153.793 30.1773 153.715 30.2197C153.636 30.262 153.548 30.2821 153.458 30.2777Z" fill="white"/>
<path d="M186.808 49.4697C186.717 49.4685 186.628 49.4449 186.548 49.401L169.348 39.4622C169.284 39.4308 169.227 39.3866 169.181 39.3323C169.135 39.278 169.1 39.2148 169.08 39.1466C169.059 39.0784 169.052 39.0066 169.06 38.9358C169.069 38.8649 169.091 38.7965 169.127 38.7348C169.163 38.6731 169.211 38.6194 169.268 38.5771C169.325 38.5348 169.391 38.5047 169.46 38.4887C169.529 38.4728 169.601 38.4713 169.671 38.4844C169.741 38.4975 169.808 38.5249 169.867 38.5649L187.053 48.4988C187.157 48.5533 187.24 48.6418 187.288 48.7499C187.336 48.8579 187.345 48.9791 187.315 49.0933C187.285 49.2075 187.217 49.308 187.122 49.3782C187.027 49.4484 186.911 49.4841 186.793 49.4795L186.808 49.4697Z" fill="white"/>
<path d="M165.024 36.813C164.933 36.8148 164.843 36.791 164.765 36.7444L157.783 32.709C157.664 32.6401 157.576 32.5265 157.54 32.3931C157.505 32.2598 157.523 32.1177 157.592 31.998C157.661 31.8784 157.774 31.791 157.907 31.7552C158.041 31.7193 158.183 31.7379 158.302 31.8068L165.284 35.8422C165.403 35.9117 165.489 36.0257 165.524 36.1591C165.559 36.2924 165.54 36.4341 165.47 36.5531C165.427 36.6337 165.363 36.7007 165.284 36.7466C165.205 36.7925 165.116 36.8155 165.024 36.813Z" fill="white"/>
<path d="M165.038 40.7655C164.946 40.7658 164.856 40.7403 164.778 40.692L141.575 27.2636C141.482 27.1844 141.42 27.0747 141.399 26.954C141.379 26.8332 141.402 26.7092 141.464 26.6036C141.526 26.4981 141.623 26.4179 141.738 26.3772C141.854 26.3365 141.98 26.3379 142.094 26.3811L165.297 39.7948C165.416 39.8644 165.503 39.9783 165.537 40.1117C165.572 40.245 165.553 40.3867 165.483 40.5057C165.441 40.5862 165.376 40.6532 165.298 40.6991C165.219 40.745 165.129 40.768 165.038 40.7655Z" fill="white"/>
<path d="M185.477 52.6864C185.385 52.6881 185.296 52.6644 185.217 52.6177L180.639 49.97C180.575 49.9386 180.518 49.8944 180.472 49.8401C180.426 49.7859 180.392 49.7226 180.371 49.6544C180.35 49.5862 180.344 49.5144 180.352 49.4436C180.36 49.3727 180.383 49.3043 180.418 49.2426C180.454 49.1809 180.502 49.1272 180.559 49.0849C180.617 49.0426 180.682 49.0125 180.751 48.9966C180.821 48.9806 180.893 48.9791 180.963 48.9922C181.033 49.0053 181.099 49.0327 181.158 49.0727L185.736 51.7204C185.854 51.7892 185.941 51.9019 185.977 52.0341C186.012 52.1663 185.995 52.3074 185.927 52.4265C185.881 52.5053 185.815 52.5708 185.736 52.6163C185.657 52.6619 185.568 52.686 185.477 52.6864Z" fill="white"/>
<path d="M155.641 39.4674C155.55 39.4662 155.461 39.4426 155.381 39.3987L150.793 36.751C150.734 36.7169 150.682 36.6714 150.641 36.6172C150.599 36.563 150.568 36.5011 150.551 36.4351C150.533 36.3691 150.528 36.3002 150.537 36.2324C150.546 36.1646 150.568 36.0993 150.602 36.04C150.636 35.9808 150.682 35.9288 150.736 35.8872C150.79 35.8455 150.852 35.8149 150.918 35.7972C150.984 35.7794 151.052 35.7748 151.12 35.7837C151.188 35.7925 151.253 35.8147 151.312 35.8488L155.89 38.4965C155.995 38.551 156.078 38.6395 156.126 38.7476C156.173 38.8556 156.183 38.9768 156.153 39.091C156.123 39.2052 156.054 39.3057 155.959 39.3759C155.865 39.4461 155.749 39.4818 155.631 39.4772L155.641 39.4674Z" fill="white"/>
<path d="M176.574 47.8599C176.483 47.8587 176.394 47.8351 176.314 47.7912L169.317 43.7559C169.258 43.7217 169.206 43.6763 169.165 43.6221C169.123 43.5679 169.093 43.506 169.075 43.44C169.057 43.374 169.053 43.3051 169.061 43.2373C169.07 43.1695 169.092 43.1041 169.126 43.0449C169.161 42.9857 169.206 42.9337 169.26 42.8921C169.314 42.8504 169.376 42.8198 169.442 42.802C169.508 42.7843 169.577 42.7797 169.644 42.7886C169.712 42.7974 169.777 42.8196 169.836 42.8537L176.818 46.889C176.923 46.9435 177.006 47.032 177.054 47.1401C177.102 47.2481 177.111 47.3693 177.081 47.4835C177.051 47.5977 176.983 47.6982 176.888 47.7684C176.793 47.8386 176.677 47.8743 176.559 47.8697L176.574 47.8599Z" fill="white"/>
<path d="M149.05 35.9791C148.958 35.9809 148.869 35.9571 148.79 35.9105L141.353 31.6104C141.244 31.5366 141.167 31.4243 141.138 31.2961C141.108 31.1679 141.129 31.0332 141.195 30.9194C141.26 30.8055 141.367 30.7209 141.493 30.6827C141.618 30.6444 141.754 30.6552 141.872 30.7131L149.309 35.0132C149.419 35.0639 149.508 35.1518 149.559 35.2615C149.611 35.3712 149.622 35.4956 149.591 35.6128C149.56 35.7301 149.489 35.8326 149.39 35.9023C149.291 35.972 149.17 36.0044 149.05 35.9939V35.9791Z" fill="white"/>
<path d="M165.055 45.4666C164.964 45.4684 164.874 45.4446 164.795 45.398L157.813 41.3479C157.75 41.3166 157.693 41.2724 157.647 41.2181C157.6 41.1638 157.566 41.1006 157.545 41.0323C157.524 40.9641 157.518 40.8924 157.526 40.8215C157.534 40.7507 157.557 40.6823 157.593 40.6206C157.628 40.5589 157.676 40.5052 157.734 40.4628C157.791 40.4205 157.856 40.3904 157.926 40.3745C157.995 40.3585 158.067 40.3571 158.137 40.3702C158.207 40.3833 158.274 40.4106 158.332 40.4506L165.314 44.486C165.419 44.5404 165.502 44.629 165.55 44.737C165.598 44.8451 165.607 44.9662 165.577 45.0804C165.547 45.1946 165.479 45.2951 165.384 45.3653C165.289 45.4355 165.173 45.4713 165.055 45.4666Z" fill="white"/>
<path d="M164.815 49.4041C164.724 49.4059 164.634 49.3821 164.556 49.3355L141.353 35.9218C141.244 35.8481 141.167 35.7358 141.138 35.6075C141.108 35.4793 141.129 35.3447 141.195 35.2309C141.26 35.1171 141.367 35.0325 141.493 34.9942C141.618 34.9559 141.754 34.9668 141.872 35.0246L165.075 48.4334C165.194 48.5029 165.28 48.6169 165.315 48.7502C165.35 48.8835 165.331 49.0253 165.261 49.1442C165.218 49.2248 165.154 49.2917 165.075 49.3377C164.996 49.3836 164.907 49.4066 164.815 49.4041Z" fill="white"/>
<path d="M198.054 67.7623C197.964 67.7671 197.874 67.7467 197.794 67.7035L180.609 57.7696C180.489 57.7006 180.402 57.587 180.366 57.4537C180.33 57.3203 180.349 57.1782 180.418 57.0586C180.487 56.9389 180.6 56.8516 180.733 56.8157C180.866 56.7799 181.008 56.7984 181.128 56.8674L198.313 66.8062C198.432 66.875 198.518 66.9877 198.554 67.1199C198.59 67.2521 198.572 67.3931 198.504 67.5123C198.457 67.5893 198.391 67.6528 198.312 67.6966C198.233 67.7404 198.144 67.763 198.054 67.7623Z" fill="white"/>
<path d="M176.604 55.9597C176.513 55.9615 176.423 55.9377 176.345 55.8911L169.348 51.8557C169.284 51.8244 169.227 51.7802 169.181 51.7259C169.135 51.6716 169.1 51.6084 169.08 51.5402C169.059 51.4719 169.052 51.4002 169.06 51.3293C169.069 51.2585 169.091 51.1901 169.127 51.1284C169.163 51.0667 169.211 51.013 169.268 50.9706C169.325 50.9283 169.391 50.8982 169.46 50.8823C169.529 50.8664 169.601 50.8649 169.671 50.878C169.741 50.8911 169.808 50.9185 169.867 50.9584L176.849 54.9938C176.968 55.0635 177.054 55.1771 177.09 55.3101C177.126 55.4431 177.108 55.5849 177.04 55.7048C176.994 55.78 176.93 55.8426 176.854 55.8871C176.778 55.9316 176.692 55.9565 176.604 55.9597Z" fill="white"/>
<path d="M153.278 46.5068C153.187 46.5086 153.097 46.4848 153.018 46.4382L141.385 39.7158C141.266 39.6469 141.178 39.5333 141.143 39.4C141.107 39.2666 141.125 39.1245 141.194 39.0049C141.263 38.8852 141.376 38.7979 141.51 38.762C141.643 38.7261 141.785 38.7447 141.904 38.8136L153.537 45.5409C153.642 45.5953 153.725 45.6839 153.773 45.7919C153.821 45.9 153.83 46.0211 153.8 46.1353C153.77 46.2495 153.702 46.35 153.607 46.4203C153.512 46.4905 153.396 46.5262 153.278 46.5215V46.5068Z" fill="white"/>
<path d="M186.777 66.1608C186.686 66.1611 186.596 66.1357 186.518 66.0873L169.317 56.1533C169.198 56.0844 169.111 55.9708 169.075 55.8375C169.039 55.7041 169.058 55.562 169.126 55.4424C169.195 55.3227 169.309 55.2354 169.442 55.1995C169.575 55.1636 169.717 55.1822 169.836 55.2511L187.022 65.19C187.127 65.2444 187.21 65.333 187.258 65.441C187.305 65.5491 187.315 65.6702 187.285 65.7844C187.254 65.8987 187.186 65.9992 187.091 66.0694C186.996 66.1396 186.881 66.1753 186.763 66.1707L186.777 66.1608Z" fill="white"/>
<path d="M165.055 53.8074C164.964 53.8062 164.875 53.7826 164.795 53.7388L157.813 49.6985C157.75 49.6671 157.693 49.6229 157.647 49.5687C157.6 49.5144 157.566 49.4511 157.545 49.3829C157.524 49.3147 157.518 49.2429 157.526 49.1721C157.534 49.1013 157.557 49.0329 157.593 48.9712C157.628 48.9094 157.676 48.8558 157.734 48.8134C157.791 48.7711 157.856 48.741 157.926 48.7251C157.995 48.7091 158.067 48.7077 158.137 48.7208C158.207 48.7338 158.274 48.7612 158.332 48.8012L165.314 52.8366C165.433 52.9061 165.52 53.0201 165.555 53.1535C165.589 53.2868 165.57 53.4285 165.501 53.5475C165.458 53.6281 165.393 53.6951 165.315 53.741C165.236 53.7869 165.146 53.8099 165.055 53.8074Z" fill="white"/>
<path d="M164.815 57.7566C164.724 57.7584 164.634 57.7346 164.556 57.688L141.353 44.2743C141.244 44.2006 141.167 44.0883 141.138 43.9601C141.108 43.8319 141.129 43.6973 141.195 43.5834C141.26 43.4696 141.367 43.385 141.493 43.3467C141.618 43.3084 141.754 43.3193 141.872 43.3771L165.075 56.7908C165.18 56.8452 165.263 56.9338 165.311 57.0418C165.358 57.1499 165.368 57.271 165.338 57.3852C165.307 57.4994 165.239 57.5999 165.144 57.6701C165.049 57.7403 164.933 57.776 164.815 57.7713V57.7566Z" fill="white"/>
<path d="M185.477 68.8524C185.386 68.8512 185.297 68.8276 185.217 68.7837L180.639 66.136C180.575 66.1046 180.518 66.0604 180.472 66.0062C180.426 65.9519 180.392 65.8886 180.371 65.8204C180.35 65.7522 180.344 65.6804 180.352 65.6096C180.36 65.5388 180.383 65.4704 180.418 65.4087C180.454 65.3469 180.502 65.2932 180.559 65.2509C180.617 65.2086 180.682 65.1785 180.751 65.1626C180.821 65.1466 180.893 65.1452 180.963 65.1583C181.033 65.1713 181.099 65.1987 181.158 65.2387L185.736 67.8815C185.841 67.936 185.924 68.0245 185.972 68.1326C186.019 68.2406 186.029 68.3618 185.999 68.476C185.968 68.5902 185.9 68.6907 185.805 68.7609C185.71 68.8311 185.595 68.8668 185.477 68.8622V68.8524Z" fill="white"/>
<path d="M155.641 56.4439C155.549 56.4442 155.459 56.4188 155.381 56.3704L150.793 53.7276C150.674 53.6586 150.587 53.545 150.551 53.4117C150.515 53.2783 150.533 53.1362 150.602 53.0166C150.671 52.8969 150.785 52.8096 150.918 52.7737C151.051 52.7379 151.193 52.7564 151.312 52.8254L155.89 55.4731C155.995 55.5275 156.078 55.6161 156.126 55.7241C156.173 55.8322 156.183 55.9533 156.153 56.0676C156.123 56.1818 156.054 56.2823 155.959 56.3525C155.865 56.4227 155.749 56.4584 155.631 56.4538L155.641 56.4439Z" fill="white"/>
<path d="M176.574 64.0504C176.483 64.0492 176.394 64.0256 176.314 63.9818L169.317 59.9268C169.198 59.8579 169.111 59.7442 169.075 59.6109C169.039 59.4776 169.058 59.3354 169.126 59.2158C169.195 59.0962 169.309 59.0088 169.442 58.9729C169.575 58.9371 169.717 58.9557 169.836 59.0246L176.833 63.0697C176.938 63.1242 177.021 63.2127 177.069 63.3208C177.116 63.4289 177.126 63.55 177.096 63.6642C177.065 63.7784 176.997 63.8789 176.902 63.9491C176.807 64.0193 176.692 64.055 176.574 64.0504Z" fill="white"/>
<path d="M149.088 52.4499C148.997 52.4517 148.907 52.4279 148.829 52.3813L141.391 48.0811C141.27 48.0122 141.181 47.8978 141.144 47.7631C141.107 47.6284 141.124 47.4844 141.193 47.3628C141.262 47.2412 141.376 47.152 141.511 47.1148C141.645 47.0775 141.789 47.0953 141.91 47.1642L149.348 51.4595C149.452 51.5139 149.536 51.6025 149.583 51.7105C149.631 51.8186 149.641 51.9397 149.61 52.0539C149.58 52.1681 149.512 52.2686 149.417 52.3388C149.322 52.409 149.206 52.4448 149.088 52.4401V52.4499Z" fill="white"/>
<path d="M165.024 61.3345C164.933 61.3363 164.843 61.3125 164.765 61.2659L157.783 57.2305C157.664 57.1616 157.576 57.0479 157.54 56.9146C157.505 56.7813 157.523 56.6392 157.592 56.5195C157.661 56.3999 157.774 56.3125 157.907 56.2767C158.041 56.2408 158.183 56.2594 158.302 56.3283L165.284 60.3686C165.389 60.423 165.472 60.5115 165.52 60.6196C165.567 60.7277 165.577 60.8488 165.547 60.963C165.516 61.0772 165.448 61.1777 165.353 61.2479C165.258 61.3181 165.142 61.3539 165.024 61.3492V61.3345Z" fill="white"/>
<path d="M155.661 63.4657C155.57 63.4674 155.48 63.4437 155.402 63.397L150.824 60.7493C150.76 60.7179 150.703 60.6737 150.657 60.6194C150.611 60.5652 150.576 60.5019 150.555 60.4337C150.535 60.3655 150.528 60.2937 150.536 60.2229C150.544 60.152 150.567 60.0836 150.603 60.0219C150.638 59.9602 150.686 59.9065 150.744 59.8642C150.801 59.8219 150.866 59.7918 150.936 59.7759C151.005 59.7599 151.077 59.7584 151.147 59.7715C151.217 59.7846 151.284 59.812 151.343 59.852L155.921 62.4997C156.031 62.5504 156.119 62.6383 156.171 62.748C156.223 62.8577 156.234 62.9821 156.203 63.0994C156.172 63.2166 156.101 63.3191 156.001 63.3888C155.902 63.4585 155.782 63.4909 155.661 63.4804V63.4657Z" fill="white"/>
<path d="M149.082 59.9821C148.991 59.9809 148.902 59.9573 148.822 59.9134L141.385 55.6133C141.266 55.5444 141.178 55.4307 141.143 55.2974C141.107 55.1641 141.125 55.022 141.194 54.9023C141.263 54.7827 141.376 54.6953 141.51 54.6595C141.643 54.6236 141.785 54.6422 141.904 54.7111L149.341 59.0112C149.446 59.0657 149.529 59.1542 149.577 59.2623C149.625 59.3703 149.634 59.4915 149.604 59.6057C149.574 59.7199 149.506 59.8204 149.411 59.8906C149.316 59.9608 149.2 59.9965 149.082 59.9919V59.9821Z" fill="white"/>
<path d="M165.024 69.1499C164.934 69.1487 164.845 69.1251 164.765 69.0813L157.783 65.0459C157.664 64.977 157.576 64.8634 157.54 64.73C157.505 64.5967 157.523 64.4546 157.592 64.3349C157.661 64.2153 157.774 64.1279 157.907 64.0921C158.041 64.0562 158.183 64.0748 158.302 64.1437L165.284 68.1791C165.403 68.2487 165.489 68.3626 165.524 68.496C165.559 68.6293 165.54 68.7711 165.47 68.89C165.427 68.9706 165.363 69.0376 165.284 69.0835C165.205 69.1294 165.116 69.1524 165.024 69.1499Z" fill="white"/>
<path d="M146.258 24.6141V43.4109C146.258 43.7149 146.15 43.9012 145.979 43.9845L145.259 44.3817V43.7394L145.156 24.4131L146.096 23.9229C146.201 24.1382 146.256 24.3745 146.258 24.6141Z" fill="#2F007C"/>
<path d="M146.554 23.8552L145.614 24.3454L122.852 10.9661L122.308 10.6523L123.057 10.2307H123.082C123.152 10.1934 123.231 10.1768 123.31 10.1829C123.389 10.1889 123.464 10.2174 123.527 10.265L146.05 23.2521C146.274 23.3992 146.449 23.6089 146.554 23.8552Z" fill="#2F007C"/>
<path d="M145.771 24.7232V43.3975C145.781 43.4974 145.767 43.5982 145.73 43.6914C145.692 43.7845 145.632 43.867 145.556 43.9319H145.512C145.444 43.9594 145.37 43.9693 145.297 43.9607C145.225 43.9522 145.155 43.9254 145.096 43.8828L122.72 30.9741C122.514 30.8273 122.346 30.6341 122.228 30.4101C122.111 30.1861 122.048 29.9376 122.044 29.6847V11.0399C122.034 10.9424 122.047 10.8438 122.083 10.7525C122.119 10.6612 122.176 10.5799 122.25 10.5153C122.27 10.4976 122.293 10.4842 122.318 10.4761C122.385 10.4523 122.456 10.4447 122.526 10.4541C122.596 10.4635 122.662 10.4895 122.72 10.53L145.096 23.4191C145.313 23.5611 145.483 23.7641 145.585 24.0025C145.701 24.2254 145.765 24.4719 145.771 24.7232Z" fill="#EEE6FC"/>
<path d="M138.987 25.0797V25.7017L141.06 27.6444V27.049L138.987 25.0797ZM141.06 27.3998L138.987 26.9562V27.5835L141.06 28.0005V27.3998ZM140.6 27.0496V27.4855L140.738 27.5651V27.1292L140.6 27.0496ZM138.56 28.1509L137.611 23.1394L136.97 22.7709L137.919 27.7824L138.56 28.1509ZM136.547 26.1796V25.5576L134.474 23.615V24.2103L136.547 26.1796ZM134.474 23.8595L136.547 24.3031V23.6758L134.474 23.2588V23.8595ZM134.935 24.2097V23.7738L134.797 23.6942V24.1301L134.935 24.2097Z" fill="#8E54EC"/>
<path d="M122.456 10.3091C122.529 10.3112 122.6 10.3333 122.661 10.3728L145.184 23.36C145.382 23.4914 145.538 23.6768 145.634 23.8944C145.738 24.0963 145.793 24.3195 145.796 24.5464V43.3334C145.807 43.4111 145.8 43.4904 145.774 43.5646C145.749 43.6389 145.706 43.7059 145.649 43.76H145.61C145.578 43.7679 145.544 43.7679 145.512 43.76C145.44 43.7543 145.369 43.7325 145.306 43.6962L122.784 30.7042C122.597 30.5672 122.444 30.3889 122.337 30.1831C122.23 29.9773 122.172 29.7497 122.167 29.5177V10.7798C122.159 10.7011 122.168 10.6216 122.194 10.547C122.221 10.4724 122.263 10.4045 122.319 10.3483H122.363C122.392 10.3415 122.422 10.3415 122.451 10.3483L122.456 10.3091ZM122.451 10.2209C122.404 10.2207 122.357 10.2307 122.314 10.2503L122.245 10.2895C122.173 10.3558 122.117 10.4383 122.082 10.5303C122.047 10.6223 122.034 10.7212 122.044 10.819V29.5619C122.049 29.816 122.112 30.0656 122.23 30.2911C122.347 30.5165 122.515 30.7116 122.72 30.8611L145.243 43.8482C145.323 43.8969 145.414 43.9239 145.507 43.9267C145.559 43.9273 145.611 43.9173 145.659 43.8973L145.703 43.8727C145.78 43.8071 145.84 43.7238 145.877 43.6298C145.915 43.5358 145.929 43.4341 145.918 43.3334V24.5464C145.912 24.301 145.852 24.0599 145.742 23.8405C145.637 23.6024 145.467 23.3986 145.252 23.2521L122.73 10.265C122.649 10.2144 122.556 10.1857 122.461 10.1816L122.451 10.2209Z" fill="#37474F"/>
<path d="M142.799 11.2225C142.799 11.757 142.422 11.9727 141.962 11.7128C141.715 11.5528 141.51 11.3356 141.364 11.0796C141.218 10.8236 141.136 10.5363 141.125 10.2419C141.125 9.7074 141.497 9.49166 141.962 9.75153C142.207 9.91337 142.411 10.131 142.557 10.3866C142.702 10.6422 142.785 10.9286 142.799 11.2225Z" fill="#1CC94C"/>
<path d="M146.03 13.1104C146.03 13.6448 145.653 13.8655 145.188 13.6007C144.942 13.4398 144.737 13.2224 144.592 12.9666C144.446 12.7108 144.364 12.4239 144.351 12.1297C144.351 11.5953 144.728 11.3746 145.188 11.6394C145.435 11.7998 145.641 12.017 145.787 12.2728C145.934 12.5286 146.017 12.8158 146.03 13.1104Z" fill="#FBB130"/>
<path d="M148.981 14.7274C148.981 15.2618 148.609 15.4776 148.144 15.2177C147.899 15.0559 147.695 14.8383 147.549 14.5827C147.404 14.3271 147.321 14.0406 147.307 13.7467C147.307 13.2123 147.684 12.9965 148.144 13.2564C148.391 13.4165 148.596 13.6337 148.742 13.8897C148.887 14.1456 148.97 14.433 148.981 14.7274Z" fill="#D81717"/>
</svg>
