<svg width="37" height="55" viewBox="0 0 37 55" fill="none" xmlns="http://www.w3.org/2000/svg">
<g clip-path="url(#clip0_58_16961)">
<path fill-rule="evenodd" clip-rule="evenodd" d="M34.9856 53.2476C34.1988 54.2236 32.7466 54.3871 31.758 53.612L22.1414 46.0725L25.0005 42.5247L34.6171 50.0641C35.6066 50.8392 35.7723 52.2725 34.9865 53.2476H34.9856Z" fill="white"/>
<path fill-rule="evenodd" clip-rule="evenodd" d="M0.497293 25.9414C3.53384 22.173 27.1743 4.82145 32.8382 0.336898C33.9047 -0.50697 35.7815 0.461023 36.0513 0.809286C36.819 1.79871 36.5574 3.19891 35.5724 3.97848C25.9757 11.576 16.3789 19.1744 6.78223 26.7718C5.87236 27.4925 5.86874 27.2585 6.78042 27.9729L13.3415 33.1165L10.4824 36.6643L0.865771 29.1249C-0.123777 28.3497 -0.289456 26.9165 0.496388 25.9414H0.497293Z" fill="#CBB0F6"/>
<path fill-rule="evenodd" clip-rule="evenodd" d="M36.0023 28.4986C32.9657 32.267 9.32523 49.6185 3.66136 54.1031C2.59485 54.947 0.718062 53.979 0.448268 53.6307C-0.319469 52.6413 -0.0578226 51.2411 0.927198 50.4615C10.5239 42.864 20.1206 35.2656 29.7173 27.6682C30.6272 26.9475 30.6308 27.1815 29.7191 26.4671L23.1581 21.3235L26.0172 17.7757L35.6338 25.3152C36.6233 26.0903 36.789 27.5235 36.0032 28.4986H36.0023Z" fill="white"/>
<path fill-rule="evenodd" clip-rule="evenodd" d="M1.01145 0.971569C1.7982 -0.00446008 3.25038 -0.167876 4.23903 0.607233L13.8557 8.14668L10.9966 11.6945L1.37993 4.15505C0.390383 3.37994 0.224704 1.94671 1.01055 0.971569H1.01145Z" fill="#CBB0F6"/>
</g>
<defs>
<clipPath id="clip0_58_16961">
<rect width="36.4986" height="54.4398" fill="white"/>
</clipPath>
</defs>
</svg>
