<svg width="108" height="29" viewBox="0 0 108 29" fill="none" xmlns="http://www.w3.org/2000/svg">
<g clip-path="url(#clip0_110_7766)">
<path fill-rule="evenodd" clip-rule="evenodd" d="M17.9775 27.7405C17.5732 28.249 16.827 28.3341 16.319 27.9303L11.3774 24.0025L12.8466 22.1542L17.7882 26.082C18.2966 26.4858 18.3818 27.2325 17.978 27.7405H17.9775Z" fill="#272727"/>
<path fill-rule="evenodd" clip-rule="evenodd" d="M0.255533 13.5146C1.81588 11.5513 13.9637 2.51168 16.8741 0.175346C17.4221 -0.264285 18.3865 0.240012 18.5251 0.421447C18.9196 0.93691 18.7852 1.66637 18.279 2.07251C13.3477 6.03059 8.4164 9.98914 3.48508 13.9472C3.01754 14.3227 3.01568 14.2008 3.48415 14.5729L6.85559 17.2526L5.38643 19.1009L0.444878 15.1731C-0.0636067 14.7693 -0.148742 14.0226 0.255068 13.5146H0.255533Z" fill="#5600E2"/>
<path fill-rule="evenodd" clip-rule="evenodd" d="M18.4999 14.847C16.9396 16.8102 4.7918 25.8499 1.88139 28.1862C1.33336 28.6258 0.36896 28.1215 0.230325 27.9401C-0.164181 27.4246 -0.0297327 26.6952 0.476425 26.289C5.40774 22.3309 10.3391 18.3724 15.2704 14.4143C15.7379 14.0389 15.7398 14.1608 15.2713 13.7886L11.8999 11.1089L13.369 9.26062L18.3106 13.1885C18.8191 13.5923 18.9042 14.3389 18.5004 14.847H18.4999Z" fill="#272727"/>
<path fill-rule="evenodd" clip-rule="evenodd" d="M0.519694 0.506157C0.923969 -0.0023274 1.67018 -0.0874625 2.1782 0.316348L7.11975 4.24419L5.65059 6.0925L0.709038 2.16466C0.200553 1.76085 0.115418 1.01418 0.519228 0.506157H0.519694Z" fill="#5600E2"/>
</g>
<path d="M29.963 19.1808L33.819 7.50079H38.059L42.059 19.1808H39.339L36.107 9.30879L36.939 9.64479H34.875L35.739 9.30879L32.587 19.1808H29.963ZM32.891 16.2848L33.691 14.1088H38.267L39.083 16.2848H32.891ZM46.258 19.4528C45.2447 19.4528 44.466 19.1275 43.922 18.4768C43.378 17.8155 43.106 16.8235 43.106 15.5008V10.4128H45.666V15.6288C45.666 16.0981 45.7993 16.4715 46.066 16.7488C46.3327 17.0261 46.69 17.1648 47.138 17.1648C47.5967 17.1648 47.97 17.0208 48.258 16.7328C48.546 16.4448 48.69 16.0555 48.69 15.5648V10.4128H51.25V19.1808H49.218V15.4848H49.394C49.394 16.3701 49.2767 17.1115 49.042 17.7088C48.818 18.2955 48.482 18.7328 48.034 19.0208C47.586 19.3088 47.0313 19.4528 46.37 19.4528H46.258ZM57.5945 19.2928C56.7092 19.2928 55.9945 19.1861 55.4505 18.9728C54.9065 18.7488 54.5065 18.3808 54.2505 17.8688C54.0052 17.3461 53.8825 16.6421 53.8825 15.7568V8.04479H56.2665V15.8528C56.2665 16.2688 56.3732 16.5888 56.5865 16.8128C56.8105 17.0261 57.1252 17.1328 57.5305 17.1328H58.8265V19.2928H57.5945ZM52.5545 12.2848V10.4128H58.8265V12.2848H52.5545ZM60.548 19.1808V7.50079H63.108V14.2368H62.724C62.724 13.3515 62.836 12.6048 63.06 11.9968C63.284 11.3888 63.6147 10.9301 64.052 10.6208C64.4893 10.3008 65.0387 10.1408 65.7 10.1408H65.812C66.7827 10.1408 67.524 10.4875 68.036 11.1808C68.548 11.8635 68.804 12.8661 68.804 14.1888V19.1808H66.244V14.0288C66.244 13.5488 66.1 13.1648 65.812 12.8768C65.5347 12.5781 65.1667 12.4288 64.708 12.4288C64.228 12.4288 63.8387 12.5835 63.54 12.8928C63.252 13.2021 63.108 13.6128 63.108 14.1248V19.1808H60.548Z" fill="#5600E2"/>
<path d="M73.0335 19.1808L70.1535 7.50079H72.8575L75.1135 17.4208L74.5535 17.0528H76.0095L75.3855 17.4208L77.1295 7.93279H79.3055L77.0175 19.1808H73.0335ZM79.9935 19.1808L77.5295 7.93279H79.8175L81.8335 17.4208L81.2255 17.0528H82.6175L82.0895 17.4208L84.0575 7.50079H86.6175L84.0575 19.1808H79.9935ZM88.3546 19.1808V10.4128H90.9146V19.1808H88.3546ZM87.1866 12.3008V10.4128H90.9146V12.3008H87.1866ZM89.3466 9.54879C88.8666 9.54879 88.5093 9.42612 88.2746 9.18079C88.0506 8.92479 87.9386 8.60479 87.9386 8.22079C87.9386 7.82612 88.0506 7.50612 88.2746 7.26079C88.5093 7.00479 88.8666 6.87679 89.3466 6.87679C89.8266 6.87679 90.1786 7.00479 90.4026 7.26079C90.6373 7.50612 90.7546 7.82612 90.7546 8.22079C90.7546 8.60479 90.6373 8.92479 90.4026 9.18079C90.1786 9.42612 89.8266 9.54879 89.3466 9.54879ZM99.4584 19.1808L96.6904 15.0848H95.4584L99.0264 10.4128H101.714L98.3544 14.7648L98.3864 13.5168L102.338 19.1808H99.4584ZM93.2824 19.1808V7.50079H95.8424V19.1808H93.2824ZM103.917 19.1808V10.4128H106.477V19.1808H103.917ZM102.749 12.3008V10.4128H106.477V12.3008H102.749ZM104.909 9.54879C104.429 9.54879 104.072 9.42612 103.837 9.18079C103.613 8.92479 103.501 8.60479 103.501 8.22079C103.501 7.82612 103.613 7.50612 103.837 7.26079C104.072 7.00479 104.429 6.87679 104.909 6.87679C105.389 6.87679 105.741 7.00479 105.965 7.26079C106.2 7.50612 106.317 7.82612 106.317 8.22079C106.317 8.60479 106.2 8.92479 105.965 9.18079C105.741 9.42612 105.389 9.54879 104.909 9.54879Z" fill="#272727"/>
<defs>
<clipPath id="clip0_110_7766">
<rect width="18.755" height="28.3616" fill="white"/>
</clipPath>
</defs>
</svg>
