<svg width="418" height="1165" viewBox="0 0 418 1165" fill="none" xmlns="http://www.w3.org/2000/svg">
<circle cx="-147.5" cy="565.5" r="562.835" stroke="#CBB0F6" stroke-opacity="0.15" stroke-width="5.32988"/>
<path d="M327.335 566C327.335 827.965 114.747 1040.34 -147.5 1040.34C-409.747 1040.34 -622.335 827.965 -622.335 566C-622.335 304.035 -409.747 91.6649 -147.5 91.6649C114.747 91.6649 327.335 304.035 327.335 566Z" stroke="#CBB0F6" stroke-opacity="0.15" stroke-width="5.32988"/>
<path d="M250.335 565.5C250.335 785.774 71.9913 964.335 -148 964.335C-367.991 964.335 -546.335 785.774 -546.335 565.5C-546.335 345.226 -367.991 166.665 -148 166.665C71.9913 166.665 250.335 345.226 250.335 565.5Z" stroke="#CBB0F6" stroke-opacity="0.15" stroke-width="5.32988"/>
<circle cx="-147" cy="567" r="338.335" stroke="#CBB0F6" stroke-opacity="0.15" stroke-width="5.32988"/>
</svg>
