<svg width="70" height="70" viewBox="0 0 70 70" fill="none" xmlns="http://www.w3.org/2000/svg">
<path d="M35.0001 64.1667C38.2217 64.1667 40.8334 61.555 40.8334 58.3333C40.8334 55.1117 38.2217 52.5 35.0001 52.5C31.7784 52.5 29.1667 55.1117 29.1667 58.3333C29.1667 61.555 31.7784 64.1667 35.0001 64.1667Z" fill="#575757"/>
<path d="M35.0001 17.4999C38.2217 17.4999 40.8334 14.8882 40.8334 11.6666C40.8334 8.44492 38.2217 5.83325 35.0001 5.83325C31.7784 5.83325 29.1667 8.44492 29.1667 11.6666C29.1667 14.8882 31.7784 17.4999 35.0001 17.4999Z" fill="#575757"/>
<path d="M18.5003 57.3329C21.722 57.3329 24.3337 54.7213 24.3337 51.4996C24.3337 48.2779 21.722 45.6663 18.5003 45.6663C15.2787 45.6663 12.667 48.2779 12.667 51.4996C12.667 54.7213 15.2787 57.3329 18.5003 57.3329Z" fill="#575757"/>
<path d="M51.4996 24.3337C54.7213 24.3337 57.3329 21.722 57.3329 18.5003C57.3329 15.2787 54.7213 12.667 51.4996 12.667C48.2779 12.667 45.6663 15.2787 45.6663 18.5003C45.6663 21.722 48.2779 24.3337 51.4996 24.3337Z" fill="#575757"/>
<path d="M11.6666 40.8363C14.8898 40.8363 17.5028 38.2233 17.5028 35.0001C17.5028 31.7768 14.8898 29.1638 11.6666 29.1638C8.4433 29.1638 5.83032 31.7768 5.83032 35.0001C5.83032 38.2233 8.4433 40.8363 11.6666 40.8363Z" fill="#575757"/>
<path d="M58.3333 40.8334C61.555 40.8334 64.1667 38.2217 64.1667 35.0001C64.1667 31.7784 61.555 29.1667 58.3333 29.1667C55.1117 29.1667 52.5 31.7784 52.5 35.0001C52.5 38.2217 55.1117 40.8334 58.3333 40.8334Z" fill="#575757"/>
<path d="M18.5003 24.3366C21.722 24.3366 24.3337 21.7249 24.3337 18.5033C24.3337 15.2816 21.722 12.6699 18.5003 12.6699C15.2787 12.6699 12.667 15.2816 12.667 18.5033C12.667 21.7249 15.2787 24.3366 18.5003 24.3366Z" fill="#575757"/>
<path d="M51.4996 57.3359C54.7213 57.3359 57.3329 54.7242 57.3329 51.5025C57.3329 48.2809 54.7213 45.6692 51.4996 45.6692C48.2779 45.6692 45.6663 48.2809 45.6663 51.5025C45.6663 54.7242 48.2779 57.3359 51.4996 57.3359Z" fill="#575757"/>
</svg>
