<svg width="24" height="24" viewBox="0 0 24 24" fill="none" xmlns="http://www.w3.org/2000/svg">
<path d="M1.85932 21.0827C1.56643 21.3756 1.56643 21.8504 1.85932 22.1433C2.15221 22.4362 2.62709 22.4362 2.91998 22.1433L12.0018 13.0615L21.0837 22.1433C21.3765 22.4362 21.8514 22.4362 22.1443 22.1433C22.4372 21.8504 22.4372 21.3756 22.1443 21.0827L13.0616 12L22.1443 2.91905C22.4372 2.62619 22.4372 2.15131 22.1444 1.85839C21.8515 1.56547 21.3766 1.56543 21.0837 1.85829L12.0001 10.9402L2.92003 1.85839C2.62716 1.56547 2.15229 1.56543 1.85937 1.85829C1.56645 2.15116 1.5664 2.62603 1.85927 2.91895L10.9403 12.0017L1.85932 21.0827Z" stroke="#4E00CE" stroke-width="1.5" stroke-linecap="round" stroke-linejoin="round"/>
</svg>
