<svg width="928" height="692" viewBox="0 0 928 692" fill="none" xmlns="http://www.w3.org/2000/svg">
<path d="M927.367 607.24H0V607.704H927.367V607.24Z" fill="#EBEBEB"/>
<path d="M834.445 637.083H773.017V637.546H834.445V637.083Z" fill="#EBEBEB"/>
<path d="M614.326 642.128H598.208V642.591H614.326V642.128Z" fill="#EBEBEB"/>
<path d="M771.162 619.871H735.569V620.335H771.162V619.871Z" fill="#EBEBEB"/>
<path d="M177.406 622.987H97.2998V623.451H177.406V622.987Z" fill="#EBEBEB"/>
<path d="M205.671 622.987H193.931V623.451H205.671V622.987Z" fill="#EBEBEB"/>
<path d="M417.593 630.814H243.842V631.277H417.593V630.814Z" fill="#EBEBEB"/>
<path d="M439.572 524.519H81.4411C78.6356 524.514 75.9466 523.396 73.9645 521.411C71.9824 519.425 70.8691 516.734 70.8691 513.928V10.4978C70.8936 7.70832 72.0176 5.04113 73.997 3.07555C75.9765 1.10998 78.6516 0.00477852 81.4411 0H439.572C442.381 0 445.074 1.11579 447.061 3.1019C449.047 5.08801 450.162 7.78175 450.162 10.5905V513.928C450.162 516.737 449.047 519.431 447.061 521.417C445.074 523.403 442.381 524.519 439.572 524.519ZM81.4411 0.370948C78.7585 0.375861 76.1875 1.44496 74.2924 3.34358C72.3972 5.2422 71.3328 7.8152 71.3328 10.4978V513.928C71.3328 516.611 72.3972 519.184 74.2924 521.083C76.1875 522.981 78.7585 524.05 81.4411 524.055H439.572C442.256 524.05 444.829 522.982 446.727 521.084C448.625 519.186 449.694 516.613 449.699 513.928V10.4978C449.694 7.8135 448.625 5.24054 446.727 3.34245C444.829 1.44436 442.256 0.375851 439.572 0.370948H81.4411Z" fill="#EBEBEB"/>
<path d="M840.77 524.519H482.621C479.814 524.514 477.123 523.397 475.138 521.412C473.153 519.427 472.035 516.736 472.03 513.928V10.4978C472.06 7.70663 473.188 5.03946 475.17 3.07439C477.153 1.10933 479.829 0.0047264 482.621 0H840.77C843.556 0.00965296 846.227 1.11701 848.202 3.08206C850.178 5.04712 851.299 7.71153 851.323 10.4978V513.928C851.324 516.731 850.213 519.419 848.235 521.404C846.257 523.389 843.572 524.509 840.77 524.519ZM482.621 0.370948C479.936 0.375851 477.364 1.44436 475.465 3.34245C473.567 5.24054 472.499 7.8135 472.494 10.4978V513.928C472.499 516.613 473.567 519.186 475.465 521.084C477.364 522.982 479.936 524.05 482.621 524.055H840.77C843.454 524.05 846.027 522.982 847.925 521.084C849.823 519.186 850.892 516.613 850.897 513.928V10.4978C850.892 7.8135 849.823 5.24054 847.925 3.34245C846.027 1.44436 843.454 0.375851 840.77 0.370948H482.621Z" fill="#EBEBEB"/>
<path d="M158.395 338.99H168.837L168.837 119.204H158.395L158.395 338.99Z" fill="#E0E0E0"/>
<path d="M363.138 119.222H164.422V339.008H363.138V119.222Z" fill="#E0E0E0"/>
<path d="M369.482 119.222H163.365V339.008H369.482V119.222Z" fill="#F0F0F0"/>
<path d="M360.764 126.233H171.767V328.9H360.764V126.233Z" fill="white"/>
<path d="M360.764 126.233H355.293V328.9H360.764V126.233Z" fill="#E0E0E0"/>
<path d="M171.267 271.96V277.431H355.868V271.96H171.267Z" fill="#E0E0E0"/>
<path d="M360.765 262.797H168.837V271.978H360.765V262.797Z" fill="#F0F0F0"/>
<path d="M507.659 603.809H781.065V257.586L507.659 257.586L507.659 603.809Z" fill="#F0F0F0"/>
<path d="M517.322 344.22L771.402 344.22V270.179H517.322V344.22Z" fill="#E0E0E0"/>
<path d="M756.954 344.22H771.384V282.179H756.954V344.22Z" fill="#EBEBEB"/>
<path d="M687.161 344.22H701.591V282.179H687.161V344.22Z" fill="#EBEBEB"/>
<path d="M597.409 341.766L611.629 344.217L622.168 283.078L607.947 280.627L597.409 341.766Z" fill="#EBEBEB"/>
<path d="M739.094 344.22H753.523V290.34H739.094V344.22Z" fill="#EBEBEB"/>
<path d="M705.893 344.22H720.323V290.34H705.893V344.22Z" fill="#EBEBEB"/>
<path d="M622.152 344.22H636.582V290.34H622.152V344.22Z" fill="#EBEBEB"/>
<path d="M656.551 341.087L670.637 344.218L682.326 291.621L668.24 288.491L656.551 341.087Z" fill="#EBEBEB"/>
<path d="M726.611 344.22H733.826V279.082H726.611V344.22Z" fill="#EBEBEB"/>
<path d="M640.755 344.22H647.97V279.082H640.755V344.22Z" fill="#EBEBEB"/>
<path d="M771.384 355.961H517.304V430.002H771.384V355.961Z" fill="#E0E0E0"/>
<path d="M531.734 367.942H517.304V429.983H531.734V367.942Z" fill="#EBEBEB"/>
<path d="M601.527 367.942H587.098V429.983H601.527V367.942Z" fill="#EBEBEB"/>
<path d="M680.767 366.373L666.547 368.824L677.085 429.963L691.306 427.512L680.767 366.373Z" fill="#EBEBEB"/>
<path d="M549.632 376.122H535.202V430.002H549.632V376.122Z" fill="#EBEBEB"/>
<path d="M582.795 376.122H568.365V430.002H582.795V376.122Z" fill="#EBEBEB"/>
<path d="M666.536 376.122H652.106V430.002H666.536V376.122Z" fill="#EBEBEB"/>
<path d="M620.509 374.245L606.423 377.376L618.112 429.972L632.198 426.842L620.509 374.245Z" fill="#EBEBEB"/>
<path d="M562.114 364.863H554.899V430.002H562.114V364.863Z" fill="#EBEBEB"/>
<path d="M647.951 364.863H640.736V430.002H647.951V364.863Z" fill="#EBEBEB"/>
<path d="M756.954 429.983H771.384V367.942H756.954V429.983Z" fill="#EBEBEB"/>
<path d="M739.094 429.983H753.523V376.103H739.094V429.983Z" fill="#EBEBEB"/>
<path d="M705.893 429.983H720.323V376.103H705.893V429.983Z" fill="#EBEBEB"/>
<path d="M726.611 429.983H733.826V364.845H726.611V429.983Z" fill="#EBEBEB"/>
<path d="M517.322 515.746H771.402V441.705H517.322V515.746Z" fill="#E0E0E0"/>
<path d="M611.116 515.746H625.546V453.705H611.116V515.746Z" fill="#EBEBEB"/>
<path d="M521.371 513.27L535.591 515.721L546.129 454.582L531.909 452.131L521.371 513.27Z" fill="#EBEBEB"/>
<path d="M663.049 515.746H677.479V461.866H663.049V515.746Z" fill="#EBEBEB"/>
<path d="M629.868 515.746H644.298V461.866H629.868V515.746Z" fill="#EBEBEB"/>
<path d="M546.108 515.746H560.538V461.866H546.108V515.746Z" fill="#EBEBEB"/>
<path d="M580.519 512.59L594.605 515.721L606.295 463.124L592.209 459.993L580.519 512.59Z" fill="#EBEBEB"/>
<path d="M650.566 515.746H657.781V450.608H650.566V515.746Z" fill="#EBEBEB"/>
<path d="M564.711 515.746H571.926V450.608H564.711V515.746Z" fill="#EBEBEB"/>
<path d="M687.426 513.274L701.646 515.725L712.185 454.586L697.965 452.135L687.426 513.274Z" fill="#EBEBEB"/>
<path d="M712.181 515.746H726.611V461.866H712.181V515.746Z" fill="#EBEBEB"/>
<path d="M746.579 512.584L760.665 515.714L772.354 463.117L758.268 459.987L746.579 512.584Z" fill="#EBEBEB"/>
<path d="M730.747 515.746H737.962V450.608H730.747V515.746Z" fill="#EBEBEB"/>
<path d="M327.175 390.941H168.484C164.386 390.934 160.328 391.734 156.54 393.297C152.752 394.859 149.309 397.153 146.408 400.047C143.507 402.941 141.205 406.378 139.634 410.162C138.063 413.946 137.252 418.003 137.25 422.1V546.034H358.353V422.1C358.353 418.007 357.546 413.954 355.979 410.172C354.412 406.39 352.115 402.955 349.22 400.061C346.325 397.167 342.887 394.872 339.105 393.307C335.322 391.743 331.268 390.939 327.175 390.941Z" fill="#E6E6E6"/>
<path d="M405.278 482.787H376.882C371.963 482.787 367.246 484.742 363.767 488.22C360.289 491.698 358.335 496.416 358.335 501.335V603.809H423.77V501.316C423.765 496.41 421.816 491.706 418.351 488.233C414.885 484.76 410.184 482.802 405.278 482.787Z" fill="#E0E0E0"/>
<path d="M405.278 482.787H404.666C399.746 482.787 395.029 484.742 391.551 488.22C388.072 491.698 386.118 496.416 386.118 501.335V603.809H423.751V501.316C423.746 496.413 421.8 491.712 418.338 488.239C414.876 484.767 410.181 482.807 405.278 482.787Z" fill="#EBEBEB"/>
<path d="M378.236 556.717H160.435V603.79H378.236V556.717Z" fill="#E6E6E6"/>
<path d="M378.532 513.669H168.484C158.087 513.669 149.658 522.097 149.658 532.494V544.235C149.658 554.632 158.087 563.06 168.484 563.06H378.532C388.93 563.06 397.358 554.632 397.358 544.235V532.494C397.358 522.097 388.93 513.669 378.532 513.669Z" fill="#F5F5F5"/>
<path d="M194.895 513.669H168.836C158.439 513.669 150.011 522.097 150.011 532.494V544.235C150.011 554.632 158.439 563.06 168.836 563.06H194.895C205.292 563.06 213.721 554.632 213.721 544.235V532.494C213.721 522.097 205.292 513.669 194.895 513.669Z" fill="#E0E0E0"/>
<path d="M166.018 482.787H137.622C132.703 482.787 127.985 484.742 124.507 488.22C121.028 491.698 119.074 496.416 119.074 501.335V603.809H184.546V501.316C184.541 496.404 182.588 491.694 179.114 488.22C175.64 484.746 170.93 482.792 166.018 482.787Z" fill="#E0E0E0"/>
<path d="M166.017 482.787H165.423C160.504 482.787 155.787 484.742 152.308 488.22C148.83 491.698 146.876 496.416 146.876 501.335V603.809H184.546V501.316C184.541 496.404 182.587 491.694 179.113 488.22C175.639 484.746 170.929 482.792 166.017 482.787Z" fill="#F0F0F0"/>
<path d="M637.435 175.328C658.291 175.328 675.198 158.421 675.198 137.566C675.198 116.71 658.291 99.8033 637.435 99.8033C616.58 99.8033 599.673 116.71 599.673 137.566C599.673 158.421 616.58 175.328 637.435 175.328Z" fill="#E0E0E0"/>
<path d="M669.158 142.722C671.999 125.22 660.114 108.728 642.612 105.887C625.109 103.046 608.618 114.931 605.777 132.434C602.936 149.936 614.821 166.427 632.323 169.269C649.826 172.11 666.317 160.224 669.158 142.722Z" fill="#F0F0F0"/>
<path d="M635.933 115.531V137.974L621.058 129.553" fill="#F0F0F0"/>
<path d="M635.933 139.587C635.651 139.588 635.375 139.511 635.135 139.365L620.297 130.963C619.949 130.74 619.699 130.392 619.6 129.99C619.501 129.589 619.559 129.164 619.764 128.805C619.969 128.445 620.304 128.178 620.7 128.059C621.096 127.939 621.523 127.976 621.892 128.162L634.356 135.229V115.531C634.399 115.136 634.586 114.77 634.882 114.504C635.178 114.238 635.562 114.091 635.96 114.091C636.359 114.091 636.742 114.238 637.039 114.504C637.335 114.77 637.522 115.136 637.565 115.531V137.974C637.566 138.255 637.494 138.532 637.353 138.777C637.213 139.021 637.011 139.224 636.767 139.365C636.516 139.518 636.226 139.595 635.933 139.587Z" fill="#E0E0E0"/>
<path d="M463.684 691.019C662.293 691.019 823.298 679.584 823.298 665.479C823.298 651.374 662.293 639.939 463.684 639.939C265.074 639.939 104.069 651.374 104.069 665.479C104.069 679.584 265.074 691.019 463.684 691.019Z" fill="#F5F5F5"/>
<path d="M720.861 279.731H670.783C666.223 279.731 661.85 281.543 658.626 284.767C655.401 287.991 653.59 292.365 653.59 296.924V317.66C653.59 322.22 655.401 326.594 658.626 329.818C661.85 333.042 666.223 334.854 670.783 334.854H692.187L697.936 353.012L703.742 334.854H720.768C725.328 334.854 729.701 333.042 732.926 329.818C736.15 326.594 737.962 322.22 737.962 317.66V296.924C737.962 292.381 736.163 288.021 732.959 284.8C729.754 281.578 725.405 279.756 720.861 279.731Z" fill="#5600E2"/>
<path d="M676.385 306.031C676.385 306.717 676.182 307.388 675.8 307.958C675.419 308.528 674.878 308.973 674.244 309.236C673.61 309.498 672.913 309.567 672.24 309.433C671.567 309.299 670.949 308.969 670.464 308.484C669.979 307.999 669.649 307.381 669.515 306.708C669.381 306.035 669.45 305.338 669.712 304.704C669.975 304.07 670.419 303.528 670.99 303.147C671.56 302.766 672.231 302.563 672.917 302.563C673.372 302.563 673.823 302.653 674.244 302.827C674.665 303.001 675.047 303.257 675.369 303.579C675.691 303.901 675.947 304.283 676.121 304.704C676.295 305.125 676.385 305.576 676.385 306.031ZM688.218 302.563C687.532 302.563 686.862 302.766 686.291 303.147C685.721 303.528 685.276 304.07 685.014 304.704C684.751 305.338 684.683 306.035 684.816 306.708C684.95 307.381 685.281 307.999 685.766 308.484C686.251 308.969 686.869 309.299 687.542 309.433C688.214 309.567 688.912 309.498 689.545 309.236C690.179 308.973 690.721 308.528 691.102 307.958C691.483 307.388 691.687 306.717 691.687 306.031C691.667 305.124 691.293 304.261 690.645 303.627C689.996 302.992 689.125 302.637 688.218 302.637V302.563ZM703.52 302.563C702.834 302.563 702.163 302.766 701.593 303.147C701.022 303.528 700.578 304.07 700.315 304.704C700.053 305.338 699.984 306.035 700.118 306.708C700.252 307.381 700.582 307.999 701.067 308.484C701.552 308.969 702.17 309.299 702.843 309.433C703.516 309.567 704.213 309.498 704.847 309.236C705.481 308.973 706.022 308.528 706.404 307.958C706.785 307.388 706.988 306.717 706.988 306.031C706.969 305.124 706.595 304.261 705.946 303.627C705.298 302.992 704.427 302.637 703.52 302.637V302.563ZM718.821 302.563C718.135 302.563 717.465 302.766 716.894 303.147C716.324 303.528 715.879 304.07 715.617 304.704C715.354 305.338 715.286 306.035 715.42 306.708C715.553 307.381 715.884 307.999 716.369 308.484C716.854 308.969 717.472 309.299 718.145 309.433C718.817 309.567 719.515 309.498 720.149 309.236C720.782 308.973 721.324 308.528 721.705 307.958C722.086 307.388 722.29 306.717 722.29 306.031C722.27 305.124 721.896 304.261 721.248 303.627C720.6 302.992 719.728 302.637 718.821 302.637V302.563Z" fill="white"/>
<path d="M206.803 340.937H156.817C154.56 340.937 152.324 341.382 150.238 342.246C148.152 343.11 146.256 344.377 144.66 345.973C143.063 347.57 141.797 349.465 140.933 351.551C140.069 353.637 139.624 355.873 139.624 358.131V378.867C139.624 383.427 141.435 387.8 144.66 391.024C147.884 394.249 152.257 396.06 156.817 396.06H178.221L183.971 414.199L189.776 396.06H206.803C211.362 396.06 215.736 394.249 218.96 391.024C222.184 387.8 223.996 383.427 223.996 378.867V358.131C223.996 355.873 223.551 353.637 222.687 351.551C221.823 349.465 220.557 347.57 218.96 345.973C217.364 344.377 215.468 343.11 213.382 342.246C211.296 341.382 209.06 340.937 206.803 340.937Z" fill="#5600E2"/>
<path d="M162.326 367.237C162.326 367.923 162.123 368.594 161.742 369.164C161.361 369.735 160.819 370.179 160.185 370.442C159.552 370.704 158.854 370.773 158.181 370.639C157.509 370.505 156.891 370.175 156.406 369.69C155.92 369.205 155.59 368.587 155.456 367.914C155.322 367.241 155.391 366.544 155.654 365.91C155.916 365.276 156.361 364.735 156.931 364.354C157.501 363.973 158.172 363.769 158.858 363.769C159.778 363.769 160.66 364.135 161.31 364.785C161.961 365.435 162.326 366.318 162.326 367.237ZM174.16 363.769C173.474 363.769 172.803 363.973 172.233 364.354C171.662 364.735 171.218 365.276 170.955 365.91C170.693 366.544 170.624 367.241 170.758 367.914C170.892 368.587 171.222 369.205 171.707 369.69C172.192 370.175 172.81 370.505 173.483 370.639C174.156 370.773 174.853 370.704 175.487 370.442C176.121 370.179 176.662 369.735 177.043 369.164C177.425 368.594 177.628 367.923 177.628 367.237C177.613 366.329 177.241 365.463 176.591 364.827C175.942 364.192 175.068 363.838 174.16 363.843V363.769ZM189.461 363.769C188.774 363.762 188.099 363.959 187.524 364.336C186.949 364.712 186.499 365.251 186.23 365.884C185.962 366.517 185.888 367.216 186.018 367.891C186.147 368.566 186.475 369.188 186.958 369.677C187.442 370.165 188.06 370.499 188.734 370.636C189.407 370.773 190.107 370.707 190.743 370.445C191.379 370.184 191.922 369.739 192.305 369.168C192.688 368.597 192.892 367.925 192.892 367.237C192.878 366.335 192.511 365.475 191.869 364.84C191.228 364.206 190.363 363.848 189.461 363.843V363.769ZM204.763 363.769C204.077 363.769 203.406 363.973 202.836 364.354C202.265 364.735 201.821 365.276 201.558 365.91C201.296 366.544 201.227 367.241 201.361 367.914C201.495 368.587 201.825 369.205 202.31 369.69C202.795 370.175 203.413 370.505 204.086 370.639C204.759 370.773 205.456 370.704 206.09 370.442C206.724 370.179 207.265 369.735 207.647 369.164C208.028 368.594 208.231 367.923 208.231 367.237C208.216 366.329 207.844 365.463 207.195 364.827C206.545 364.192 205.671 363.838 204.763 363.843V363.769Z" fill="white"/>
<path d="M766.006 668.075H530.603C486.627 668.075 483.808 616.291 519.956 591.92C526.565 587.526 533.881 584.301 541.583 582.387C613.157 563.561 713.721 437.013 784.553 489.965L784.757 490.114C855.311 543.437 805.994 668.075 766.006 668.075Z" fill="#263238"/>
<path opacity="0.5" d="M766.006 668.075H530.603C486.627 668.075 483.808 616.291 519.956 591.92C526.565 587.526 533.881 584.301 541.583 582.387C613.157 563.561 713.721 437.013 784.553 489.965L784.757 490.114C855.311 543.437 805.994 668.075 766.006 668.075Z" fill="white"/>
<path opacity="0.2" d="M784.367 489.872C778.432 489.483 771.236 491.152 763.483 497.644C743.359 514.522 773.962 595.778 725.832 629.571C698.975 648.434 583.11 656.743 544.439 633.614C515.894 616.532 515.523 605.793 519.956 591.92C526.565 587.526 533.88 584.301 541.582 582.387C613.064 563.468 713.628 436.92 784.367 489.872Z" fill="black"/>
<path d="M601.343 474.552L587.303 464.667L597.801 453.928C597.801 453.928 608.577 459.492 607.556 469.415L601.343 474.552Z" fill="#E4897B"/>
<path d="M581.794 453.761L591.531 447.64L597.8 453.928L587.303 464.667L581.794 453.761Z" fill="#E4897B"/>
<path d="M670.413 449.013C657.114 452.926 650.567 476.314 639.587 498.404L607.63 466.651L597.466 475.665C597.466 475.665 626.733 522.163 640.551 522.163C657.8 522.163 675.699 474.256 675.699 474.256L670.413 449.013Z" fill="#263238"/>
<path opacity="0.1" d="M675.699 474.256C675.699 474.256 672.861 481.842 668.28 490.948C663.921 499.814 657.986 510.145 651.587 516.395C647.97 519.901 644.168 522.126 640.459 522.126C626.641 522.126 597.373 475.628 597.373 475.628L607.537 466.614L639.494 498.367C650.474 476.277 657.003 452.889 670.338 448.976L675.699 474.256Z" fill="white"/>
<path opacity="0.2" d="M668.354 490.985C663.995 499.851 658.06 510.182 651.661 516.432C652.347 495.233 662.79 474.552 662.79 474.552C665.669 479.628 667.557 485.205 668.354 490.985Z" fill="black"/>
<path d="M657.689 578.214C657.689 578.214 544.829 562.003 538.857 586.764C532.569 612.953 623.191 630.61 677.35 632.465C731.508 634.319 747.051 621.336 738.352 554.566H664.162L657.689 578.214Z" fill="#5600E2"/>
<path opacity="0.6" d="M657.689 578.214C657.689 578.214 544.829 562.003 538.857 586.764C532.569 612.953 623.191 630.61 677.35 632.465C731.508 634.319 747.051 621.336 738.352 554.566H664.162L657.689 578.214Z" fill="white"/>
<path d="M594.832 629.849L571.184 629.868L559.833 629.886L558.479 617.923L568.977 616.514L594.628 613.101L594.832 629.849Z" fill="#E4897B"/>
<path d="M561.039 616.421L563.914 630.072C563.954 630.251 563.958 630.437 563.924 630.618C563.89 630.798 563.82 630.97 563.718 631.123C563.615 631.276 563.483 631.406 563.328 631.506C563.174 631.606 563.001 631.673 562.82 631.704L556.013 632.928C556.013 632.928 546.98 635.228 544.439 633.614C537.02 628.866 529.898 598.857 532.921 596.631C534.016 595.815 535.926 597.058 536.891 598.041C539.932 601.138 546.405 609.8 548.983 612.359C551.97 615.364 557.293 615.457 559.63 615.327C559.956 615.311 560.278 615.413 560.536 615.614C560.795 615.814 560.973 616.101 561.039 616.421Z" fill="#263238"/>
<path opacity="0.2" d="M594.833 629.849L571.185 629.868L568.978 616.514L594.629 613.101L594.833 629.849Z" fill="black"/>
<path d="M629.405 608.742L651.848 616.217L662.624 619.797L660.12 631.556L649.715 629.571L624.305 624.712L629.405 608.742Z" fill="#E4897B"/>
<path d="M657.226 632.168L658.802 618.313C658.825 618.131 658.884 617.956 658.975 617.797C659.065 617.638 659.187 617.499 659.331 617.387C659.476 617.275 659.641 617.192 659.818 617.144C659.995 617.096 660.179 617.084 660.36 617.107L667.204 618.109C667.204 618.109 676.478 618.777 678.333 621.113C683.897 627.957 681.152 658.69 677.591 659.84C676.274 660.267 674.864 658.486 674.252 657.262C672.398 653.349 668.948 643.074 667.316 639.846C665.461 636.044 660.398 634.282 658.153 633.652C657.848 633.554 657.587 633.351 657.418 633.079C657.248 632.808 657.18 632.485 657.226 632.168Z" fill="#263238"/>
<path opacity="0.2" d="M629.405 608.742L651.848 616.217L649.715 629.571L624.305 624.712L629.405 608.742Z" fill="black"/>
<path d="M645.819 631.648L639.42 632.261L643.241 610.115L650.585 613.991L645.819 631.648Z" fill="#5600E2"/>
<path opacity="0.6" d="M645.819 631.648L639.42 632.261L643.241 610.115L650.585 613.991L645.819 631.648Z" fill="white"/>
<path d="M667.241 639.68C667.408 640.683 667.259 641.713 666.815 642.629C666.635 642.903 666.386 643.124 666.093 643.271C665.8 643.418 665.473 643.484 665.146 643.463C664.948 643.472 664.751 643.428 664.576 643.337C664.4 643.246 664.251 643.11 664.144 642.944C663.18 641.312 665.442 636.285 665.721 635.729C665.738 635.667 665.778 635.613 665.833 635.579C665.888 635.544 665.954 635.532 666.017 635.543C666.088 635.55 666.155 635.578 666.208 635.625C666.261 635.671 666.299 635.734 666.314 635.803C666.754 637.06 667.064 638.359 667.241 639.68ZM664.571 642.091C664.583 642.255 664.634 642.413 664.719 642.554C664.754 642.625 664.81 642.684 664.88 642.72C664.95 642.757 665.03 642.77 665.109 642.758C665.333 642.785 665.561 642.747 665.765 642.648C665.968 642.549 666.14 642.395 666.258 642.202C666.799 640.438 666.7 638.54 665.98 636.842C665.199 638.493 664.722 640.271 664.571 642.091Z" fill="#5600E2"/>
<path d="M666.369 635.84V635.989C665.757 637.602 662.975 640.792 661.399 640.57C661.14 640.525 660.905 640.394 660.73 640.199C660.555 640.004 660.451 639.756 660.434 639.494C660.363 639.234 660.349 638.962 660.394 638.696C660.439 638.43 660.541 638.177 660.694 637.955C661.844 636.1 665.831 635.506 666.054 635.525C666.115 635.513 666.179 635.521 666.236 635.548C666.292 635.575 666.339 635.618 666.369 635.673C666.383 635.728 666.383 635.785 666.369 635.84ZM661.028 639.234V639.383C661.139 639.846 661.324 639.865 661.417 639.902C662.344 640.032 664.477 637.955 665.405 636.36C663.823 636.552 662.349 637.263 661.213 638.381C661.055 638.636 660.983 638.935 661.009 639.234H661.028Z" fill="#5600E2"/>
<path d="M573.336 614.789C573.336 614.789 678.332 573.985 710.494 580.81C742.655 587.636 742.803 604.458 726.5 620.149C710.197 635.84 685.844 629.794 685.844 629.794C685.844 629.794 704.985 618.331 703.65 611.246C702.314 604.161 690.147 620.353 690.147 620.353C690.147 620.353 626.697 635.877 574.3 631.778L573.336 614.789Z" fill="#5600E2"/>
<path d="M549.707 612.582C549.097 611.774 548.759 610.793 548.742 609.781C548.771 609.455 548.886 609.143 549.075 608.876C549.264 608.609 549.52 608.396 549.818 608.26C549.991 608.164 550.186 608.114 550.384 608.114C550.582 608.114 550.776 608.164 550.949 608.26C552.544 609.28 552.804 614.789 552.804 615.419C552.812 615.483 552.798 615.547 552.764 615.601C552.73 615.655 552.679 615.695 552.619 615.716C552.561 615.755 552.493 615.775 552.424 615.775C552.355 615.775 552.287 615.755 552.229 615.716C551.281 614.762 550.436 613.712 549.707 612.582ZM550.968 609.206C550.874 609.072 550.754 608.959 550.615 608.872C550.553 608.828 550.479 608.805 550.402 608.805C550.326 608.805 550.251 608.828 550.189 608.872C549.975 608.95 549.788 609.087 549.65 609.268C549.512 609.449 549.428 609.666 549.41 609.892C549.742 611.707 550.708 613.344 552.136 614.511C552.064 612.687 551.669 610.891 550.968 609.206Z" fill="#5600E2"/>
<path d="M552.229 615.586V615.42C552.044 613.713 553.027 609.596 554.548 609.058C554.799 608.979 555.069 608.988 555.315 609.082C555.561 609.176 555.768 609.351 555.902 609.577C556.251 609.989 556.424 610.522 556.384 611.061C556.199 613.231 552.934 615.586 552.675 615.698C552.623 615.733 552.561 615.752 552.498 615.752C552.436 615.752 552.374 615.733 552.322 615.698C552.283 615.669 552.251 615.631 552.229 615.586ZM555.42 610.115V609.985C555.123 609.633 554.937 609.707 554.845 609.725C553.954 610.022 552.99 612.841 552.99 614.696C553.899 613.936 555.661 612.341 555.772 610.987C555.791 610.686 555.713 610.387 555.549 610.134L555.42 610.115Z" fill="#5600E2"/>
<path opacity="0.7" d="M573.336 614.789C573.336 614.789 678.332 573.985 710.494 580.81C742.655 587.636 742.803 604.458 726.5 620.149C710.197 635.84 685.844 629.794 685.844 629.794C685.844 629.794 704.985 618.331 703.65 611.246C702.314 604.161 690.147 620.353 690.147 620.353C690.147 620.353 626.697 635.877 574.3 631.778L573.336 614.789Z" fill="white"/>
<path d="M572.057 614.474L577.955 611.766L581.349 633.856L573.151 632.52L572.057 614.474Z" fill="#5600E2"/>
<path opacity="0.6" d="M572.057 614.474L577.955 611.766L581.349 633.856L573.151 632.52L572.057 614.474Z" fill="white"/>
<path d="M745.807 452.555C734.475 515.616 738.592 556.42 738.592 556.42C738.592 556.42 685.862 555.697 664.199 554.473C652.644 478.039 670.412 448.994 670.412 448.994C676.078 447.859 681.807 447.072 687.569 446.639C688.774 446.546 690.017 446.49 691.278 446.435C701.498 446.428 711.709 447.004 721.863 448.16C723.717 448.364 725.739 448.623 727.631 448.901C737.294 450.367 745.807 452.555 745.807 452.555Z" fill="#263238"/>
<path opacity="0.1" d="M745.807 452.555C744.398 460.382 743.229 467.875 742.265 474.96C740.744 486.089 739.724 496.401 739.056 505.564C738.852 508.327 738.667 511.016 738.537 513.576C737.999 522.961 737.851 530.992 737.869 537.484C737.869 549.688 738.593 556.42 738.593 556.42C738.593 556.42 685.862 555.697 664.199 554.473C652.626 478.039 670.431 448.994 670.431 448.994C676.09 447.858 681.813 447.071 687.569 446.639C688.774 446.546 690.017 446.49 691.278 446.435C701.498 446.419 711.71 446.994 721.863 448.16C723.718 448.364 725.739 448.623 727.631 448.901C737.294 450.348 745.807 452.555 745.807 452.555Z" fill="white"/>
<path opacity="0.2" d="M698.716 522.163C712.228 520.558 725.56 517.689 738.537 513.595C737.999 522.98 737.851 531.011 737.869 537.502C712.7 539.821 702.425 534.98 702.425 534.98L698.716 522.163Z" fill="black"/>
<path opacity="0.2" d="M742.266 474.979C740.745 486.107 739.725 496.42 739.057 505.582C731.842 490.893 737.202 473.273 737.202 473.273L742.266 474.979Z" fill="black"/>
<path d="M701.573 548.056H663.217C662.471 548.044 661.758 547.754 661.215 547.242C660.673 546.731 660.342 546.035 660.286 545.292L654.945 494.379C654.908 494.038 654.944 493.692 655.051 493.365C655.157 493.039 655.332 492.738 655.564 492.484C655.795 492.23 656.078 492.028 656.393 491.891C656.708 491.754 657.049 491.686 657.393 491.69H695.749C696.479 491.705 697.179 491.986 697.715 492.482C698.252 492.978 698.588 493.653 698.661 494.379L704.021 545.292C704.069 545.639 704.042 545.993 703.94 546.329C703.839 546.665 703.666 546.975 703.433 547.237C703.2 547.5 702.914 547.709 702.592 547.85C702.271 547.992 701.923 548.062 701.573 548.056Z" fill="#263238"/>
<path opacity="0.6" d="M701.573 548.056H663.217C662.471 548.044 661.758 547.754 661.215 547.242C660.673 546.731 660.342 546.035 660.286 545.292L654.945 494.379C654.908 494.038 654.944 493.692 655.051 493.365C655.157 493.039 655.332 492.738 655.564 492.484C655.795 492.23 656.078 492.028 656.393 491.891C656.708 491.754 657.049 491.686 657.393 491.69H695.749C696.479 491.705 697.179 491.986 697.715 492.482C698.252 492.978 698.588 493.653 698.661 494.379L704.021 545.292C704.069 545.639 704.042 545.993 703.94 546.329C703.839 546.665 703.666 546.975 703.433 547.237C703.2 547.5 702.914 547.709 702.592 547.85C702.271 547.992 701.923 548.062 701.573 548.056Z" fill="white"/>
<path opacity="0.2" d="M699.978 548.056H663.217C662.471 548.044 661.758 547.754 661.215 547.242C660.673 546.731 660.342 546.035 660.286 545.292L654.945 494.379C654.908 494.038 654.944 493.692 655.051 493.365C655.157 493.039 655.332 492.738 655.564 492.484C655.795 492.23 656.078 492.028 656.393 491.891C656.708 491.754 657.049 491.686 657.393 491.69H694.154C694.884 491.705 695.584 491.986 696.12 492.482C696.657 492.978 696.993 493.653 697.066 494.379L702.426 545.292C702.474 545.639 702.446 545.993 702.345 546.329C702.244 546.665 702.071 546.975 701.838 547.237C701.605 547.5 701.318 547.709 700.997 547.85C700.676 547.992 700.328 548.062 699.978 548.056Z" fill="white"/>
<path d="M677.61 515.746C677.081 515.742 676.557 515.851 676.074 516.066C675.591 516.28 675.159 516.596 674.808 516.991C674.457 517.386 674.194 517.852 674.037 518.357C673.881 518.862 673.834 519.395 673.9 519.919C674.009 521.045 674.529 522.09 675.361 522.857C676.192 523.623 677.277 524.056 678.407 524.074C678.934 524.078 679.456 523.969 679.938 523.755C680.419 523.542 680.85 523.228 681.201 522.835C681.552 522.442 681.815 521.979 681.973 521.476C682.131 520.973 682.18 520.442 682.117 519.919C680.984 519.897 679.9 519.46 679.069 518.691C678.238 517.921 677.719 516.873 677.61 515.746Z" fill="#263238"/>
<path opacity="0.3" d="M685.918 495.808H665.646C665.148 495.801 664.662 495.655 664.242 495.386C663.822 495.117 663.486 494.736 663.272 494.287L662.066 491.764H688.812L688.107 494.287C687.969 494.751 687.677 495.155 687.279 495.431C686.882 495.708 686.402 495.84 685.918 495.808Z" fill="black"/>
<path d="M697.826 520.531L688.96 519.808L689.331 531.604L696.75 535.499L713.851 533.941L715.242 525.984C709.622 517.749 697.826 520.531 697.826 520.531Z" fill="#E4897B"/>
<path d="M745.808 452.555C754.915 455.3 767.824 508.197 765.765 519.882C763.706 531.567 741.246 536.575 712.701 535.926V522.126L745.808 512.463L740.244 492.061C740.244 492.061 735.644 477.056 737.703 466.558C738.833 461.142 741.675 456.233 745.808 452.555Z" fill="#263238"/>
<path opacity="0.1" d="M745.808 452.555C754.915 455.3 767.824 508.197 765.765 519.882C763.706 531.567 741.246 536.575 712.701 535.926V522.126L745.808 512.463L740.244 492.061C740.244 492.061 735.644 477.056 737.703 466.558C738.833 461.142 741.675 456.233 745.808 452.555Z" fill="white"/>
<path d="M717.449 447.566C712.831 452.388 705.579 456.432 693.95 456.005C685.028 455.653 683.786 450.051 685.344 446.972C690.76 445.86 693.208 443.504 693.968 440.499C694.729 437.495 693.671 433.451 692.113 429.705L707.155 417.037L709.696 414.886C709.696 415.609 709.604 416.369 709.567 417.167C709.391 420.107 709.391 423.055 709.567 425.995C710.067 434.286 712.033 443.282 717.449 447.566Z" fill="#E4897B"/>
<path opacity="0.2" d="M709.585 425.995C706.784 431.727 701.869 438.645 693.968 440.499C694.784 437.309 693.671 433.451 692.113 429.705L707.155 417.037C707.953 417.037 708.769 417.037 709.566 417.167C709.397 420.108 709.403 423.056 709.585 425.995Z" fill="black"/>
<path d="M675.124 391.85C672.917 396.895 672.639 407.726 680.317 405.037C687.996 402.348 678.834 383.188 675.124 391.85Z" fill="#263238"/>
<path d="M711.903 403.034C711.235 416.536 711.551 424.493 704.799 431.448C694.635 441.909 677.869 435.751 674.456 422.286C671.414 410.137 673.009 390.088 686.178 384.672C689.099 383.476 692.275 383.039 695.411 383.403C698.546 383.767 701.538 384.92 704.108 386.754C706.677 388.587 708.739 391.042 710.103 393.889C711.466 396.736 712.085 399.883 711.903 403.034Z" fill="#E4897B"/>
<path d="M691.427 406.855C691.427 407.949 690.871 408.858 690.147 408.858C689.424 408.858 688.83 407.967 688.812 406.855C688.793 405.742 689.387 404.87 690.092 404.87C690.797 404.87 691.409 405.76 691.427 406.855Z" fill="#263238"/>
<path d="M678.963 406.892C678.963 407.986 678.406 408.876 677.683 408.876C676.96 408.876 676.366 407.986 676.366 406.892C676.366 405.797 676.923 404.907 677.646 404.907C678.369 404.907 678.963 405.779 678.963 406.892Z" fill="#263238"/>
<path d="M682.932 407.43C681.621 410.688 679.86 413.747 677.702 416.518C678.468 417.021 679.33 417.359 680.234 417.509C681.138 417.659 682.064 417.619 682.951 417.39L682.932 407.43Z" fill="#DE5753"/>
<path d="M695.21 402.83C695.099 402.846 694.985 402.833 694.881 402.79C694.776 402.748 694.685 402.678 694.617 402.589C694.137 401.93 693.51 401.392 692.785 401.018C692.061 400.645 691.259 400.446 690.444 400.437C690.272 400.448 690.104 400.392 689.973 400.282C689.841 400.171 689.758 400.014 689.739 399.844C689.731 399.758 689.741 399.672 689.766 399.591C689.792 399.509 689.834 399.433 689.889 399.368C689.944 399.302 690.012 399.248 690.088 399.209C690.164 399.17 690.247 399.146 690.332 399.139C691.363 399.132 692.38 399.369 693.302 399.83C694.224 400.291 695.024 400.963 695.637 401.791C695.742 401.927 695.79 402.098 695.769 402.269C695.748 402.439 695.661 402.594 695.526 402.7C695.434 402.77 695.325 402.815 695.21 402.83Z" fill="#263238"/>
<path d="M673.548 402.626C673.427 402.661 673.298 402.661 673.177 402.626C673.1 402.588 673.031 402.536 672.975 402.472C672.918 402.407 672.875 402.333 672.847 402.252C672.82 402.171 672.808 402.085 672.814 402C672.82 401.914 672.842 401.831 672.88 401.754C673.291 400.811 673.924 399.981 674.725 399.335C675.526 398.689 676.471 398.246 677.48 398.045C677.565 398.034 677.652 398.041 677.734 398.064C677.817 398.088 677.894 398.127 677.962 398.181C678.029 398.234 678.085 398.301 678.126 398.376C678.168 398.451 678.194 398.534 678.203 398.62C678.216 398.703 678.213 398.787 678.193 398.869C678.173 398.95 678.136 399.027 678.086 399.094C678.036 399.162 677.973 399.218 677.901 399.261C677.829 399.304 677.748 399.332 677.665 399.343C676.869 399.493 676.122 399.837 675.491 400.345C674.86 400.853 674.365 401.509 674.049 402.255C674 402.352 673.93 402.436 673.843 402.5C673.756 402.565 673.655 402.608 673.548 402.626Z" fill="#263238"/>
<path d="M690.685 392.202C690.685 392.202 694.395 389.531 696.101 392.406C697.807 395.281 697.696 402.941 697.696 402.941L698.438 401.587C698.438 401.587 703.242 418.651 710.197 414.348C717.152 410.045 727.372 392.722 711.124 383.893C711.124 383.893 709.399 379.775 698.66 377.735C687.922 375.695 674.938 382.335 672.694 389.439C670.45 396.542 673.584 400.567 673.584 400.567C673.929 399.021 674.634 397.578 675.643 396.357C675.787 397.081 676.108 397.758 676.577 398.327C677.047 398.897 677.65 399.341 678.333 399.621C678.223 398.17 678.525 396.717 679.204 395.429C679.559 396.692 680.193 397.858 681.059 398.842C681.838 391.535 686.809 390.051 688.367 390.106C688.924 390.168 689.448 390.404 689.864 390.78C690.281 391.156 690.568 391.654 690.685 392.202Z" fill="#263238"/>
<path d="M717.263 414.218C716.767 415.825 715.957 417.317 714.881 418.61C713.805 419.902 712.484 420.969 710.994 421.748C706.988 423.807 704.057 420.413 704.391 416.184C704.688 412.345 707.118 406.651 711.513 406.372C712.475 406.329 713.432 406.524 714.3 406.939C715.168 407.355 715.92 407.979 716.489 408.755C717.058 409.532 717.427 410.437 717.562 411.39C717.697 412.343 717.594 413.314 717.263 414.218Z" fill="#E4897B"/>
<path d="M683.378 421.915C684.536 423.127 685.602 424.422 686.568 425.791L687.366 425.402C690.945 423.547 692.021 421.563 692.114 419.838C692.138 419.006 691.966 418.18 691.613 417.427C691.424 416.997 691.174 416.597 690.871 416.24C689.162 418.344 687.017 420.053 684.583 421.247C683.86 421.692 683.378 421.915 683.378 421.915Z" fill="#263238"/>
<path d="M684.583 421.284L685.566 422.397C688.923 420.691 691.13 419.022 691.612 417.464C691.424 417.034 691.174 416.634 690.871 416.277C689.162 418.381 687.017 420.09 684.583 421.284Z" fill="white"/>
<path d="M687.365 425.402C690.945 423.547 692.021 421.563 692.113 419.838C690.765 420.554 689.553 421.502 688.534 422.638C687.861 423.413 687.452 424.38 687.365 425.402Z" fill="#A24E3F"/>
<path d="M360.579 465.872L361.543 476.166C361.543 476.166 421.785 485.328 431.43 494.713C441.074 504.098 475.294 652.533 475.294 652.533L461.495 654.388C461.495 654.388 413.606 544.958 411.046 529.119C411.046 529.119 368.869 530.695 340.084 530.695C311.298 530.695 307.867 465.78 307.867 465.78L360.579 465.872Z" fill="#5600E2"/>
<path opacity="0.3" d="M475.294 652.551L461.495 654.406C461.495 654.406 441.909 609.651 427.127 573.243C418.762 552.711 411.955 534.831 411.046 529.119C411.046 529.119 381.853 530.194 355.404 530.565C350.062 530.565 344.851 530.677 340.01 530.677C311.224 530.677 307.793 465.761 307.793 465.761H360.505L361.469 476.055C361.469 476.055 421.729 485.199 431.355 494.602C440.981 504.006 475.294 652.551 475.294 652.551Z" fill="white"/>
<path d="M485.94 665.85C476.667 665.85 475.424 665.701 470.193 665.516C465.724 665.368 464.629 665.924 461.068 665.85C458.064 665.85 458.175 662.901 459.102 659.599C459.566 657.93 460.271 654.425 460.957 651.754L474.571 650.752C476.425 654.462 480.803 659.636 486.033 660.341C491.263 661.046 489.65 665.85 485.94 665.85Z" fill="#263238"/>
<path opacity="0.2" d="M427.127 573.317C418.762 552.785 411.955 534.906 411.046 529.193C411.046 529.193 381.853 530.269 355.404 530.64L352.548 480.209C352.548 480.209 389.791 485.551 414.83 507.122C418.001 509.792 424.178 551.097 427.127 573.317Z" fill="black"/>
<path d="M414.144 540.34H306.365V533.718C306.365 531.51 307.242 529.392 308.804 527.83C310.366 526.268 312.484 525.391 314.693 525.391H405.816C408.024 525.391 410.143 526.268 411.704 527.83C413.266 529.392 414.144 531.51 414.144 533.718V540.34Z" fill="#263238"/>
<path opacity="0.2" d="M414.144 540.34H306.365V533.718C306.365 531.51 307.242 529.392 308.804 527.83C310.366 526.268 312.484 525.391 314.693 525.391H405.816C408.024 525.391 410.143 526.268 411.704 527.83C413.266 529.392 414.144 531.51 414.144 533.718V540.34Z" fill="white"/>
<path d="M410.397 637.25L368.851 633.633V579.067H354.254V633.614L312.56 637.324C310.787 637.499 309.143 638.327 307.947 639.646C306.75 640.966 306.088 642.683 306.087 644.465V650.029H416.889V644.465C416.906 642.668 416.249 640.93 415.047 639.594C413.845 638.258 412.186 637.421 410.397 637.25Z" fill="#263238"/>
<path d="M319.515 656.799C319.515 658.688 318.955 660.535 317.905 662.105C316.856 663.676 315.364 664.9 313.618 665.623C311.873 666.346 309.952 666.536 308.1 666.167C306.247 665.798 304.545 664.889 303.209 663.553C301.873 662.217 300.963 660.515 300.595 658.662C300.226 656.809 300.415 654.889 301.138 653.143C301.861 651.398 303.085 649.906 304.656 648.857C306.227 647.807 308.074 647.247 309.963 647.247C312.496 647.247 314.926 648.253 316.717 650.044C318.509 651.836 319.515 654.265 319.515 656.799Z" fill="#263238"/>
<path d="M412.975 666.351C418.25 666.351 422.527 662.074 422.527 656.799C422.527 651.523 418.25 647.247 412.975 647.247C407.699 647.247 403.423 651.523 403.423 656.799C403.423 662.074 407.699 666.351 412.975 666.351Z" fill="#263238"/>
<path d="M351.731 536.779H371.373V583.314C371.373 585.139 370.648 586.889 369.358 588.18C368.067 589.47 366.317 590.195 364.492 590.195H358.631C356.806 590.195 355.056 589.47 353.765 588.18C352.475 586.889 351.75 585.139 351.75 583.314V536.779H351.731Z" fill="#263238"/>
<path opacity="0.2" d="M351.731 536.779H371.373V583.314C371.373 585.139 370.648 586.889 369.358 588.18C368.067 589.47 366.317 590.195 364.492 590.195H358.631C356.806 590.195 355.056 589.47 353.765 588.18C352.475 586.889 351.75 585.139 351.75 583.314V536.779H351.731Z" fill="white"/>
<path d="M305.604 542.065H414.885C416.739 542.065 418.242 540.562 418.242 538.708V537.947C418.242 536.093 416.739 534.59 414.885 534.59H305.604C303.75 534.59 302.247 536.093 302.247 537.947V538.708C302.247 540.562 303.75 542.065 305.604 542.065Z" fill="#263238"/>
<path opacity="0.2" d="M319.515 656.799C319.515 658.688 318.955 660.535 317.905 662.105C316.856 663.676 315.364 664.9 313.618 665.623C311.873 666.346 309.952 666.536 308.1 666.167C306.247 665.798 304.545 664.889 303.209 663.553C301.873 662.217 300.963 660.515 300.595 658.662C300.226 656.809 300.415 654.889 301.138 653.143C301.861 651.398 303.085 649.906 304.656 648.857C306.227 647.807 308.074 647.247 309.963 647.247C312.496 647.247 314.926 648.253 316.717 650.044C318.509 651.836 319.515 654.265 319.515 656.799Z" fill="white"/>
<path opacity="0.2" d="M412.975 666.351C418.25 666.351 422.527 662.074 422.527 656.799C422.527 651.523 418.25 647.247 412.975 647.247C407.699 647.247 403.423 651.523 403.423 656.799C403.423 662.074 407.699 666.351 412.975 666.351Z" fill="white"/>
<path d="M423.306 448.586H390.013C380.257 448.586 373.209 439.813 374.285 429.019L375.695 414.589C376.771 403.776 385.525 395.003 395.281 395.003H428.573C438.329 395.003 445.377 403.776 444.32 414.589L442.892 429.019C441.835 439.813 433.062 448.586 423.306 448.586Z" fill="#263238"/>
<path opacity="0.2" d="M423.306 448.586H390.013C380.257 448.586 373.209 439.813 374.285 429.019L375.695 414.589C376.771 403.776 385.525 395.003 395.281 395.003H428.573C438.329 395.003 445.377 403.776 444.32 414.589L442.892 429.019C441.835 439.813 433.062 448.586 423.306 448.586Z" fill="white"/>
<path d="M420.245 441.557H400.622C394.854 441.557 390.681 436.382 391.348 429.983L392.202 421.47C392.814 415.071 398.007 409.896 403.775 409.896H423.435C429.204 409.896 433.377 415.071 432.709 421.47L431.856 429.983C431.188 436.382 426.013 441.557 420.245 441.557Z" fill="#263238"/>
<path d="M404.628 428.833C404.628 428.833 400.14 519.066 380.702 534.553H401.494C401.494 534.553 420.041 503.82 421.395 428.833H404.628Z" fill="#263238"/>
<path d="M421.358 391.238L424.937 389.383C425.609 389.04 426.353 388.86 427.108 388.86C427.862 388.86 428.606 389.04 429.278 389.383L435.695 392.536C436.958 393.157 438.054 394.073 438.89 395.206C439.726 396.339 440.278 397.656 440.499 399.046L440.795 400.808C435.064 404.406 426.236 404.072 426.236 404.072L423.695 404.277C423.177 404.33 422.653 404.28 422.154 404.13C421.655 403.979 421.191 403.731 420.789 403.4C420.387 403.069 420.055 402.661 419.812 402.2C419.569 401.739 419.42 401.234 419.373 400.715L418.928 395.708C418.844 394.806 419.029 393.899 419.462 393.103C419.895 392.307 420.555 391.657 421.358 391.238Z" fill="#B97964"/>
<path opacity="0.2" d="M421.358 391.238L424.937 389.383C425.609 389.04 426.353 388.86 427.108 388.86C427.862 388.86 428.606 389.04 429.278 389.383L435.695 392.536C436.958 393.157 438.054 394.073 438.89 395.206C439.726 396.339 440.278 397.656 440.499 399.046L440.795 400.808C435.064 404.406 426.236 404.072 426.236 404.072L423.695 404.277C423.177 404.33 422.653 404.28 422.154 404.13C421.655 403.979 421.191 403.731 420.789 403.4C420.387 403.069 420.055 402.661 419.812 402.2C419.569 401.739 419.42 401.234 419.373 400.715L418.928 395.708C418.844 394.806 419.029 393.899 419.462 393.103C419.895 392.307 420.555 391.657 421.358 391.238Z" fill="black"/>
<path d="M395.058 395.652L382.075 412.066H369.723L371.336 389.16C380.684 390.96 395.058 395.652 395.058 395.652Z" fill="#5600E2"/>
<path opacity="0.2" d="M380.981 412.066H370.298L376.938 395.652C376.938 395.652 380.74 401.42 380.981 412.066Z" fill="black"/>
<path d="M361.376 472.067L307.014 467.022C308.72 461.235 310.222 455.56 311.484 450.088C313.079 443.393 314.34 436.975 315.341 430.985C316.343 424.994 317.196 419.43 317.79 414.385L317.957 412.957C317.957 412.159 318.142 411.38 318.216 410.638C318.754 405.76 319.088 401.513 319.311 398.007C319.774 391.164 319.774 387.213 319.774 387.213C338.4 383.646 357.622 384.787 375.694 390.533C383.781 413.309 361.376 472.067 361.376 472.067Z" fill="#5600E2"/>
<path d="M361.191 394.168C360.365 395.879 359.103 397.342 357.531 398.408C355.959 399.475 354.134 400.108 352.239 400.244C350.344 400.379 348.447 400.012 346.739 399.18C345.032 398.348 343.574 397.08 342.514 395.504L340.158 391.998L337.265 387.64C342.124 384.765 344.034 375.565 344.684 367.664C344.888 365.179 344.962 362.842 344.962 360.857L357.166 377.55C356.312 379.318 355.689 381.188 355.311 383.114C355.157 383.908 355.094 384.717 355.126 385.525C355.144 388.771 356.758 391.776 361.191 394.168Z" fill="#B97964"/>
<path opacity="0.2" d="M357.129 377.643C356.275 379.41 355.652 381.28 355.274 383.207C352.065 387.324 347.076 391.683 340.195 391.961L337.265 387.64C342.124 384.765 344.034 375.565 344.684 367.664C344.888 365.179 344.962 362.842 344.962 360.857L357.129 377.643Z" fill="black"/>
<path d="M327.806 349.766C327.806 349.766 321.778 347.503 323.558 343.33C325.339 339.157 327.491 339.194 327.491 339.194C326.579 337.488 326.084 335.59 326.046 333.656C326.007 331.722 326.426 329.807 327.268 328.065C330.254 322.501 336.857 324.764 336.857 324.764C336.883 323.016 337.503 321.329 338.616 319.981C339.728 318.633 341.266 317.703 342.978 317.345C344.724 317.056 346.517 317.345 348.084 318.169C349.651 318.993 350.906 320.305 351.658 321.908C351.658 321.908 355.812 316.51 361.896 317.994C367.979 319.478 369.203 327.954 369.203 327.954C370.865 327.412 372.672 327.532 374.247 328.289C375.822 329.045 377.045 330.38 377.661 332.016C378.488 333.723 378.834 335.624 378.661 337.513C378.487 339.402 377.802 341.208 376.678 342.736C376.678 342.736 380.554 340.882 381.834 347.132C383.114 353.383 376.585 358.873 376.585 358.873C376.585 358.873 380.109 359.299 378.292 363.918C376.474 368.536 370.743 368.61 370.743 368.61C370.743 368.61 372.969 369.741 368.758 373.544C364.548 377.346 350.99 371.911 350.99 371.911L327.806 349.766Z" fill="#263238"/>
<path d="M344.387 339.862C331.404 340.529 327.694 347.689 327.379 361.098C327.064 377.791 331.385 389.494 347.392 385.08C369.092 379.089 365.902 338.73 344.387 339.862Z" fill="#B97964"/>
<path d="M335.707 359.93C334.772 361.918 333.601 363.786 332.22 365.494C332.629 366.011 333.172 366.405 333.791 366.634C334.409 366.863 335.078 366.918 335.725 366.792L335.707 359.93Z" fill="#A24E3F"/>
<path d="M343.59 358.446C343.59 359.522 344.22 360.301 344.925 360.301C345.63 360.301 346.186 359.41 346.168 358.335C346.149 357.259 345.537 356.48 344.814 356.48C344.09 356.48 343.553 357.389 343.59 358.446Z" fill="#263238"/>
<path d="M345.11 356.536L342.773 355.682C342.773 355.682 343.979 357.611 345.11 356.536Z" fill="#263238"/>
<path d="M330.328 358.613C330.328 359.689 330.958 360.468 331.682 360.468C332.405 360.468 332.943 359.577 332.906 358.502C332.869 357.426 332.275 356.647 331.57 356.647C330.865 356.647 330.309 357.556 330.328 358.613Z" fill="#263238"/>
<path d="M331.867 356.684L329.512 355.849C329.512 355.849 330.736 357.76 331.867 356.684Z" fill="#263238"/>
<path d="M348.968 351.713C348.89 351.715 348.813 351.699 348.743 351.667C348.672 351.635 348.61 351.587 348.56 351.528C347.859 350.903 347.027 350.445 346.124 350.188C345.221 349.931 344.272 349.882 343.348 350.044C343.276 350.057 343.202 350.057 343.131 350.041C343.059 350.026 342.991 349.997 342.931 349.956C342.871 349.915 342.819 349.862 342.779 349.801C342.74 349.739 342.712 349.671 342.699 349.599C342.677 349.457 342.711 349.311 342.794 349.194C342.877 349.076 343.003 348.995 343.144 348.968C344.255 348.765 345.399 348.827 346.482 349.15C347.565 349.472 348.556 350.045 349.376 350.823C349.478 350.927 349.535 351.067 349.535 351.213C349.535 351.358 349.478 351.498 349.376 351.602C349.259 351.69 349.113 351.729 348.968 351.713Z" fill="#263238"/>
<path d="M328.696 351.324C328.612 351.323 328.528 351.305 328.451 351.27C328.375 351.235 328.306 351.184 328.251 351.12C328.162 351.002 328.124 350.853 328.145 350.707C328.166 350.561 328.244 350.429 328.362 350.341C329.124 349.701 330.019 349.241 330.982 348.994C331.945 348.747 332.951 348.719 333.926 348.913C333.998 348.934 334.064 348.969 334.121 349.016C334.178 349.063 334.226 349.121 334.26 349.187C334.295 349.253 334.316 349.325 334.322 349.398C334.329 349.472 334.32 349.547 334.297 349.617C334.251 349.754 334.153 349.866 334.025 349.932C333.897 349.998 333.749 350.011 333.611 349.97C332.796 349.823 331.958 349.86 331.159 350.078C330.36 350.297 329.62 350.69 328.993 351.231C328.904 351.289 328.802 351.321 328.696 351.324Z" fill="#263238"/>
<path d="M359.689 360.95C359.689 360.95 353.067 350.619 353.568 342.403C353.568 342.403 327.342 333.259 327.435 359.373C327.435 359.373 323.725 336.375 345.982 334.687C368.239 332.999 369.834 365.587 358.836 375.899C358.817 375.862 363.788 367.404 359.689 360.95Z" fill="#263238"/>
<path d="M357.723 363.806C357.739 363.057 357.904 362.318 358.207 361.632C358.51 360.947 358.946 360.328 359.488 359.811C360.031 359.294 360.671 358.889 361.37 358.62C362.07 358.351 362.816 358.222 363.565 358.242C367.608 358.483 369.945 366.625 360.06 369.129C358.65 369.519 357.76 368.165 357.723 363.806Z" fill="#B97964"/>
<path d="M338.841 374.341C338.47 374.368 338.098 374.368 337.728 374.341C337.656 374.328 337.588 374.3 337.526 374.26C337.465 374.221 337.412 374.169 337.371 374.109C337.33 374.048 337.301 373.981 337.285 373.909C337.27 373.838 337.269 373.764 337.283 373.692C337.294 373.621 337.319 373.553 337.357 373.492C337.395 373.43 337.445 373.378 337.504 373.336C337.563 373.294 337.629 373.265 337.7 373.25C337.77 373.235 337.843 373.234 337.914 373.247C339.311 373.492 340.75 373.26 341.998 372.587C343.247 371.914 344.232 370.839 344.795 369.537C344.821 369.469 344.861 369.407 344.912 369.354C344.963 369.301 345.024 369.259 345.091 369.23C345.158 369.201 345.23 369.185 345.304 369.184C345.377 369.182 345.45 369.195 345.518 369.222C345.586 369.249 345.648 369.289 345.701 369.34C345.754 369.39 345.796 369.451 345.825 369.518C345.855 369.586 345.87 369.658 345.872 369.731C345.873 369.804 345.86 369.877 345.833 369.945C345.264 371.311 344.287 372.466 343.035 373.253C341.783 374.04 340.318 374.42 338.841 374.341Z" fill="#263238"/>
<path d="M364.455 356.22C361.357 340.14 337.579 326.637 328.658 345.333C330.154 340.647 333.047 336.531 336.949 333.537C336.949 333.537 361.06 326.656 365.308 354.124L364.455 356.22Z" fill="#5600E2"/>
<path d="M351.787 665.85C342.513 665.85 341.271 665.701 336.04 665.516C331.57 665.368 330.476 665.924 326.915 665.85C323.91 665.85 324.021 662.901 324.949 659.599C325.413 657.93 326.117 654.425 326.804 651.754L340.417 650.752C342.272 654.462 346.649 659.636 351.88 660.341C357.11 661.046 355.478 665.85 351.787 665.85Z" fill="#263238"/>
<path d="M307.886 465.872C307.886 465.872 289.338 493.452 299.391 516.117C309.444 538.782 360.282 528.544 360.282 528.544L326.785 651.809L342.81 654.462C342.81 654.462 399.621 532.29 401.067 511.462C402.514 490.633 341.178 477.26 341.178 477.26L307.886 465.872Z" fill="#5600E2"/>
<path opacity="0.3" d="M307.886 465.872C307.886 465.872 289.338 493.452 299.391 516.117C309.444 538.782 360.282 528.544 360.282 528.544L326.785 651.809L342.81 654.462C342.81 654.462 399.621 532.29 401.067 511.462C402.514 490.633 341.178 477.26 341.178 477.26L307.886 465.872Z" fill="white"/>
<path opacity="0.2" d="M364.455 402.477C364.455 402.477 338.489 420.765 317.957 412.901C317.957 412.104 318.143 411.325 318.217 410.583C318.755 405.705 319.088 401.457 319.311 397.952C325.965 394.912 332.872 392.46 339.954 390.626C347.244 396.179 355.576 400.209 364.455 402.477Z" fill="black"/>
<path d="M328.287 387.25C339.713 392.814 351.509 399.732 363.954 402.273C371.113 401.81 379.126 398.898 386.322 396.932L407.893 390.403C408.817 390.112 409.816 390.176 410.695 390.582C411.575 390.989 412.271 391.708 412.649 392.6C413.026 393.492 413.058 394.493 412.738 395.407C412.417 396.321 411.768 397.083 410.916 397.544C404.183 401.253 397.395 404.666 390.365 407.782C381.685 411.343 373.673 415.498 363.88 416.388C360.365 416.347 356.872 415.836 353.493 414.867C342.091 411.522 331.113 406.873 320.776 401.012C319.131 399.936 317.95 398.282 317.467 396.377C316.983 394.472 317.232 392.454 318.165 390.724C319.098 388.994 320.646 387.677 322.503 387.034C324.361 386.39 326.392 386.468 328.195 387.25H328.287Z" fill="#B97864"/>
<path d="M322.149 385.191C312.152 387.565 311.818 404.722 320.999 412.771L343.255 393.983C343.255 393.983 334 382.372 322.149 385.191Z" fill="#5600E2"/>
<path d="M408.468 390.496L420.802 390.199L415.237 402.681C415.237 402.681 404.109 402.292 404.647 396.616L408.468 390.496Z" fill="#B97964"/>
<path d="M431.392 396.301L422.934 405.408L415.2 402.681L420.802 390.199L431.392 396.301Z" fill="#B97964"/>
<path d="M597.002 540.674C605.626 558.516 613.936 576.359 619.555 595.463C622.134 608.446 622.616 621.651 623.58 634.542C624.248 645.207 624.637 655.853 624.786 666.555L615.234 667.556C612.211 652.514 609.373 635.729 606.739 620.557C605.478 613.695 604.514 606.943 602.789 600.341C596.223 583.333 587.116 565.824 579.567 549.094L597.002 540.674Z" fill="#DC897C"/>
<path d="M611.246 564.025L596.13 571.258L586.745 575.802L581.051 562.114L575.098 547.777L580.124 521.644C595.555 528.395 611.246 564.025 611.246 564.025Z" fill="#5600E2"/>
<path opacity="0.2" d="M596.13 571.258L586.745 575.802L581.051 562.114C582.219 554.362 583.202 547.777 583.202 547.777C583.202 547.777 594.182 557.626 596.13 571.258Z" fill="black"/>
<path d="M550.856 474.256C551.023 475.369 551.746 476.11 552.469 476.11C553.193 476.11 553.638 475.016 553.471 473.903C553.304 472.79 552.562 472.049 551.839 472.049C551.116 472.049 550.578 473.161 550.856 474.256Z" fill="#263238"/>
<path d="M551.542 476.185C553.381 479.36 555.646 482.268 558.275 484.828C557.608 485.491 556.805 486.001 555.92 486.321C555.036 486.642 554.092 486.765 553.156 486.682L551.542 476.185Z" fill="#DE5753"/>
<path d="M545.755 468.747C545.59 468.741 545.431 468.675 545.31 468.562C545.19 468.437 545.123 468.271 545.123 468.098C545.123 467.925 545.19 467.759 545.31 467.634C546.036 466.89 546.932 466.332 547.92 466.009C548.908 465.686 549.96 465.607 550.986 465.78C551.07 465.797 551.15 465.831 551.221 465.88C551.292 465.929 551.353 465.991 551.4 466.064C551.446 466.137 551.478 466.218 551.493 466.302C551.508 466.387 551.506 466.474 551.487 466.558C551.469 466.643 551.435 466.723 551.386 466.794C551.337 466.865 551.275 466.926 551.202 466.972C551.13 467.019 551.048 467.051 550.964 467.066C550.879 467.08 550.792 467.078 550.708 467.059C549.892 466.943 549.061 467.024 548.283 467.295C547.506 467.566 546.804 468.019 546.238 468.617C546.17 468.67 546.092 468.708 546.01 468.73C545.927 468.753 545.84 468.758 545.755 468.747Z" fill="#263238"/>
<path d="M554.306 491.022C553.951 495.5 552.042 499.712 548.909 502.93C546.839 505.055 544.297 506.663 541.49 507.622C538.803 508.555 535.926 508.804 533.119 508.348C530.312 507.891 527.662 506.743 525.409 505.007C517.471 499.109 516.432 491.078 513.502 477.631C512.78 474.514 512.868 471.264 513.756 468.19C514.644 465.116 516.303 462.32 518.576 460.067C520.849 457.815 523.66 456.181 526.742 455.321C529.824 454.461 533.074 454.402 536.185 455.152C550.355 458.509 555.326 478.373 554.306 491.022Z" fill="#E4897B"/>
<path d="M518.602 499.573C524.166 503.078 545.199 493.23 541.73 476.667C541.73 476.667 550.021 467.597 549.613 457.155C549.205 446.713 542.194 442.317 534.553 444.283C527.764 445.934 527.783 449.625 527.783 449.625C527.783 449.625 495.956 451.869 502.113 465.056C488.574 478.522 511.758 495.214 518.602 499.573Z" fill="#263238"/>
<path d="M536.018 479.245C536.77 482.585 538.601 485.583 541.23 487.777C544.698 490.633 547.517 488.111 547.462 484.067C547.462 480.358 545.607 474.478 541.582 473.199C537.557 471.919 535.239 475.22 536.018 479.245Z" fill="#E4897B"/>
<path opacity="0.2" d="M553.341 495.696C552.415 498.405 550.901 500.875 548.908 502.93C546.838 505.055 544.296 506.663 541.489 507.622C539.603 506.668 537.792 505.57 536.073 504.34L538.892 497.421C538.892 497.421 547.535 501.65 553.341 495.696Z" fill="black"/>
<path d="M523.128 516.544L520.754 500.278C520.754 500.278 531.344 492.859 542.436 497.848L559.128 517.972L523.128 516.544Z" fill="#E4897B"/>
<path d="M561.057 515.969L557.18 510.163C557.18 510.163 529.063 499.758 516.803 513.094C516.803 513.094 544.234 527.598 561.057 515.969Z" fill="#5600E2"/>
<path opacity="0.2" d="M561.057 515.969L557.18 510.163C557.18 510.163 529.063 499.758 516.803 513.094C516.803 513.094 544.234 527.598 561.057 515.969Z" fill="black"/>
<path d="M453.092 673.677L442.502 666.851L446.564 660.786L457.599 644.316L468.209 651.142L456.004 669.337L453.092 673.677Z" fill="#E4897B"/>
<path d="M443.281 665.98L458.119 665.831C458.36 665.837 458.592 665.921 458.78 666.072C458.968 666.223 459.1 666.432 459.158 666.666L461.643 677.442C461.734 677.905 461.644 678.386 461.392 678.786C461.141 679.186 460.746 679.475 460.289 679.593H459.899C455.114 679.593 451.646 679.297 445.655 679.352C441.946 679.352 430.817 679.89 425.735 679.927C420.653 679.964 419.911 674.956 422.026 674.474C431.299 672.341 438.385 669.448 441.352 666.721C441.883 666.247 442.569 665.983 443.281 665.98Z" fill="#263238"/>
<path d="M446.138 656.687L465.538 661.918L570.85 582.016L516.822 570.183C512.963 569.357 508.944 569.726 505.299 571.24C501.655 572.754 498.558 575.342 496.42 578.659L446.138 656.687Z" fill="#263238"/>
<path opacity="0.2" d="M446.138 656.687L465.538 661.918L570.85 582.016L516.822 570.183C512.963 569.357 508.944 569.726 505.299 571.24C501.655 572.754 498.558 575.342 496.42 578.659L446.138 656.687Z" fill="black"/>
<path d="M388.567 674.066L377.624 667.816L381.371 661.547L391.516 644.52L402.459 650.771L391.238 669.578L388.567 674.066Z" fill="#E4897B"/>
<path d="M378.05 665.72H392.888C393.13 665.722 393.364 665.806 393.552 665.957C393.741 666.108 393.873 666.319 393.927 666.555L396.319 677.368C396.403 677.834 396.306 678.314 396.048 678.711C395.789 679.107 395.389 679.39 394.928 679.501H394.539C389.772 679.501 386.285 679.13 380.294 679.13C376.585 679.13 365.457 679.519 360.375 679.519C355.293 679.519 354.606 674.474 356.665 673.955C365.939 671.915 373.08 669.096 376.084 666.406C376.636 665.949 377.334 665.705 378.05 665.72Z" fill="#263238"/>
<path d="M596.26 623.97L522.627 624.155C520.772 617.627 518.436 594.906 511.239 566.807C509.292 559.184 506.973 551.172 504.247 542.955C501.982 535.524 499.231 528.25 496.012 521.18C502.674 517.153 509.995 514.334 517.638 512.853C550.226 507.289 580.124 521.644 580.124 521.644C580.124 521.644 593.051 557.626 596.26 623.97Z" fill="#5600E2"/>
<path opacity="0.2" d="M511.238 566.807C509.291 559.184 506.973 551.172 504.246 542.955L509.384 540.878C509.384 540.878 517.47 559.11 511.238 566.807Z" fill="black"/>
<path d="M479.022 579.419L487.573 583.462L490.837 569.07C490.837 569.07 484.012 566.677 478.893 570.164L479.022 579.419Z" fill="#E4897B"/>
<path d="M499.832 588.34L500.222 575.227L490.837 569.07L487.572 583.462L499.832 588.34Z" fill="#E4897B"/>
<path d="M505.674 543.715C491.449 551.413 475.201 558.553 462.83 568.625C462.552 568.866 462.644 568.977 462.96 567.901C463.019 567.217 462.93 566.527 462.7 565.88C462.495 565.174 462.04 564.568 461.42 564.173C461.179 564.08 461.328 564.303 461.661 564.526C462.125 564.815 462.616 565.057 463.127 565.249C468.839 567.419 476.759 568.142 483.158 568.958L484.122 578.51C482.101 579.085 480.209 579.475 478.224 579.846C470.805 581.126 463.108 582.034 455.3 579.456C451.944 578.447 449.113 576.171 447.406 573.111C445.699 570.05 445.251 566.446 446.156 563.06C449.977 549.502 484.549 532.587 497.235 526.3L505.674 543.734V543.715Z" fill="#DC897C"/>
<path d="M519.159 608.483L515.857 616.94C515.857 616.94 476.407 568.198 454.651 565.416C432.895 562.634 382.316 655.259 382.316 655.259L401.494 661.065L455.467 612.1C477.724 650.938 504.339 679.426 535.981 679.426H566.881C601.435 679.426 601.824 640.885 594.999 608.205L519.159 608.483Z" fill="#263238"/>
<path d="M496.011 521.18C483.64 525.706 469.099 539.431 469.099 539.431C469.099 539.431 481.34 560.649 482.564 559.833C483.788 559.017 508.901 551.821 508.901 551.821C508.901 551.821 514.02 545.181 510.088 533.941C509.066 530.767 507.227 527.918 504.756 525.678C502.285 523.439 499.27 521.888 496.011 521.18Z" fill="#5600E2"/>
<path d="M620.242 660.156L633.689 660.823L626.585 673.955C626.585 673.955 614.622 672.638 615.568 666.536L620.242 660.156Z" fill="#E4897B"/>
<path d="M644.706 668.317L634.783 677.535L626.585 673.955L633.689 660.823L644.706 668.317Z" fill="#E4897B"/>
<path d="M203.502 527.153C212.516 536.241 221.4 546.423 232.194 553.304C232.194 553.304 232.862 553.657 232.918 553.712C232.627 553.605 232.319 553.554 232.009 553.564C231.731 553.564 232.176 553.564 232.658 553.564C244.973 550.077 256.417 542.046 267.75 535.87C268.627 535.342 269.668 535.154 270.674 535.343C271.68 535.533 272.582 536.085 273.208 536.896C273.833 537.707 274.138 538.72 274.066 539.741C273.993 540.763 273.547 541.722 272.813 542.436C263.984 550.615 240.188 572.482 227.687 567.901C220.046 565.101 213.666 559.833 207.656 554.77C201.786 549.682 196.254 544.217 191.093 538.411C184.027 530.009 195.823 519.307 203.502 527.171V527.153Z" fill="#E9B376"/>
<path d="M219.007 539.987C217.431 551.784 207.879 563.357 207.879 563.357L205.876 561.985L196.12 555.512C196.12 555.512 195.934 554.955 195.656 553.972C195.378 552.989 195.025 551.839 194.599 550.263C192.355 542.399 188.311 527.691 187.811 521.588C199.922 521.31 205.375 527.078 219.007 539.987Z" fill="#5600E2"/>
<path opacity="0.7" d="M219.007 539.987C217.431 551.784 207.879 563.357 207.879 563.357L205.876 561.985L196.12 555.512C196.12 555.512 195.934 554.955 195.656 553.972C195.378 552.989 195.025 551.839 194.599 550.263C192.355 542.399 188.311 527.691 187.811 521.588C199.922 521.31 205.375 527.078 219.007 539.987Z" fill="white"/>
<path opacity="0.2" d="M205.876 561.985L196.12 555.512C196.12 555.512 195.934 554.955 195.656 553.972C196.018 550.986 196.563 548.025 197.288 545.106C199.859 547.128 201.958 549.685 203.441 552.6C204.924 555.514 205.755 558.717 205.876 561.985Z" fill="black"/>
<path d="M194.005 598.152L202.333 612.73C224.59 607.537 296.146 596.631 304.918 621.169C315.843 651.642 236.961 675.958 193.319 677.442C149.677 678.926 111.6 668.539 139.198 604.903L194.005 598.152Z" fill="#263238"/>
<path opacity="0.2" d="M194.005 598.152L202.333 612.73C224.59 607.537 296.146 596.631 304.918 621.169C315.843 651.642 236.961 675.958 193.319 677.442C149.677 678.926 111.6 668.539 139.198 604.903L194.005 598.152Z" fill="black"/>
<path d="M292.287 664.255C292.237 664.286 292.179 664.302 292.12 664.302C292.061 664.302 292.004 664.286 291.953 664.255C291.927 664.213 291.913 664.165 291.913 664.116C291.913 664.066 291.927 664.018 291.953 663.976C292.102 663.494 293.549 659.302 295.014 658.857C295.168 658.82 295.328 658.822 295.481 658.864C295.634 658.907 295.773 658.987 295.886 659.098C296.087 659.268 296.24 659.488 296.331 659.735C296.422 659.982 296.448 660.248 296.405 660.508C296.166 661.297 295.686 661.99 295.032 662.493C294.18 663.173 293.261 663.763 292.287 664.255ZM292.658 663.457C294.021 662.865 295.122 661.797 295.756 660.452C295.797 660.278 295.786 660.094 295.723 659.926C295.66 659.758 295.549 659.612 295.403 659.506C295.362 659.455 295.307 659.417 295.244 659.398C295.181 659.378 295.114 659.377 295.051 659.395C294.927 659.441 294.814 659.51 294.717 659.599C293.802 660.749 293.104 662.057 292.658 663.457Z" fill="#263238"/>
<path d="M292.195 664.31C292.159 664.34 292.113 664.357 292.065 664.357C292.018 664.357 291.972 664.34 291.935 664.31C291.787 664.199 289.784 661.658 290.081 659.933C290.116 659.719 290.196 659.515 290.314 659.333C290.432 659.151 290.586 658.995 290.767 658.876C290.924 658.734 291.122 658.647 291.333 658.627C291.543 658.607 291.755 658.655 291.935 658.765C292.993 659.525 292.863 662.919 292.344 664.218V664.347L292.195 664.31ZM291.064 659.34C290.878 659.488 290.753 659.699 290.711 659.933C290.767 661.218 291.243 662.45 292.065 663.439C292.381 661.992 292.288 659.599 291.657 659.173C291.657 659.173 291.472 659.024 291.156 659.173V659.265L291.064 659.34Z" fill="#263238"/>
<path d="M215.558 671.414C215.586 671.367 215.628 671.33 215.677 671.307C215.727 671.284 215.782 671.276 215.836 671.284C215.886 671.288 215.933 671.308 215.97 671.341C216.007 671.375 216.032 671.42 216.04 671.47C216.151 671.97 216.912 676.347 215.854 677.442C215.735 677.548 215.59 677.621 215.434 677.654C215.278 677.686 215.116 677.677 214.964 677.627C214.703 677.584 214.459 677.47 214.259 677.296C214.059 677.122 213.912 676.897 213.833 676.644C213.65 675.848 213.734 675.013 214.074 674.27C214.468 673.269 214.965 672.312 215.558 671.414ZM215.558 672.304C214.655 673.481 214.201 674.941 214.278 676.422C214.329 676.6 214.432 676.759 214.574 676.878C214.716 676.997 214.891 677.071 215.075 677.089C215.128 677.124 215.189 677.143 215.252 677.143C215.314 677.143 215.376 677.124 215.428 677.089C215.511 676.992 215.574 676.878 215.613 676.756C215.891 675.285 215.891 673.775 215.613 672.304H215.558Z" fill="#263238"/>
<path d="M244.12 649.324L226.167 655.723L217.542 658.802L219.749 668.242L228.095 666.462L248.498 662.103L244.12 649.324Z" fill="#EBB376"/>
<path d="M222.104 668.688L220.583 657.559C220.563 657.412 220.513 657.271 220.438 657.143C220.362 657.016 220.262 656.905 220.142 656.817C220.023 656.729 219.888 656.665 219.744 656.63C219.599 656.595 219.45 656.59 219.304 656.613L213.739 657.541C213.739 657.541 206.32 658.227 204.781 660.156C200.441 665.72 203.149 690.462 206.042 691.334C207.099 691.649 208.212 690.202 208.676 689.201C210.141 686.011 212.719 677.683 213.98 675.049C215.427 671.952 219.545 670.45 221.251 669.912C221.52 669.85 221.756 669.69 221.913 669.464C222.071 669.238 222.139 668.961 222.104 668.688Z" fill="#5600E2"/>
<path d="M215.595 671.414C215.635 671.385 215.684 671.37 215.734 671.37C215.784 671.37 215.832 671.385 215.873 671.414C216.04 671.414 219.045 672.712 219.582 674.363C219.648 674.57 219.672 674.788 219.652 675.005C219.633 675.221 219.572 675.432 219.471 675.624C219.412 675.83 219.284 676.008 219.108 676.13C218.932 676.252 218.72 676.309 218.507 676.292C217.227 676.143 215.687 673.102 215.521 671.729V671.414C215.545 671.409 215.57 671.409 215.595 671.414ZM219.007 675.216C219.081 674.987 219.081 674.74 219.007 674.511C218.655 673.454 216.986 672.527 216.133 672.1C216.541 673.528 217.783 675.569 218.544 675.643C218.544 675.643 218.766 675.643 218.933 675.327V675.216H219.007Z" fill="#263238"/>
<path opacity="0.2" d="M244.12 649.324L226.166 655.723L228.095 666.462L248.497 662.103L244.12 649.324Z" fill="black"/>
<path d="M231.285 668.075L236.442 668.446L232.992 650.678L227.131 653.905L231.285 668.075Z" fill="#5600E2"/>
<path opacity="0.6" d="M231.285 668.075L236.442 668.446L232.992 650.678L227.131 653.905L231.285 668.075Z" fill="white"/>
<path opacity="0.2" d="M156.373 599.079L183.267 628.903C183.267 628.903 212.942 628.236 249.11 645.893C249.11 645.893 287.855 629.886 291.416 616.588C296.09 599.172 202.389 612.786 202.389 612.786L156.373 599.079Z" fill="black"/>
<path d="M193.728 611.005L138.883 604.643C139.933 598.98 140.554 593.245 140.738 587.487C140.958 579.283 140.635 571.074 139.773 562.912C139.013 555.104 137.919 546.127 136.064 535.592C135.693 533.708 135.748 531.765 136.225 529.905C136.703 528.045 137.59 526.315 138.822 524.843C140.055 523.371 141.601 522.192 143.348 521.395C145.094 520.598 146.997 520.201 148.917 520.234C151.124 520.234 153.443 520.346 155.817 520.494C164.215 520.87 172.577 521.843 180.837 523.406C183.508 523.944 186.272 524.612 188.924 525.261C198.439 527.728 204.337 539.709 203.521 549.372C203.2 556.882 202.369 564.362 201.035 571.759C199.347 582.665 197.363 593.311 193.728 611.005Z" fill="#5600E2"/>
<path opacity="0.7" d="M193.728 611.005L138.883 604.643C139.933 598.98 140.554 593.245 140.738 587.487C140.958 579.283 140.635 571.074 139.773 562.912C139.013 555.104 137.919 546.127 136.064 535.592C135.693 533.708 135.748 531.765 136.225 529.905C136.703 528.045 137.59 526.315 138.822 524.843C140.055 523.371 141.601 522.192 143.348 521.395C145.094 520.598 146.997 520.201 148.917 520.234C151.124 520.234 153.443 520.346 155.817 520.494C164.215 520.87 172.577 521.843 180.837 523.406C183.508 523.944 186.272 524.612 188.924 525.261C198.439 527.728 204.337 539.709 203.521 549.372C203.2 556.882 202.369 564.362 201.035 571.759C199.347 582.665 197.363 593.311 193.728 611.005Z" fill="white"/>
<path opacity="0.2" d="M140.774 587.506C140.994 579.302 140.672 571.092 139.81 562.93C146.672 554.825 153.164 548.093 153.164 548.093C153.164 548.093 163.921 575.784 140.774 587.506Z" fill="black"/>
<path d="M149.436 545.088C150.066 556.828 149.955 575.098 152.088 586.319L151.532 584.946C151.161 584.408 151.383 584.946 151.773 585.243C152.274 585.74 152.807 586.205 153.368 586.634C160.787 592.198 169.689 596.483 178.054 600.915L188.608 606.35C189.523 606.809 190.237 607.588 190.615 608.539C190.993 609.49 191.008 610.547 190.658 611.508C190.308 612.47 189.616 613.27 188.715 613.755C187.814 614.24 186.766 614.377 185.77 614.14C181.745 613.175 177.887 612.025 173.974 610.838C162.845 607.129 151.42 603.568 141.85 596.316C139.981 594.864 138.528 592.945 137.64 590.752C133.355 575.543 133.021 560.853 132.706 545.348C133.096 534.534 148.75 534.33 149.399 545.144L149.436 545.088Z" fill="#E9B376"/>
<path d="M203.409 605.682L200.07 603.252C199.452 602.804 198.735 602.512 197.979 602.399C197.224 602.286 196.453 602.356 195.73 602.603L188.868 604.903C187.515 605.361 186.291 606.135 185.297 607.161C184.304 608.187 183.569 609.435 183.155 610.801L182.636 612.526C187.903 616.903 196.824 617.775 196.824 617.775L199.328 618.294C199.841 618.418 200.373 618.439 200.894 618.355C201.415 618.272 201.915 618.086 202.363 617.808C202.812 617.53 203.201 617.166 203.507 616.737C203.814 616.308 204.033 615.822 204.151 615.308L205.264 610.338C205.442 609.465 205.362 608.56 205.032 607.732C204.703 606.905 204.138 606.192 203.409 605.682Z" fill="#EBB376"/>
<path d="M144.428 520.995C133.708 524.834 130.629 534.182 130.406 553.675C135.97 558.739 152.867 559.017 152.867 559.017C152.867 559.017 155.798 529.453 144.428 520.995Z" fill="#5600E2"/>
<path d="M274.297 616.421V620.835C274.297 621.967 272.962 622.43 271.83 622.43H183.619C182.469 622.43 181.115 621.967 181.115 620.835V616.421H274.297Z" fill="#263238"/>
<path opacity="0.4" d="M274.297 616.421V620.835C274.297 621.967 272.962 622.43 271.83 622.43H183.619C182.469 622.43 181.115 621.967 181.115 620.835V616.421H274.297Z" fill="white"/>
<path opacity="0.2" d="M274.297 616.421V620.835C274.297 621.967 272.962 622.43 271.83 622.43H213.592C212.46 622.43 211.106 621.967 211.106 620.835V616.421H274.297Z" fill="black"/>
<path d="M289.079 570.535L278.563 618.22C278.368 618.982 277.929 619.66 277.313 620.149C276.696 620.638 275.937 620.912 275.15 620.928H217.653C217.295 620.918 216.945 620.826 216.628 620.658C216.312 620.49 216.039 620.251 215.831 619.96C215.622 619.669 215.484 619.334 215.427 618.98C215.37 618.627 215.396 618.265 215.502 617.923L225.999 570.609C226.214 569.887 226.67 569.261 227.291 568.835C227.913 568.41 228.662 568.211 229.412 568.272H286.909C288.448 568.272 289.339 568.977 289.079 570.535Z" fill="#263238"/>
<path opacity="0.4" d="M289.079 570.535L278.563 618.22C278.368 618.982 277.929 619.66 277.313 620.149C276.696 620.638 275.937 620.912 275.15 620.928H219.656C219.298 620.917 218.948 620.825 218.631 620.657C218.315 620.489 218.041 620.251 217.831 619.96C217.621 619.67 217.481 619.335 217.421 618.982C217.362 618.629 217.384 618.267 217.486 617.923L228.003 570.609C228.217 569.887 228.673 569.261 229.295 568.835C229.916 568.41 230.665 568.211 231.415 568.272H286.909C288.449 568.272 289.339 568.977 289.079 570.535Z" fill="white"/>
<path opacity="0.2" d="M260.757 594.758C260.574 596.692 259.711 598.498 258.322 599.856C256.934 601.214 255.109 602.036 253.171 602.177C249.963 602.177 248.052 598.857 248.98 594.758C249.907 590.659 253.079 587.487 256.213 587.339C255.304 591.419 257.27 594.758 260.46 594.758H260.757Z" fill="black"/>
<path d="M269.864 543.957L282.217 544.272L276.652 531.771C276.652 531.771 265.635 532.16 266.062 537.836L269.864 543.957Z" fill="#EBB376"/>
<path d="M292.807 538.188L284.349 529.063L276.615 531.771L282.217 544.272L292.807 538.188Z" fill="#EBB376"/>
<path d="M153.108 520.364C151.847 520.272 155.705 535.759 174.438 539.579C193.17 543.4 191.724 526.17 190.258 521.848C190.258 521.848 165.628 521.18 153.108 520.364Z" fill="#EBB376"/>
<path d="M158.246 459.807C158.246 459.807 168.985 447.9 188.626 454.039C208.268 460.178 207.433 495.233 197.455 507.956C181.827 507.408 166.194 508.866 150.938 512.296C150.938 512.296 141.479 486.868 146.171 471.919C150.864 456.97 158.246 459.807 158.246 459.807Z" fill="#263238"/>
<path d="M162.197 494.769C163.439 503.041 164.404 518.027 158.487 522.775C158.487 522.775 166.203 522.516 181.171 534.349C186.605 528.191 183.396 525.65 183.396 525.65C174.549 522.479 175.05 515.802 176.849 509.7L162.197 494.769Z" fill="#EBB376"/>
<path opacity="0.2" d="M168.206 500.871L176.941 509.7C176.501 511.129 176.184 512.593 175.995 514.077C172.601 513.187 168.057 508.865 167.853 505.211C167.709 503.755 167.828 502.285 168.206 500.871Z" fill="black"/>
<path d="M157.207 477.891C158.135 491.115 158.264 496.716 164.923 503.857C174.957 514.466 190.889 511.276 193.764 498.293C196.453 486.571 194.469 466.911 181.634 461.106C178.927 459.765 175.911 459.172 172.898 459.387C169.884 459.602 166.983 460.617 164.493 462.328C162.004 464.039 160.016 466.383 158.735 469.119C157.454 471.855 156.927 474.883 157.207 477.891Z" fill="#EBB376"/>
<path d="M173.492 481.953C173.492 483.084 174.104 483.993 174.827 484.03C175.551 484.067 176.07 483.177 176.052 482.064C176.033 480.951 175.421 480.024 174.716 480.005C174.011 479.987 173.455 480.84 173.492 481.953Z" fill="#263238"/>
<path d="M187.328 482.101C187.328 483.214 187.959 484.141 188.664 484.178C189.368 484.216 189.906 483.325 189.888 482.212C189.869 481.1 189.257 480.172 188.552 480.154C187.847 480.135 187.328 480.988 187.328 482.101Z" fill="#263238"/>
<path d="M188.182 480.191L190.76 479.523C190.76 479.523 189.48 481.563 188.182 480.191Z" fill="#263238"/>
<path d="M183.137 484.382C184.174 486.966 185.532 489.409 187.18 491.653C186.624 492.031 185.991 492.28 185.326 492.379C184.661 492.479 183.983 492.427 183.341 492.228L183.137 484.382Z" fill="#D58745"/>
<path d="M171.266 474.905C171.35 474.918 171.435 474.912 171.516 474.886C171.597 474.86 171.67 474.816 171.73 474.756C172.309 474.221 173.013 473.838 173.777 473.644C174.542 473.449 175.343 473.449 176.107 473.644C176.185 473.669 176.267 473.678 176.349 473.67C176.43 473.662 176.509 473.637 176.581 473.597C176.652 473.557 176.715 473.502 176.764 473.437C176.813 473.371 176.849 473.297 176.868 473.217C176.914 473.045 176.891 472.862 176.805 472.706C176.718 472.55 176.575 472.434 176.404 472.382C175.436 472.123 174.418 472.112 173.445 472.352C172.472 472.592 171.576 473.075 170.84 473.755C170.721 473.876 170.654 474.039 170.654 474.209C170.654 474.379 170.721 474.542 170.84 474.664C170.946 474.795 171.099 474.881 171.266 474.905Z" fill="#263238"/>
<path d="M192.707 475.016C192.857 475.073 193.022 475.073 193.171 475.016C193.243 474.971 193.305 474.912 193.354 474.842C193.402 474.772 193.436 474.694 193.453 474.61C193.471 474.527 193.471 474.441 193.454 474.358C193.438 474.275 193.404 474.196 193.357 474.126C192.847 473.211 192.133 472.425 191.271 471.83C190.409 471.235 189.422 470.847 188.386 470.695C188.303 470.689 188.22 470.701 188.143 470.73C188.065 470.759 187.994 470.803 187.935 470.861C187.876 470.919 187.829 470.988 187.798 471.065C187.767 471.142 187.752 471.224 187.755 471.307C187.758 471.48 187.824 471.647 187.939 471.776C188.055 471.906 188.214 471.989 188.386 472.011C189.206 472.136 189.985 472.449 190.664 472.925C191.343 473.401 191.903 474.028 192.299 474.756C192.347 474.824 192.407 474.882 192.477 474.927C192.547 474.971 192.626 475.002 192.707 475.016Z" fill="#263238"/>
<path d="M174.345 480.042L176.923 479.393C176.923 479.393 175.699 481.415 174.345 480.042Z" fill="#263238"/>
<path d="M159.952 485.829C159.952 485.829 170.153 477.817 167.835 465.279C167.835 465.279 186.085 458.064 193.282 476.407C193.282 476.407 194.803 460.679 177.646 457.6C160.49 454.521 140.181 477.78 159.618 495.418L159.952 485.829Z" fill="#263238"/>
<path d="M152.997 488.574C153.659 489.801 154.556 490.885 155.639 491.764C156.721 492.642 157.966 493.298 159.303 493.693C162.771 494.639 164.329 491.227 163.216 487.703C162.196 484.531 159.173 480.284 155.797 480.821C152.422 481.359 151.272 485.44 152.997 488.574Z" fill="#EBB376"/>
<path d="M195.285 484.197C195.202 484.196 195.12 484.169 195.054 484.119C194.987 484.069 194.938 483.999 194.914 483.919C188.367 460.864 166.759 465.613 166.537 465.65C166.489 465.661 166.44 465.662 166.392 465.654C166.344 465.646 166.298 465.629 166.256 465.603C166.215 465.577 166.179 465.543 166.151 465.503C166.123 465.464 166.103 465.419 166.092 465.371C166.081 465.324 166.079 465.275 166.087 465.227C166.095 465.179 166.113 465.133 166.138 465.091C166.164 465.05 166.198 465.014 166.238 464.986C166.277 464.957 166.322 464.937 166.37 464.926C166.592 464.926 188.905 459.974 195.637 483.715C195.652 483.762 195.656 483.812 195.65 483.861C195.645 483.911 195.63 483.958 195.605 484.001C195.581 484.045 195.549 484.083 195.51 484.113C195.47 484.143 195.426 484.166 195.378 484.178L195.285 484.197Z" fill="#263238"/>
<path d="M183.99 496.067C183.342 497.583 182.809 499.146 182.395 500.741H181.523C177.61 500.315 175.959 498.886 175.254 497.31C174.938 496.561 174.805 495.747 174.865 494.936C174.893 494.475 174.98 494.02 175.124 493.582C177.432 494.918 180 495.74 182.654 495.993C183.471 496.03 183.99 496.067 183.99 496.067Z" fill="#263238"/>
<path d="M182.654 495.919L182.153 497.273C178.444 496.883 175.903 496.104 174.864 494.862C174.893 494.401 174.98 493.946 175.124 493.508C177.432 494.843 180 495.666 182.654 495.919Z" fill="white"/>
<path d="M181.523 500.667C177.609 500.24 175.959 498.812 175.254 497.236C176.741 497.428 178.183 497.874 179.52 498.553C180.39 499.033 181.09 499.772 181.523 500.667Z" fill="#DE5753"/>
<path d="M180.892 557.867C180.833 557.871 180.774 557.861 180.72 557.838C180.665 557.816 180.616 557.781 180.577 557.737C170.722 547.171 163.291 534.581 158.802 520.847C158.774 520.733 158.791 520.614 158.85 520.513C158.909 520.413 159.005 520.339 159.118 520.309C159.173 520.295 159.23 520.292 159.285 520.301C159.341 520.309 159.395 520.328 159.443 520.358C159.492 520.387 159.534 520.426 159.567 520.471C159.6 520.517 159.624 520.569 159.637 520.624C164.006 533.981 171.191 546.246 180.707 556.587C181.82 552.878 186.438 535.258 179.483 521.755C179.449 521.655 179.452 521.546 179.491 521.447C179.531 521.349 179.604 521.268 179.698 521.219C179.792 521.169 179.9 521.155 180.004 521.179C180.107 521.203 180.198 521.262 180.262 521.347C188.219 536.797 181.375 557.366 181.3 557.57C181.276 557.642 181.234 557.706 181.179 557.758C181.125 557.809 181.058 557.847 180.985 557.867H180.892Z" fill="#263238"/>
<path d="M181.467 557.088L182.876 558.943C183.003 559.101 183.072 559.297 183.072 559.499C183.072 559.701 183.003 559.898 182.876 560.056L181.448 561.91C181.363 562.012 181.257 562.093 181.136 562.149C181.016 562.205 180.885 562.234 180.753 562.234C180.62 562.234 180.489 562.205 180.369 562.149C180.249 562.093 180.143 562.012 180.057 561.91L178.722 560.389C178.605 560.235 178.541 560.046 178.541 559.852C178.541 559.657 178.605 559.468 178.722 559.314L179.909 557.162C179.987 557.028 180.097 556.915 180.229 556.834C180.362 556.754 180.513 556.707 180.668 556.7C180.823 556.693 180.977 556.724 181.117 556.792C181.256 556.86 181.377 556.962 181.467 557.088Z" fill="white"/>
<path opacity="0.7" d="M144.428 520.995C133.708 524.834 130.629 534.182 130.406 553.675C135.97 558.739 152.867 559.017 152.867 559.017C152.867 559.017 155.798 529.453 144.428 520.995Z" fill="white"/>
<path d="M256.584 669.763L275.391 672.861L284.424 674.344L287.057 665.015L278.896 662.53L258.94 656.465L256.584 669.763Z" fill="#EBB376"/>
<path d="M285.221 663.494L281.159 673.955C281.106 674.095 281.081 674.244 281.086 674.394C281.09 674.543 281.125 674.691 281.187 674.827C281.249 674.963 281.338 675.086 281.447 675.188C281.557 675.29 281.686 675.369 281.827 675.42L287.076 677.275C287.076 677.275 293.957 680.28 296.183 679.315C302.693 676.514 312.282 653.571 310.167 651.494C309.388 650.696 307.719 651.494 306.829 652.087C304.009 654.165 297.722 660.193 295.348 661.899C292.566 663.902 288.318 663.272 286.482 662.882C286.234 662.816 285.97 662.842 285.738 662.954C285.507 663.067 285.323 663.258 285.221 663.494Z" fill="#5600E2"/>
<path opacity="0.2" d="M256.584 669.763L275.391 672.861L278.896 662.53L258.94 656.465L256.584 669.763Z" fill="black"/>
<path d="M275.651 660.582C275.651 660.582 198.976 617.478 172.49 618.702C146.005 619.926 142.221 643.259 153.127 657.856C164.033 672.453 184.212 676.014 184.212 676.014C184.212 676.014 170.506 656.576 172.49 651.16C174.475 645.744 182.228 653.312 182.228 653.312C182.228 653.312 230.451 668.892 272.683 672.471L275.651 660.582Z" fill="#263238"/>
<path d="M276.894 659.395L272.553 656.483L266.971 673.602H273.666L276.894 659.395Z" fill="#5600E2"/>
<path opacity="0.6" d="M276.894 659.395L272.553 656.483L266.971 673.602H273.666L276.894 659.395Z" fill="white"/>
</svg>
