<svg width="20" height="20" viewBox="0 0 20 20" fill="none" xmlns="http://www.w3.org/2000/svg">
<g clip-path="url(#clip0_58_16988)">
<path fill-rule="evenodd" clip-rule="evenodd" d="M13.6737 1.79548C14.2898 1.80297 14.9 1.91538 15.4778 2.12783C15.8968 2.28841 16.2774 2.5344 16.5949 2.84997C16.9125 3.16554 17.1601 3.54369 17.3217 3.96008C17.5355 4.53427 17.6486 5.14063 17.6561 5.75281C17.7024 6.77098 17.7126 7.07621 17.7126 9.65359C17.7126 12.231 17.7028 12.5362 17.6561 13.5544C17.6486 14.1666 17.5355 14.7729 17.3217 15.3471C17.1601 15.7635 16.9125 16.1416 16.5949 16.4572C16.2774 16.7728 15.8968 17.0188 15.4778 17.1794C14.9 17.3918 14.2898 17.5042 13.6737 17.5117C12.6496 17.5577 12.3424 17.5678 9.74823 17.5678C7.15405 17.5678 6.84689 17.5581 5.82273 17.5117C5.20667 17.5042 4.59647 17.3918 4.01865 17.1794C3.59962 17.0188 3.21907 16.7728 2.9015 16.4572C2.58393 16.1416 2.33638 15.7635 2.17478 15.3471C1.96099 14.7729 1.84787 14.1666 1.84033 13.5544C1.79407 12.5362 1.7839 12.231 1.7839 9.65359C1.7839 7.07621 1.79361 6.77098 1.84033 5.75281C1.84787 5.14063 1.96099 4.53427 2.17478 3.96008C2.33638 3.54369 2.58393 3.16554 2.9015 2.84997C3.21907 2.5344 3.59962 2.28841 4.01865 2.12783C4.59647 1.91538 5.20667 1.80297 5.82273 1.79548C6.84735 1.74952 7.15451 1.7394 9.74823 1.7394C12.3419 1.7394 12.6491 1.74906 13.6737 1.79548ZM5.74316 0.0579188C4.9369 0.0738547 4.13919 0.225553 3.38398 0.50656C2.73613 0.749114 2.14933 1.12922 1.66455 1.62035C1.16986 2.10226 0.787021 2.68568 0.542779 3.32987C0.259992 4.08033 0.107333 4.87302 0.0912962 5.6742C0.0450376 6.70295 0.0339355 7.033 0.0339355 9.65313C0.0339355 12.2733 0.0450376 12.6033 0.0922213 13.633C0.108258 14.4342 0.260917 15.2269 0.543705 15.9773C0.787676 16.6214 1.17019 17.2048 1.66455 17.6868C2.1496 18.1781 2.73672 18.5582 3.3849 18.8006C4.14012 19.0816 4.93782 19.2333 5.74409 19.2493C6.78028 19.2952 7.11103 19.3072 9.74915 19.3072C12.3873 19.3072 12.718 19.2962 13.7542 19.2493C14.5605 19.2333 15.3582 19.0816 16.1134 18.8006C16.7585 18.5521 17.3443 18.1726 17.8334 17.6863C18.3225 17.2 18.704 16.6176 18.9537 15.9764C19.2365 15.2259 19.3891 14.4333 19.4052 13.6321C19.4514 12.6033 19.4625 12.2733 19.4625 9.65313C19.4625 7.033 19.4514 6.70295 19.4042 5.67329C19.3882 4.8721 19.2355 4.07941 18.9527 3.32895C18.7088 2.68485 18.3263 2.10143 17.8319 1.61943C17.3468 1.12819 16.7597 0.748076 16.1115 0.50564C15.3563 0.224633 14.5586 0.0729354 13.7524 0.0569995C12.7171 0.0110322 12.385 0 9.74823 0C7.11149 0 6.77935 0.0110321 5.74316 0.0579188Z" fill="#EEE6FC"/>
<path fill-rule="evenodd" clip-rule="evenodd" d="M6.97462 5.53171C6.15426 6.07641 5.51487 6.8506 5.1373 7.7564C4.75973 8.66219 4.66094 9.6589 4.85342 10.6205C5.04591 11.5821 5.52102 12.4653 6.21867 13.1586C6.91633 13.8519 7.8052 14.324 8.77288 14.5153C9.74056 14.7065 10.7436 14.6084 11.6551 14.2332C12.5666 13.858 13.3457 13.2226 13.8939 12.4074C14.442 11.5922 14.7346 10.6338 14.7346 9.6534C14.7346 8.3387 14.209 7.07783 13.2735 6.14819C12.338 5.21856 11.0691 4.69629 9.74609 4.69629C8.75945 4.69629 7.79497 4.98702 6.97462 5.53171ZM7.9471 12.3288C7.4146 11.9753 6.99956 11.4727 6.75448 10.8848C6.50939 10.2968 6.44527 9.64983 6.57021 9.02566C6.69515 8.40148 7.00355 7.82814 7.45641 7.37814C7.90927 6.92813 8.48624 6.62168 9.11437 6.49752C9.7425 6.37336 10.3936 6.43708 10.9853 6.68063C11.5769 6.92417 12.0827 7.33659 12.4385 7.86574C12.7943 8.39489 12.9842 9.017 12.9842 9.6534C12.9842 10.5068 12.643 11.3252 12.0358 11.9287C11.4285 12.5321 10.6049 12.8711 9.74609 12.8711C9.10565 12.8711 8.4796 12.6824 7.9471 12.3288Z" fill="#EEE6FC"/>
<path fill-rule="evenodd" clip-rule="evenodd" d="M14.933 5.65855C14.2892 5.65855 13.7673 5.13993 13.7673 4.50017C13.7673 3.86042 14.2892 3.3418 14.933 3.3418C15.5769 3.3418 16.0988 3.86042 16.0988 4.50017C16.0988 5.13993 15.5769 5.65855 14.933 5.65855Z" fill="#EEE6FC"/>
</g>
<defs>
<clipPath id="clip0_58_16988">
<rect width="19.7733" height="19.3072" fill="white" transform="translate(0.0339355)"/>
</clipPath>
</defs>
</svg>
