<svg width="20" height="19" viewBox="0 0 20 19" fill="none" xmlns="http://www.w3.org/2000/svg">
<g clip-path="url(#clip0_58_16998)">
<path fill-rule="evenodd" clip-rule="evenodd" d="M0.807373 9.87776C0.807373 13.956 3.4789 17.4187 7.15709 18.6498C7.6217 18.7268 7.77657 18.4575 7.77657 18.1882C7.77657 17.9573 7.77657 17.3802 7.77657 16.6107C5.18248 17.1878 4.64043 15.3795 4.64043 15.3795C4.21454 14.3023 3.59505 14.033 3.59505 14.033C2.74326 13.4558 3.67249 13.4558 3.67249 13.4558C4.60171 13.5328 5.10504 14.4177 5.10504 14.4177C5.91812 15.8412 7.27324 15.418 7.81529 15.1872C7.89272 14.5716 8.12503 14.1869 8.39605 13.956C6.34401 13.7252 4.17582 12.9172 4.17582 9.3776C4.17582 8.37727 4.52428 7.53085 5.14376 6.91526C5.06633 6.68442 4.71787 5.76104 5.2212 4.45293C5.2212 4.45293 5.99555 4.22208 7.77657 5.41478C8.51221 5.22241 9.32528 5.10698 10.0996 5.10698C10.874 5.10698 11.6871 5.22241 12.4227 5.41478C14.2037 4.22208 14.9781 4.45293 14.9781 4.45293C15.4814 5.72257 15.1717 6.64594 15.0555 6.91526C15.6363 7.56932 16.0235 8.37727 16.0235 9.3776C16.0235 12.9172 13.8553 13.6867 11.7645 13.9175C12.113 14.1869 12.384 14.764 12.384 15.6104C12.384 16.8416 12.384 17.8419 12.384 18.1497C12.384 18.3805 12.5389 18.6883 13.0422 18.6114C16.7204 17.4187 19.3919 13.956 19.3919 9.87776C19.3919 4.76072 15.2491 0.643997 10.0996 0.643997C4.95017 0.643997 0.807373 4.76072 0.807373 9.87776Z" fill="#EEE6FC"/>
</g>
<defs>
<clipPath id="clip0_58_16998">
<rect width="18.9143" height="18.0192" fill="white" transform="translate(0.807373 0.643997)"/>
</clipPath>
</defs>
</svg>
