<svg width="34" height="44" viewBox="0 0 34 44" fill="none" xmlns="http://www.w3.org/2000/svg">
<path d="M12.9802 43.5C12.5802 43.5 12.2602 43.42 12.0202 43.32C11.2202 43.02 9.86016 42.04 9.86016 38.94V26.04H5.18016C2.50016 26.04 1.54016 24.78 1.20016 24.04C0.860156 23.28 0.560155 21.74 2.32016 19.72L17.4602 2.52001C19.5002 0.200013 21.1602 0.360013 21.9602 0.660013C22.7602 0.960013 24.1202 1.94001 24.1202 5.04001V17.94H28.8002C31.4802 17.94 32.4402 19.2 32.7802 19.94C33.1202 20.7 33.4202 22.24 31.6602 24.26L16.5202 41.46C15.1002 43.08 13.8602 43.5 12.9802 43.5ZM20.8602 3.48001C20.8002 3.56001 20.3802 3.76001 19.7202 4.52001L4.58016 21.72C4.02016 22.36 3.94016 22.76 3.94016 22.84C3.98016 22.86 4.34016 23.06 5.18016 23.06H11.3602C12.1802 23.06 12.8602 23.74 12.8602 24.56V38.96C12.8602 39.96 13.0402 40.4 13.1202 40.52C13.1802 40.44 13.6002 40.24 14.2602 39.48L29.4002 22.28C29.9602 21.64 30.0402 21.24 30.0402 21.16C30.0002 21.14 29.6402 20.94 28.8002 20.94H22.6202C21.8002 20.94 21.1202 20.26 21.1202 19.44V5.04001C21.1402 4.04001 20.9402 3.62001 20.8602 3.48001Z" fill="#3D00A0"/>
</svg>
