<svg width="310" height="936" viewBox="0 0 310 936" fill="none" xmlns="http://www.w3.org/2000/svg">
<g clip-path="url(#clip0_64_18219)">
<circle cx="-138" cy="447.999" r="445.889" stroke="#CBB0F6" stroke-opacity="0.15" stroke-width="4.22243"/>
<path d="M238.173 448.396C238.173 655.93 69.7565 824.173 -138 824.173C-345.757 824.173 -514.174 655.93 -514.174 448.396C-514.174 240.862 -345.757 72.6183 -138 72.6183C69.7565 72.6183 238.173 240.862 238.173 448.396Z" stroke="#CBB0F6" stroke-opacity="0.15" stroke-width="4.22243"/>
<path d="M177.172 448C177.172 622.505 35.8851 763.965 -138.396 763.965C-312.678 763.965 -453.965 622.505 -453.965 448C-453.965 273.495 -312.678 132.035 -138.396 132.035C35.8851 132.035 177.172 273.495 177.172 448Z" stroke="#CBB0F6" stroke-opacity="0.15" stroke-width="4.22243"/>
<circle cx="-137.604" cy="449.188" r="268.036" stroke="#CBB0F6" stroke-opacity="0.15" stroke-width="4.22243"/>
</g>
<defs>
<clipPath id="clip0_64_18219">
<rect width="896" height="935.787" fill="white" transform="translate(-586)"/>
</clipPath>
</defs>
</svg>
