<svg width="65" height="64" viewBox="0 0 65 64" fill="none" xmlns="http://www.w3.org/2000/svg">
<path d="M41.1933 59.3333H23.8066C10.7133 59.3333 5.11328 53.7333 5.11328 40.64V40.2933C5.11328 28.4533 9.77995 22.7467 20.2333 21.76C21.2999 21.68 22.3133 22.48 22.4199 23.5733C22.5266 24.6667 21.7266 25.6533 20.6066 25.76C12.2333 26.5333 9.11328 30.48 9.11328 40.32V40.6667C9.11328 51.52 12.9533 55.36 23.8066 55.36H41.1933C52.0466 55.36 55.8866 51.52 55.8866 40.6667V40.32C55.8866 30.4267 52.7133 26.48 44.1799 25.76C43.0866 25.6533 42.2599 24.6933 42.3666 23.6C42.4733 22.5067 43.4066 21.68 44.5266 21.7867C55.1399 22.6933 59.8866 28.4267 59.8866 40.3467V40.6933C59.8866 53.7333 54.2866 59.3333 41.1933 59.3333Z" fill="#5600E2"/>
<path d="M32.5 41.68C31.4067 41.68 30.5 40.7733 30.5 39.68V5.33334C30.5 4.24001 31.4067 3.33334 32.5 3.33334C33.5933 3.33334 34.5 4.24001 34.5 5.33334V39.68C34.5 40.8 33.5933 41.68 32.5 41.68Z" fill="#5600E2"/>
<path d="M32.4999 44.6667C31.9932 44.6667 31.4866 44.48 31.0866 44.08L22.1532 35.1467C21.3799 34.3733 21.3799 33.0933 22.1532 32.32C22.9266 31.5467 24.2066 31.5467 24.9799 32.32L32.4999 39.84L40.0199 32.32C40.7932 31.5467 42.0732 31.5467 42.8466 32.32C43.6199 33.0933 43.6199 34.3733 42.8466 35.1467L33.9132 44.08C33.5132 44.48 33.0066 44.6667 32.4999 44.6667Z" fill="#5600E2"/>
</svg>
