<svg width="1140" height="967" viewBox="0 0 1140 967" fill="none" xmlns="http://www.w3.org/2000/svg">
<path d="M166.951 405.369C-55.6502 533.844 -55.6502 742.16 166.951 870.635C389.552 999.11 750.48 999.133 973.058 870.635C1195.64 742.137 1195.66 533.844 973.058 405.369C750.457 276.894 389.528 276.824 166.951 405.369Z" fill="#F5F5F5"/>
<path d="M1029.88 405.3C1028.72 406.437 1026.86 408.014 1024.49 409.94C1009.66 422.563 975.102 451.914 970.738 492.845L965.957 491.615C965.54 446.763 997.174 400.798 1018.94 391.494C1019.07 391.443 1019.18 391.369 1019.27 391.274C1019.37 391.18 1019.44 391.068 1019.49 390.945C1019.54 390.822 1019.56 390.69 1019.56 390.557C1019.56 390.424 1019.53 390.293 1019.48 390.171C1019.37 389.927 1019.17 389.735 1018.93 389.635C1018.68 389.536 1018.4 389.536 1018.16 389.638C996.199 398.919 963.706 444.025 963.938 491.104L960.712 490.269C959.505 486.185 952.403 457.785 972.154 420.312C975.461 414.055 979.264 408.073 983.527 402.423L983.736 402.19C997.476 384.301 1013.75 374.092 1024.91 377.735C1027.49 378.417 1029.84 379.774 1031.72 381.666C1033.6 383.559 1034.94 385.918 1035.61 388.501C1036.19 391.557 1035.97 394.714 1034.97 397.659C1033.96 400.604 1032.21 403.237 1029.88 405.3Z" fill="white"/>
<path d="M1004.46 363.348C995.526 376.157 986.266 389.405 981.972 401.262C977.593 406.993 973.71 413.086 970.367 419.477C964.823 429.843 960.805 440.956 958.438 452.471C956.628 384.324 994.018 330.888 1005.44 321.351C1005.54 321.266 1005.62 321.162 1005.68 321.045C1005.74 320.928 1005.78 320.799 1005.79 320.668C1005.8 320.536 1005.79 320.403 1005.75 320.278C1005.7 320.152 1005.64 320.036 1005.55 319.936C1005.38 319.733 1005.14 319.605 1004.87 319.579C1004.61 319.553 1004.34 319.631 1004.14 319.797C991.975 329.913 950.964 388.802 956.929 462.332C956.915 462.37 956.915 462.411 956.929 462.448C955.867 471.547 956.37 480.76 958.415 489.689L952.775 487.972C951.266 482.867 939.522 439.64 949.177 382.375C954.307 351.77 972.039 322.047 991.349 311.513C1000.28 306.687 1009.03 306.06 1017.37 309.68C1019.29 310.336 1021.04 311.43 1022.48 312.875C1023.91 314.32 1024.99 316.078 1025.63 318.01C1028.67 328.66 1016.9 345.505 1004.46 363.348Z" fill="white"/>
<path d="M1037.58 388.198C1036.82 385.281 1035.31 382.614 1033.2 380.464C1031.08 378.314 1028.44 376.756 1025.54 375.947C1014.81 372.444 999.843 380.588 986.474 395.809C984.965 397.549 983.457 399.382 981.971 401.308C977.592 407.038 973.71 413.132 970.367 419.522C964.822 429.889 960.804 441.002 958.437 452.517C957.741 456.021 957.277 459.478 956.952 462.494C955.89 471.593 956.392 480.806 958.437 489.735C958.716 490.895 958.925 491.544 958.948 491.591C959.038 491.823 959.212 492.014 959.435 492.125H959.621L964.495 493.377L971.318 495.118C971.448 495.152 971.584 495.152 971.713 495.118C971.87 495.095 972.02 495.04 972.154 494.955C972.27 494.871 972.367 494.764 972.439 494.64C972.511 494.516 972.556 494.379 972.572 494.236C976.308 453.515 1010.96 424.07 1025.77 411.494C1028.09 409.475 1030.04 407.875 1031.24 406.668C1033.8 404.39 1035.72 401.495 1036.83 398.261C1037.94 395.027 1038.2 391.562 1037.58 388.198V388.198ZM1029.88 405.345C1028.72 406.482 1026.86 408.06 1024.49 409.986C1009.66 422.608 975.101 451.96 970.738 492.89L965.957 491.66L963.938 491.15L960.712 490.315C959.505 486.231 952.403 457.831 972.154 420.358C975.461 414.101 979.264 408.118 983.527 402.468L983.735 402.236C997.475 384.347 1013.75 374.137 1024.91 377.78C1027.49 378.463 1029.84 379.82 1031.72 381.712C1033.6 383.604 1034.94 385.963 1035.61 388.546C1036.18 391.596 1035.96 394.743 1034.95 397.679C1033.95 400.616 1032.2 403.241 1029.88 405.299V405.345Z" fill="#5600E2"/>
<path d="M1018.94 391.587C997.173 400.868 965.562 446.856 965.956 491.708V492.613C965.964 492.853 965.884 493.087 965.729 493.271C965.575 493.455 965.358 493.576 965.121 493.61H964.958H964.54C964.371 493.526 964.227 493.398 964.125 493.238C964.023 493.079 963.966 492.895 963.96 492.705C963.96 492.265 963.96 491.824 963.96 491.383C963.728 444.304 996.221 399.244 1018.18 389.916C1018.42 389.815 1018.7 389.814 1018.95 389.914C1019.19 390.013 1019.39 390.206 1019.5 390.45C1019.55 390.675 1019.53 390.911 1019.43 391.118C1019.32 391.325 1019.15 391.491 1018.94 391.587V391.587Z" fill="#5600E2"/>
<path d="M1006.11 364.508C998.787 374.419 992.224 384.867 986.473 395.763C985.452 397.944 984.547 400.055 983.804 402.144C983.804 402.144 982.875 402.886 982.504 402.747C982.253 402.653 982.049 402.464 981.936 402.221C981.823 401.978 981.81 401.7 981.901 401.448V401.262C986.194 389.405 995.455 376.156 1004.39 363.348C1016.83 345.505 1028.6 328.66 1025.58 318.01C1024.94 316.078 1023.86 314.32 1022.43 312.875C1020.99 311.43 1019.25 310.336 1017.32 309.68C1008.99 306.06 1000.24 306.687 991.3 311.513C971.99 321.977 954.165 351.77 949.129 382.375C939.474 439.64 951.218 482.867 952.726 487.971L958.366 489.688L960.13 490.222C960.389 490.302 960.605 490.482 960.731 490.721C960.857 490.96 960.883 491.24 960.803 491.498C960.743 491.677 960.636 491.836 960.493 491.958C960.35 492.081 960.177 492.162 959.991 492.194C959.846 492.229 959.695 492.229 959.55 492.194H959.364L951.612 489.874C951.454 489.825 951.31 489.738 951.193 489.621C951.075 489.504 950.988 489.36 950.939 489.201C950.8 488.76 936.805 443.306 947.11 382.143C952.378 350.981 970.528 320.562 990.326 309.842C999.841 304.691 1009.19 304.041 1018.18 307.94C1020.35 308.727 1022.32 310.001 1023.93 311.666C1025.54 313.331 1026.75 315.342 1027.46 317.546C1030.85 329.031 1018.85 346.271 1006.11 364.508Z" fill="#5600E2"/>
<path d="M1005.44 321.35C994.017 330.887 956.696 384.323 958.437 452.47C958.437 455.672 958.692 458.921 958.947 462.169C958.974 462.424 958.903 462.678 958.747 462.881C958.592 463.084 958.364 463.22 958.112 463.26V463.26C957.862 463.275 957.616 463.199 957.419 463.045C957.223 462.891 957.089 462.67 957.044 462.425C957.03 462.387 957.03 462.346 957.044 462.309C951.079 388.778 992.09 329.889 1004.25 319.773C1004.46 319.607 1004.72 319.529 1004.99 319.555C1005.25 319.581 1005.5 319.709 1005.67 319.912C1005.75 320.02 1005.81 320.144 1005.85 320.276C1005.88 320.409 1005.89 320.547 1005.86 320.681C1005.84 320.816 1005.79 320.945 1005.72 321.06C1005.65 321.175 1005.55 321.274 1005.44 321.35Z" fill="#5600E2"/>
<path d="M633.458 70.6669L611.78 83.1733C611.78 82.1987 611.966 81.2474 611.966 80.2961V74.0313C611.966 62.8706 604.121 58.3461 594.443 63.938C590.288 66.4901 586.733 69.9092 584.022 73.9617C582.444 60.0399 571.419 54.7032 558.051 62.3602C543.591 70.69 531.871 90.9927 531.871 107.699V116.98C531.776 120.727 532.53 124.447 534.075 127.862L516.111 138.234C513.281 140.069 510.924 142.548 509.234 145.467C507.544 148.387 506.568 151.665 506.387 155.033C506.387 161.228 510.727 163.734 516.111 160.648L633.435 92.9185C636.261 91.0805 638.614 88.6008 640.299 85.6815C641.985 82.7621 642.957 79.4858 643.136 76.1195C643.159 70.0868 638.819 67.5809 633.458 70.6669Z" fill="#EBEBEB"/>
<path d="M766.054 84.2413L749.807 93.6617C749.807 92.9424 749.946 92.2231 749.946 91.5038V86.8632C749.946 78.4406 744.028 75.0297 736.74 79.2527C733.592 81.1713 730.899 83.7525 728.849 86.8168C727.665 76.2131 719.356 72.2686 709.26 78.1157C698.352 84.4037 689.486 99.7177 689.486 112.317V119.278C689.408 122.11 689.988 124.921 691.18 127.492L677.51 135.288C675.373 136.67 673.595 138.539 672.32 140.741C671.045 142.943 670.31 145.416 670.176 147.957C670.176 152.597 673.448 154.523 677.51 152.203L766.054 101.156C768.186 99.7635 769.96 97.8891 771.234 95.6844C772.508 93.4797 773.246 91.0065 773.388 88.4643C773.388 83.754 770.092 81.921 766.054 84.2413Z" fill="#EBEBEB"/>
<path d="M634.99 797.152L617.63 787.128L630.256 779.842C632.521 778.743 634.432 777.028 635.768 774.895C637.105 772.761 637.814 770.294 637.814 767.777C637.814 765.259 637.105 762.792 635.768 760.659C634.432 758.525 632.521 756.81 630.256 755.711L598.83 737.566C595.033 735.571 590.808 734.528 586.518 734.528C582.228 734.528 578.002 735.571 574.205 737.566L552.992 749.818L443.397 686.543C439.632 684.475 435.391 683.428 431.096 683.503C426.792 683.41 422.539 684.459 418.772 686.543L373.978 712.414C370.777 714.051 368.022 716.439 365.948 719.375C363.923 722.884 363.31 727.032 364.23 730.977L387.439 846.992C388.786 852.816 393.149 857.897 400.414 862.097L431.769 880.102C435.519 882.189 439.757 883.238 444.047 883.142V883.142C448.321 883.228 452.542 882.18 456.278 880.102L545.426 828.661L571.374 843.627C575.173 845.615 579.398 846.654 583.686 846.654C587.975 846.654 592.199 845.615 595.999 843.627L634.99 821.283C637.263 820.19 639.181 818.478 640.524 816.343C641.866 814.209 642.579 811.739 642.579 809.217C642.579 806.696 641.866 804.226 640.524 802.091C639.181 799.956 637.263 798.244 634.99 797.152V797.152ZM462.359 802.117L457.16 775.991L482.389 790.562L462.359 802.117Z" fill="#E0E0E0"/>
<path d="M136.663 788.102C154.608 794.646 171.685 803.357 187.515 814.043C205.293 826.062 221.563 840.657 240.432 850.565C265.081 863.535 293.443 868.222 321.201 866.807C336.914 866.041 354.019 862.607 364.138 850.217C366.874 847.11 368.506 843.186 368.78 839.056C368.78 833.023 364.765 827.826 360.494 823.649C337.912 801.514 305.999 792.372 275.247 785.202C244.494 778.032 226.089 769.122 195.94 753.019C183.036 746.058 170.41 738.703 157.32 732.137L156.995 731.974C150.586 728.465 143.993 725.305 137.244 722.507C128.354 719.236 120.997 716.846 111.156 717.588C101.316 718.331 90.2679 718.168 83.4908 726.127C80.6907 729.482 78.9133 733.57 78.3702 737.906C77.8271 742.241 78.5411 746.641 80.4272 750.583C89.9894 772.626 116.1 780.608 136.663 788.102Z" fill="#E0E0E0"/>
<path d="M809.503 616.633C801.635 611.645 792.955 606.401 783.671 601.041C774.388 595.681 765.104 590.623 756.029 585.796C743.767 579.523 730.886 574.539 717.594 570.923C703.391 567.058 688.75 565.03 674.03 564.891H672.127C657.263 564.97 642.461 566.808 628.029 570.367C611.505 574.509 595.656 580.986 580.961 589.602C564.97 598.883 553.713 608.164 546.588 617.84C539.138 628.072 535.54 638.421 535.888 648.63C536.483 659.375 540.677 669.607 547.795 677.68C555.447 686.669 564.433 694.432 574.439 700.698C582.562 705.849 591.451 711.209 600.851 716.638C610.251 722.068 619.419 727.079 627.89 731.558C640.165 737.816 653.052 742.792 666.348 746.408C680.541 750.286 695.176 752.314 709.889 752.44H711.931C726.795 752.367 741.598 750.529 756.029 746.964C772.555 742.826 788.404 736.349 803.098 727.729C819.112 718.448 830.369 709.167 837.471 699.491C844.944 689.282 848.541 678.91 848.17 668.701C847.581 657.955 843.386 647.721 836.264 639.651C828.567 630.662 819.543 622.9 809.503 616.633V616.633ZM756.122 678.075C755.31 679.304 753.058 681.88 746.838 685.453C742.166 688.238 737.094 690.289 731.798 691.533C728.033 692.363 724.189 692.791 720.333 692.809C719.312 692.809 718.291 692.809 717.269 692.809C712.527 692.512 707.845 691.591 703.344 690.071C698.387 688.372 693.575 686.277 688.954 683.806C672.069 675.193 655.646 665.706 639.75 655.382C636.137 653.219 632.802 650.625 629.816 647.656C628.282 646.236 627.153 644.434 626.544 642.435C626.544 642.157 626.289 641.252 627.542 639.326C628.354 638.119 630.606 635.544 636.826 631.947C641.494 629.159 646.568 627.116 651.865 625.891C655.462 625.09 659.135 624.678 662.82 624.661C663.957 624.661 665.141 624.661 666.139 624.777C670.882 625.127 675.562 626.078 680.065 627.608C685.074 629.303 689.967 631.326 694.71 633.664C711.583 642.435 728.178 651.995 744.076 661.995C747.754 664.234 751.185 666.855 754.312 669.814C755.787 671.08 756.861 672.75 757.398 674.618C757.352 674.966 757.538 675.917 756.168 678.075H756.122Z" fill="#E0E0E0"/>
<path d="M1068.22 547.07L1050.86 537.046L1063.48 529.761C1065.75 528.661 1067.66 526.947 1068.99 524.813C1070.33 522.679 1071.04 520.213 1071.04 517.695C1071.04 515.177 1070.33 512.711 1068.99 510.577C1067.66 508.443 1065.75 506.729 1063.48 505.629L1032.03 487.485C1028.24 485.489 1024.01 484.446 1019.72 484.446C1015.43 484.446 1011.2 485.489 1007.41 487.485L986.194 499.713L876.599 436.461C872.802 434.466 868.577 433.423 864.287 433.423C859.997 433.423 855.771 434.466 851.974 436.461L807.204 462.309C803.992 463.94 801.227 466.329 799.15 469.27C797.121 472.778 796.507 476.927 797.432 480.872L820.642 596.887C821.988 602.711 826.351 607.792 833.616 611.992L865.064 630.137C868.814 632.223 873.052 633.272 877.342 633.176V633.176C881.64 633.275 885.886 632.226 889.643 630.137L978.79 578.672L1004.74 593.662C1008.54 595.657 1012.76 596.7 1017.05 596.7C1021.34 596.7 1025.57 595.657 1029.36 593.662L1068.19 571.248C1070.47 570.155 1072.38 568.443 1073.73 566.308C1075.07 564.173 1075.78 561.703 1075.78 559.182C1075.78 556.661 1075.07 554.19 1073.73 552.056C1072.38 549.921 1070.47 548.209 1068.19 547.116L1068.22 547.07ZM895.585 552.012L890.293 525.909L915.522 540.457L895.585 552.012Z" fill="#E0E0E0"/>
<path d="M817.162 794.252C817.776 793.965 818.446 793.817 819.123 793.817C819.801 793.817 820.47 793.965 821.084 794.252L828.767 798.707C828.992 798.796 829.186 798.949 829.326 799.147C829.466 799.344 829.546 799.578 829.556 799.82C829.542 800.064 829.461 800.3 829.322 800.5C829.183 800.701 828.99 800.859 828.767 800.957L794.417 820.796C793.808 821.1 793.136 821.259 792.456 821.259C791.775 821.259 791.103 821.1 790.495 820.796L743.658 793.764C743.434 793.663 743.241 793.505 743.099 793.305C742.956 793.105 742.869 792.872 742.846 792.627C742.871 792.384 742.959 792.151 743.102 791.952C743.244 791.752 743.436 791.594 743.658 791.49L777.451 772C778.055 771.694 778.723 771.535 779.4 771.535C780.078 771.535 780.746 771.694 781.35 772L789.032 776.432C789.259 776.529 789.454 776.686 789.598 776.887C789.741 777.087 789.826 777.323 789.845 777.569C789.824 777.814 789.737 778.049 789.594 778.249C789.452 778.449 789.257 778.606 789.032 778.706L766.705 791.583L774.55 796.108L795.276 784.135C795.885 783.831 796.556 783.672 797.237 783.672C797.918 783.672 798.589 783.831 799.198 784.135L806.88 788.567C807.104 788.665 807.296 788.823 807.435 789.024C807.575 789.225 807.656 789.46 807.669 789.704C807.653 789.947 807.571 790.181 807.432 790.381C807.293 790.582 807.102 790.74 806.88 790.841L786.131 802.79L794.254 807.431L817.162 794.252Z" fill="#272727"/>
<path d="M828.626 757.59C829.235 757.286 829.906 757.128 830.587 757.128C831.268 757.128 831.939 757.286 832.548 757.59L839.859 761.813C840.083 761.911 840.275 762.07 840.415 762.27C840.554 762.471 840.635 762.706 840.648 762.95C840.632 763.193 840.55 763.428 840.411 763.628C840.272 763.828 840.082 763.987 839.859 764.087L833.268 767.892C828.812 770.445 828.812 773.02 833.268 775.573L851.093 785.875C851.319 785.972 851.515 786.129 851.658 786.33C851.801 786.53 851.887 786.766 851.905 787.012C851.884 787.257 851.798 787.491 851.655 787.692C851.512 787.892 851.318 788.049 851.093 788.149L841.971 793.416C841.362 793.72 840.691 793.878 840.01 793.878C839.329 793.878 838.658 793.72 838.049 793.416L804.256 773.902C804.004 773.83 803.782 773.678 803.624 773.468C803.466 773.259 803.381 773.004 803.381 772.742C803.381 772.48 803.466 772.225 803.624 772.015C803.782 771.806 804.004 771.654 804.256 771.582L812.681 766.732C813.286 766.426 813.953 766.267 814.631 766.267C815.308 766.267 815.976 766.426 816.58 766.732L818.251 767.684C818.353 766.299 818.844 764.972 819.667 763.855C820.923 762.262 822.506 760.957 824.309 760.027L828.626 757.59Z" fill="#272727"/>
<path d="M863.719 737.334C864.318 737.012 864.99 736.852 865.669 736.87C866.356 736.852 867.035 737.012 867.642 737.334L874.953 741.557C875.177 741.655 875.369 741.813 875.508 742.014C875.647 742.215 875.728 742.45 875.742 742.694C875.726 742.937 875.644 743.171 875.505 743.371C875.366 743.572 875.175 743.73 874.953 743.831L868.361 747.636C863.905 750.188 863.905 752.756 868.361 755.339L886.186 765.618C886.413 765.712 886.608 765.869 886.748 766.071C886.888 766.272 886.967 766.51 886.975 766.755C886.959 766.998 886.877 767.233 886.738 767.433C886.599 767.633 886.408 767.792 886.186 767.892L877.065 773.159C876.456 773.464 875.784 773.622 875.104 773.622C874.423 773.622 873.751 773.464 873.142 773.159L839.35 753.646C839.128 753.551 838.936 753.397 838.797 753.201C838.658 753.004 838.576 752.772 838.561 752.532C838.574 752.288 838.655 752.053 838.794 751.852C838.934 751.651 839.126 751.493 839.35 751.395L847.775 746.545C848.372 746.222 849.045 746.061 849.724 746.081C850.403 746.064 851.075 746.224 851.674 746.545L853.345 747.497C853.446 746.113 853.937 744.785 854.761 743.668C856.017 742.075 857.6 740.77 859.403 739.84L863.719 737.334Z" fill="#272727"/>
<path d="M926.061 720.002C926.85 720.396 927.802 720.907 928.939 721.556C930.076 722.206 930.958 722.763 931.655 723.227C933.627 724.379 935.31 725.966 936.575 727.867C937.604 729.456 938.077 731.341 937.921 733.227C937.655 735.309 936.774 737.264 935.391 738.842C933.493 741.02 931.221 742.843 928.684 744.225C925.769 745.912 922.649 747.214 919.4 748.1C916.233 748.957 912.978 749.447 909.698 749.562C906.584 749.663 903.468 749.399 900.415 748.773C897.586 748.222 894.85 747.269 892.291 745.942C891.526 745.548 890.574 745.014 889.437 744.365C888.3 743.715 887.394 743.158 886.721 742.717C884.707 741.589 882.988 739.998 881.708 738.077C880.689 736.468 880.231 734.567 880.408 732.67C880.694 730.583 881.581 728.624 882.961 727.032C884.817 724.823 887.078 722.988 889.622 721.626C892.532 719.935 895.654 718.64 898.906 717.774C902.107 716.928 905.392 716.438 908.701 716.312C911.815 716.189 914.932 716.446 917.984 717.078C920.803 717.66 923.523 718.645 926.061 720.002V720.002ZM904.894 738.239C906.854 739.204 909.024 739.666 911.207 739.585C913.405 739.499 915.548 738.877 917.45 737.775C919.377 736.661 920.421 735.455 920.561 734.179C920.7 732.902 919.934 731.696 918.24 730.536C917.496 729.989 916.721 729.485 915.919 729.028C915.068 728.541 914.193 728.099 913.296 727.705C911.349 726.727 909.183 726.264 907.006 726.359C904.81 726.434 902.666 727.047 900.763 728.146C898.837 729.283 897.792 730.466 897.653 731.765C897.514 733.065 898.28 734.248 899.974 735.408C900.713 735.955 901.489 736.451 902.295 736.893C903.134 737.372 904.002 737.798 904.894 738.169V738.239Z" fill="#272727"/>
<path d="M944.906 690.464C945.515 690.16 946.186 690.001 946.867 690.001C947.548 690.001 948.22 690.16 948.828 690.464L956.163 694.687C956.385 694.787 956.576 694.946 956.715 695.146C956.854 695.347 956.936 695.581 956.952 695.824C956.938 696.068 956.857 696.303 956.718 696.504C956.579 696.705 956.386 696.863 956.163 696.961L949.548 700.766C945.123 703.319 945.123 705.886 949.548 708.47L967.396 718.749C967.618 718.849 967.809 719.008 967.948 719.208C968.087 719.408 968.169 719.642 968.185 719.886C968.171 720.129 968.09 720.365 967.951 720.565C967.812 720.766 967.62 720.924 967.396 721.023L958.251 726.29C957.653 726.611 956.981 726.771 956.302 726.754C955.622 726.774 954.95 726.613 954.352 726.29L920.467 706.799C920.242 706.7 920.047 706.542 919.904 706.342C919.762 706.142 919.675 705.907 919.654 705.662C919.673 705.416 919.758 705.181 919.901 704.98C920.045 704.78 920.24 704.622 920.467 704.525L928.868 699.676C929.477 699.371 930.149 699.213 930.83 699.213C931.51 699.213 932.182 699.371 932.791 699.676L934.462 700.627C934.553 699.241 935.045 697.911 935.878 696.799C937.127 695.199 938.712 693.893 940.52 692.97L944.906 690.464Z" fill="#272727"/>
<path d="M627.193 774.715L588.34 797.129C585.861 798.379 583.122 799.03 580.345 799.03C577.567 799.03 574.829 798.379 572.349 797.129L542.177 779.68L448.643 833.697C446.151 834.933 443.407 835.577 440.624 835.577C437.842 835.577 435.098 834.933 432.606 833.697L401.18 815.529C396.028 812.59 393.057 809.395 392.268 805.946L369.058 690.209C368.939 689.528 368.885 688.836 368.896 688.144C368.896 690.464 368.896 719.259 368.896 720.628C368.908 721.227 368.962 721.824 369.058 722.415L392.268 838.152C393.057 841.586 396.028 844.78 401.18 847.734L432.606 865.879C435.093 867.13 437.84 867.781 440.624 867.781C443.409 867.781 446.155 867.13 448.643 865.879L542.154 811.932L572.326 829.381C574.806 830.631 577.544 831.282 580.321 831.282C583.099 831.282 585.837 830.631 588.317 829.381L627.17 806.967C628.09 806.57 628.883 805.927 629.461 805.108C630.039 804.289 630.378 803.326 630.442 802.326V770.074C630.378 771.071 630.041 772.031 629.467 772.849C628.894 773.668 628.108 774.313 627.193 774.715V774.715Z" fill="#5600E2"/>
<path d="M625.709 760.909V728.656C625.635 729.654 625.291 730.612 624.715 731.429C624.139 732.247 623.351 732.892 622.437 733.297L596.906 748.008L624.456 763.902C625.22 763.087 625.665 762.025 625.709 760.909V760.909Z" fill="#5600E2"/>
<path d="M448.807 756.361L468.141 767.568L496.108 751.442L441.52 719.909L448.784 756.361H448.807Z" fill="#5600E2"/>
<path opacity="0.35" d="M448.807 756.361L468.141 767.568L496.108 751.442L441.52 719.909L448.784 756.361H448.807Z" fill="#272727"/>
<path opacity="0.2" d="M625.709 760.909V728.656C625.635 729.654 625.291 730.612 624.715 731.429C624.139 732.247 623.351 732.892 622.437 733.297L596.906 748.008L624.456 763.902C625.22 763.087 625.665 762.025 625.709 760.909V760.909Z" fill="#272727"/>
<path opacity="0.2" d="M627.194 774.713L588.341 797.128C585.891 798.469 583.126 799.126 580.334 799.03V831.375C583.126 831.471 585.891 830.814 588.341 829.472L627.194 807.058C628.114 806.662 628.907 806.019 629.485 805.2C630.063 804.381 630.402 803.418 630.466 802.418V770.166C630.383 771.149 630.035 772.091 629.459 772.892C628.883 773.693 628.1 774.322 627.194 774.713Z" fill="#272727"/>
<path opacity="0.25" d="M392.268 805.852L369.058 690.115C368.939 689.434 368.885 688.742 368.896 688.05C368.896 690.371 368.896 719.166 368.896 720.535C368.908 721.133 368.962 721.73 369.058 722.321L392.268 838.058C392.425 838.735 392.666 839.39 392.987 840.007V807.755C392.67 807.152 392.428 806.513 392.268 805.852V805.852Z" fill="#272727"/>
<path opacity="0.35" d="M440.637 835.505C437.843 835.58 435.077 834.933 432.607 833.626L401.181 815.458C397.745 813.795 394.889 811.135 392.988 807.824V840.076C394.889 843.387 397.745 846.047 401.181 847.71L432.607 865.855C435.07 867.183 437.84 867.839 440.637 867.758C440.93 867.792 441.226 867.792 441.519 867.758V835.505C441.226 835.54 440.93 835.54 440.637 835.505V835.505Z" fill="#272727"/>
<path opacity="0.2" d="M448.645 833.696C446.456 834.879 444.008 835.501 441.52 835.506V867.758C444.011 867.757 446.462 867.127 448.645 865.925L542.155 811.932V779.68L448.645 833.696Z" fill="#272727"/>
<path opacity="0.35" d="M572.326 797.128L542.154 779.68V811.932L572.326 829.38C574.767 830.724 577.526 831.382 580.31 831.283V799.031C577.526 799.13 574.767 798.472 572.326 797.128V797.128Z" fill="#272727"/>
<path d="M588.341 797.127C585.857 798.378 583.115 799.03 580.334 799.03C577.553 799.03 574.811 798.378 572.327 797.127L542.155 779.679L448.644 833.695C446.156 834.932 443.415 835.575 440.637 835.575C437.858 835.575 435.118 834.932 432.63 833.695L401.181 815.551C396.059 812.581 393.096 809.386 392.292 805.968L369.082 690.231C368.618 688.449 368.825 686.558 369.663 684.918C371.026 683.193 372.754 681.79 374.722 680.811L419.493 654.963C421.958 653.64 424.728 652.992 427.524 653.083C430.305 652.991 433.06 653.64 435.508 654.963L549.419 720.697L574.949 705.986C577.433 704.736 580.176 704.084 582.957 704.084C585.738 704.084 588.48 704.736 590.964 705.986L622.413 724.131C623.385 724.458 624.23 725.081 624.828 725.914C625.427 726.747 625.749 727.746 625.749 728.772C625.749 729.797 625.427 730.796 624.828 731.629C624.23 732.462 623.385 733.085 622.413 733.412L596.882 748.146L627.054 765.595C628.016 765.933 628.848 766.56 629.437 767.392C630.027 768.223 630.343 769.217 630.343 770.235C630.343 771.254 630.027 772.248 629.437 773.079C628.848 773.91 628.016 774.538 627.054 774.876L588.341 797.127ZM496.084 751.418L441.519 720.001L452.799 776.5L496.084 751.418Z" fill="#5600E2"/>
<path d="M836.031 631.529C835.892 639.302 832.828 647.237 826.933 655.312C820.62 663.99 810.044 672.606 795.206 681.16C781.225 689.374 766.141 695.546 750.412 699.49C735.99 703.077 721.174 704.831 706.314 704.711C692.338 704.589 678.437 702.663 664.955 698.98C652.223 695.533 639.886 690.766 628.145 684.757C619.65 680.302 610.784 675.475 601.454 670.023C592.124 664.57 583.467 659.442 575.367 654.291C566.123 648.52 557.825 641.359 550.765 633.06C544.839 626.459 541.336 618.039 540.831 609.184C540.994 614.289 540.622 635.775 540.831 641.437C541.336 650.292 544.839 658.712 550.765 665.312C557.825 673.611 566.123 680.772 575.367 686.543C583.459 691.694 592.155 696.938 601.454 702.275C610.738 707.635 619.65 712.554 628.145 717.032C639.891 723.023 652.227 727.782 664.955 731.232C678.437 734.915 692.338 736.841 706.314 736.963C721.174 737.083 735.99 735.329 750.412 731.743C766.141 727.798 781.225 721.626 795.206 713.412C810.06 704.843 820.635 696.227 826.933 687.564C833.269 678.909 836.217 670.417 835.985 662.157C835.822 657.354 836.124 638.791 836.031 631.529Z" fill="#5600E2"/>
<path opacity="0.35" d="M714.275 704.549C711.629 704.549 708.983 704.758 706.361 704.711C692.385 704.589 678.484 702.663 665.002 698.98C652.27 695.533 639.933 690.766 628.192 684.757C619.697 680.302 610.831 675.475 601.501 670.023C592.171 664.57 583.514 659.442 575.414 654.291C566.17 648.52 557.872 641.359 550.812 633.06C544.886 626.459 541.383 618.039 540.878 609.184C541.041 614.289 540.669 635.775 540.878 641.437C541.383 650.292 544.886 658.712 550.812 665.312C557.872 673.611 566.17 680.772 575.414 686.543C583.506 691.694 592.202 696.938 601.501 702.275C610.785 707.635 619.697 712.554 628.192 717.032C639.938 723.023 652.274 727.782 665.002 731.232C678.484 734.915 692.385 736.841 706.361 736.963C708.983 736.963 711.629 736.963 714.275 736.801V704.549Z" fill="#272727"/>
<path opacity="0.2" d="M836.03 631.528C835.891 639.301 832.827 647.236 826.932 655.311C820.619 663.989 810.043 672.605 795.205 681.159C781.224 689.373 766.14 695.545 750.411 699.489C738.575 702.391 726.475 704.086 714.297 704.548V736.8C726.474 736.327 738.572 734.632 750.411 731.742C766.14 727.797 781.224 721.625 795.205 713.411C810.059 704.842 820.634 696.225 826.932 687.563C833.268 678.908 836.216 670.416 835.983 662.156C835.821 657.353 836.123 638.79 836.03 631.528Z" fill="#272727"/>
<path d="M620.208 614.404C622.003 616.242 623.935 617.941 625.987 619.486C626.985 618.836 627.983 618.186 629.097 617.537C634.546 614.348 640.446 612.002 646.597 610.576C652.101 609.352 657.753 608.93 663.377 609.323C668.838 609.72 674.226 610.804 679.415 612.548C684.852 614.391 690.169 616.569 695.337 619.068C712.527 628.117 729.137 637.716 745.167 647.863C747.256 649.162 749.182 650.508 750.946 651.808C754.477 649.733 757.549 646.963 759.975 643.663C762.012 640.843 762.847 637.33 762.296 633.895C761.449 630.319 759.54 627.083 756.818 624.614C753.245 621.216 749.315 618.213 745.097 615.657C729.052 605.448 712.465 595.834 695.337 586.816C690.193 584.296 684.899 582.095 679.485 580.226C674.296 578.482 668.907 577.398 663.447 577.001C657.821 576.605 652.168 577.035 646.667 578.277C640.512 579.69 634.61 582.037 629.167 585.238C624.421 587.66 620.275 591.108 617.028 595.331C615.999 596.699 615.261 598.264 614.862 599.928C614.463 601.593 614.41 603.321 614.707 605.007C615.667 608.575 617.567 611.82 620.208 614.404V614.404Z" fill="#5600E2"/>
<path opacity="0.35" d="M620.208 614.404C622.003 616.242 623.935 617.941 625.987 619.486C626.985 618.836 627.983 618.186 629.097 617.537C634.546 614.348 640.446 612.002 646.597 610.576C652.101 609.352 657.753 608.93 663.377 609.323C668.838 609.72 674.226 610.804 679.415 612.548C684.852 614.391 690.169 616.569 695.337 619.068C712.527 628.117 729.137 637.716 745.167 647.863C747.256 649.162 749.182 650.508 750.946 651.808C754.477 649.733 757.549 646.963 759.975 643.663C762.012 640.843 762.847 637.33 762.296 633.895C761.449 630.319 759.54 627.083 756.818 624.614C753.245 621.216 749.315 618.213 745.097 615.657C729.052 605.448 712.465 595.834 695.337 586.816C690.193 584.296 684.899 582.095 679.485 580.226C674.296 578.482 668.907 577.398 663.447 577.001C657.821 576.605 652.168 577.035 646.667 578.277C640.512 579.69 634.61 582.037 629.167 585.238C624.421 587.66 620.275 591.108 617.028 595.331C615.999 596.699 615.261 598.264 614.862 599.928C614.463 601.593 614.41 603.321 614.707 605.007C615.667 608.575 617.567 611.82 620.208 614.404V614.404Z" fill="#272727"/>
<path d="M581.612 557.905C595.589 549.683 610.674 543.51 626.406 539.575C640.829 535.999 655.644 534.246 670.504 534.354C684.486 534.486 698.394 536.412 711.886 540.085C724.623 543.54 736.967 548.307 748.719 554.309C757.616 558.949 766.714 563.969 776.013 569.367C785.313 574.766 793.823 579.902 801.544 584.774C810.783 590.551 819.08 597.711 826.145 606.005C832.055 612.618 835.562 621.03 836.102 629.881C836.396 638.157 833.379 646.664 827.051 655.404C820.722 664.144 810.085 672.729 795.138 681.16C781.157 689.373 766.073 695.546 750.344 699.49C735.92 703.065 721.106 704.819 706.246 704.711C692.261 704.584 678.352 702.65 664.864 698.956C652.14 695.517 639.811 690.757 628.077 684.756C619.582 680.301 610.685 675.397 601.386 670.045C592.087 664.693 583.383 659.441 575.276 654.29C566.042 648.507 557.746 641.347 550.674 633.06C544.76 626.44 541.252 618.02 540.717 609.161C540.438 600.9 543.456 592.393 549.769 583.637C556.081 574.882 566.696 566.305 581.612 557.905ZM745.098 615.588C729.053 605.44 712.443 595.858 695.268 586.839C690.121 584.302 684.819 582.093 679.393 580.227C674.21 578.484 668.831 577.392 663.378 576.978C657.751 576.6 652.1 577.038 646.598 578.277C640.443 579.69 634.541 582.037 629.098 585.238C624.353 587.66 620.206 591.108 616.96 595.332C615.924 596.696 615.182 598.26 614.783 599.926C614.383 601.591 614.334 603.322 614.639 605.007C615.574 608.547 617.47 611.759 620.116 614.289C623.606 617.768 627.502 620.814 631.721 623.361C647.82 633.803 664.453 643.399 681.551 652.109C686.551 654.785 691.759 657.051 697.125 658.885C705.423 661.742 714.246 662.755 722.976 661.854C731.707 660.952 740.136 658.157 747.675 653.664C752.438 651.248 756.594 647.79 759.836 643.547C761.87 640.734 762.705 637.23 762.157 633.802C761.317 630.219 759.397 626.979 756.657 624.521C753.139 621.134 749.263 618.139 745.098 615.588Z" fill="#5600E2"/>
<path d="M1060.46 524.632L1021.61 547.046C1019.13 548.296 1016.39 548.948 1013.62 548.948C1010.84 548.948 1008.1 548.296 1005.62 547.046L975.449 529.574L882.008 583.521C879.524 584.772 876.782 585.423 874.001 585.423C871.22 585.423 868.478 584.772 865.994 583.521L834.545 565.376C829.393 562.43 826.445 559.228 825.633 555.794L802.423 440.057C802.305 439.375 802.251 438.684 802.261 437.992C802.261 440.312 802.261 469.107 802.261 470.476C802.274 471.075 802.328 471.672 802.423 472.263L825.633 587.976C826.445 591.433 829.393 594.612 834.545 597.582L865.994 615.727C868.478 616.978 871.22 617.629 874.001 617.629C876.782 617.629 879.524 616.978 882.008 615.727L975.449 561.78L1005.62 579.252C1008.1 580.502 1010.84 581.154 1013.62 581.154C1016.39 581.154 1019.13 580.502 1021.61 579.252L1060.46 556.838C1061.39 556.441 1062.18 555.798 1062.76 554.979C1063.33 554.16 1063.67 553.197 1063.74 552.197V519.991C1063.67 520.991 1063.33 521.953 1062.75 522.771C1062.18 523.59 1061.38 524.234 1060.46 524.632V524.632Z" fill="#5600E2"/>
<path d="M1059 510.803V478.551C1058.93 479.549 1058.59 480.507 1058.01 481.324C1057.43 482.142 1056.65 482.787 1055.73 483.192L1030.2 497.903L1057.75 513.773C1058.52 512.974 1058.97 511.915 1059 510.803Z" fill="#5600E2"/>
<path d="M882.079 506.279L901.412 517.486L929.379 501.36L874.791 469.827L882.056 506.279H882.079Z" fill="#5600E2"/>
<path opacity="0.35" d="M882.079 506.279L901.412 517.486L929.379 501.36L874.791 469.827L882.056 506.279H882.079Z" fill="#272727"/>
<path opacity="0.2" d="M1059 510.803V478.551C1058.93 479.549 1058.59 480.507 1058.01 481.324C1057.43 482.142 1056.65 482.787 1055.73 483.192L1030.2 497.903L1057.75 513.773C1058.52 512.974 1058.97 511.915 1059 510.803Z" fill="#272727"/>
<path opacity="0.2" d="M1060.47 524.632L1021.61 547.046C1019.16 548.387 1016.4 549.045 1013.61 548.948V581.201C1016.4 581.297 1019.16 580.64 1021.61 579.298L1060.47 556.884C1061.39 556.488 1062.18 555.844 1062.76 555.025C1063.33 554.206 1063.67 553.243 1063.74 552.243V519.991C1063.67 520.99 1063.33 521.952 1062.75 522.771C1062.18 523.589 1061.38 524.233 1060.47 524.632V524.632Z" fill="#272727"/>
<path opacity="0.25" d="M825.541 555.794L802.332 440.057C802.214 439.375 802.159 438.684 802.169 437.992C802.169 440.312 802.169 469.107 802.169 470.476C802.182 471.075 802.237 471.672 802.332 472.263L825.541 587.976C825.692 588.666 825.942 589.33 826.284 589.948V557.696C825.95 557.099 825.7 556.459 825.541 555.794Z" fill="#272727"/>
<path opacity="0.35" d="M873.909 585.425C871.119 585.506 868.356 584.85 865.902 583.522L834.453 565.377C831.017 563.721 828.168 561.058 826.283 557.743V590.065C828.168 593.38 831.017 596.043 834.453 597.699L865.902 615.844C868.356 617.172 871.119 617.828 873.909 617.746C874.202 617.781 874.498 617.781 874.791 617.746V585.425C874.498 585.459 874.202 585.459 873.909 585.425V585.425Z" fill="#272727"/>
<path opacity="0.2" d="M881.916 583.521C879.735 584.726 877.283 585.356 874.791 585.354V617.606C877.283 617.609 879.735 616.978 881.916 615.773L975.357 561.826V529.574L881.916 583.521Z" fill="#272727"/>
<path opacity="0.35" d="M1005.62 547.046L975.449 529.574V561.826L1005.62 579.298C1008.06 580.642 1010.82 581.3 1013.61 581.201V548.949C1010.82 549.048 1008.06 548.39 1005.62 547.046V547.046Z" fill="#272727"/>
<path d="M1021.64 547.046C1019.18 548.38 1016.4 549.029 1013.61 548.926C1010.82 549.014 1008.06 548.366 1005.6 547.046L975.427 529.598L881.986 583.521C879.498 584.758 876.758 585.401 873.979 585.401C871.201 585.401 868.46 584.758 865.972 583.521L834.523 565.377C829.402 562.407 826.439 559.212 825.634 555.794L802.425 440.057C801.971 438.274 802.177 436.387 803.005 434.744C804.368 433.019 806.096 431.616 808.065 430.637L852.835 404.789C855.323 403.538 858.07 402.886 860.854 402.886C863.639 402.886 866.385 403.538 868.873 404.789L982.761 470.523L1008.29 455.789C1010.78 454.552 1013.52 453.909 1016.3 453.909C1019.08 453.909 1021.82 454.552 1024.31 455.789L1055.73 474.05C1056.7 474.376 1057.55 475 1058.15 475.833C1058.75 476.665 1059.07 477.665 1059.07 478.69C1059.07 479.716 1058.75 480.715 1058.15 481.548C1057.55 482.38 1056.7 483.004 1055.73 483.331L1030.2 498.065L1060.37 515.513C1061.33 515.851 1062.17 516.479 1062.76 517.311C1063.35 518.142 1063.66 519.135 1063.66 520.154C1063.66 521.173 1063.35 522.166 1062.76 522.998C1062.17 523.829 1061.33 524.457 1060.37 524.795L1021.64 547.046ZM929.38 501.336L874.792 469.85L886.071 526.326L929.38 501.336Z" fill="#5600E2"/>
<path d="M712.161 386.944C714.18 377.523 675.722 399.729 673.703 409.149L686.051 442.492C686.499 443.457 687.226 444.265 688.139 444.812C690.855 446.483 700.881 452.144 701.74 452.678C702.436 453.103 703.219 453.365 704.03 453.444C704.842 453.523 705.661 453.416 706.425 453.133C707.189 452.849 707.879 452.395 708.443 451.806C709.006 451.217 709.428 450.507 709.678 449.731L725.739 394.67C726.76 390.146 712.161 386.944 712.161 386.944Z" fill="#5600E2"/>
<path opacity="0.25" d="M712.161 386.944C714.18 377.523 675.722 399.729 673.703 409.149L686.051 442.492C686.499 443.457 687.226 444.265 688.139 444.812C690.855 446.483 700.881 452.144 701.74 452.678C702.436 453.103 703.219 453.365 704.03 453.444C704.842 453.523 705.661 453.416 706.425 453.133C707.189 452.849 707.879 452.395 708.443 451.806C709.006 451.217 709.428 450.507 709.678 449.731L725.739 394.67C726.76 390.146 712.161 386.944 712.161 386.944Z" fill="#272727"/>
<path d="M832.455 137.048L511.539 322.138C510.034 323.114 508.78 324.432 507.881 325.985C506.982 327.537 506.462 329.28 506.363 331.071V507.414C506.462 509.205 506.982 510.948 507.881 512.5C508.78 514.052 510.034 515.37 511.539 516.347L514.765 518.18C516.365 518.993 518.134 519.417 519.929 519.417C521.724 519.417 523.493 518.993 525.093 518.18L846.032 332.881C847.535 331.898 848.785 330.575 849.68 329.019C850.575 327.463 851.091 325.717 851.185 323.925V147.791C851.091 146.001 850.575 144.259 849.68 142.706C848.784 141.154 847.534 139.835 846.032 138.857L842.806 137.024C841.2 136.216 839.426 135.798 837.628 135.802C835.829 135.806 834.057 136.233 832.455 137.048V137.048Z" fill="#5600E2"/>
<path opacity="0.25" d="M832.455 137.048L511.539 322.138C510.034 323.114 508.78 324.432 507.881 325.985C506.982 327.537 506.462 329.28 506.363 331.071V507.414C506.462 509.205 506.982 510.948 507.881 512.5C508.78 514.052 510.034 515.37 511.539 516.347L514.765 518.18C516.365 518.993 518.134 519.417 519.929 519.417C521.724 519.417 523.493 518.993 525.093 518.18L846.032 332.881C847.535 331.898 848.785 330.575 849.68 329.019C850.575 327.463 851.091 325.717 851.185 323.925V147.791C851.091 146.001 850.575 144.259 849.68 142.706C848.784 141.154 847.534 139.835 846.032 138.857L842.806 137.024C841.2 136.216 839.426 135.798 837.628 135.802C835.829 135.806 834.057 136.233 832.455 137.048V137.048Z" fill="#272727"/>
<path d="M851.208 147.791V149.809C851.202 148.973 850.977 148.153 850.555 147.431C850.133 146.709 849.529 146.11 848.803 145.694C848.077 145.279 847.255 145.061 846.418 145.062C845.582 145.063 844.76 145.284 844.036 145.702L527.042 328.797C524.872 330.019 523.075 331.808 521.844 333.971V334.134L507.918 326.082C508.797 324.477 510.077 323.127 511.631 322.161L832.547 137.048C834.152 136.251 835.919 135.836 837.711 135.836C839.503 135.836 841.271 136.251 842.875 137.048L846.101 138.881C847.589 139.864 848.826 141.182 849.713 142.729C850.6 144.277 851.112 146.01 851.208 147.791Z" fill="#5600E2"/>
<path opacity="0.45" d="M851.208 147.791V149.809C851.202 148.973 850.977 148.153 850.555 147.431C850.133 146.709 849.529 146.11 848.803 145.694C848.077 145.279 847.255 145.061 846.418 145.062C845.582 145.063 844.76 145.284 844.036 145.702L527.042 328.797C524.872 330.019 523.075 331.808 521.844 333.971V334.134L507.918 326.082C508.797 324.477 510.077 323.127 511.631 322.161L832.547 137.048C834.152 136.251 835.919 135.836 837.711 135.836C839.503 135.836 841.271 136.251 842.875 137.048L846.101 138.881C847.589 139.864 848.826 141.182 849.713 142.729C850.6 144.277 851.112 146.01 851.208 147.791Z" fill="white"/>
<path d="M846.428 146.886C845.922 146.887 845.425 147.024 844.989 147.28L527.973 330.398C526.098 331.48 524.541 333.036 523.457 334.909C522.374 336.782 521.802 338.908 521.799 341.072V512.959C521.799 513.934 522.008 516.208 523.888 516.208C524.714 516.171 525.515 515.915 526.209 515.465L690.693 420.519L700.975 449.035C701.414 450.028 702.144 450.864 703.068 451.433C703.993 452.002 705.068 452.277 706.152 452.222C707.237 452.167 708.279 451.784 709.14 451.123C710.002 450.463 710.643 449.557 710.978 448.525L724.904 400.773L843.272 332.463C847.565 330.004 849.468 327.498 849.468 324.365V149.809C849.472 149.415 849.395 149.023 849.242 148.659C849.089 148.295 848.863 147.966 848.579 147.692C848.294 147.419 847.956 147.206 847.587 147.067C847.217 146.929 846.823 146.867 846.428 146.886V146.886Z" fill="white"/>
<path d="M523.885 518.133C521.564 518.133 519.963 516.138 519.963 513.052V341.071C519.969 338.585 520.626 336.145 521.868 333.992C523.11 331.838 524.893 330.047 527.042 328.797L844.058 145.725C844.761 145.308 845.562 145.084 846.379 145.075C847.601 145.105 848.765 145.603 849.629 146.467C850.493 147.331 850.992 148.494 851.021 149.716V324.272C851.021 329.284 846.936 332.207 843.896 333.971L726.433 402.118L712.717 449.15C712.285 450.558 711.432 451.799 710.273 452.706C709.113 453.613 707.703 454.143 706.233 454.224C704.763 454.305 703.304 453.933 702.052 453.159C700.8 452.384 699.815 451.244 699.232 449.893L689.646 423.349L527.065 517.066C526.12 517.699 525.022 518.068 523.885 518.133V518.133ZM846.495 148.857C846.309 148.859 846.125 148.907 845.961 148.997L528.968 332.068C527.37 332.99 526.043 334.316 525.118 335.912C524.194 337.508 523.704 339.319 523.7 341.164V513.052C523.657 513.55 523.762 514.051 524.001 514.49C524.458 514.386 524.896 514.214 525.301 513.98L691.689 417.919L702.667 448.524C702.957 449.156 703.431 449.684 704.028 450.041C704.625 450.397 705.315 450.564 706.009 450.519C706.725 450.487 707.413 450.236 707.981 449.8C708.55 449.365 708.971 448.765 709.189 448.083L723.3 399.659L723.927 399.287L842.294 330.978C846.936 328.309 847.586 326.198 847.586 324.481V149.809C847.584 149.662 847.551 149.518 847.49 149.385C847.429 149.252 847.342 149.132 847.233 149.035C847.124 148.937 846.996 148.862 846.857 148.816C846.718 148.769 846.572 148.752 846.426 148.765L846.495 148.857Z" fill="#5600E2"/>
<path d="M557.678 385.877C557.882 380.282 558.659 374.723 559.999 369.287C561.319 363.838 563.241 358.554 565.732 353.532C568.172 348.647 571.204 344.08 574.76 339.935C578.245 335.877 582.388 332.434 587.014 329.749C590.68 327.399 594.897 326.047 599.246 325.827C602.548 325.731 605.771 326.854 608.297 328.983C611.012 331.437 612.996 334.592 614.03 338.102C615.471 342.606 616.253 347.295 616.351 352.024C616.49 356.107 616.56 360.4 616.56 364.948C616.56 369.495 616.56 373.742 616.351 377.779C616.144 383.373 615.367 388.932 614.03 394.369C612.717 399.834 610.794 405.134 608.297 410.17C605.886 415.092 602.843 419.678 599.246 423.814C595.758 427.827 591.624 431.231 587.014 433.884C583.35 436.271 579.126 437.662 574.76 437.921C571.459 438.025 568.239 436.891 565.732 434.742C563.019 432.221 561.039 429.014 559.999 425.461C558.562 420.956 557.78 416.267 557.678 411.539C557.562 407.664 557.492 403.465 557.492 398.94C557.492 394.415 557.562 390.053 557.678 385.877ZM598.921 387.083C598.921 385.32 599.06 383.348 599.13 381.19C599.199 379.032 599.13 376.851 599.13 374.623C599.13 372.396 599.13 370.284 599.13 368.242C599.13 366.201 598.99 364.391 598.921 362.79C598.851 360.731 598.524 358.688 597.946 356.711C597.521 355.206 596.723 353.833 595.625 352.72C594.648 351.791 593.353 351.268 592.005 351.258C590.193 351.341 588.437 351.91 586.922 352.905C585.005 354.011 583.293 355.44 581.862 357.128C580.413 358.84 579.195 360.736 578.241 362.767C577.229 364.864 576.451 367.066 575.92 369.333C575.385 371.714 575.051 374.136 574.922 376.572C574.806 378.266 574.714 380.169 574.69 382.257C574.667 384.345 574.69 386.503 574.69 388.731C574.69 390.958 574.69 393.116 574.69 395.204C574.69 397.293 574.69 399.195 574.922 400.866C574.828 404.509 575.973 408.076 578.172 410.982C580.075 413.071 582.968 412.993 586.852 410.75C590.727 408.526 593.767 405.095 595.509 400.982C597.475 396.576 598.631 391.852 598.921 387.037V387.083Z" fill="#272727"/>
<path d="M675.234 338.381C675.234 339.773 675.234 341.629 675.234 343.88C675.234 346.13 675.234 348.033 675.234 349.518C675.086 354.315 674.393 359.079 673.168 363.718C671.941 368.432 670.206 372.999 667.992 377.339C665.854 381.572 663.186 385.517 660.055 389.079C657.086 392.485 653.582 395.385 649.68 397.664C646.556 399.652 642.979 400.818 639.282 401.052C636.411 401.192 633.587 400.276 631.345 398.476C628.968 396.444 627.188 393.806 626.192 390.843C624.855 387.039 624.149 383.041 624.104 379.009C624.104 377.594 624.104 375.761 624.104 373.487C624.104 371.213 624.104 369.357 624.104 367.872C624.198 363.092 624.86 358.341 626.076 353.718C627.313 348.993 629.064 344.418 631.298 340.074C633.483 335.829 636.163 331.857 639.282 328.241C642.239 324.788 645.754 321.855 649.68 319.563C652.796 317.588 656.37 316.453 660.055 316.268C662.938 316.199 665.758 317.125 668.039 318.89C670.442 320.913 672.234 323.564 673.215 326.547C674.504 330.361 675.185 334.355 675.234 338.381V338.381ZM641.023 368.545C641.209 372.118 642.068 374.485 643.599 375.668C645.131 376.851 647.174 376.712 649.68 375.273C652.304 373.71 654.41 371.41 655.738 368.661C657.319 365.523 658.198 362.079 658.314 358.567C658.43 357.059 658.5 355.388 658.5 353.555C658.5 351.722 658.5 350.121 658.314 348.729C658.128 345.187 657.27 342.82 655.738 341.629C654.206 340.446 652.187 340.562 649.68 342.024C647.062 343.59 644.951 345.878 643.599 348.613C642.021 351.76 641.142 355.211 641.023 358.73C640.907 360.238 640.837 361.909 640.837 363.742C640.837 365.575 640.907 367.152 641.023 368.521V368.545Z" fill="#272727"/>
<path d="M713.576 360.794C712.099 361.705 710.473 362.349 708.772 362.696C707.593 362.946 706.376 362.946 705.198 362.696C704.263 362.435 703.398 361.967 702.668 361.327C702.03 360.788 701.461 360.172 700.973 359.494V390.308C700.957 391.409 700.704 392.493 700.231 393.487C699.876 394.381 699.251 395.144 698.444 395.668L686.607 402.629C686.342 402.824 686.016 402.918 685.687 402.892C685.359 402.866 685.051 402.724 684.82 402.489C684.54 402.176 684.327 401.808 684.195 401.409C684.064 401.01 684.015 400.588 684.054 400.169V305.06C684.067 303.956 684.329 302.87 684.82 301.881C685.175 300.987 685.799 300.224 686.607 299.7L697.979 293.134C698.244 292.938 698.571 292.845 698.899 292.87C699.227 292.896 699.535 293.039 699.767 293.273C700.039 293.591 700.245 293.959 700.373 294.358C700.5 294.756 700.547 295.176 700.509 295.593V298.934C701.066 297.635 701.693 296.266 702.343 294.828C703.016 293.344 703.832 291.93 704.78 290.605C705.838 289.132 707.035 287.765 708.354 286.521C709.937 285.049 711.69 283.771 713.576 282.716C715.998 281.227 718.73 280.314 721.56 280.047C722.755 279.965 723.955 280.129 725.084 280.528C726.214 280.927 727.25 281.553 728.128 282.368C730.319 284.488 731.919 287.144 732.77 290.071C734.065 294.503 734.714 299.098 734.697 303.714C734.697 305.106 734.697 307.056 734.697 309.515C734.697 311.975 734.697 313.947 734.697 315.432C734.617 320.768 733.972 326.08 732.77 331.279C731.695 335.758 730.139 340.106 728.128 344.25C726.408 347.855 724.198 351.204 721.56 354.204C719.259 356.803 716.565 359.027 713.576 360.794V360.794ZM717.8 323.344C717.986 320.648 717.986 317.942 717.8 315.246C717.792 312.574 717.045 309.956 715.642 307.682C714.388 305.895 712.276 305.849 709.329 307.543C707.966 308.345 706.762 309.391 705.778 310.629C704.775 311.889 703.933 313.268 703.271 314.736C702.622 316.233 702.109 317.787 701.739 319.376C701.354 320.899 701.098 322.451 700.973 324.017C700.857 325.525 700.788 327.265 700.788 329.191C700.788 331.117 700.788 332.764 700.973 334.133C701.071 335.413 701.328 336.676 701.739 337.892C702.054 338.922 702.575 339.878 703.271 340.7C703.921 341.412 704.817 341.852 705.778 341.93C707.04 341.95 708.279 341.586 709.329 340.885C712.237 339.235 714.471 336.615 715.642 333.484C716.9 330.241 717.628 326.818 717.8 323.344V323.344Z" fill="#272727"/>
<path d="M771.252 303.483C771.252 302.416 771.02 301.743 770.555 301.418C769.809 301.128 768.981 301.128 768.234 301.418C766.715 301.801 765.219 302.274 763.755 302.833C761.922 303.506 759.624 304.272 756.792 305.154C752.027 306.546 748.359 305.958 745.791 303.39C743.215 300.838 741.938 296.267 741.938 289.724C741.957 286.313 742.497 282.925 743.54 279.677C744.637 276.198 746.133 272.858 747.996 269.723C749.955 266.466 752.292 263.452 754.959 260.743C757.638 258.024 760.675 255.682 763.987 253.782C766.741 252.08 769.799 250.929 772.992 250.395C775.381 249.967 777.838 250.143 780.141 250.905C782.06 251.612 783.692 252.934 784.783 254.664C785.969 256.519 786.634 258.659 786.709 260.859C786.763 261.954 786.522 263.044 786.013 264.015C785.65 264.956 785.011 265.765 784.179 266.335L772.992 272.785C772.296 273.18 771.762 273.273 771.344 273.017C770.883 272.737 770.402 272.489 769.906 272.275C769.206 271.995 768.451 271.884 767.701 271.95C766.337 272.156 765.037 272.664 763.894 273.435C762.511 274.208 761.284 275.231 760.274 276.451C759.332 277.55 758.814 278.949 758.811 280.396C758.72 281.199 758.883 282.01 759.276 282.716C759.601 283.103 760.227 283.196 761.156 282.995C762.491 282.67 763.808 282.275 765.101 281.811C766.795 281.208 769.024 280.466 771.785 279.491C777.472 277.658 781.626 278.215 784.226 281.208C787.081 284.974 788.468 289.651 788.125 294.364C788.101 297.79 787.561 301.192 786.523 304.457C785.412 308.05 783.852 311.487 781.882 314.69C779.75 318.133 777.227 321.318 774.362 324.18C771.361 327.167 767.982 329.749 764.312 331.86C761.285 333.746 757.918 335.023 754.402 335.619C751.972 336.02 749.479 335.731 747.207 334.784C745.322 333.934 743.76 332.503 742.751 330.7C741.691 328.842 741.094 326.757 741.01 324.621C740.954 323.526 741.195 322.435 741.706 321.465C742.069 320.524 742.708 319.715 743.54 319.145L755.144 312.416C755.841 312.022 756.328 311.998 756.653 312.416C757.009 312.808 757.415 313.151 757.86 313.437C758.511 313.819 759.266 313.989 760.018 313.924C761.543 313.714 762.998 313.15 764.266 312.277C766.095 311.228 767.741 309.887 769.14 308.309C770.449 307.039 771.207 305.306 771.252 303.483Z" fill="#272727"/>
<path d="M813.702 266.59C813.686 267.691 813.433 268.775 812.96 269.769C812.605 270.664 811.98 271.426 811.173 271.95L799.336 278.795C799.071 278.991 798.744 279.084 798.416 279.058C798.088 279.033 797.78 278.89 797.549 278.656C797.272 278.341 797.062 277.973 796.935 277.573C796.807 277.174 796.763 276.753 796.806 276.336V214.012C796.808 212.91 797.062 211.823 797.549 210.834C797.904 209.939 798.528 209.177 799.336 208.652L811.173 201.692C811.437 201.496 811.764 201.403 812.092 201.428C812.42 201.454 812.728 201.597 812.96 201.831C813.233 202.148 813.44 202.516 813.568 202.915C813.695 203.314 813.741 203.734 813.702 204.151V266.59ZM813.702 297.682C813.689 298.783 813.436 299.868 812.96 300.861C812.605 301.756 811.98 302.518 811.173 303.042L799.336 309.887C799.071 310.083 798.744 310.176 798.416 310.15C798.088 310.125 797.78 309.982 797.549 309.748C797.27 309.434 797.061 309.066 796.933 308.666C796.805 308.267 796.762 307.845 796.806 307.428V292.81C796.808 291.707 797.062 290.62 797.549 289.631C797.904 288.736 798.528 287.974 799.336 287.45L811.173 280.489C811.437 280.293 811.764 280.2 812.092 280.226C812.42 280.251 812.728 280.394 812.96 280.628C813.232 280.946 813.438 281.315 813.566 281.713C813.693 282.112 813.74 282.532 813.702 282.948V297.682Z" fill="#414141"/>
<path d="M357.914 372.607C359.644 375.967 360.924 379.54 361.721 383.234C363.438 392.376 360.142 401.588 358.309 410.683C357.705 413.769 357.496 416.6 359.701 419.013C359.898 419.281 360.157 419.495 360.457 419.637C360.757 419.779 361.088 419.843 361.419 419.825C361.976 419.686 362.347 419.129 362.649 418.642C364.839 414.898 366.583 410.911 367.848 406.762C368.1 410.687 367.968 414.627 367.453 418.526C366.776 421.583 366.776 424.751 367.453 427.807C368.428 430.777 371.77 433.167 374.416 431.705C376.046 430.468 377.148 428.662 377.503 426.647L379.661 419.686C380.72 416.451 381.595 413.159 382.284 409.825C383.388 403.816 383.294 397.648 382.007 391.675C380.721 385.703 378.267 380.043 374.787 375.02C373.107 372.321 370.692 370.156 367.825 368.779C366.474 368.242 365.021 368.007 363.57 368.091C362.118 368.176 360.703 368.577 359.423 369.266C357.636 370.241 357.055 370.867 357.914 372.607Z" fill="#F28F8F"/>
<path d="M387.622 388.57C386.624 376.389 386.206 363.627 383.931 352.095C381.657 340.563 376.829 296.222 374.648 283.902C371.793 267.659 367.917 257.497 365.549 247.45C362.88 236.219 360.652 220.859 355.941 196.403C351.229 171.947 345.45 158.257 333.358 150.368C324.455 144.329 313.945 141.096 303.186 141.087C300.447 148.605 302.977 174.917 302.977 174.917C302.977 174.917 314.582 231.022 315.835 237.913C317.088 244.804 329.505 276.337 337.814 302C342.572 316.734 349.767 337.454 349.767 337.454C351.949 346.619 352.715 349.543 350.881 356.805C350.115 359.868 348.885 362.792 348.119 365.854C347.285 369.193 346.772 372.604 346.587 376.041C346.471 378.361 346.587 380.681 346.379 383.001C346.17 387.294 345.473 391.563 344.963 395.833C344.615 398.965 346.425 400.891 349.605 399.916C351.9 399.037 353.769 397.309 354.827 395.09C356.159 391.949 357.087 388.651 357.589 385.275C357.96 383.674 359.91 374.045 362.95 376.667C365.549 378.871 368.311 386.389 371.723 391.494C373.57 393.738 374.935 396.338 375.733 399.132C376.532 401.927 376.747 404.855 376.365 407.736C375.785 415.509 372.071 425.904 373.325 432.47C374.578 439.037 378.245 440.452 379.568 437.737C380.891 435.023 384.906 419.175 386.252 413.676C388.08 405.439 388.543 396.957 387.622 388.57V388.57Z" fill="#FFA8A7"/>
<path d="M357.52 379.939C371.654 386.158 389.27 389.546 396.976 419.709C404.681 449.873 413.802 560.714 413.802 560.714C410.128 565.347 405.432 569.068 400.081 571.588C394.731 574.107 388.87 575.357 382.957 575.239L384.211 606.865C384.211 606.865 363.554 616.796 332.779 609.023C317.855 605.264 308.664 591.62 308.664 591.62C308.664 591.62 312.169 502.126 314.606 467.948C317.043 433.77 320.153 363.257 357.52 379.939Z" fill="#414141"/>
<path d="M377.967 453.516C377.967 453.516 381.727 544.008 382.957 575.239C386.392 575.242 389.814 574.821 393.146 573.986L377.967 453.516Z" fill="#272727"/>
<path d="M346.331 382.932C346.122 387.225 345.426 391.494 344.916 395.763C344.567 398.896 346.378 400.822 349.557 399.847C351.853 398.967 353.722 397.239 354.78 395.021C356.112 391.879 357.04 388.581 357.541 385.206C357.82 383.976 359.004 378.059 360.93 376.528L346.563 375.994C346.424 378.291 346.447 380.612 346.331 382.932ZM360.907 376.528H362.88C362.747 376.4 362.59 376.3 362.418 376.233C362.246 376.167 362.063 376.137 361.878 376.143C361.694 376.15 361.513 376.193 361.346 376.271C361.179 376.349 361.03 376.46 360.907 376.598V376.528Z" fill="#FFA8A7"/>
<path d="M316.182 139.44C339.09 148.861 346.354 156.448 350.787 170.323C355.22 184.199 362.206 219.282 364.504 234.526C366.802 249.77 372.557 263.483 375.76 283.415C378.963 303.346 382.12 332.512 382.12 332.512C382.12 332.512 377.965 337.849 365.432 338.591C352.899 339.334 346.377 334.809 346.377 334.809C346.377 334.809 333.055 295.016 328.019 281.721C322.982 268.426 311.447 235.315 311.447 235.315L316.182 139.44Z" fill="#E6E6E6"/>
<path d="M120.203 693.202L135.498 697.889L137.796 686.868L125.263 688.051L120.203 693.202Z" fill="#272727"/>
<path d="M124.382 662.389C124.382 662.389 117.976 669.744 116.003 672.088C114.03 674.431 118.579 689.977 120.181 693.203L125.24 688.052C125.751 691.973 124.915 695.825 124.103 701.834C123.43 706.823 120.923 715.338 122.966 724.039C126.006 736.963 136.102 750.096 148.705 760.538C161.308 770.979 171.148 773.485 176.997 773.531C182.846 773.578 186.536 771.211 188.138 767.174C189.739 763.136 124.382 662.389 124.382 662.389Z" fill="#272727"/>
<path d="M179.342 662.714L182.963 658.352C185.4 660.115 180.642 666.821 179.783 675.197C178.282 687.603 178.383 700.151 180.085 712.531C184.007 734.597 189.926 751.141 191.69 761.025C194.011 774.274 171.381 775.133 151.166 757.684C141.116 749.006 126.541 729.4 126.077 719.167C125.613 708.934 129.837 696.799 129.094 689.003C128.351 681.207 122.874 669.791 124.452 662.32C125.334 658.213 131.415 651.785 136.939 646.472C141.929 641.623 146.222 631.112 148.706 634.151L146.849 637.771C146.269 641.135 148.474 648.955 155.831 656.89C159.452 660.927 171.776 670.998 179.342 662.714Z" fill="#414141"/>
<path opacity="0.15" d="M162.398 662.412C166.715 665.173 172.076 667.169 176.579 664.849C176.579 664.849 176.695 664.849 176.742 664.849C175.317 666.22 174.226 667.899 173.55 669.757C172.874 671.615 172.632 673.603 172.842 675.568C173.214 682.901 173.075 732.462 173.075 732.462C173.075 732.462 170.754 689.629 170.127 681.416C169.338 669.396 167.992 667.03 162.375 662.389L162.398 662.412Z" fill="#272727"/>
<path d="M191.688 761.024C190.249 752.671 185.793 739.562 182.079 722.391C181.568 727.705 182.706 732.995 182.079 734.434C180.663 738.007 168.826 735.385 162.444 732.717C156.061 730.048 155.922 717.844 153.392 704.873C150.862 691.903 137.819 694.71 127.862 702.298C126.693 707.805 126.11 713.42 126.121 719.05C126.585 729.283 141.161 748.889 151.211 757.567C171.333 775.132 194.009 774.273 191.688 761.024Z" fill="#272727"/>
<path opacity="0.15" d="M161.309 674.733C161.08 674.957 160.791 675.108 160.476 675.168C160.162 675.228 159.837 675.194 159.542 675.07C159.247 674.947 158.995 674.738 158.818 674.472C158.641 674.205 158.547 673.893 158.547 673.573C158.547 673.253 158.641 672.94 158.818 672.674C158.995 672.407 159.247 672.199 159.542 672.075C159.837 671.951 160.162 671.917 160.476 671.977C160.791 672.037 161.08 672.188 161.309 672.412C161.463 672.563 161.586 672.744 161.669 672.943C161.753 673.142 161.796 673.356 161.796 673.573C161.796 673.789 161.753 674.003 161.669 674.202C161.586 674.401 161.463 674.582 161.309 674.733Z" fill="#272727"/>
<path opacity="0.15" d="M162.234 686.428C162.006 686.652 161.716 686.803 161.402 686.863C161.088 686.923 160.763 686.889 160.468 686.766C160.173 686.642 159.921 686.433 159.744 686.167C159.567 685.9 159.473 685.588 159.473 685.268C159.473 684.948 159.567 684.635 159.744 684.369C159.921 684.102 160.173 683.894 160.468 683.77C160.763 683.646 161.088 683.612 161.402 683.672C161.716 683.732 162.006 683.883 162.234 684.107C162.389 684.258 162.511 684.439 162.595 684.638C162.679 684.838 162.722 685.052 162.722 685.268C162.722 685.484 162.679 685.698 162.595 685.897C162.511 686.096 162.389 686.277 162.234 686.428Z" fill="#272727"/>
<path opacity="0.15" d="M163.165 698.122C163.013 698.275 162.832 698.396 162.632 698.478C162.433 698.56 162.22 698.603 162.004 698.603C161.789 698.603 161.576 698.56 161.376 698.478C161.177 698.396 160.996 698.275 160.844 698.122C160.692 697.97 160.571 697.789 160.488 697.59C160.406 697.391 160.363 697.177 160.363 696.962C160.363 696.746 160.406 696.533 160.488 696.334C160.571 696.135 160.692 695.954 160.844 695.801C161.153 695.495 161.57 695.323 162.004 695.323C162.439 695.323 162.856 695.495 163.165 695.801C163.319 695.953 163.442 696.133 163.526 696.332C163.609 696.532 163.653 696.746 163.653 696.962C163.653 697.178 163.609 697.392 163.526 697.591C163.442 697.791 163.319 697.971 163.165 698.122Z" fill="#272727"/>
<path opacity="0.15" d="M164.117 709.816C163.809 710.122 163.391 710.294 162.957 710.294C162.522 710.294 162.105 710.122 161.796 709.816C161.642 709.665 161.519 709.484 161.435 709.285C161.352 709.086 161.309 708.872 161.309 708.656C161.309 708.439 161.352 708.226 161.435 708.026C161.519 707.827 161.642 707.646 161.796 707.495C162.104 707.187 162.521 707.015 162.957 707.015C163.392 707.015 163.809 707.187 164.117 707.495C164.425 707.803 164.598 708.22 164.598 708.656C164.598 709.091 164.425 709.508 164.117 709.816Z" fill="#272727"/>
<path opacity="0.15" d="M165.043 721.533C164.734 721.839 164.317 722.011 163.882 722.011C163.448 722.011 163.031 721.839 162.722 721.533C162.568 721.382 162.445 721.201 162.361 721.002C162.277 720.803 162.234 720.589 162.234 720.372C162.234 720.156 162.277 719.942 162.361 719.743C162.445 719.544 162.568 719.363 162.722 719.212C163.038 718.949 163.441 718.813 163.852 718.831C164.263 718.85 164.652 719.021 164.943 719.312C165.233 719.603 165.405 719.992 165.424 720.403C165.442 720.814 165.306 721.217 165.043 721.533V721.533Z" fill="#272727"/>
<path d="M159.707 674.082C159.644 674.037 159.593 673.977 159.557 673.909C159.521 673.841 159.5 673.765 159.498 673.688C159.485 673.602 159.489 673.515 159.51 673.431C159.531 673.347 159.568 673.269 159.62 673.2C159.672 673.13 159.737 673.072 159.812 673.029C159.886 672.985 159.969 672.957 160.055 672.945C160.519 672.945 171.358 671.692 179.133 678.421C179.265 678.535 179.347 678.697 179.36 678.871C179.373 679.045 179.316 679.217 179.202 679.349C179.089 679.482 178.927 679.563 178.753 679.576C178.579 679.589 178.406 679.533 178.274 679.419C170.94 673.061 160.333 674.245 160.217 674.245C160.125 674.268 160.029 674.264 159.939 674.236C159.849 674.207 159.768 674.154 159.707 674.082V674.082Z" fill="#272727"/>
<path d="M160.658 685.778C160.597 685.725 160.547 685.662 160.511 685.59C160.475 685.518 160.454 685.44 160.449 685.36C160.436 685.276 160.44 685.19 160.461 685.108C160.483 685.025 160.52 684.948 160.573 684.881C160.625 684.813 160.69 684.757 160.764 684.716C160.839 684.675 160.921 684.649 161.006 684.641C161.47 684.641 172.309 683.364 180.084 690.093C180.216 690.207 180.298 690.369 180.311 690.543C180.324 690.717 180.267 690.889 180.154 691.022C180.04 691.154 179.878 691.235 179.704 691.249C179.53 691.262 179.357 691.205 179.225 691.091C171.891 684.734 161.284 685.917 161.168 685.94C161.077 685.951 160.984 685.942 160.895 685.914C160.807 685.886 160.726 685.839 160.658 685.778V685.778Z" fill="#272727"/>
<path d="M161.515 697.494C161.401 697.382 161.327 697.235 161.306 697.076C161.293 696.992 161.297 696.906 161.319 696.824C161.34 696.742 161.378 696.664 161.43 696.597C161.482 696.53 161.547 696.474 161.622 696.433C161.696 696.391 161.779 696.366 161.863 696.357C162.327 696.357 173.166 695.081 180.941 701.81C181.074 701.924 181.155 702.085 181.168 702.26C181.181 702.434 181.125 702.606 181.011 702.738C180.897 702.87 180.735 702.952 180.561 702.965C180.387 702.978 180.215 702.921 180.083 702.808C172.748 696.45 162.142 697.633 162.026 697.657C161.934 697.666 161.841 697.656 161.754 697.628C161.666 697.6 161.585 697.555 161.515 697.494V697.494Z" fill="#272727"/>
<path d="M162.493 709.189C162.378 709.077 162.305 708.93 162.284 708.771C162.264 708.603 162.311 708.433 162.415 708.298C162.519 708.164 162.672 708.075 162.841 708.052C163.305 708.052 174.144 706.776 181.919 713.505C182.038 713.63 182.105 713.796 182.105 713.969C182.105 714.142 182.038 714.308 181.919 714.433C181.858 714.495 181.786 714.544 181.706 714.577C181.627 714.611 181.541 714.628 181.455 714.628C181.368 714.628 181.283 714.611 181.203 714.577C181.123 714.544 181.051 714.495 180.99 714.433C173.656 708.075 163.05 709.259 162.934 709.282C162.78 709.303 162.625 709.27 162.493 709.189V709.189Z" fill="#272727"/>
<path d="M163.419 720.883C163.305 720.771 163.231 720.624 163.21 720.466C163.197 720.38 163.202 720.292 163.225 720.208C163.248 720.124 163.287 720.046 163.342 719.978C163.397 719.911 163.465 719.855 163.542 719.815C163.619 719.775 163.704 719.752 163.79 719.746C164.231 719.746 175.07 718.47 182.845 725.199C182.963 725.32 183.029 725.482 183.029 725.651C183.029 725.82 182.963 725.983 182.845 726.104C182.785 726.166 182.713 726.215 182.633 726.248C182.553 726.282 182.468 726.299 182.381 726.299C182.295 726.299 182.209 726.282 182.129 726.248C182.05 726.215 181.977 726.166 181.917 726.104C174.606 719.769 163.976 720.93 163.86 720.953C163.709 720.98 163.554 720.956 163.419 720.883Z" fill="#272727"/>
<path d="M335.029 324.368C335.029 324.368 336.7 353.348 335.261 413.606C334.054 464.026 339.624 490.176 319.386 522.289C301.306 550.945 188.462 660.416 180.315 670.347C180.315 670.347 144.596 673.596 142.855 637.005C142.855 637.005 176.114 577.628 191.804 543.961C207.494 510.293 228.939 494.144 228.939 494.144L199.626 347.362L335.029 324.368Z" fill="#272727"/>
<path d="M212.089 345.25L199.695 347.339V347.872L227.941 489.411L228.892 492.961H228.66L228.892 494.051C228.892 494.051 213.644 505.653 199.439 529.413C204.453 542.221 214.293 564.542 214.293 564.542C215.175 567.999 205.195 582.153 210.882 624.754C211.299 627.816 212.042 632.271 212.901 637.074C238.292 611.412 272.92 576.491 296.13 550.62C297.267 543.961 300.771 522.034 298.729 505.281C296.687 488.529 289.167 406.344 289.167 406.344C296.429 401.804 302.787 395.959 307.92 389.104C312.263 383.537 315.258 377.041 316.67 370.124C320.57 359.126 323.787 347.898 326.302 336.503L212.089 345.25Z" fill="#272727"/>
<path d="M256.629 813.532L271.831 808.543L267.375 798.218L257.789 806.386L256.629 813.532Z" fill="#272727"/>
<path d="M242.331 785.875C242.331 785.875 241.31 795.597 241.055 798.66C240.799 801.722 253.448 811.816 256.628 813.533L257.789 806.386C260.481 809.31 261.989 812.929 264.751 818.312C267.072 822.791 269.927 831.213 276.611 837.13C286.522 845.947 302.35 850.89 318.643 852.189C334.936 853.488 344.475 849.869 349.28 846.527C354.084 843.186 355.709 839.102 354.734 834.926C353.759 830.749 242.331 785.875 242.331 785.875Z" fill="#272727"/>
<path d="M287.45 754.551L287.891 748.913C290.909 748.913 290.909 757.15 294.993 764.505C300.494 774.413 308.641 786.873 316.717 794.878C332.616 810.679 346.89 820.796 354.085 827.896C363.6 837.409 345.59 851.099 319.015 848.477C305.809 847.154 282.6 839.497 276.333 831.399C270.067 823.301 266.516 810.934 261.479 805.041C256.443 799.147 245.233 792.929 242.331 785.875C240.684 782.023 242.03 773.229 243.422 765.758C244.722 758.797 242.099 747.892 245.952 748.913L246.532 752.927C247.995 756.013 254.261 761.141 264.868 763.415C270.159 764.528 286.011 765.688 287.45 754.551Z" fill="#414141"/>
<path opacity="0.15" d="M273.409 764.087C278.515 763.855 284.085 762.417 286.406 757.915V757.776C286.026 759.714 286.096 761.714 286.612 763.621C287.127 765.528 288.073 767.291 289.377 768.774C294.019 774.552 322.334 815.18 322.334 815.18C322.334 815.18 295.713 781.559 290.584 775.225C283.041 765.943 280.557 764.691 273.293 764.11L273.409 764.087Z" fill="#272727"/>
<path d="M354.154 827.895C348.166 821.885 336.979 813.741 323.982 801.838C326.651 806.478 330.62 810.145 330.945 811.653C331.827 815.388 320.64 820.052 313.886 821.537C307.132 823.022 299.96 813.138 290.514 804.065C281.068 794.993 271.947 804.715 268.094 816.688C270.307 821.867 273.061 826.798 276.31 831.399C282.576 839.496 305.786 847.153 318.992 848.476C345.59 851.098 363.6 837.408 354.154 827.895Z" fill="#272727"/>
<path opacity="0.15" d="M279.629 774.761C279.565 775.189 279.333 775.573 278.984 775.83C278.636 776.087 278.2 776.195 277.772 776.13C277.345 776.065 276.96 775.834 276.703 775.485C276.446 775.137 276.338 774.701 276.403 774.273C276.431 774.06 276.502 773.854 276.612 773.669C276.721 773.483 276.867 773.322 277.04 773.194C277.214 773.066 277.411 772.974 277.621 772.925C277.83 772.875 278.048 772.868 278.26 772.904C278.686 772.973 279.068 773.206 279.324 773.553C279.58 773.9 279.689 774.334 279.629 774.761V774.761Z" fill="#272727"/>
<path opacity="0.15" d="M287.103 783.787C287.075 784.001 287.004 784.207 286.895 784.392C286.785 784.578 286.639 784.739 286.466 784.867C286.293 784.995 286.095 785.086 285.886 785.136C285.676 785.186 285.459 785.193 285.246 785.157C284.929 785.107 284.634 784.966 284.398 784.749C284.161 784.532 283.994 784.25 283.918 783.939C283.841 783.627 283.859 783.3 283.968 782.998C284.077 782.697 284.273 782.434 284.531 782.244C284.79 782.053 285.098 781.944 285.419 781.928C285.739 781.913 286.057 781.993 286.332 782.158C286.607 782.323 286.827 782.566 286.964 782.856C287.101 783.146 287.15 783.47 287.103 783.787V783.787Z" fill="#272727"/>
<path opacity="0.15" d="M294.6 792.836C294.532 793.264 294.297 793.647 293.947 793.902C293.596 794.157 293.159 794.262 292.731 794.194C292.304 794.126 291.92 793.891 291.666 793.541C291.411 793.191 291.306 792.753 291.374 792.326C291.448 791.898 291.685 791.516 292.036 791.26C292.387 791.005 292.824 790.896 293.254 790.956C293.466 790.99 293.67 791.066 293.853 791.179C294.036 791.292 294.194 791.44 294.319 791.615C294.445 791.79 294.534 791.988 294.582 792.197C294.63 792.407 294.636 792.624 294.6 792.836V792.836Z" fill="#272727"/>
<path opacity="0.15" d="M302.096 801.862C302.028 802.29 301.793 802.673 301.443 802.928C301.092 803.182 300.655 803.287 300.227 803.22C299.8 803.152 299.416 802.917 299.162 802.567C298.907 802.216 298.802 801.779 298.87 801.351C298.903 801.139 298.978 800.936 299.09 800.753C299.202 800.571 299.349 800.411 299.523 800.285C299.696 800.159 299.893 800.069 300.101 800.019C300.31 799.969 300.526 799.96 300.738 799.994C300.95 800.027 301.153 800.102 301.336 800.214C301.519 800.326 301.678 800.473 301.804 800.647C301.93 800.82 302.021 801.017 302.071 801.225C302.121 801.434 302.129 801.65 302.096 801.862V801.862Z" fill="#272727"/>
<path opacity="0.15" d="M309.591 810.888C309.542 811.205 309.4 811.5 309.183 811.737C308.967 811.973 308.685 812.14 308.373 812.216C308.062 812.293 307.735 812.275 307.433 812.166C307.131 812.057 306.869 811.861 306.678 811.603C306.488 811.345 306.378 811.036 306.363 810.716C306.348 810.395 306.428 810.078 306.593 809.802C306.758 809.527 307.001 809.307 307.291 809.17C307.581 809.033 307.905 808.985 308.222 809.031C308.434 809.062 308.638 809.135 308.822 809.246C309.006 809.356 309.166 809.502 309.294 809.674C309.421 809.847 309.513 810.043 309.564 810.251C309.615 810.46 309.624 810.676 309.591 810.888V810.888Z" fill="#272727"/>
<path d="M277.935 775.178C277.771 775.159 277.621 775.075 277.518 774.946C277.399 774.821 277.332 774.654 277.332 774.482C277.332 774.309 277.399 774.143 277.518 774.018C277.866 773.716 286.036 766.5 296.271 767.521C296.356 767.529 296.439 767.555 296.515 767.596C296.591 767.637 296.657 767.692 296.711 767.759C296.765 767.826 296.805 767.903 296.829 767.986C296.853 768.068 296.861 768.155 296.851 768.24C296.833 768.414 296.748 768.575 296.614 768.688C296.48 768.801 296.307 768.856 296.132 768.843C286.477 767.869 278.469 774.922 278.4 774.992C278.271 775.106 278.107 775.171 277.935 775.178Z" fill="#272727"/>
<path d="M285.432 784.158C285.351 784.157 285.271 784.138 285.199 784.102C285.126 784.065 285.063 784.013 285.014 783.949C284.895 783.824 284.828 783.658 284.828 783.485C284.828 783.312 284.895 783.146 285.014 783.021C285.362 782.719 293.532 775.503 303.767 776.524C303.852 776.533 303.935 776.558 304.011 776.599C304.087 776.64 304.153 776.696 304.207 776.763C304.261 776.83 304.301 776.907 304.325 776.989C304.349 777.072 304.357 777.158 304.347 777.243C304.33 777.418 304.244 777.579 304.11 777.691C303.976 777.804 303.803 777.86 303.628 777.847C293.996 776.872 285.965 783.926 285.896 783.995C285.834 784.054 285.761 784.098 285.681 784.126C285.601 784.154 285.516 784.165 285.432 784.158V784.158Z" fill="#272727"/>
<path d="M292.905 793.23C292.753 793.209 292.613 793.135 292.51 793.021C292.446 792.962 292.394 792.891 292.358 792.811C292.323 792.731 292.305 792.644 292.305 792.557C292.305 792.469 292.323 792.383 292.358 792.303C292.394 792.223 292.446 792.152 292.51 792.093C292.859 791.791 301.005 784.552 311.24 785.596C311.413 785.614 311.571 785.701 311.679 785.835C311.788 785.97 311.839 786.143 311.821 786.315C311.802 786.488 311.716 786.645 311.581 786.754C311.446 786.863 311.273 786.914 311.101 786.895C301.446 785.921 293.439 792.998 293.369 793.067C293.24 793.178 293.075 793.236 292.905 793.23V793.23Z" fill="#272727"/>
<path d="M300.402 802.257C300.25 802.236 300.11 802.162 300.008 802.048C299.946 801.987 299.897 801.915 299.863 801.835C299.83 801.756 299.812 801.67 299.812 801.584C299.812 801.497 299.83 801.412 299.863 801.332C299.897 801.252 299.946 801.18 300.008 801.12C300.332 800.818 308.502 793.579 318.738 794.623C318.906 794.646 319.059 794.734 319.163 794.869C319.267 795.003 319.314 795.173 319.295 795.342C319.289 795.429 319.266 795.513 319.226 795.591C319.186 795.668 319.13 795.736 319.062 795.79C318.995 795.845 318.917 795.885 318.833 795.908C318.749 795.93 318.661 795.935 318.575 795.922C308.943 794.948 300.936 802.025 300.843 802.094C300.784 802.149 300.715 802.192 300.639 802.22C300.563 802.248 300.483 802.26 300.402 802.257V802.257Z" fill="#272727"/>
<path d="M307.898 811.282C307.817 811.281 307.738 811.262 307.665 811.226C307.593 811.19 307.53 811.138 307.481 811.073C307.361 810.948 307.295 810.782 307.295 810.609C307.295 810.437 307.361 810.27 307.481 810.145C307.806 809.844 315.975 802.628 326.211 803.648C326.379 803.672 326.532 803.76 326.636 803.894C326.74 804.029 326.787 804.199 326.768 804.368C326.762 804.455 326.738 804.541 326.699 804.619C326.659 804.697 326.604 804.767 326.537 804.823C326.469 804.879 326.392 804.922 326.308 804.947C326.224 804.973 326.135 804.981 326.048 804.971C316.416 803.997 308.409 811.05 308.316 811.12C308.203 811.226 308.053 811.284 307.898 811.282V811.282Z" fill="#272727"/>
<path d="M172.54 315.017C172.54 315.017 171.728 352.141 171.891 368.801C172.216 403.002 178.853 417.087 187.302 445.858C194.264 469.2 222.278 554.912 224.437 563.196C221.466 581.294 218.333 597.304 224.437 636.819C233.187 693.852 243.004 761.581 243.004 761.581C248.226 768.821 283.829 771.443 294.181 760.955C294.181 760.955 297.244 578.487 296.13 541.199C295.179 508.715 280.046 402.515 280.046 402.515C280.046 402.515 328.554 382.12 332.731 325.063L172.54 315.017Z" fill="#272727"/>
<path d="M233.003 121.969C233.003 121.969 286.152 125.565 316.185 139.44C322.892 142.526 342.852 168.676 340.485 204.71C334.497 295.48 336.888 345.97 336.888 345.97C335.24 350.611 318.018 375.67 270.486 380.171C221.514 384.812 193.895 379.754 170.871 359.544C171.034 321.004 171.707 271.79 172.124 238.726C172.449 213.203 172.844 196.961 175.815 178.909C177.787 166.913 182.777 148.977 191.017 144.359C200.298 139.07 209.929 134.419 219.843 130.438C224.769 128.557 229.251 125.673 233.003 121.969V121.969Z" fill="#FAFAFA"/>
<path d="M233.885 124.358C241.382 124.938 288.195 128.999 315.118 141.528C321.245 144.359 340.37 169.534 338.049 204.547C332.455 289.586 334.219 339.96 334.451 345.575C333.5 347.64 329.229 354.276 319.435 361.214C310.546 367.525 294.786 375.53 270.161 377.874C258.882 378.941 249.134 379.475 240.36 379.475C210.374 379.475 190.159 373.187 173.053 358.592C173.193 324.46 173.75 281.628 174.144 250.281L174.283 238.841C174.608 213.736 175.026 197.076 177.951 179.372C180.271 165.682 185.447 150.183 192.015 146.47C201.21 141.183 210.756 136.531 220.586 132.549C225.454 130.67 229.92 127.882 233.746 124.335M232.864 122.014C229.112 125.719 224.63 128.603 219.704 130.483C209.791 134.465 200.16 139.116 190.878 144.405C182.732 149.046 177.649 166.959 175.676 178.955C172.705 196.937 172.311 213.365 171.986 238.772C171.568 271.836 170.895 321.05 170.732 359.59C188.534 375.252 209.167 381.818 240.36 381.818C249.412 381.818 259.346 381.261 270.37 380.217C317.903 375.716 335.124 350.633 336.772 346.016C336.772 346.016 334.451 295.526 340.37 204.756C342.691 168.722 322.777 142.572 316.069 139.486C286.036 125.564 232.887 122.014 232.887 122.014H232.864Z" fill="#E0E0E0"/>
<path d="M234.049 19.7824C219.636 36.0245 224.301 55.1902 229.407 74.4022C235.441 96.2826 235.813 103.36 248.392 108.835C245.561 40.1314 267.517 124.312 322.662 70.8986C332.619 61.2461 333.246 31.4535 321.177 17.8101C304.118 -1.35554 262.225 -10.892 234.049 19.7824Z" fill="#272727"/>
<path d="M231.147 95.9817C241.173 100.158 245.722 93.267 245.722 93.267L236.856 118.79C236.856 118.79 231.147 134.615 244.051 142.248C279.747 163.688 271.67 172.714 283.739 183.132C287.824 178.004 287.29 155.033 287.94 148.977L295.762 124.405C299.839 124.548 303.922 124.361 307.97 123.848C317.532 122.503 322.94 115.704 325.957 105.449C330.761 88.928 330.042 64.008 324.123 31.7326C313.563 23.4028 278.563 21.5929 255.934 35.5147C256.747 54.4948 251.594 57.5808 251.594 65.6786C251.594 74.8438 250.967 76.9553 248.159 78.185C245.351 79.4148 242.844 75.1222 241.707 72.4307C239.804 67.7901 238.179 64.9593 233.7 63.8456C229.22 62.7318 224.207 63.4511 220.099 69.4839C213.74 78.8579 223.766 92.9653 231.147 95.9817Z" fill="#FFA8A7"/>
<path d="M295.761 124.497C284.458 123.94 268.583 118 262.177 112.014C255.771 106.028 251.594 94.3796 251.594 94.3796C251.89 102.299 254.758 109.906 259.763 116.051C268.119 126.214 293.394 131.945 293.394 131.945L295.761 124.497Z" fill="#F28F8F"/>
<path d="M289.75 40.8747C289.448 40.8747 289.077 41.0603 289.054 41.362C289.031 41.6636 289.356 41.7564 289.588 41.8956C289.976 42.116 290.349 42.3642 290.702 42.6381C291.072 42.8916 291.382 43.2245 291.607 43.6127C291.735 43.9105 291.828 44.2219 291.885 44.5408C291.959 45.0636 291.997 45.5907 292.002 46.1186C292.002 46.5594 292.373 46.8611 292.791 46.4898C292.945 46.3496 293.065 46.1746 293.139 45.9794C293.387 45.3937 293.49 44.7571 293.44 44.1231C293.394 43.7718 293.301 43.4284 293.162 43.1022C292.868 42.4424 292.389 41.8814 291.784 41.4863C291.179 41.0913 290.473 40.8789 289.75 40.8747V40.8747ZM307.018 41.5708C307.057 41.401 307.052 41.2238 307.001 41.0568C306.951 40.8899 306.858 40.7391 306.731 40.6194C306.604 40.4997 306.448 40.4153 306.279 40.3746C306.109 40.3339 305.932 40.3383 305.765 40.3874C305.192 40.6642 304.688 41.0632 304.287 41.5564C303.886 42.0496 303.598 42.6248 303.444 43.2414C303.097 44.0733 303.001 44.988 303.165 45.8738C303.33 46.7597 303.75 47.5784 304.372 48.2301C304.581 48.4157 304.883 48.5781 305.092 48.4389C305.3 48.2997 305.092 46.1186 305.254 45.6313C305.281 44.8138 305.512 44.0161 305.927 43.311C306.206 42.7774 306.832 42.2669 307.018 41.5708ZM297.618 37.5103C297.579 37.4825 297.534 37.4645 297.486 37.4578C297.438 37.4511 297.39 37.4559 297.344 37.4718C297.299 37.4877 297.258 37.5142 297.225 37.5492C297.192 37.5841 297.167 37.6265 297.154 37.6727C297.104 37.8839 297.101 38.1034 297.145 38.3159C297.189 38.5283 297.279 38.7286 297.409 38.9025C297.621 39.3448 297.8 39.8025 297.943 40.2714C298.25 41.2092 298.422 42.1857 298.454 43.1718C298.474 44.0959 298.411 45.0199 298.268 45.933C298.129 46.7915 297.873 47.6268 297.734 48.4853C297.734 48.4853 297.734 48.8101 297.92 48.7173C298.597 48.0387 299.114 47.2184 299.435 46.3156C299.756 45.4128 299.873 44.45 299.777 43.4967C299.766 42.4269 299.602 41.3642 299.289 40.341C299.044 39.2452 298.459 38.2546 297.618 37.5103V37.5103Z" fill="#F28F8F"/>
<path d="M277.264 48.8565L287.476 44.9352C287.973 46.3279 287.912 47.8588 287.307 49.2079C286.701 50.5571 285.598 51.62 284.226 52.1745C283.553 52.4301 282.834 52.5466 282.114 52.517C281.394 52.4873 280.687 52.3122 280.036 52.0022C279.386 51.6921 278.805 51.2536 278.328 50.7129C277.851 50.1723 277.489 49.5408 277.264 48.8565V48.8565Z" fill="#272727"/>
<path d="M309.712 43.38L319.599 48.2526C319.314 48.9134 318.898 49.5092 318.375 50.0037C317.853 50.4982 317.235 50.8809 316.559 51.1285C315.884 51.3761 315.165 51.4833 314.446 51.4437C313.728 51.404 313.025 51.2182 312.381 50.8978C311.054 50.228 310.037 49.0733 309.54 47.6733C309.043 46.2734 309.104 44.7358 309.712 43.38V43.38Z" fill="#272727"/>
<path d="M287.476 59.39C286.525 57.0697 285.156 60.3413 282.37 61.5015C279.585 62.6616 276.545 61.223 277.496 63.5201C278.2 64.5862 279.253 65.374 280.475 65.7484C281.697 66.1228 283.011 66.0603 284.191 65.5718C285.372 65.0832 286.345 64.199 286.945 63.071C287.544 61.943 287.732 60.6415 287.476 59.39V59.39Z" fill="#272727"/>
<path d="M319.666 61.6639C320.247 59.3436 317.345 61.0838 314.305 60.4109C311.265 59.738 309.663 56.7912 309.153 59.2044C309.075 60.4941 309.455 61.7699 310.228 62.8061C311 63.8424 312.114 64.5722 313.372 64.8666C314.631 65.161 315.953 65.001 317.104 64.4149C318.256 63.8288 319.164 62.8543 319.666 61.6639V61.6639Z" fill="#272727"/>
<path d="M295.391 53.8448L299.522 84.0087L314.562 80.5283C311.243 71.7808 301.912 57.8358 295.391 53.8448Z" fill="#F28F8F"/>
<path d="M288.498 91.0383C287.8 91.4698 287.212 92.0576 286.78 92.7553C285.457 94.9364 287.337 96.0501 289.333 96.2358C291.532 96.4419 293.672 97.0556 295.646 98.0456C296.49 98.6554 297.506 98.9805 298.547 98.9737C298.878 98.926 299.196 98.8132 299.483 98.642C299.769 98.4707 300.019 98.2444 300.218 97.976C300.52 97.4073 300.634 96.7573 300.543 96.1198C300.344 94.8262 299.811 93.6069 298.997 92.5817C298.183 91.5565 297.116 90.7607 295.901 90.2726C294.691 89.8248 293.394 89.661 292.11 89.7937C290.827 89.9265 289.591 90.3523 288.498 91.0383V91.0383Z" fill="#B16668"/>
<path d="M295.646 98.1626C296.111 98.4299 296.592 98.6701 297.085 98.8819C296.597 96.8194 295.43 94.9804 293.772 93.6594C292.114 92.3385 290.061 91.6119 287.94 91.5962C287.477 91.9453 287.084 92.3782 286.78 92.8724C285.457 95.0534 287.337 96.1672 289.333 96.3528C291.532 96.5589 293.672 97.1727 295.646 98.1626V98.1626Z" fill="#F28F8F"/>
<path d="M279.559 198.143C268.673 190.579 248.296 173.896 231.399 124.381L224.715 129.022C224.715 129.022 235.438 179.906 277.934 205.754L279.559 198.143Z" fill="#5600E2"/>
<path d="M289.957 197.169C293.09 192.9 300.308 163.827 293.09 132.595L299.009 138.28C305.09 168.792 298.498 197.193 292.812 205.708L289.957 197.169Z" fill="#5600E2"/>
<path d="M289.47 212.947C289.47 212.947 302.258 302.789 302.769 311.606C303.28 320.424 289.424 341.77 287.544 342.954C285.664 344.137 273.247 323.231 273.084 316.27C272.922 309.309 282.066 212.924 282.066 212.924L289.47 212.947Z" fill="#5600E2"/>
<path d="M289.958 197.169C286.468 196.532 282.87 196.869 279.56 198.144C277.611 201.647 276.914 207.077 278.446 209.629C279.978 212.181 282.856 216.126 286.384 215.964C289.911 215.801 292.882 211.323 293.346 207.03C293.811 202.39 289.958 197.169 289.958 197.169Z" fill="#5600E2"/>
<path opacity="0.2" d="M289.958 197.169C286.468 196.532 282.87 196.869 279.56 198.144C277.611 201.647 276.914 207.077 278.446 209.629C279.978 212.181 282.856 216.126 286.384 215.964C289.911 215.801 292.882 211.323 293.346 207.03C293.811 202.39 289.958 197.169 289.958 197.169Z" fill="white"/>
<path d="M283.575 183.224C277.332 176.101 275.15 154.684 270.531 151.088C265.913 147.491 239.106 131.11 236.576 119.346L239.547 110.784C236.344 109.322 232.027 119.555 219.842 130.437C219.842 130.437 218.333 142.874 227.664 157.005C238.642 173.688 248.273 179.28 248.273 179.28C248.273 179.28 261.689 161.97 263.893 161.297C266.098 160.624 276.102 180.672 283.575 183.224Z" fill="#F0F0F0"/>
<path d="M283.574 183.224C286.916 177.377 286.383 153.338 287.334 150.16C289.33 143.477 295.202 126.191 295.202 126.191C296.186 126.947 297.075 127.819 297.848 128.79C308.942 143.129 308.594 163.826 305.553 170.207C302.351 163.409 294.738 154.638 293.369 156.285C291.999 157.933 289.307 180.37 283.574 183.224Z" fill="#F0F0F0"/>
<path d="M242.122 476.834L247.553 587.373C247.808 592.733 244.188 596.005 239.685 598.975L228.382 606.307C227.134 607.314 225.684 608.042 224.131 608.442C222.578 608.842 220.957 608.905 219.377 608.627C217.169 608.146 215.037 607.366 213.041 606.307C212.965 606.329 212.885 606.329 212.809 606.307L212.159 605.959L89.9385 543.311C85.5489 541.063 81.8299 537.698 79.1568 533.555C76.4836 529.412 74.9508 524.638 74.7131 519.713L69.7695 419.059C69.7775 417.802 70.0822 416.564 70.659 415.448C71.2357 414.331 72.0681 413.366 73.0885 412.631L92.3522 400.218C93.4378 399.593 94.6565 399.236 95.9076 399.175C97.1588 399.115 98.4063 399.353 99.5471 399.87L238.107 470.778C239.206 471.387 240.132 472.266 240.799 473.33C241.529 474.368 241.984 475.573 242.122 476.834V476.834Z" fill="#272727"/>
<path d="M242.122 476.834L247.553 587.373C247.809 592.733 244.188 596.004 239.685 598.974L228.382 606.307C227.134 607.314 225.685 608.042 224.131 608.442C222.578 608.842 220.957 608.905 219.377 608.627C217.169 608.146 215.037 607.366 213.041 606.307V606.307C217.683 608.256 221.327 605.657 221.048 600.181L215.942 496.046C215.781 494.143 215.133 492.314 214.062 490.732L240.892 473.446C241.571 474.459 241.993 475.622 242.122 476.834V476.834Z" fill="#272727"/>
<path d="M215.942 495.93C215.757 494.026 215.125 492.193 214.096 490.58C213.068 488.967 211.672 487.62 210.024 486.649L78.9838 419.36C73.8081 416.692 69.7 419.36 70.0946 425.091L74.7365 519.319C74.9748 524.246 76.5076 529.023 79.1805 533.17C81.8534 537.317 85.5719 540.686 89.9618 542.939L212.182 605.587C217.358 608.256 221.466 605.587 221.071 599.856L215.942 495.93Z" fill="#414141"/>
<path d="M86.1093 403.953L225.04 476.045C226.998 477.07 228.654 478.587 229.846 480.446C231.039 482.305 231.726 484.443 231.841 486.649L237.434 600.344L235.438 601.643L229.775 486.672C229.677 484.829 229.101 483.043 228.104 481.489C227.108 479.935 225.724 478.667 224.089 477.809L84.1133 405.183L86.1093 403.953Z" fill="#5600E2"/>
<path opacity="0.2" d="M229.844 480.454C231.04 482.309 231.728 484.445 231.84 486.649L237.434 600.344L235.438 601.643L229.775 486.672C229.684 484.83 229.108 483.045 228.104 481.498L229.844 480.454Z" fill="#272727"/>
<path opacity="0.2" d="M228.104 481.567C227.116 480.004 225.73 478.731 224.089 477.878L84.1133 405.253L86.1093 403.953L225.04 476.045C226.992 477.08 228.647 478.598 229.845 480.454" fill="#272727"/>
<path d="M134.78 415.74L135.616 432.841L129.024 437.041L127.91 414.302C127.91 413.141 128.63 412.631 129.674 413.165L134.78 415.74Z" fill="#5600E2"/>
<path opacity="0.4" d="M134.78 415.74L135.616 432.841L129.024 437.041L127.91 414.302C127.91 413.141 128.63 412.631 129.674 413.165L134.78 415.74Z" fill="#272727"/>
<path d="M182.66 430.335L184.029 458.04L177.763 462.054L173.353 459.733L172.216 436.995C172.15 436.362 171.937 435.754 171.595 435.218C171.252 434.682 170.789 434.234 170.243 433.908L136.752 416.738L129.789 413.165C128.745 412.631 127.955 413.165 128.025 414.302L129.139 437.041L124.706 434.721L123.337 407.016C123.325 406.893 123.325 406.768 123.337 406.645C123.392 406.07 123.569 405.514 123.858 405.014C124.146 404.513 124.538 404.08 125.008 403.745L127.654 402.028C128.216 401.722 128.842 401.55 129.483 401.526C130.123 401.501 130.76 401.626 131.344 401.888L180.687 427.249C181.238 427.569 181.705 428.016 182.048 428.553C182.392 429.09 182.601 429.701 182.66 430.335V430.335Z" fill="#5600E2"/>
<path opacity="0.2" d="M176.463 434.35L177.763 462.054L173.353 459.734L172.216 436.995C172.15 436.363 171.937 435.754 171.595 435.219C171.252 434.683 170.789 434.234 170.243 433.909L136.752 416.739L129.789 413.166C128.745 412.632 127.955 413.166 128.025 414.303L129.139 437.041L124.706 434.721L123.337 407.017C123.325 406.893 123.325 406.769 123.337 406.646C123.453 405.741 124.172 405.393 125.101 405.857L174.467 431.217C175.022 431.546 175.493 432.001 175.839 432.545C176.186 433.089 176.4 433.708 176.463 434.35V434.35Z" fill="#272727"/>
<path d="M153.209 413.119L174.237 423.932C174.154 420.645 173.193 417.44 171.452 414.65C169.131 412.33 159.847 403.049 156.737 404C155.275 404.441 153.905 408.478 153.209 413.119Z" fill="#F28F8F"/>
<path d="M153.209 425.324C153.369 425.976 153.586 426.613 153.859 427.226C156.066 431.312 159.12 434.88 162.818 437.691C165.393 437.022 167.726 435.638 169.548 433.7L153.209 425.324Z" fill="#F28F8F"/>
<path d="M185.584 154.428C170.312 161.134 159.241 172.852 151.35 197.748C143.459 222.645 133.804 252.206 129.951 278.123C126.098 304.041 122.733 358.174 121.781 374.95C121.14 381.712 120.961 388.511 121.247 395.299C121.941 402.979 123.174 410.6 124.938 418.107C125.212 419.879 125.928 421.553 127.019 422.976C128.11 424.4 129.541 425.526 131.181 426.251C132.111 426.498 133.013 426.84 133.873 427.272C135.428 428.224 136.194 430.126 137.424 431.426C139.005 432.84 141.059 433.61 143.18 433.584C144.132 433.584 145.083 433.584 146.012 433.7C149.47 434.21 152 437.273 155.295 438.34C157.727 439.396 160.475 439.462 162.954 438.526C164.23 437.865 165.442 437.088 166.575 436.205C167.202 435.741 168.896 434.048 169.43 433.56C164.788 433.978 161.376 430.126 159.612 426.599C157.609 422.368 156.488 417.773 156.317 413.095C156.235 411.992 156.394 410.884 156.781 409.847C156.871 409.592 157.029 409.367 157.237 409.195C157.446 409.023 157.697 408.912 157.964 408.872C158.568 408.872 158.962 409.452 159.287 409.963C161.131 413.634 163.651 416.924 166.714 419.662C167.984 420.834 169.629 421.516 171.356 421.588C172.204 421.596 173.023 421.282 173.648 420.709C174.273 420.136 174.657 419.347 174.722 418.502C174.645 417.827 174.441 417.173 174.118 416.576C171.781 411.675 169.893 406.573 168.478 401.331C167.418 396.416 165.726 391.658 163.442 387.178C160.866 382.537 154.831 376.226 155.481 370.935C156.549 361.863 173.329 291.071 173.329 291.071C173.329 291.071 193.568 229.119 198.418 212.737C204.499 192.388 200.252 166.262 185.584 154.428Z" fill="#FFA8A7"/>
<path d="M191.015 144.359C166.599 156.796 160.68 166.611 153.996 185.103C147.985 201.647 134.64 247.009 131.297 263.158C125.356 292.046 122.014 347.292 122.014 347.292C122.014 347.292 124.892 355.228 139.351 358.708C153.81 362.189 159.59 357.757 159.59 357.757L175.836 287.591C175.836 287.591 200.972 229.351 203.014 221.138C207.262 204.64 210.766 155.473 191.015 144.359Z" fill="#E6E6E6"/>
<path d="M376.878 97.9989C377.481 99.5535 377.783 101.201 378.479 102.639C379.164 104.103 380.064 105.456 381.148 106.654C383.395 109.144 386.49 110.708 389.829 111.039C396.954 111.665 404.868 105.725 403.244 97.9989C403.221 97.8201 403.236 97.6385 403.288 97.466C403.341 97.2936 403.429 97.1341 403.547 96.9982C403.666 96.8623 403.811 96.753 403.975 96.6775C404.139 96.6021 404.317 96.5621 404.497 96.5603C409.139 96.0962 411.715 91.4092 411.669 87.0471C411.837 84.7205 411.139 82.4139 409.707 80.5717C408.276 78.7295 406.213 77.4821 403.917 77.0698C402.927 76.9117 401.924 76.8573 400.923 76.9073C399.963 77.0614 398.993 77.1467 398.022 77.1626C396.165 77.0002 395.979 74.6567 395.19 73.3573C394.374 71.9214 393.215 70.71 391.816 69.8311C390.418 68.9523 388.823 68.4334 387.175 68.3208C385.527 68.2082 383.877 68.5054 382.371 69.1859C380.866 69.8663 379.553 70.9088 378.549 72.2203C377.129 74.2832 376.281 76.6847 376.089 79.1812C376.089 79.4597 375.369 80.2718 375.207 79.6453C374.765 77.3387 375.071 74.9511 376.081 72.8308C377.092 70.7105 378.753 68.9683 380.823 67.8582C383.032 66.6163 385.568 66.0796 388.09 66.3201C390.613 66.5607 393.001 67.567 394.935 69.204C395.829 69.9371 396.611 70.797 397.256 71.7563C397.6 72.2691 397.895 72.8129 398.138 73.3805C398.277 73.6589 398.555 74.9583 398.788 75.0975C399.24 75.1064 399.692 75.0597 400.134 74.9583C400.714 74.9583 401.317 74.9583 401.898 74.9583C403.235 74.9491 404.568 75.105 405.866 75.4224C408.341 76.0873 410.517 77.5714 412.038 79.6322C413.56 81.693 414.338 84.2088 414.245 86.7686C414.392 89.3854 413.649 91.9749 412.136 94.1152C410.623 96.2556 408.429 97.8208 405.913 98.5557C406.888 107.094 398.416 113.545 390.339 113.336C386.322 113.221 382.505 111.558 379.686 108.695C377.226 106.236 374.487 102.059 375.16 98.4397C375.23 97.6276 376.553 97.1404 376.878 97.9989Z" fill="#414141"/>
<path d="M347.819 86.5597C351.512 85.3995 355.316 84.6219 359.168 84.2394L364.135 83.4505C365.87 83.0906 367.633 82.881 369.403 82.824C370.216 82.824 369.752 83.9377 369.264 84.1233C367.45 84.7272 365.586 85.1698 363.694 85.4459L358.425 86.374L353.389 87.1861C351.527 87.568 349.624 87.7084 347.726 87.6038C347.192 87.627 347.471 86.7221 347.819 86.5597Z" fill="#414141"/>
<path d="M350.812 97.1873C351.474 96.9682 352.16 96.828 352.855 96.7695C353.644 96.6535 354.41 96.5838 355.176 96.5142L359.237 96.2821C360.607 96.2821 361.953 96.2821 363.322 96.1428C364.938 95.9837 366.567 96.0226 368.173 96.2589C368.939 96.4214 368.173 97.5122 367.778 97.6282C366.443 97.8488 365.093 97.9652 363.74 97.9764L359.516 98.2085L355.338 98.4638L353.389 98.5798C352.457 98.7077 351.512 98.7077 350.58 98.5798C349.954 98.3013 350.418 97.3497 350.812 97.1873Z" fill="#414141"/>
</svg>
