<svg width="318" height="406" viewBox="0 0 318 406" fill="none" xmlns="http://www.w3.org/2000/svg">
<g opacity="0.15">
<circle cx="-212.5" cy="530.5" r="528" stroke="white" stroke-width="5"/>
<path d="M232.406 530.499C232.406 776.21 32.9921 975.403 -213.004 975.403C-459 975.403 -658.414 776.21 -658.414 530.499C-658.414 284.788 -459 85.5957 -213.004 85.5957C32.9921 85.5957 232.406 284.788 232.406 530.499Z" stroke="white" stroke-width="5"/>
<path d="M160.451 530.501C160.451 737.041 -6.75635 904.469 -213.01 904.469C-419.263 904.469 -586.471 737.041 -586.471 530.501C-586.471 323.961 -419.263 156.534 -213.01 156.534C-6.75635 156.534 160.451 323.961 160.451 530.501Z" stroke="white" stroke-width="5"/>
<circle cx="-212.5" cy="531.512" r="317.219" stroke="white" stroke-width="5"/>
</g>
</svg>
