<svg width="48" height="48" viewBox="0 0 48 48" fill="none" xmlns="http://www.w3.org/2000/svg">
<path d="M32 45.5H16C9.12 45.5 4.5 40.88 4.5 34V14C4.5 7.12 9.12 2.5 16 2.5H25.86C28.94 2.5 31.82 3.69999 34 5.85999L40.14 12C42.32 14.16 43.5 17.06 43.5 20.14V34C43.5 40.88 38.88 45.5 32 45.5ZM16 5.5C10.84 5.5 7.5 8.84 7.5 14V34C7.5 39.16 10.84 42.5 16 42.5H32C37.16 42.5 40.5 39.16 40.5 34V20.14C40.5 17.86 39.62 15.74 38 14.14L31.86 8C30.26 6.4 28.12 5.52002 25.84 5.52002H16V5.5Z" fill="#3D00A0"/>
<path d="M18.9999 37.4999C18.6199 37.4999 18.2399 37.36 17.9399 37.06L13.9399 33.06C13.3599 32.48 13.3599 31.5199 13.9399 30.9399L17.9399 26.9399C18.5199 26.3599 19.4799 26.3599 20.0599 26.9399C20.6399 27.5199 20.6399 28.48 20.0599 29.06L17.1199 31.9999L20.0599 34.9399C20.6399 35.5199 20.6399 36.48 20.0599 37.06C19.7599 37.36 19.3799 37.4999 18.9999 37.4999Z" fill="#3D00A0"/>
<path d="M28.9999 37.4999C28.6199 37.4999 28.2399 37.36 27.9399 37.06C27.3599 36.48 27.3599 35.5199 27.9399 34.9399L30.8799 31.9999L27.9399 29.06C27.3599 28.48 27.3599 27.5199 27.9399 26.9399C28.5199 26.3599 29.4799 26.3599 30.0599 26.9399L34.0599 30.9399C34.6399 31.5199 34.6399 32.48 34.0599 33.06L30.0599 37.06C29.7599 37.36 29.3799 37.4999 28.9999 37.4999Z" fill="#3D00A0"/>
</svg>
