<svg width="22" height="22" viewBox="0 0 22 22" fill="none" xmlns="http://www.w3.org/2000/svg">
<path fill-rule="evenodd" clip-rule="evenodd" d="M17.4821 17.4809C14.6806 20.2826 10.5323 20.888 7.13755 19.318C6.6364 19.1162 6.22553 18.9532 5.83492 18.9532C4.74695 18.9596 3.39273 20.0145 2.68891 19.3116C1.98509 18.6077 3.04082 17.2524 3.04082 16.1578C3.04082 15.7672 2.88421 15.3636 2.68246 14.8615C1.11176 11.4673 1.71793 7.31763 4.5194 4.51677C8.09563 0.939225 13.9058 0.939226 17.4821 4.51585C21.0648 8.09892 21.0583 13.9042 17.4821 17.4809Z" stroke="#1D1E20" stroke-width="1.5" stroke-linecap="round" stroke-linejoin="round"/>
<path d="M14.6111 11.3787H14.6194" stroke="#1D1E20" stroke-width="2" stroke-linecap="round" stroke-linejoin="round"/>
<path d="M10.9362 11.3787H10.9444" stroke="#1D1E20" stroke-width="2" stroke-linecap="round" stroke-linejoin="round"/>
<path d="M7.26128 11.3787H7.26953" stroke="#1D1E20" stroke-width="2" stroke-linecap="round" stroke-linejoin="round"/>
</svg>
