<svg width="48" height="48" viewBox="0 0 48 48" fill="none" xmlns="http://www.w3.org/2000/svg">
<path d="M35.9996 15.82C35.9396 15.82 35.8996 15.82 35.8396 15.82H35.7396C31.9596 15.7 29.1396 12.78 29.1396 9.18002C29.1396 5.50002 32.1397 2.52002 35.7997 2.52002C39.4597 2.52002 42.4597 5.52002 42.4597 9.18002C42.4397 12.8 39.6196 15.72 36.0196 15.84C36.0196 15.82 36.0196 15.82 35.9996 15.82ZM35.7997 5.50003C33.7797 5.50003 32.1396 7.14003 32.1396 9.16003C32.1396 11.14 33.6797 12.74 35.6597 12.82C35.6797 12.8 35.8396 12.8 36.0196 12.82C37.9596 12.72 39.4597 11.12 39.4797 9.16003C39.4797 7.14003 37.8397 5.50003 35.7997 5.50003Z" fill="#3D00A0"/>
<path d="M36.02 30.5601C35.24 30.5601 34.46 30.5 33.68 30.36C32.86 30.22 32.32 29.4401 32.46 28.6201C32.6 27.8001 33.38 27.2601 34.2 27.4001C36.66 27.8201 39.26 27.3601 41 26.2001C41.94 25.5801 42.44 24.8 42.44 24.02C42.44 23.24 41.92 22.48 41 21.86C39.26 20.7 36.62 20.24 34.14 20.68C33.32 20.84 32.54 20.28 32.4 19.46C32.26 18.64 32.8 17.8601 33.62 17.7201C36.88 17.1401 40.26 17.76 42.66 19.36C44.42 20.54 45.44 22.22 45.44 24.02C45.44 25.8 44.44 27.5001 42.66 28.7001C40.84 29.9001 38.48 30.5601 36.02 30.5601Z" fill="#3D00A0"/>
<path d="M11.94 15.82C11.92 15.82 11.9 15.82 11.9 15.82C8.29996 15.7 5.47996 12.78 5.45996 9.17999C5.45996 5.49999 8.45996 2.5 12.12 2.5C15.78 2.5 18.78 5.5 18.78 9.16C18.78 12.78 15.96 15.7 12.36 15.82L11.94 14.32L12.08 15.82C12.04 15.82 11.98 15.82 11.94 15.82ZM12.14 12.82C12.26 12.82 12.36 12.82 12.48 12.84C14.26 12.76 15.82 11.16 15.82 9.17999C15.82 7.15999 14.18 5.51999 12.16 5.51999C10.14 5.51999 8.49996 7.15999 8.49996 9.17999C8.49996 11.14 10.02 12.72 11.96 12.84C11.98 12.82 12.06 12.82 12.14 12.82Z" fill="#3D00A0"/>
<path d="M11.92 30.5601C9.46 30.5601 7.1 29.9001 5.28 28.7001C3.52 27.5201 2.5 25.82 2.5 24.02C2.5 22.24 3.52 20.54 5.28 19.36C7.68 17.76 11.06 17.1401 14.32 17.7201C15.14 17.8601 15.68 18.64 15.54 19.46C15.4 20.28 14.62 20.84 13.8 20.68C11.32 20.24 8.7 20.7 6.94 21.86C6 22.48 5.5 23.24 5.5 24.02C5.5 24.8 6.02 25.5801 6.94 26.2001C8.68 27.3601 11.28 27.8201 13.74 27.4001C14.56 27.2601 15.34 27.8201 15.48 28.6201C15.62 29.4401 15.08 30.22 14.26 30.36C13.48 30.5 12.7 30.5601 11.92 30.5601Z" fill="#3D00A0"/>
<path d="M23.9996 30.76C23.9396 30.76 23.8996 30.76 23.8396 30.76H23.7396C19.9596 30.64 17.1396 27.72 17.1396 24.12C17.1396 20.44 20.1397 17.46 23.7997 17.46C27.4597 17.46 30.4596 20.46 30.4596 24.12C30.4396 27.74 27.6196 30.66 24.0196 30.78C24.0196 30.76 24.0196 30.76 23.9996 30.76ZM23.7997 20.44C21.7797 20.44 20.1396 22.08 20.1396 24.1C20.1396 26.08 21.6797 27.68 23.6597 27.76C23.6797 27.74 23.8396 27.74 24.0196 27.76C25.9596 27.66 27.4597 26.06 27.4797 24.1C27.4797 22.1 25.8397 20.44 23.7997 20.44Z" fill="#3D00A0"/>
<path d="M23.9996 45.5199C21.5996 45.5199 19.1996 44.9 17.3396 43.64C15.5796 42.46 14.5596 40.78 14.5596 38.98C14.5596 37.2 15.5596 35.4799 17.3396 34.2999C21.0796 31.8199 26.9396 31.8199 30.6596 34.2999C32.4196 35.4799 33.4396 37.1599 33.4396 38.9599C33.4396 40.7399 32.4396 42.46 30.6596 43.64C28.7996 44.88 26.3996 45.5199 23.9996 45.5199ZM18.9996 36.82C18.0596 37.44 17.5596 38.22 17.5596 39C17.5596 39.78 18.0796 40.54 18.9996 41.16C21.6996 42.98 26.2796 42.98 28.9796 41.16C29.9196 40.54 30.4196 39.76 30.4196 38.98C30.4196 38.2 29.8996 37.44 28.9796 36.82C26.2996 35 21.7196 35.02 18.9996 36.82Z" fill="#3D00A0"/>
</svg>
