<svg width="398" height="462" viewBox="0 0 398 462" fill="none" xmlns="http://www.w3.org/2000/svg">
<path d="M198.978 461.008C308.87 461.008 397.955 410.557 397.955 348.322C397.955 286.087 308.87 235.636 198.978 235.636C89.0853 235.636 0 286.087 0 348.322C0 410.557 89.0853 461.008 198.978 461.008Z" fill="#EEE6FC" fill-opacity="0.2"/>
<path d="M281.779 419.372L133.25 333.876C131.944 333.126 130.859 332.045 130.104 330.744C129.349 329.442 128.952 327.965 128.952 326.462C128.952 324.959 129.349 323.482 130.104 322.181C130.859 320.879 131.944 319.799 133.25 319.048L147.902 309.837C150.432 308.385 153.299 307.62 156.218 307.62C159.137 307.62 162.004 308.385 164.533 309.837L313.082 395.343C314.389 396.093 315.474 397.174 316.229 398.475C316.983 399.777 317.381 401.254 317.381 402.757C317.381 404.26 316.983 405.737 316.229 407.039C315.474 408.34 314.389 409.421 313.082 410.171L298.431 419.372C295.9 420.832 293.028 421.601 290.105 421.601C287.181 421.601 284.31 420.832 281.779 419.372Z" fill="#EEE6FC" fill-opacity="0.5"/>
<path d="M277.256 409.154L146.631 333.967C137.411 328.662 129.939 314.428 129.939 302.176V23.3309C129.939 11.0798 137.411 5.45256 146.631 10.7577L277.256 85.9453C286.475 91.2504 293.948 105.485 293.948 117.736V396.581C293.948 408.822 286.475 414.46 277.256 409.154Z" fill="#455A64"/>
<path d="M292.301 77.1773L161.666 1.98963C157.728 -0.275361 154.113 -0.537094 151.255 0.8521C150.905 1.02676 150.568 1.22521 150.245 1.44603L135.604 9.9322C138.552 8.17054 142.409 8.3014 146.64 10.7375L277.266 85.9252C286.485 91.2303 293.958 105.464 293.958 117.716V396.561C293.958 403.044 291.867 407.634 288.535 409.809L302.985 401.423C306.671 399.47 309.044 394.689 309.044 387.833V108.988C309.044 96.7166 301.521 82.4824 292.301 77.1773Z" fill="#37474F"/>
<path d="M293.947 117.716V396.561C293.947 403.044 291.857 407.634 288.525 409.809L302.985 401.423C306.671 399.47 309.044 394.689 309.044 387.833V108.988L293.998 117.695L293.947 117.716Z" fill="#263238"/>
<path d="M308.993 130.621L293.948 139.278V146.043L308.993 137.376V130.621Z" fill="#37474F"/>
<path d="M302.4 175.609C301.057 176.384 299.966 175.558 299.966 173.777V159.23C299.98 158.321 300.207 157.428 300.63 156.622C301.052 155.816 301.659 155.12 302.4 154.59C303.743 153.815 304.833 154.59 304.833 156.422V170.968C304.82 171.877 304.593 172.771 304.17 173.577C303.747 174.383 303.141 175.079 302.4 175.609Z" fill="#37474F"/>
<path d="M299.956 173.817V159.23C299.97 158.321 300.197 157.428 300.62 156.622C301.042 155.816 301.648 155.12 302.39 154.59C302.611 154.435 302.869 154.341 303.138 154.316C303.408 154.291 303.678 154.337 303.925 154.449L302.097 153.512C301.847 153.393 301.57 153.341 301.293 153.362C301.016 153.383 300.75 153.477 300.522 153.633C299.78 154.163 299.172 154.859 298.748 155.665C298.324 156.471 298.094 157.364 298.078 158.274V172.81C298.04 173.177 298.096 173.548 298.241 173.888C298.386 174.228 298.614 174.525 298.906 174.753L300.814 175.76C300.511 175.542 300.271 175.246 300.12 174.905C299.969 174.563 299.912 174.188 299.956 173.817Z" fill="#455A64"/>
<path d="M302.4 210.812C301.057 211.587 299.966 210.812 299.966 208.98V194.433C299.981 193.524 300.208 192.631 300.631 191.825C301.053 191.019 301.659 190.323 302.4 189.793C303.743 189.017 304.833 189.793 304.833 191.635V206.171C304.821 207.081 304.595 207.975 304.172 208.781C303.749 209.587 303.142 210.283 302.4 210.812Z" fill="#37474F"/>
<path d="M299.956 208.98V194.433C299.971 193.524 300.198 192.631 300.621 191.825C301.043 191.019 301.649 190.323 302.39 189.793C302.612 189.641 302.87 189.548 303.139 189.524C303.407 189.499 303.678 189.543 303.925 189.652L302.097 188.706C301.848 188.58 301.57 188.525 301.292 188.547C301.015 188.568 300.748 188.665 300.522 188.826C299.778 189.355 299.169 190.05 298.745 190.856C298.32 191.662 298.092 192.557 298.078 193.467V208.044C298.039 208.411 298.095 208.782 298.24 209.122C298.384 209.462 298.614 209.759 298.906 209.986L300.814 210.993C300.498 210.77 300.251 210.463 300.099 210.108C299.947 209.752 299.898 209.362 299.956 208.98Z" fill="#455A64"/>
<path d="M272.692 93.7671L144.329 19.8579C143.793 19.5507 143.186 19.3884 142.568 19.3873C141.95 19.3861 141.342 19.5461 140.805 19.8514C140.268 20.1566 139.821 20.5965 139.507 21.1274C139.194 21.6583 139.025 22.2618 139.017 22.8779V302.176C139.017 311.498 145.651 322.944 153.75 327.605L278.963 399.712C279.557 400.053 280.23 400.232 280.915 400.231C281.6 400.23 282.273 400.05 282.866 399.709C283.459 399.367 283.952 398.876 284.295 398.285C284.638 397.693 284.819 397.023 284.82 396.34V114.736C284.87 107.045 279.397 97.6125 272.692 93.7671Z" fill="#FFFBF4"/>
<path d="M182.72 39.1556L184.709 47.5009L227.262 71.9628L234.613 68.0569L182.72 39.1556Z" fill="#455A64"/>
<path d="M195.232 47.2189C195.232 48.6081 194.222 49.1618 193.051 48.4772C192.422 48.0611 191.9 47.5036 191.526 46.8498C191.153 46.1959 190.938 45.4638 190.9 44.7123C190.9 43.3332 191.91 42.7695 193.081 43.4641C193.71 43.8781 194.232 44.4336 194.605 45.0859C194.979 45.7381 195.194 46.4688 195.232 47.2189Z" fill="#263238"/>
<path d="M223.899 64.8859C223.667 64.8841 223.438 64.8253 223.233 64.7148L201.502 52.6348C201.196 52.4552 200.971 52.1631 200.878 51.8209C200.784 51.4787 200.828 51.1136 201.001 50.8034C201.174 50.4933 201.461 50.2628 201.802 50.1611C202.143 50.0594 202.51 50.0946 202.825 50.2591L224.566 62.3391C224.83 62.4855 225.038 62.7154 225.157 62.9925C225.276 63.2696 225.299 63.5783 225.223 63.87C225.146 64.1616 224.975 64.4197 224.735 64.6036C224.496 64.7876 224.202 64.8869 223.899 64.8859Z" fill="#263238"/>
<path d="M165.938 77.9827C164.615 77.2176 163.655 77.882 163.655 79.5631C163.655 80.4038 163.864 81.2315 164.262 81.9726C164.66 82.7137 165.236 83.3453 165.938 83.8112C166.314 84.0387 166.745 84.159 167.185 84.159C167.624 84.159 168.056 84.0387 168.432 83.8112L170.542 87.6164C169.8 88.0248 168.958 88.2194 168.111 88.1786C167.264 88.1377 166.445 87.8629 165.746 87.3849C164.031 86.3391 162.602 84.8882 161.584 83.1605C160.566 81.4327 159.991 79.4814 159.909 77.4793C159.909 73.7446 162.424 72.446 165.887 74.4593C167.843 75.715 169.445 77.4474 170.542 79.4926L168.432 81.1637C167.911 79.8939 167.048 78.7928 165.938 77.9827Z" fill="#272727"/>
<path d="M182.69 90.5961C182.69 94.361 180.135 95.6294 176.631 93.6161C174.868 92.5655 173.392 91.0968 172.335 89.3406C171.278 87.5844 170.673 85.5951 170.573 83.5495C170.573 79.7846 173.128 78.5162 176.631 80.5295C178.399 81.5753 179.878 83.0429 180.936 84.8001C181.994 86.5573 182.596 88.549 182.69 90.5961ZM174.319 85.7943C174.337 86.6587 174.56 87.5064 174.971 88.2678C175.382 89.0291 175.968 89.6822 176.682 90.1733C177.934 90.8981 178.944 90.1733 178.944 88.462C178.94 87.6172 178.733 86.7855 178.339 86.0374C177.946 85.2892 177.377 84.6465 176.682 84.1635C175.41 83.4287 174.319 84.0528 174.319 85.7943Z" fill="#272727"/>
<path d="M186.76 86.5997L191.122 95.6596V89.1365L194.424 91.0391V103.733L191.395 101.981L187.053 93.0021V99.485L183.73 97.5723V84.8481L186.76 86.5997Z" fill="#272727"/>
<path d="M205.218 97.2199V100.542L202.067 98.7299V108.112L198.422 106.008V96.626L195.292 94.8241V91.5121L205.218 97.2199Z" fill="#272727"/>
<path d="M212.327 112.219L208.187 109.833L207.621 111.303L203.885 109.149L208.54 99.1326L212.287 101.287L216.77 116.568L212.882 114.333L212.327 112.219ZM211.428 108.696L210.297 104.357L209.136 107.377L211.428 108.696Z" fill="#272727"/>
<path d="M222.556 110.568C221.233 109.813 220.274 110.468 220.274 112.159C220.276 112.999 220.485 113.826 220.883 114.567C221.281 115.308 221.856 115.94 222.556 116.407C222.935 116.632 223.367 116.751 223.808 116.751C224.249 116.751 224.682 116.632 225.06 116.407L227.171 120.212C226.425 120.616 225.583 120.808 224.735 120.767C223.888 120.726 223.068 120.454 222.364 119.981C220.648 118.934 219.218 117.481 218.2 115.752C217.182 114.022 216.608 112.069 216.528 110.065C216.528 106.33 219.052 105.032 222.506 107.045C224.459 108.307 226.063 110.038 227.171 112.078L225.06 113.739C224.528 112.476 223.663 111.38 222.556 110.568Z" fill="#272727"/>
<path d="M237.128 115.592V118.903L233.977 117.091V126.504L230.332 124.4V115.018L227.202 113.216V109.904L237.128 115.592Z" fill="#272727"/>
<path d="M247.902 131.175C248.8 131.688 249.487 131.285 249.487 130.027V122.709L253.142 124.802V132.121C253.142 135.493 251.123 136.5 247.892 134.658C246.335 133.796 245.026 132.55 244.091 131.039C243.156 129.529 242.625 127.804 242.55 126.031V118.712L246.205 120.816V128.135C246.219 128.74 246.381 129.334 246.677 129.864C246.972 130.393 247.393 130.843 247.902 131.175Z" fill="#272727"/>
<path d="M259.03 131.215C258.616 130.983 258.353 130.973 258.353 131.356C258.353 132.946 264.058 135.242 264.058 139.842C264.058 142.661 261.907 142.671 259.423 141.241C257.24 139.907 255.359 138.135 253.9 136.037L255.253 133.661C256.363 135.375 257.789 136.864 259.454 138.05C259.989 138.362 260.332 138.362 260.332 137.909C260.332 136.258 254.617 134.064 254.617 129.604C254.617 127.068 256.475 126.584 259.343 128.195C261.19 129.309 262.816 130.752 264.139 132.453L262.816 134.889C261.724 133.502 260.45 132.266 259.03 131.215Z" fill="#272727"/>
<path d="M147.569 140.537C151.666 135.52 153.729 129.155 153.35 122.697C152.97 116.239 150.177 110.157 145.521 105.651C140.864 101.146 134.683 98.5432 128.197 98.3576C121.71 98.1721 115.39 100.417 110.482 104.649C105.574 108.881 102.435 114.793 101.685 121.219C100.935 127.645 102.628 134.117 106.43 139.36C110.232 144.602 115.866 148.234 122.222 149.538C128.578 150.843 135.194 149.725 140.763 146.405L153.406 151.882L147.569 140.537Z" fill="#5600E2"/>
<path d="M117.841 122.819C117.841 122.427 117.559 122.205 117.044 122.205C115.849 122.361 114.734 122.886 113.853 123.705L112.419 120.927C113.928 119.795 115.752 119.155 117.64 119.095C120.063 119.095 121.901 120.363 121.901 122.256C121.901 123.605 120.891 124.903 119.598 126.202L117.791 127.984H122.062V130.943H112.883V128.517L116.973 124.299C117.413 123.911 117.718 123.392 117.841 122.819Z" fill="white"/>
<path d="M129.535 119.266L126.748 125.93H127.889V123.685H131.403V125.93H132.736V128.678H131.403V130.943H127.889V128.678H122.891V126.182L125.92 119.266H129.535Z" fill="white"/>
<path d="M143.581 125.135V130.943H139.824V126.212C139.846 126.058 139.834 125.901 139.79 125.752C139.745 125.602 139.669 125.465 139.567 125.347C139.465 125.23 139.338 125.136 139.196 125.071C139.054 125.007 138.9 124.973 138.744 124.974C138.007 124.974 137.542 125.547 137.542 126.433V130.943H133.786V118.601H137.542V123.141C137.836 122.678 138.245 122.299 138.73 122.042C139.216 121.784 139.759 121.657 140.309 121.672C140.759 121.66 141.207 121.743 141.622 121.916C142.038 122.089 142.413 122.347 142.721 122.674C143.03 123.001 143.266 123.389 143.414 123.813C143.562 124.237 143.619 124.687 143.581 125.135Z" fill="white"/>
<path d="M266.067 218.674V343.751C266.069 345.166 265.698 346.556 264.99 347.782C264.281 349.008 263.262 350.027 262.033 350.735C260.805 351.443 259.411 351.816 257.992 351.817C256.573 351.817 255.179 351.445 253.95 350.738L186.375 311.84L174.399 304.955C170.275 302.578 166.85 299.163 164.464 295.052C162.079 290.941 160.818 286.279 160.808 281.53V156.442C160.806 155.027 161.177 153.637 161.885 152.411C162.594 151.185 163.613 150.167 164.842 149.458C166.07 148.75 167.464 148.377 168.883 148.377C170.302 148.376 171.696 148.748 172.925 149.455L252.496 195.249C256.621 197.622 260.048 201.036 262.43 205.148C264.812 209.26 266.067 213.925 266.067 218.674Z" fill="#FBB130"/>
<path opacity="0.5" d="M266.067 218.674V343.751C266.069 345.166 265.698 346.556 264.99 347.782C264.281 349.008 263.262 350.026 262.033 350.735C260.805 351.443 259.411 351.816 257.992 351.817C256.573 351.817 255.179 351.445 253.95 350.738L186.375 311.84L174.399 304.955C170.275 302.578 166.85 299.163 164.464 295.052C162.079 290.941 160.818 286.279 160.808 281.53V156.442C160.806 155.027 161.177 153.637 161.885 152.411C162.594 151.185 163.613 150.167 164.842 149.458C166.07 148.75 167.464 148.377 168.883 148.377C170.302 148.376 171.696 148.748 172.925 149.455L252.496 195.249C256.621 197.622 260.048 201.036 262.43 205.148C264.812 209.26 266.067 213.925 266.067 218.674Z" fill="white"/>
<path d="M227.14 292.683C227.14 292.683 239.793 313.602 230.654 337.188L186.345 311.84L227.14 292.683Z" fill="#263238"/>
<path d="M247.318 198.699C248.276 190.946 242.748 183.887 234.971 182.932C227.195 181.978 220.114 187.489 219.156 195.241C218.199 202.994 223.727 210.053 231.503 211.008C239.28 211.962 246.361 206.451 247.318 198.699Z" fill="#272727"/>
<path d="M233.31 157.297C233.31 157.297 237.662 150.251 238.995 150.764C240.328 151.278 238.127 157.992 238.127 157.992C238.127 157.992 244.71 159.361 243.489 161.012C242.267 162.663 234.219 162.27 234.219 162.27L233.31 157.297Z" fill="#263238"/>
<path d="M236.339 175.457C233.31 198.148 214.124 198.148 214.124 198.148L173.935 180.511C173.935 180.511 170.905 177.863 169.976 171.783C169.62 169.293 169.62 166.764 169.976 164.273C169.976 164.273 169.976 164.223 169.976 164.203C171.259 154.66 178.418 144.402 194.009 141.251C197.426 140.563 200.904 140.226 204.39 140.244C206.076 140.239 207.761 140.323 209.439 140.496C221.556 141.684 230.048 147.321 234.097 156.089C235.008 158.068 235.686 160.146 236.117 162.28C236.939 166.628 237.014 171.084 236.339 175.457Z" fill="#272727"/>
<path d="M139.855 219.348C139.855 219.348 125.587 218.855 120.094 232.716C120.094 232.716 126.152 236.793 134.099 232.716C142.046 228.64 139.855 219.348 139.855 219.348Z" fill="#5600E2"/>
<path opacity="0.5" d="M139.855 219.348C139.855 219.348 125.587 218.855 120.094 232.716C120.094 232.716 126.152 236.793 134.099 232.716C142.046 228.64 139.855 219.348 139.855 219.348Z" fill="black"/>
<path d="M139.451 226.022C139.451 226.022 135.412 208.526 133.281 208.315C131.15 208.104 130.736 213.65 130.908 216.781L125.859 205.949C125.699 205.613 125.471 205.312 125.19 205.067C124.909 204.821 124.581 204.636 124.225 204.522C123.869 204.408 123.494 204.367 123.122 204.403C122.75 204.439 122.389 204.551 122.062 204.731C117.014 207.5 108.158 215.915 126.829 236.723L139.451 226.022Z" fill="#945959"/>
<path d="M191.152 213.922L188.122 213.53C185.07 213.126 181.964 213.54 179.124 214.729C176.285 215.918 173.814 217.839 171.966 220.294L153.941 244.213L139.804 219.348C139.804 219.348 138.108 236.26 120.043 232.717L139.441 265.262C140.668 267.322 142.377 269.057 144.422 270.317C146.466 271.578 148.785 272.327 151.183 272.502C153.58 272.677 155.985 272.272 158.191 271.322C160.398 270.372 162.342 268.904 163.857 267.044L180.458 246.699L191.152 213.922Z" fill="#FBB130"/>
<path d="M229.625 269.742C225.586 279.949 225.142 281.942 227.605 287.046C229.321 290.816 230.674 294.739 231.645 298.764C231.645 298.764 212.923 319.682 186.275 311.85L174.299 304.965C171.808 303.533 169.565 301.711 167.655 299.569L171.3 272.47C171.483 271.043 171.338 269.594 170.876 268.232L167.049 257.048C165.181 251.585 164.903 245.707 166.247 240.094C167.591 234.48 170.502 229.361 174.642 225.328L187.507 212.795L221.294 217.103L226.343 218.543C229.648 219.496 232.498 221.606 234.368 224.485C236.238 227.365 237.002 230.82 236.522 234.217C234.866 246.095 232.159 263.329 229.625 269.742Z" fill="#FBB130"/>
<path d="M209.247 239.25L202.481 233.502C201.765 232.891 200.901 232.476 199.975 232.3C199.049 232.123 198.092 232.191 197.2 232.495L189.021 235.304L187.92 230.733C187.749 230.022 187.434 229.353 186.996 228.767C186.558 228.18 186.005 227.688 185.371 227.32C184.737 226.953 184.035 226.717 183.306 226.627C182.578 226.537 181.84 226.595 181.135 226.797L177.59 227.804L183.588 216.348C185.547 212.617 188.564 209.543 192.262 207.51L194.615 206.221L214.054 207.228C214.054 207.228 221.294 210.248 221.294 217.043L209.247 239.189" fill="#FBB130"/>
<path d="M214.135 215.815L194.646 230.955V182.746H214.135V215.815Z" fill="#945959"/>
<path d="M194.949 211.838L189.021 235.344L214.054 215.815L194.949 211.838Z" fill="#945959"/>
<path d="M194.645 208.345C198.979 206.741 202.94 204.276 206.289 201.098C209.637 197.921 212.303 194.099 214.124 189.863V182.746H194.635L194.645 208.345Z" fill="#703838"/>
<path d="M198.846 147.019C191.454 147.019 175.742 151.127 173.925 170.414C172.107 189.702 173.864 204.641 183.841 206.09C193.817 207.54 217.002 200.322 220.112 175.357C223.222 150.392 206.046 147.019 198.846 147.019Z" fill="#945959"/>
<path d="M187.214 178.578V189.943L180.529 187.9L187.214 178.578Z" fill="#703838"/>
<path d="M194.646 182.856C195.928 182.856 196.968 181.82 196.968 180.541C196.968 179.262 195.928 178.226 194.646 178.226C193.363 178.226 192.323 179.262 192.323 180.541C192.323 181.82 193.363 182.856 194.646 182.856Z" fill="#272727"/>
<path d="M181.68 178.931C181.678 179.388 181.54 179.835 181.284 180.214C181.027 180.594 180.664 180.889 180.239 181.062C179.815 181.236 179.348 181.281 178.898 181.19C178.449 181.1 178.036 180.878 177.712 180.554C177.388 180.23 177.168 179.817 177.079 179.368C176.99 178.92 177.037 178.455 177.213 178.032C177.389 177.61 177.687 177.249 178.068 176.995C178.45 176.741 178.899 176.605 179.358 176.605C179.663 176.605 179.966 176.665 180.249 176.782C180.531 176.899 180.788 177.071 181.003 177.287C181.219 177.503 181.39 177.759 181.506 178.041C181.622 178.323 181.681 178.626 181.68 178.931Z" fill="#272727"/>
<path d="M176.52 174.099L181.064 171.411C181.064 171.411 179.327 169.609 177.591 170.686C175.854 171.763 176.52 174.099 176.52 174.099Z" fill="#272727"/>
<path d="M184.073 194.554C186.286 194.715 188.489 194.126 190.324 192.883C190.324 192.883 190.758 196.175 187.991 196.799C185.224 197.423 184.073 194.554 184.073 194.554Z" fill="#703838"/>
<path d="M180.104 153.583C180.104 153.583 182.881 180.209 219.203 181.045C219.203 181.045 230.18 154.579 208.489 145.983C186.799 137.386 180.104 153.583 180.104 153.583Z" fill="#272727"/>
<path d="M229.897 177.058L225.434 174.481C223.737 173.474 221.395 173.615 218.8 175.105C213.65 178.065 209.469 185.283 209.469 191.212C209.469 194.181 210.479 196.245 212.216 197.252L216.598 199.768L216.851 199.909L217.002 200C218.658 200.805 220.87 200.614 223.303 199.215C228.453 196.195 232.634 189.037 232.634 183.108C232.603 180.108 231.563 178.035 229.897 177.058Z" fill="#FBB130"/>
<path d="M229.862 192.221C233.504 185.933 233.504 179.136 229.862 177.04C226.22 174.944 220.316 178.342 216.674 184.63C213.033 190.919 213.033 197.715 216.674 199.811C220.316 201.907 226.22 198.509 229.862 192.221Z" fill="#5600E2"/>
<path d="M231.685 182.645L228.656 180.884C227.504 180.199 225.899 180.29 224.122 181.306C222.265 182.516 220.72 184.144 219.611 186.059C218.503 187.974 217.862 190.122 217.74 192.329C217.74 194.343 218.457 195.782 219.618 196.447L222.647 198.168C222.701 198.207 222.759 198.241 222.819 198.269L222.92 198.329C223.63 198.598 224.395 198.688 225.149 198.594C225.902 198.499 226.621 198.221 227.242 197.785C229.097 196.577 230.641 194.95 231.75 193.037C232.858 191.124 233.5 188.978 233.624 186.773C233.543 184.729 232.836 183.31 231.685 182.645Z" fill="#FBB130"/>
<path d="M233.543 186.752C233.419 188.958 232.777 191.104 231.669 193.017C230.56 194.93 229.016 196.557 227.161 197.765C223.627 199.779 220.769 198.148 220.769 194.091C220.889 191.883 221.53 189.735 222.641 187.821C223.752 185.907 225.301 184.282 227.161 183.078C230.685 181.045 233.543 182.685 233.543 186.752Z" fill="#5600E2"/>
<path d="M216.033 141.825C213.138 139.596 209.593 138.369 205.935 138.332H205.036C201.333 138.292 197.635 138.629 194 139.338C194.666 139.338 195.332 139.338 196.019 139.338H194V141.211H195.878C202.351 141.43 208.484 144.15 212.982 148.796C217.48 153.442 219.99 159.649 219.981 166.106V174.028C219.981 174.341 220.047 174.651 220.174 174.937C220.302 175.223 220.488 175.48 220.721 175.689C220.955 175.899 221.23 176.058 221.528 176.155C221.827 176.252 222.143 176.285 222.455 176.253H222.687L224.707 175.629C224.572 175.671 224.434 175.698 224.293 175.709C224.895 175.628 225.446 175.328 225.841 174.868C226.236 174.407 226.447 173.818 226.434 173.213V165.864C226.414 152.566 220.648 145.419 216.033 141.825Z" fill="#FBB130"/>
<path d="M203.32 205.537C202.487 205.537 201.664 205.358 200.906 205.013L194.595 202.104C194.496 202.069 194.406 202.014 194.33 201.942C194.254 201.87 194.193 201.783 194.153 201.687C194.112 201.591 194.091 201.487 194.093 201.382C194.094 201.278 194.118 201.175 194.161 201.08C194.204 200.985 194.267 200.9 194.345 200.83C194.424 200.76 194.515 200.708 194.615 200.675C194.715 200.643 194.82 200.631 194.924 200.642C195.029 200.652 195.13 200.684 195.221 200.735L201.532 203.644C202.337 204.017 203.239 204.131 204.111 203.968C204.984 203.806 205.784 203.376 206.4 202.738L212.458 196.497C212.6 196.355 212.793 196.276 212.993 196.276C213.194 196.276 213.387 196.355 213.529 196.497C213.668 196.64 213.746 196.831 213.746 197.03C213.746 197.23 213.668 197.421 213.529 197.564L207.47 203.805C206.931 204.357 206.285 204.795 205.572 205.093C204.859 205.39 204.093 205.541 203.32 205.537Z" fill="#5600E2"/>
<path d="M196.251 199.99C196.251 200.571 196.078 201.14 195.754 201.623C195.43 202.106 194.97 202.483 194.431 202.706C193.892 202.928 193.299 202.986 192.727 202.873C192.155 202.759 191.63 202.479 191.218 202.068C190.805 201.657 190.524 201.134 190.411 200.563C190.297 199.993 190.355 199.402 190.578 198.865C190.802 198.328 191.18 197.869 191.664 197.546C192.149 197.223 192.719 197.05 193.303 197.05C194.085 197.05 194.835 197.36 195.388 197.911C195.94 198.463 196.251 199.21 196.251 199.99Z" fill="#5600E2"/>
<path d="M196.251 199.99C196.251 200.571 196.078 201.14 195.754 201.623C195.43 202.106 194.97 202.483 194.431 202.706C193.892 202.928 193.299 202.986 192.727 202.873C192.155 202.759 191.63 202.479 191.218 202.068C190.805 201.657 190.524 201.134 190.411 200.563C190.297 199.993 190.355 199.402 190.578 198.865C190.802 198.328 191.18 197.869 191.664 197.546C192.149 197.223 192.719 197.05 193.303 197.05C194.085 197.05 194.835 197.36 195.388 197.911C195.94 198.463 196.251 199.21 196.251 199.99Z" fill="#FBB130"/>
<path d="M226.414 165.864V173.213C226.427 173.818 226.216 174.408 225.821 174.868C225.426 175.328 224.875 175.628 224.273 175.709C223.94 175.745 223.604 175.71 223.286 175.607C222.967 175.504 222.674 175.336 222.426 175.113C222.177 174.889 221.979 174.617 221.843 174.312C221.707 174.007 221.637 173.677 221.637 173.344V165.864C221.643 162.295 220.924 158.761 219.524 155.475C218.124 152.19 216.072 149.22 213.491 146.746C210.91 144.272 207.854 142.343 204.506 141.077C201.158 139.811 197.588 139.234 194.01 139.379C197.645 138.67 201.343 138.332 205.047 138.372H205.925C209.583 138.41 213.128 139.636 216.023 141.865C220.648 145.419 226.414 152.566 226.414 165.864Z" fill="#5600E2"/>
<path d="M215.064 304.351C215.064 304.351 210.176 317.769 227.646 323.809C227.646 323.809 233.351 315.454 227.646 308.619C221.94 301.784 215.064 304.351 215.064 304.351Z" fill="#5600E2"/>
<path opacity="0.7" d="M215.064 304.351C215.064 304.351 210.176 317.769 227.646 323.809C227.646 323.809 233.351 315.454 227.646 308.619C221.94 301.784 215.064 304.351 215.064 304.351Z" fill="black"/>
<path d="M221.193 304.965C221.193 304.965 204.127 311.196 204.218 313.612C204.309 316.028 211.468 314.377 211.468 314.377L208.853 316.088C206.099 317.88 203.966 320.474 202.744 323.518C202.477 324.189 202.468 324.934 202.718 325.612C202.967 326.29 203.458 326.852 204.097 327.192L210.58 330.615C210.946 330.808 211.347 330.927 211.76 330.963C212.173 330.999 212.589 330.953 212.983 330.826C213.378 330.699 213.743 330.495 214.057 330.225C214.37 329.956 214.627 329.626 214.811 329.256C215.172 328.544 215.671 327.91 216.28 327.392C216.888 326.874 217.594 326.481 218.355 326.236C221.879 325.068 228.453 321.706 231.088 312.505L221.193 304.965Z" fill="#945959"/>
<path d="M226.312 218.523C226.312 218.523 217.224 223.556 222.051 238.837C226.877 254.118 235.935 277.825 235.935 277.825L215.063 304.351C217.293 304.619 219.441 305.353 221.367 306.505C223.293 307.656 224.954 309.2 226.241 311.035C227.474 312.901 228.245 315.032 228.489 317.253C228.733 319.475 228.443 321.722 227.645 323.81L253.556 290.59C255.952 287.52 257.543 283.903 258.185 280.066C258.827 276.229 258.499 272.293 257.232 268.614L246.124 236.28C244.766 232.33 242.51 228.748 239.532 225.812C236.554 222.876 232.935 220.667 228.958 219.358L226.312 218.523Z" fill="#FBB130"/>
<path d="M72.9062 128.255L32.7472 105.102C32.2851 104.783 31.7504 104.583 31.1915 104.522C30.6326 104.46 30.0671 104.539 29.5462 104.75C29.4364 104.8 29.3316 104.861 29.2332 104.931L20.4985 110.035H20.5591C19.4585 110.659 18.7617 112.108 18.7617 114.182V158.717C18.7617 162.482 21.0539 166.861 23.8914 168.492L64.0504 191.645C64.56 192.012 65.1665 192.222 65.7948 192.249C66.4231 192.276 67.0455 192.118 67.5847 191.796C67.5574 191.807 67.5331 191.824 67.514 191.846L76.188 186.813C77.319 186.209 78.0359 184.739 78.0359 182.635V138.03C78.0359 134.265 75.7841 129.886 72.9062 128.255Z" fill="#5600E2"/>
<path d="M76.6025 132.473C75.79 130.751 74.5097 129.289 72.9067 128.255L32.7477 105.102C32.2855 104.783 31.7508 104.583 31.1919 104.522C30.633 104.46 30.0676 104.539 29.5467 104.75C29.4369 104.8 29.3321 104.861 29.2336 104.931L20.499 110.035C21.0333 109.762 21.6324 109.642 22.2308 109.686C22.8293 109.731 23.4039 109.938 23.8919 110.286L64.0509 133.44C65.7085 134.52 67.0222 136.05 67.8376 137.849L76.6025 132.473Z" fill="#5600E2"/>
<path d="M69.1808 187.729C69.1808 189.742 68.5345 191.142 67.5146 191.756L76.1887 186.722C77.3196 186.118 78.0366 184.649 78.0366 182.545V138.03C77.9939 136.092 77.5032 134.191 76.6027 132.473L67.8378 137.849C68.6793 139.516 69.1381 141.349 69.1808 143.214V187.729Z" fill="#5600E2"/>
<path d="M76.6025 132.473C75.79 130.751 74.5097 129.289 72.9067 128.255L32.7477 105.102C32.2855 104.783 31.7508 104.583 31.1919 104.522C30.633 104.46 30.0676 104.539 29.5467 104.75C29.4369 104.8 29.3321 104.861 29.2336 104.931L20.499 110.035C21.0333 109.762 21.6324 109.642 22.2308 109.686C22.8293 109.731 23.4039 109.938 23.8919 110.286L64.0509 133.44C65.7085 134.52 67.0222 136.05 67.8376 137.849L76.6025 132.473Z" fill="#EEE6FC"/>
<path d="M69.1808 187.729C69.1808 189.742 68.5345 191.142 67.5146 191.756L76.1887 186.722C77.3196 186.118 78.0366 184.649 78.0366 182.545V138.03C77.9939 136.092 77.5032 134.191 76.6027 132.473L67.8378 137.849C68.6793 139.516 69.1381 141.349 69.1808 143.214V187.729Z" fill="#EEE6FC"/>
<path d="M57.4062 155.969C57.4062 161.737 55.114 163.7 51.6807 161.717C50.7336 161.179 49.9054 160.456 49.246 159.591C48.5866 158.726 48.1095 157.737 47.8436 156.683C46.8338 157.922 45.2686 158.002 43.0673 156.734C39.4523 154.65 36.6047 149.687 36.6047 144.865C36.6047 140.043 39.422 138.382 43.0673 140.476C44.9171 141.563 46.4112 143.161 47.369 145.077V143.174L51.1758 145.369V155.798C51.1192 156.346 51.2144 156.9 51.4511 157.399C51.6879 157.898 52.0572 158.322 52.5189 158.626C53.8013 159.371 54.5889 158.113 54.5889 154.378C54.5889 147.845 50.3882 140.919 44.178 137.345C37.9679 133.772 33.7773 136.258 33.7773 142.983C33.8587 146.551 34.8449 150.041 36.6442 153.126C38.4434 156.212 40.997 158.793 44.067 160.63C45.7339 161.653 47.6267 162.255 49.5804 162.381L50.4791 165.854C48.2043 165.671 46.0061 164.95 44.067 163.75C35.9887 159.089 30.647 149.707 30.647 141.211C30.647 132.715 36.0392 129.634 44.178 134.325C52.0443 138.845 57.4062 147.895 57.4062 155.969ZM47.4295 151.127C47.4492 149.85 47.1367 148.59 46.5227 147.47C45.9086 146.35 45.0138 145.407 43.9256 144.734C41.906 143.557 40.462 144.382 40.462 147.12C40.4361 148.399 40.7412 149.662 41.3479 150.789C41.9546 151.916 42.8424 152.868 43.9256 153.553C45.9452 154.69 47.4295 153.955 47.4295 151.127Z" fill="#5600E2"/>
<path d="M57.4062 155.969C57.4062 161.737 55.114 163.7 51.6807 161.717C50.7336 161.179 49.9054 160.456 49.246 159.591C48.5866 158.726 48.1095 157.737 47.8436 156.683C46.8338 157.922 45.2686 158.002 43.0673 156.734C39.4523 154.65 36.6047 149.687 36.6047 144.865C36.6047 140.043 39.422 138.382 43.0673 140.476C44.9171 141.563 46.4112 143.161 47.369 145.077V143.174L51.1758 145.369V155.798C51.1192 156.346 51.2144 156.9 51.4511 157.399C51.6879 157.898 52.0572 158.322 52.5189 158.626C53.8013 159.371 54.5889 158.113 54.5889 154.378C54.5889 147.845 50.3882 140.919 44.178 137.345C37.9679 133.772 33.7773 136.258 33.7773 142.983C33.8587 146.551 34.8449 150.041 36.6442 153.126C38.4434 156.212 40.997 158.793 44.067 160.63C45.7339 161.653 47.6267 162.255 49.5804 162.381L50.4791 165.854C48.2043 165.671 46.0061 164.95 44.067 163.75C35.9887 159.089 30.647 149.707 30.647 141.211C30.647 132.715 36.0392 129.634 44.178 134.325C52.0443 138.845 57.4062 147.895 57.4062 155.969ZM47.4295 151.127C47.4492 149.85 47.1367 148.59 46.5227 147.47C45.9086 146.35 45.0138 145.407 43.9256 144.734C41.906 143.557 40.462 144.382 40.462 147.12C40.4361 148.399 40.7412 149.662 41.3479 150.789C41.9546 151.916 42.8424 152.868 43.9256 153.553C45.9452 154.69 47.4295 153.955 47.4295 151.127Z" fill="white"/>
<path d="M72.9062 207.56L32.7472 184.407C32.2857 184.086 31.7503 183.886 31.1908 183.826C30.6312 183.766 30.0655 183.848 29.5462 184.065C29.4364 184.115 29.3316 184.176 29.2332 184.246L20.4985 189.35H20.5591C19.4585 189.974 18.7617 191.423 18.7617 193.487V238.002C18.7617 241.777 21.0539 246.146 23.8914 247.776L64.0504 270.93C64.5589 271.299 65.1658 271.511 65.7947 271.538C66.4235 271.565 67.0463 271.406 67.5847 271.081L67.514 271.141L76.188 266.057C77.319 265.463 78.0359 264.044 78.0359 261.88V217.325C78.0359 213.56 75.7841 209.191 72.9062 207.56Z" fill="#5600E2"/>
<path d="M76.6025 211.778C75.7928 210.054 74.5119 208.592 72.9067 207.56L32.7477 184.407C32.2862 184.086 31.7508 183.886 31.1912 183.826C30.6317 183.766 30.066 183.848 29.5467 184.065C29.4369 184.115 29.3321 184.176 29.2336 184.246L20.499 189.35C21.0321 189.075 21.6309 188.952 22.2295 188.995C22.8282 189.037 23.4034 189.244 23.8919 189.591L64.0509 212.745C65.7111 213.826 67.0252 215.36 67.8376 217.164L76.6025 211.778Z" fill="#EEE6FC"/>
<path d="M69.1808 267.024C69.1808 269.037 68.5345 270.436 67.5146 271.101L76.1887 266.017C77.3196 265.423 78.0366 264.004 78.0366 261.84V217.325C77.9938 215.391 77.503 213.492 76.6027 211.778L67.8378 217.154C68.6791 218.817 69.1379 220.647 69.1808 222.509V267.024Z" fill="#5600E2"/>
<path d="M69.1808 267.024C69.1808 269.037 68.5345 270.436 67.5146 271.101L76.1887 266.017C77.3196 265.423 78.0366 264.004 78.0366 261.84V217.325C77.9938 215.391 77.503 213.492 76.6027 211.778L67.8378 217.154C68.6791 218.817 69.1379 220.647 69.1808 222.509V267.024Z" fill="#EEE6FC"/>
<path d="M39.4822 227.462L29.7983 211.778V233.029L39.4822 227.462Z" fill="#5600E2"/>
<path d="M48.48 231.982L58.1436 248.662V227.442L48.48 231.982Z" fill="#5600E2"/>
<path d="M31.2632 211.063L41.2095 227.17C41.2516 227.205 41.289 227.246 41.3206 227.291C41.3294 227.331 41.3294 227.372 41.3206 227.412L44.2793 232.203L46.7835 231.025C46.8225 230.983 46.8666 230.946 46.9148 230.915C47.0135 230.857 47.124 230.823 47.2379 230.814L57.3358 226.093L31.2632 211.063Z" fill="#5600E2"/>
<path d="M47.0159 232.666L44.3097 233.935C44.2054 233.983 44.0914 234.007 43.9764 234.005C43.8371 234.007 43.6997 233.972 43.5776 233.905C43.4555 233.838 43.3529 233.741 43.2797 233.623L40.321 228.831L30.6069 234.428L56.7502 249.468L47.0159 232.666Z" fill="#5600E2"/>
<g opacity="0.9">
<path d="M39.4822 227.462L29.7983 211.778V233.029L39.4822 227.462Z" fill="white"/>
<path d="M48.48 231.982L58.1436 248.662V227.442L48.48 231.982Z" fill="white"/>
<path d="M31.2627 211.063L41.209 227.17C41.2512 227.205 41.2885 227.246 41.3201 227.291C41.3289 227.331 41.3289 227.372 41.3201 227.412L44.2788 232.203L46.783 231.026C46.822 230.983 46.8661 230.946 46.9143 230.915C47.013 230.857 47.1235 230.823 47.2374 230.814L57.3353 226.093L31.2627 211.063Z" fill="white"/>
<path d="M47.0159 232.666L44.3097 233.935C44.2054 233.983 44.0914 234.007 43.9764 234.005C43.8371 234.007 43.6997 233.972 43.5776 233.905C43.4555 233.838 43.3529 233.741 43.2797 233.623L40.321 228.831L30.6069 234.428L56.7502 249.468L47.0159 232.666Z" fill="white"/>
</g>
<path d="M72.9062 48.9907L32.7472 25.8374C32.2857 25.5164 31.7503 25.3166 31.1908 25.2568C30.6312 25.197 30.0655 25.279 29.5462 25.4952C29.4364 25.5457 29.3316 25.6064 29.2332 25.6764L20.4985 30.7802H20.5591C19.4585 31.3942 18.7617 32.8539 18.7617 34.9175V79.4322C18.7617 83.1971 21.0539 87.5761 23.8914 89.2069L64.0504 112.36C64.5589 112.73 65.1658 112.942 65.7947 112.969C66.4235 112.995 67.0463 112.836 67.5847 112.511L67.514 112.561L76.188 107.528C77.319 106.934 78.0359 105.515 78.0359 103.35V58.7251C78.0359 54.9602 75.7841 50.5812 72.9062 48.9907Z" fill="#5600E2"/>
<path d="M76.6025 53.1783C75.793 51.4512 74.5122 49.986 72.9067 48.9504L32.7477 25.8374C32.2862 25.5163 31.7508 25.3166 31.1912 25.2567C30.6317 25.1969 30.066 25.2789 29.5467 25.4951C29.4369 25.5457 29.3321 25.6063 29.2336 25.6763L20.499 30.7801C21.0321 30.5053 21.6309 30.3824 22.2295 30.4251C22.8282 30.4677 23.4034 30.6741 23.8919 31.0217L64.0509 54.1749C65.7111 55.2567 67.0252 56.7904 67.8376 58.5942L76.6025 53.1783Z" fill="#5600E2"/>
<path d="M69.1808 108.384C69.1808 110.397 68.5345 111.796 67.5146 112.41L76.1887 107.377C77.3196 106.783 78.0366 105.364 78.0366 103.199V58.7251C77.9938 56.7908 77.503 54.8924 76.6027 53.1784L67.8378 58.554C68.6791 60.2174 69.1379 62.047 69.1808 63.9094V108.384Z" fill="#5600E2"/>
<path d="M76.6025 53.1783C75.793 51.4512 74.5122 49.986 72.9067 48.9504L32.7477 25.8374C32.2862 25.5163 31.7508 25.3166 31.1912 25.2567C30.6317 25.1969 30.066 25.2789 29.5467 25.4951C29.4369 25.5457 29.3321 25.6063 29.2336 25.6763L20.499 30.7801C21.0321 30.5053 21.6309 30.3824 22.2295 30.4251C22.8282 30.4677 23.4034 30.6741 23.8919 31.0217L64.0509 54.1749C65.7111 55.2567 67.0252 56.7904 67.8376 58.5942L76.6025 53.1783Z" fill="#EEE6FC"/>
<path d="M69.1808 108.384C69.1808 110.397 68.5345 111.796 67.5146 112.41L76.1887 107.377C77.3196 106.783 78.0366 105.364 78.0366 103.199V58.7251C77.9938 56.7908 77.503 54.8924 76.6027 53.1784L67.8378 58.554C68.6791 60.2174 69.1379 62.047 69.1808 63.9094V108.384Z" fill="#EEE6FC"/>
<path d="M56.0424 89.2572C54.4975 86.7204 52.9424 84.2239 51.3974 81.667C51.1524 81.1827 50.8098 80.7539 50.3911 80.4075C49.9724 80.0611 49.4865 79.8045 48.9639 79.6537C48.2166 79.5027 47.4694 79.3315 46.7019 79.1101C46.4286 78.9964 46.1987 78.799 46.0456 78.5463C43.5175 74.2329 41.5076 69.6377 40.0576 64.8557C40.0267 64.7535 40.018 64.6459 40.0319 64.54C40.0458 64.4342 40.0821 64.3325 40.1384 64.2417C40.6129 63.7685 41.1481 63.3357 41.6328 62.9129C42.1175 62.4901 42.37 61.5136 42.0165 60.2452C41.2693 57.5574 40.5524 54.8696 39.8051 52.1919C39.6605 51.4311 39.3175 50.7216 38.8105 50.1349C38.3036 49.5482 37.6505 49.105 36.9172 48.8498C35.2888 48.3985 33.56 48.4618 31.9692 49.031C31.3533 49.2625 31.0301 49.8162 31.02 50.7725C31.2826 52.6147 31.4542 54.4368 31.8076 56.3091C34.2984 69.8118 40.2898 82.2274 49.7818 93.5557C50.0296 93.9313 50.3625 94.2437 50.7536 94.4675C51.1448 94.6913 51.5832 94.8203 52.0336 94.8442C53.605 94.807 55.1148 94.227 56.305 93.2033C57.2037 92.398 57.1128 90.9685 56.0424 89.2572Z" fill="#5600E2"/>
<path d="M55.9215 75.5364C55.7103 72.6409 54.9098 69.8186 53.5687 67.2415C52.5675 65.2283 51.2933 63.362 49.7821 61.6948C49.3882 61.2519 49.055 61.111 48.8531 61.4432C48.6511 61.7754 48.8531 62.2485 49.2368 62.6813L49.6306 63.1344C52.4216 66.3461 54.1806 70.3196 54.6795 74.5398C54.6746 74.8476 54.7051 75.155 54.7704 75.4559C54.8972 75.8021 55.1009 76.1152 55.3662 76.372C55.5782 76.523 55.8206 76.372 55.9922 76.372C55.9316 75.9592 55.9417 75.7478 55.9215 75.5364Z" fill="#5600E2"/>
<path d="M46.7729 67.2716C48.041 68.662 48.8115 70.4319 48.9642 72.3049C49.0307 72.5897 49.136 72.864 49.2772 73.1203C49.8932 73.6236 50.1961 73.4525 50.1961 72.8183C49.9802 70.4168 48.9839 68.1511 47.3586 66.3656C46.9749 65.973 46.6619 65.8522 46.4801 66.1844C46.4147 66.3741 46.4077 66.5789 46.4598 66.7726C46.512 66.9663 46.621 67.1401 46.7729 67.2716Z" fill="#5600E2"/>
<g opacity="0.9">
<path d="M56.0424 89.2572C54.4975 86.7204 52.9424 84.2239 51.3974 81.667C51.1524 81.1827 50.8098 80.7539 50.3911 80.4075C49.9724 80.0611 49.4865 79.8045 48.9639 79.6537C48.2166 79.5027 47.4694 79.3315 46.7019 79.1101C46.4286 78.9964 46.1987 78.799 46.0456 78.5463C43.5175 74.2329 41.5076 69.6377 40.0576 64.8557C40.0267 64.7535 40.018 64.6459 40.0319 64.54C40.0458 64.4342 40.0821 64.3325 40.1384 64.2417C40.6129 63.7685 41.1481 63.3357 41.6328 62.9129C42.1175 62.4901 42.37 61.5136 42.0165 60.2452C41.2693 57.5574 40.5524 54.8696 39.8051 52.1919C39.6605 51.4311 39.3175 50.7216 38.8105 50.1349C38.3036 49.5482 37.6505 49.105 36.9172 48.8498C35.2888 48.3985 33.56 48.4618 31.9692 49.031C31.3533 49.2625 31.0301 49.8162 31.02 50.7725C31.2826 52.6147 31.4542 54.4368 31.8076 56.3091C34.2984 69.8118 40.2898 82.2274 49.7818 93.5557C50.0296 93.9313 50.3625 94.2437 50.7536 94.4675C51.1448 94.6913 51.5832 94.8203 52.0336 94.8442C53.605 94.807 55.1148 94.227 56.305 93.2033C57.2037 92.398 57.1128 90.9685 56.0424 89.2572Z" fill="white"/>
<path d="M55.9215 75.5364C55.7103 72.6408 54.9098 69.8185 53.5687 67.2415C52.5675 65.2283 51.2933 63.3619 49.7821 61.6948C49.3882 61.2518 49.055 61.1109 48.8531 61.4431C48.6511 61.7753 48.8531 62.2484 49.2368 62.6813L49.6306 63.1343C52.4216 66.3461 54.1806 70.3196 54.6795 74.5398C54.6746 74.8476 54.7051 75.155 54.7704 75.4558C54.8972 75.802 55.1009 76.1152 55.3662 76.3719C55.5782 76.5229 55.8206 76.3719 55.9922 76.3719C55.9316 75.9592 55.9417 75.7478 55.9215 75.5364Z" fill="white"/>
<path d="M46.7729 67.2717C48.041 68.6621 48.8115 70.432 48.9642 72.305C49.0307 72.5898 49.136 72.8641 49.2772 73.1204C49.8932 73.6237 50.1961 73.4526 50.1961 72.8184C49.9802 70.4169 48.9839 68.1513 47.3586 66.3657C46.9749 65.9731 46.6619 65.8523 46.4801 66.1845C46.4147 66.3742 46.4077 66.579 46.4598 66.7727C46.512 66.9664 46.621 67.1402 46.7729 67.2717Z" fill="white"/>
</g>
<path d="M278.953 22.2941L288.414 27.6596V24.3175C288.414 24.0859 288.414 23.8443 288.414 23.6128C288.414 23.3813 288.414 23.1598 288.414 22.9383V22.8175C288.758 18.3983 292.12 16.697 296.22 19.0627C298.076 20.2008 299.667 21.7212 300.885 23.5222C301.804 17.4822 306.722 15.3481 312.669 18.7607C319.273 22.5659 324.625 31.8473 324.625 39.4174V46.5647C324.616 47.1364 324.757 47.7006 325.036 48.2006C325.314 48.7006 325.719 49.1189 326.211 49.4136L331.785 52.6651C332.988 53.3761 333.985 54.3863 334.679 55.5968C335.372 56.8073 335.739 58.1766 335.743 59.5708C335.743 60.1492 335.59 60.7174 335.3 61.2183C335.01 61.7191 334.593 62.1349 334.09 62.4238C333.587 62.7126 333.017 62.8643 332.437 62.8636C331.857 62.8629 331.287 62.7097 330.785 62.4196L279.094 32.6325C277.723 31.8386 276.584 30.7008 275.79 29.3321C274.997 27.9635 274.576 26.4117 274.57 24.8309C274.57 24.3192 274.704 23.8163 274.96 23.3727C275.216 22.9292 275.584 22.5604 276.028 22.3035C276.472 22.0465 276.976 21.9104 277.489 21.9088C278.003 21.9071 278.507 22.04 278.953 22.2941Z" fill="#EEEEEE" fill-opacity="0.5"/>
<path d="M351.081 20.895L357.958 24.831V22.3747C357.958 22.2036 357.958 22.0325 357.958 21.8613C357.958 21.6902 357.958 21.5292 357.958 21.3681V21.3077C358.21 18.0964 360.654 16.8582 363.633 18.5796C364.982 19.4036 366.138 20.5053 367.026 21.811C367.702 17.4421 371.277 15.8616 375.599 18.3481C380.405 21.1164 384.293 27.8409 384.293 33.3675V38.572C384.297 38.9799 384.406 39.38 384.612 39.7329C384.817 40.0858 385.111 40.3796 385.464 40.5853L389.503 42.9509C390.382 43.4662 391.11 44.202 391.615 45.0851C392.12 45.9682 392.384 46.9678 392.381 47.9842C392.381 48.4006 392.271 48.8095 392.064 49.1708C391.856 49.5322 391.558 49.8333 391.198 50.0447C390.838 50.256 390.429 50.3703 390.012 50.3761C389.594 50.382 389.182 50.2793 388.817 50.0781L351.182 28.4147C350.185 27.8396 349.357 27.0133 348.781 26.0186C348.205 25.0239 347.901 23.8957 347.9 22.7472C347.9 22.3755 347.997 22.0101 348.182 21.6875C348.367 21.3649 348.634 21.0965 348.956 20.909C349.278 20.7215 349.644 20.6215 350.017 20.6191C350.39 20.6166 350.757 20.7117 351.081 20.895Z" fill="#EEEEEE" fill-opacity="0.5"/>
</svg>
