<svg width="65" height="64" viewBox="0 0 65 64" fill="none" xmlns="http://www.w3.org/2000/svg">
<path d="M32.5 43.5467C26.1267 43.5467 20.9534 38.3733 20.9534 32C20.9534 25.6267 26.1267 20.4533 32.5 20.4533C38.8734 20.4533 44.0467 25.6267 44.0467 32C44.0467 38.3733 38.8734 43.5467 32.5 43.5467ZM32.5 24.4533C28.34 24.4533 24.9534 27.84 24.9534 32C24.9534 36.16 28.34 39.5467 32.5 39.5467C36.66 39.5467 40.0467 36.16 40.0467 32C40.0467 27.84 36.66 24.4533 32.5 24.4533Z" fill="#5600E2"/>
<path d="M32.4999 56.0533C22.4732 56.0533 13.0065 50.1867 6.49988 40C3.67322 35.6 3.67322 28.4267 6.49988 24C13.0332 13.8133 22.4999 7.94666 32.4999 7.94666C42.4999 7.94666 51.9666 13.8133 58.4732 24C61.2999 28.4 61.2999 35.5733 58.4732 40C51.9666 50.1867 42.4999 56.0533 32.4999 56.0533ZM32.4999 11.9467C23.8866 11.9467 15.6466 17.12 9.88655 26.16C7.88655 29.28 7.88655 34.72 9.88655 37.84C15.6466 46.88 23.8866 52.0533 32.4999 52.0533C41.1132 52.0533 49.3532 46.88 55.1132 37.84C57.1132 34.72 57.1132 29.28 55.1132 26.16C49.3532 17.12 41.1132 11.9467 32.4999 11.9467Z" fill="#5600E2"/>
</svg>
