<svg width="319" height="1038" viewBox="0 0 319 1038" fill="none" xmlns="http://www.w3.org/2000/svg">
<g opacity="0.15">
<circle cx="530.5" cy="530.5" r="528" stroke="white" stroke-width="5"/>
<path d="M975.5 530.5C975.5 776.264 776.046 975.5 530 975.5C283.955 975.5 84.5 776.264 84.5 530.5C84.5 284.736 283.955 85.5 530 85.5C776.046 85.5 975.5 284.736 975.5 530.5Z" stroke="white" stroke-width="5"/>
<path d="M903.5 530.5C903.5 737.058 736.275 904.5 530 904.5C323.725 904.5 156.5 737.058 156.5 530.5C156.5 323.942 323.725 156.5 530 156.5C736.275 156.5 903.5 323.942 903.5 530.5Z" stroke="white" stroke-width="5"/>
<circle cx="530.5" cy="531.5" r="317" stroke="white" stroke-width="5"/>
</g>
</svg>
