<svg width="362" height="1140" viewBox="0 0 362 1140" fill="none" xmlns="http://www.w3.org/2000/svg">
<g opacity="0.2" clip-path="url(#clip0_230_17815)">
<circle cx="-203.5" cy="565.5" r="562.835" stroke="#CBB0F6" stroke-opacity="0.4" stroke-width="5.32988"/>
<path d="M270.76 565.499C270.76 827.421 58.1893 1039.76 -204.036 1039.76C-466.262 1039.76 -678.833 827.421 -678.833 565.499C-678.833 303.577 -466.262 91.2428 -204.036 91.2428C58.1893 91.2428 270.76 303.577 270.76 565.499Z" stroke="#CBB0F6" stroke-opacity="0.4" stroke-width="5.32988"/>
<path d="M194.057 565.501C194.057 785.668 15.8182 964.142 -204.043 964.142C-423.904 964.142 -602.143 785.668 -602.143 565.501C-602.143 345.335 -423.904 166.861 -204.043 166.861C15.8182 166.861 194.057 345.335 194.057 565.501Z" stroke="#CBB0F6" stroke-opacity="0.4" stroke-width="5.32988"/>
<circle cx="-203.5" cy="566.579" r="338.147" stroke="#CBB0F6" stroke-opacity="0.4" stroke-width="5.32988"/>
</g>
<defs>
<clipPath id="clip0_230_17815">
<rect width="1131" height="1139.62" fill="white" transform="translate(-769)"/>
</clipPath>
</defs>
</svg>
