<svg width="156" height="424" viewBox="0 0 156 424" fill="none" xmlns="http://www.w3.org/2000/svg">
<g opacity="0.15" clip-path="url(#clip0_116_7691)">
<circle cx="-170.786" cy="326.214" r="324.676" stroke="white" stroke-width="3.07459"/>
<path d="M102.852 326.214C102.852 477.338 -19.796 599.852 -171.094 599.852C-322.391 599.852 -445.039 477.338 -445.039 326.214C-445.039 175.089 -322.391 52.5754 -171.094 52.5754C-19.796 52.5754 102.852 175.089 102.852 326.214Z" stroke="white" stroke-width="3.07459"/>
<path d="M58.5781 326.214C58.5781 453.23 -44.2514 556.193 -171.094 556.193C-297.936 556.193 -400.765 453.23 -400.765 326.214C-400.765 199.198 -297.936 96.2346 -171.094 96.2346C-44.2514 96.2346 58.5781 199.198 58.5781 326.214Z" stroke="white" stroke-width="3.07459"/>
<circle cx="-170.786" cy="326.829" r="194.929" stroke="white" stroke-width="3.07459"/>
</g>
<defs>
<clipPath id="clip0_116_7691">
<rect width="652.428" height="709" fill="white" transform="translate(-497)"/>
</clipPath>
</defs>
</svg>
