<svg width="630" height="850" viewBox="0 0 630 850" fill="none" xmlns="http://www.w3.org/2000/svg">
<g clip-path="url(#clip0_11_17109)">
<rect width="630" height="850" fill="#5600E2"/>
<g opacity="0.15">
<circle cx="800.5" cy="-165.5" r="528" stroke="white" stroke-width="5"/>
<path d="M1245.5 -165.5C1245.5 80.264 1046.05 279.5 800 279.5C553.955 279.5 354.5 80.264 354.5 -165.5C354.5 -411.264 553.955 -610.5 800 -610.5C1046.05 -610.5 1245.5 -411.264 1245.5 -165.5Z" stroke="white" stroke-width="5"/>
<path d="M1173.5 -165.5C1173.5 41.0576 1006.28 208.5 800 208.5C593.725 208.5 426.5 41.0576 426.5 -165.5C426.5 -372.058 593.725 -539.5 800 -539.5C1006.28 -539.5 1173.5 -372.058 1173.5 -165.5Z" stroke="white" stroke-width="5"/>
<circle cx="800.5" cy="-164.5" r="317" stroke="white" stroke-width="5"/>
</g>
<g opacity="0.15">
<circle cx="-222.5" cy="947.5" r="528" stroke="white" stroke-width="5"/>
<path d="M222.5 947.5C222.5 1193.26 23.0455 1392.5 -223 1392.5C-469.045 1392.5 -668.5 1193.26 -668.5 947.5C-668.5 701.736 -469.045 502.5 -223 502.5C23.0455 502.5 222.5 701.736 222.5 947.5Z" stroke="white" stroke-width="5"/>
<path d="M150.5 947.5C150.5 1154.06 -16.7248 1321.5 -223 1321.5C-429.275 1321.5 -596.5 1154.06 -596.5 947.5C-596.5 740.942 -429.275 573.5 -223 573.5C-16.7248 573.5 150.5 740.942 150.5 947.5Z" stroke="white" stroke-width="5"/>
<circle cx="-222.5" cy="948.5" r="317" stroke="white" stroke-width="5"/>
</g>
</g>
<defs>
<clipPath id="clip0_11_17109">
<rect width="630" height="850" fill="white"/>
</clipPath>
</defs>
</svg>
