<svg width="48" height="48" viewBox="0 0 48 48" fill="none" xmlns="http://www.w3.org/2000/svg">
<path d="M19.9802 45.5C19.5802 45.5 19.2602 45.42 19.0202 45.32C18.2202 45.02 16.8602 44.04 16.8602 40.94V28.04H12.1802C9.50016 28.04 8.54016 26.78 8.20016 26.04C7.86016 25.28 7.56016 23.74 9.32016 21.72L24.4602 4.52001C26.5002 2.20001 28.1602 2.36001 28.9602 2.66001C29.7602 2.96001 31.1202 3.94001 31.1202 7.04001V19.94H35.8002C38.4802 19.94 39.4402 21.2 39.7802 21.94C40.1202 22.7 40.4202 24.24 38.6602 26.26L23.5202 43.46C22.1002 45.08 20.8602 45.5 19.9802 45.5ZM27.8602 5.48001C27.8002 5.56001 27.3802 5.76001 26.7202 6.52001L11.5802 23.72C11.0202 24.36 10.9402 24.76 10.9402 24.84C10.9802 24.86 11.3402 25.06 12.1802 25.06H18.3602C19.1802 25.06 19.8602 25.74 19.8602 26.56V40.96C19.8602 41.96 20.0402 42.4 20.1202 42.52C20.1802 42.44 20.6002 42.24 21.2602 41.48L36.4002 24.28C36.9602 23.64 37.0402 23.24 37.0402 23.16C37.0002 23.14 36.6402 22.94 35.8002 22.94H29.6202C28.8002 22.94 28.1202 22.26 28.1202 21.44V7.04001C28.1402 6.04001 27.9402 5.62001 27.8602 5.48001Z" fill="#3D00A0"/>
</svg>
