<svg width="24" height="24" viewBox="0 0 24 24" fill="none" xmlns="http://www.w3.org/2000/svg">
<path d="M12.0001 0.0151367C5.3735 0.0151367 0 5.51658 0 12.3032C0 17.7324 3.43839 22.3385 8.2064 23.9634C8.80613 24.0771 9.02631 23.6968 9.02631 23.3723C9.02631 23.0792 9.01518 22.1113 9.01001 21.0845C5.67157 21.8278 4.96712 19.6346 4.96712 19.6346C4.42125 18.2143 3.63473 17.8366 3.63473 17.8366C2.54596 17.074 3.7168 17.0896 3.7168 17.0896C4.92181 17.1763 5.55632 18.3559 5.55632 18.3559C6.6266 20.2345 8.36359 19.6914 9.04836 19.3774C9.15607 18.5832 9.46706 18.0411 9.81024 17.7343C7.14486 17.4236 4.34295 16.3699 4.34295 11.6614C4.34295 10.3199 4.81172 9.22368 5.57937 8.36314C5.45477 8.05364 5.04402 6.80383 5.69562 5.11124C5.69562 5.11124 6.70331 4.78098 8.9965 6.37081C9.95372 6.09855 10.9803 5.96201 12.0001 5.95733C13.0199 5.96201 14.0473 6.09855 15.0063 6.37081C17.2967 4.78098 18.303 5.11124 18.303 5.11124C18.9562 6.80383 18.5452 8.05364 18.4206 8.36314C19.1901 9.22368 19.6557 10.3199 19.6557 11.6614C19.6557 16.3811 16.8484 17.4203 14.1762 17.7245C14.6067 18.1058 14.9902 18.8537 14.9902 20.0001C14.9902 21.6443 14.9763 22.9675 14.9763 23.3723C14.9763 23.6993 15.1923 24.0824 15.8006 23.9618C20.566 22.3351 24 17.7306 24 12.3032C24 5.51658 18.6273 0.0151367 12.0001 0.0151367ZM4.49443 17.5198C4.468 17.5808 4.3742 17.5992 4.28876 17.5572C4.20172 17.5172 4.15283 17.4339 4.18105 17.3727C4.20688 17.3098 4.30088 17.2923 4.38772 17.3344C4.47495 17.3745 4.52463 17.4585 4.49443 17.5198ZM5.0847 18.0591C5.02747 18.1135 4.91559 18.0882 4.83968 18.0024C4.76119 17.9167 4.74648 17.8021 4.80451 17.747C4.86353 17.6927 4.97203 17.7181 5.05072 17.8038C5.12921 17.8904 5.14451 18.0042 5.0847 18.0591ZM5.48965 18.7492C5.41612 18.8015 5.2959 18.7524 5.22158 18.6432C5.14805 18.5339 5.14805 18.4029 5.22317 18.3504C5.29769 18.2979 5.41612 18.3451 5.49144 18.4535C5.56476 18.5646 5.56476 18.6957 5.48965 18.7492ZM6.1745 19.5484C6.10873 19.6226 5.96863 19.6027 5.86609 19.5014C5.76117 19.4023 5.73196 19.2617 5.79793 19.1874C5.8645 19.1129 6.00539 19.1339 6.10873 19.2344C6.21285 19.3333 6.24465 19.4749 6.1745 19.5484ZM7.05961 19.8182C7.0306 19.9144 6.89567 19.9582 6.75975 19.9173C6.62402 19.8751 6.5352 19.7624 6.56262 19.6651C6.59084 19.5683 6.72636 19.5227 6.86328 19.5665C6.9988 19.6084 7.08783 19.7203 7.05961 19.8182ZM8.0669 19.9326C8.07028 20.0339 7.95502 20.118 7.81235 20.1198C7.66887 20.1231 7.55282 20.0411 7.55123 19.9414C7.55123 19.839 7.6639 19.7558 7.80738 19.7533C7.95006 19.7505 8.0669 19.8319 8.0669 19.9326ZM9.05645 19.8938C9.07354 19.9927 8.97438 20.0942 8.8327 20.1213C8.6934 20.1473 8.56443 20.0863 8.54674 19.9882C8.52946 19.8868 8.6304 19.7853 8.7695 19.7591C8.91139 19.7338 9.03837 19.7932 9.05645 19.8938Z" fill="#161614"/>
</svg>
