<svg width="22" height="22" viewBox="0 0 22 22" fill="none" xmlns="http://www.w3.org/2000/svg">
<path d="M6.85667 16.8208L9.69833 19.0208C10.065 19.3874 10.89 19.5708 11.44 19.5708H14.9233C16.0233 19.5708 17.215 18.7458 17.49 17.6458L19.69 10.9541C20.1483 9.67076 19.3233 8.57076 17.9483 8.57076H14.2817C13.7317 8.57076 13.2733 8.11243 13.365 7.47076L13.8233 4.53743C14.0067 3.71243 13.4567 2.79576 12.6317 2.52076C11.8983 2.24576 10.9817 2.61243 10.615 3.16243L6.85667 8.7541" stroke="#5600E2" stroke-width="1.5" stroke-miterlimit="10"/>
<path d="M2.18166 16.8207V7.83737C2.18166 6.55404 2.73166 6.0957 4.015 6.0957H4.93166C6.215 6.0957 6.765 6.55404 6.765 7.83737V16.8207C6.765 18.104 6.215 18.5624 4.93166 18.5624H4.015C2.73166 18.5624 2.18166 18.104 2.18166 16.8207Z" stroke="#5600E2" stroke-width="1.5" stroke-linecap="round" stroke-linejoin="round"/>
</svg>
