<svg width="65" height="64" viewBox="0 0 65 64" fill="none" xmlns="http://www.w3.org/2000/svg">
<path d="M21.8333 59.5198C21.0866 59.5198 20.3132 59.3332 19.6199 58.9599C18.0999 58.1599 17.1666 56.5598 17.1666 54.8531V51.0667C9.11325 50.24 3.83325 44.3198 3.83325 35.8398V19.8399C3.83325 10.6666 9.99325 4.50659 19.1666 4.50659H45.8332C55.0066 4.50659 61.1666 10.6666 61.1666 19.8399V35.8398C61.1666 45.0131 55.0066 51.1731 45.8332 51.1731H35.7799L24.4198 58.7467C23.6465 59.2533 22.7399 59.5198 21.8333 59.5198ZM19.1666 8.4799C12.2866 8.4799 7.83325 12.9332 7.83325 19.8132V35.8134C7.83325 42.6934 12.2866 47.1467 19.1666 47.1467C20.2599 47.1467 21.1666 48.0534 21.1666 49.1467V54.8267C21.1666 55.1734 21.3799 55.3333 21.5133 55.4133C21.6466 55.4933 21.9133 55.5733 22.2066 55.3866L34.0733 47.4934C34.3933 47.2801 34.7933 47.1467 35.1933 47.1467H45.8599C52.7399 47.1467 57.1933 42.6934 57.1933 35.8134V19.8132C57.1933 12.9332 52.7399 8.4799 45.8599 8.4799H19.1666Z" fill="#5600E2" fill-opacity="0.7"/>
<path d="M32.4996 32.2932C31.4063 32.2932 30.4996 31.3865 30.4996 30.2932V29.7333C30.4996 26.64 32.7662 25.12 33.6195 24.5333C34.6062 23.8666 34.9262 23.4133 34.9262 22.72C34.9262 21.3866 33.8329 20.2932 32.4996 20.2932C31.1663 20.2932 30.073 21.3866 30.073 22.72C30.073 23.8133 29.1663 24.72 28.073 24.72C26.9797 24.72 26.073 23.8133 26.073 22.72C26.073 19.1733 28.9529 16.2932 32.4996 16.2932C36.0463 16.2932 38.9262 19.1733 38.9262 22.72C38.9262 25.76 36.6863 27.2799 35.8596 27.8399C34.8196 28.5333 34.4996 28.9867 34.4996 29.7333V30.2932C34.4996 31.4132 33.5929 32.2932 32.4996 32.2932Z" fill="#5600E2" fill-opacity="0.7"/>
<path d="M32.5 38.9333C31.38 38.9333 30.5 38.0267 30.5 36.9333C30.5 35.84 31.4067 34.9333 32.5 34.9333C33.5933 34.9333 34.5 35.84 34.5 36.9333C34.5 38.0267 33.62 38.9333 32.5 38.9333Z" fill="#5600E2" fill-opacity="0.7"/>
</svg>
