<svg width="263" height="1725" viewBox="0 0 263 1725" fill="none" xmlns="http://www.w3.org/2000/svg">
<g clip-path="url(#clip0_745_28023)">
<circle cx="-302.5" cy="566.35" r="562.835" stroke="#CBB0F6" stroke-opacity="0.15" stroke-width="5.32988"/>
<path d="M172.335 566.85C172.335 828.815 -40.2532 1041.18 -302.5 1041.18C-564.747 1041.18 -777.335 828.815 -777.335 566.85C-777.335 304.884 -564.747 92.5145 -302.5 92.5145C-40.2532 92.5145 172.335 304.884 172.335 566.85Z" stroke="#CBB0F6" stroke-opacity="0.15" stroke-width="5.32988"/>
<path d="M95.3351 566.35C95.3351 786.623 -83.0087 965.185 -303 965.185C-522.991 965.185 -701.335 786.623 -701.335 566.35C-701.335 346.076 -522.991 167.515 -303 167.515C-83.0087 167.515 95.3351 346.076 95.3351 566.35Z" stroke="#CBB0F6" stroke-opacity="0.15" stroke-width="5.32988"/>
<circle cx="-302" cy="567.85" r="338.335" stroke="#CBB0F6" stroke-opacity="0.15" stroke-width="5.32988"/>
</g>
<defs>
<clipPath id="clip0_745_28023">
<rect width="1131" height="1723.17" fill="white" transform="translate(-868 0.849609)"/>
</clipPath>
</defs>
</svg>
