<svg width="254" height="451" viewBox="0 0 254 451" fill="none" xmlns="http://www.w3.org/2000/svg">
<g opacity="0.15">
<circle cx="530.5" cy="-172.5" r="528" stroke="white" stroke-width="5"/>
<path d="M975.406 -172.501C975.406 73.21 775.992 272.403 529.996 272.403C284 272.403 84.5859 73.21 84.5859 -172.501C84.5859 -418.212 284 -617.404 529.996 -617.404C775.992 -617.404 975.406 -418.212 975.406 -172.501Z" stroke="white" stroke-width="5"/>
<path d="M903.451 -172.499C903.451 34.0409 736.244 201.469 529.99 201.469C323.737 201.469 156.529 34.0409 156.529 -172.499C156.529 -379.039 323.737 -546.466 529.99 -546.466C736.244 -546.466 903.451 -379.039 903.451 -172.499Z" stroke="white" stroke-width="5"/>
<circle cx="530.5" cy="-171.488" r="317.219" stroke="white" stroke-width="5"/>
</g>
</svg>
